<svg id="visual" viewBox="0 0 3440 2160" width="3440" height="2160" xmlns="http://www.w3.org/2000/svg" xmlns:xlink="http://www.w3.org/1999/xlink" version="1.1"><rect x="0" y="0" width="3440" height="2160" fill="#fff"></rect><g fill="none" stroke="#eaeaff" stroke-width="1"><circle r="107" cx="1151" cy="444"></circle><circle r="26" cx="1551" cy="1386"></circle><circle r="95" cx="3246" cy="2001"></circle><circle r="68" cx="3108" cy="1154"></circle><circle r="35" cx="922" cy="2075"></circle><circle r="81" cx="1618" cy="940"></circle><circle r="80" cx="506" cy="717"></circle><circle r="76" cx="2057" cy="1202"></circle><circle r="68" cx="2321" cy="803"></circle><circle r="69" cx="2493" cy="132"></circle><circle r="103" cx="1005" cy="753"></circle><circle r="103" cx="1952" cy="2015"></circle><circle r="57" cx="890" cy="141"></circle><circle r="64" cx="688" cy="1241"></circle><circle r="81" cx="1559" cy="63"></circle><circle r="78" cx="1656" cy="476"></circle><circle r="51" cx="2679" cy="2135"></circle><circle r="31" cx="76" cy="2102"></circle><circle r="99" cx="2697" cy="870"></circle><circle r="71" cx="3421" cy="296"></circle><circle r="57" cx="1375" cy="1076"></circle><circle r="88" cx="1990" cy="348"></circle><circle r="43" cx="339" cy="1408"></circle><circle r="36" cx="3343" cy="1506"></circle><circle r="83" cx="1992" cy="597"></circle><circle r="50" cx="90" cy="1275"></circle><circle r="102" cx="3318" cy="1064"></circle><circle r="42" cx="350" cy="998"></circle><circle r="61" cx="3259" cy="453"></circle><circle r="61" cx="1211" cy="1222"></circle><circle r="87" cx="567" cy="495"></circle><circle r="36" cx="499" cy="58"></circle><circle r="72" cx="3120" cy="658"></circle><circle r="73" cx="1472" cy="690"></circle><circle r="32" cx="2097" cy="897"></circle><circle r="31" cx="1424" cy="1870"></circle><circle r="91" cx="690" cy="879"></circle><circle r="57" cx="2440" cy="508"></circle><circle r="95" cx="1124" cy="1451"></circle><circle r="97" cx="301" cy="2067"></circle><circle r="53" cx="2978" cy="195"></circle><circle r="55" cx="2608" cy="1469"></circle><circle r="97" cx="3114" cy="1807"></circle><circle r="72" cx="805" cy="1758"></circle><circle r="46" cx="1272" cy="1660"></circle><circle r="89" cx="903" cy="1304"></circle><circle r="37" cx="2163" cy="2"></circle><circle r="45" cx="775" cy="612"></circle><circle r="44" cx="2966" cy="929"></circle><circle r="62" cx="1895" cy="1415"></circle><circle r="96" cx="696" cy="1999"></circle><circle r="47" cx="623" cy="253"></circle><circle r="82" cx="1650" cy="1701"></circle><circle r="105" cx="214" cy="83"></circle><circle r="76" cx="429" cy="1706"></circle><circle r="42" cx="195" cy="567"></circle><circle r="30" cx="73" cy="941"></circle><circle r="71" cx="351" cy="269"></circle><circle r="88" cx="1659" cy="2023"></circle><circle r="47" cx="2184" cy="1591"></circle><circle r="35" cx="1389" cy="408"></circle><circle r="76" cx="97" cy="1530"></circle><circle r="76" cx="1184" cy="894"></circle><circle r="26" cx="2199" cy="1373"></circle><circle r="104" cx="2265" cy="2040"></circle><circle r="67" cx="2670" cy="628"></circle><circle r="32" cx="1838" cy="191"></circle><circle r="78" cx="2235" cy="1819"></circle><circle r="84" cx="2786" cy="1232"></circle><circle r="96" cx="2828" cy="1524"></circle><circle r="34" cx="143" cy="1749"></circle><circle r="70" cx="32" cy="279"></circle><circle r="46" cx="2681" cy="317"></circle><circle r="54" cx="2522" cy="1217"></circle><circle r="80" cx="2963" cy="2116"></circle><circle r="30" cx="3100" cy="1411"></circle><circle r="93" cx="1127" cy="39"></circle><circle r="80" cx="889" cy="371"></circle><circle r="72" cx="1084" cy="1883"></circle><circle r="27" cx="2310" cy="1123"></circle><circle r="39" cx="2578" cy="1725"></circle><circle r="43" cx="2018" cy="1771"></circle><circle r="37" cx="1709" cy="689"></circle><circle r="46" cx="1333" cy="160"></circle><circle r="38" cx="3250" cy="8"></circle><circle r="47" cx="3182" cy="869"></circle><circle r="43" cx="597" cy="1494"></circle><circle r="66" cx="3435" cy="1828"></circle><circle r="103" cx="2188" cy="493"></circle><circle r="39" cx="933" cy="1030"></circle><circle r="64" cx="1848" cy="871"></circle><circle r="75" cx="2841" cy="468"></circle><circle r="29" cx="1392" cy="2136"></circle><circle r="70" cx="3438" cy="585"></circle><circle r="36" cx="468" cy="1184"></circle><circle r="92" cx="1633" cy="1176"></circle><circle r="96" cx="2317" cy="288"></circle><circle r="61" cx="2854" cy="1841"></circle><circle r="62" cx="934" cy="1572"></circle><circle r="34" cx="3418" cy="811"></circle><circle r="36" cx="3423" cy="1258"></circle><circle r="35" cx="2814" cy="14"></circle><circle r="52" cx="2886" cy="704"></circle><circle r="65" cx="2491" cy="2003"></circle><circle r="57" cx="1135" cy="2141"></circle><circle r="87" cx="4" cy="719"></circle><circle r="99" cx="3400" cy="2158"></circle><circle r="42" cx="3196" cy="223"></circle><circle r="89" cx="2470" cy="966"></circle><circle r="78" cx="234" cy="795"></circle><circle r="75" cx="1251" cy="640"></circle><circle r="43" cx="1858" cy="1098"></circle><circle r="54" cx="477" cy="1938"></circle><circle r="105" cx="2396" cy="1532"></circle></g></svg>