<?xml version="1.0" encoding="UTF-8"?>
<svg id="Layer_2" data-name="Layer 2" xmlns="http://www.w3.org/2000/svg" viewBox="0 0 409.44 400.06">
  <defs>
    <style>
      .cls-1, .cls-2 {
        fill: #00b09b;
      }

      .cls-2 {
        stroke-miterlimit: 10;
      }

      .cls-2, .cls-3 {
        stroke: #00b09b;
      }

      .cls-3 {
        fill: none;
        stroke-linecap: round;
        stroke-linejoin: round;
        stroke-width: 15px;
      }
    </style>
  </defs>
  <g id="Layer_1-2" data-name="Layer 1">
    <path class="cls-3" d="m401.94,311.43v-23.15c0-3.44-2.79-6.22-6.22-6.22h-14.17c-1.88-7.62-4.92-14.77-8.95-21.26l9.96-9.96c2.43-2.43,2.43-6.37,0-8.8l-16.37-16.37c-2.43-2.43-6.37-2.43-8.8,0l-10.23,10.23c-6.12-3.62-12.81-6.38-19.9-8.13v-14.5c0-3.44-2.79-6.22-6.22-6.22h-23.15c-3.44,0-6.22,2.79-6.22,6.22v14.5c-7.13,1.76-13.85,4.54-20,8.19l-10.29-10.29c-2.43-2.43-6.37-2.43-8.8,0l-16.37,16.37c-2.43,2.43-2.43,6.37,0,8.8l10.05,10.05c-4.06,6.57-7.11,13.82-8.97,21.55l-14.63-.27c-3.48-.06-6.34,2.74-6.34,6.22v23.03c0,3.44,2.79,6.22,6.22,6.22h14.74s4.84,14.43,8.83,20.95l-10.48,10.27c-2.47,2.42-2.49,6.4-.04,8.85l16.32,16.32c2.43,2.43,6.37,2.43,8.8,0l10.42-10.42s13.03,6.48,20.52,8.32v14.39c0,3.44,2.79,6.22,6.22,6.22h23.15c3.44,0,6.22-2.79,6.22-6.22v-14.39c7.58-1.87,14.7-4.89,21.16-8.88l9.98,9.97c2.43,2.43,6.37,2.43,8.8,0l16.37-16.37c2.43-2.43,2.43-6.37,0-8.8l-10.21-10.21c3.65-6.15,6.43-12.87,8.18-20h14.17c3.44,0,6.22-2.79,6.22-6.22Z"/>
    <circle class="cls-3" cx="309.14" cy="299.81" r="42.89"/>
    <path class="cls-3" d="m186.1,305.11H37.82c-16.75,0-30.32-13.58-30.32-30.32V37.82c0-16.75,13.58-30.32,30.32-30.32h308.59c16.75,0,30.32,13.58,30.32,30.32v161.86"/>
    <line class="cls-3" x1="7.5" y1="91.76" x2="376.74" y2="91.76"/>
    <path class="cls-1" d="m70.14,50.56c0-9.39-7.61-17.01-17.01-17.01s-17.01,7.61-17.01,17.01,7.61,17.01,17.01,17.01,17.01-7.61,17.01-17.01Z"/>
    <path class="cls-2" d="m121.58,50.56c0-9.39-7.61-17.01-17.01-17.01s-17.01,7.61-17.01,17.01,7.61,17.01,17.01,17.01,17.01-7.61,17.01-17.01Z"/>
    <polyline class="cls-3" points="75.07 151.24 44.77 184.35 75.07 217.45"/>
    <polyline class="cls-3" points="183.36 151.24 213.66 184.35 183.36 217.45"/>
    <line class="cls-3" x1="140.7" y1="142.73" x2="119.89" y2="224.08"/>
  </g>
</svg>