<?xml version="1.0" encoding="UTF-8"?>
<svg id="Layer_2" data-name="Layer 2" xmlns="http://www.w3.org/2000/svg" viewBox="0 0 389.37 389.37">
  <defs>
    <style>
      .cls-1 {
        fill: none;
        stroke: #ff7bac;
        stroke-linecap: round;
        stroke-linejoin: round;
        stroke-width: 15px;
      }
    </style>
  </defs>
  <g id="Layer_1-2" data-name="Layer 1">
    <g>
      <g>
        <polyline class="cls-1" points="284.03 309.81 284.03 240.68 323.87 218.41 323.87 151.62"/>
        <polyline class="cls-1" points="61.4 151.62 61.4 220.76 101.24 243.02 101.24 309.81"/>
        <polyline class="cls-1" points="155.43 255.32 155.43 186.19 195.27 166.27 195.27 97.14"/>
        <polyline class="cls-1" points="195.27 166.27 235.11 188.53 235.11 255.32"/>
        <line class="cls-1" x1="132.62" y1="42.65" x2="132.62" y2="100.07"/>
        <line class="cls-1" x1="264.11" y1="42.65" x2="264.11" y2="100.07"/>
      </g>
      <circle class="cls-1" cx="284.03" cy="329.73" r="19.92" transform="translate(-59.44 596.98) rotate(-87.14)"/>
      <path class="cls-1" d="m343.79,131.7c0,11-8.92,19.92-19.92,19.92s-19.92-8.92-19.92-19.92,8.92-19.92,19.92-19.92,19.92,8.92,19.92,19.92Z"/>
      <path class="cls-1" d="m81.32,131.7c0-11-8.92-19.92-19.92-19.92s-19.92,8.92-19.92,19.92,8.92,19.92,19.92,19.92,19.92-8.92,19.92-19.92Z"/>
      <path class="cls-1" d="m121.16,329.73c0-11-8.92-19.92-19.92-19.92s-19.92,8.92-19.92,19.92,8.92,19.92,19.92,19.92,19.92-8.92,19.92-19.92Z"/>
      <path class="cls-1" d="m175.35,275.24c0,11-8.92,19.92-19.92,19.92s-19.92-8.92-19.92-19.92,8.92-19.92,19.92-19.92,19.92,8.92,19.92,19.92Z"/>
      <path class="cls-1" d="m215.19,77.22c0,11-8.92,19.92-19.92,19.92s-19.92-8.92-19.92-19.92,8.92-19.92,19.92-19.92,19.92,8.92,19.92,19.92Z"/>
      <path class="cls-1" d="m255.03,275.24c0-11-8.92-19.92-19.92-19.92s-19.92,8.92-19.92,19.92,8.92,19.92,19.92,19.92,19.92-8.92,19.92-19.92Z"/>
      <rect class="cls-1" x="7.5" y="7.5" width="374.37" height="374.37" rx="34.09" ry="34.09"/>
      <path class="cls-1" d="m152.54,119.99c0-11-8.92-19.92-19.92-19.92s-19.92,8.92-19.92,19.92,8.92,19.92,19.92,19.92,19.92-8.92,19.92-19.92Z"/>
      <path class="cls-1" d="m284.03,119.99c0-11-8.92-19.92-19.92-19.92s-19.92,8.92-19.92,19.92,8.92,19.92,19.92,19.92,19.92-8.92,19.92-19.92Z"/>
    </g>
  </g>
</svg>