<?xml version="1.0" encoding="UTF-8"?>
<svg id="Layer_2" data-name="Layer 2" xmlns="http://www.w3.org/2000/svg" viewBox="0 0 814.34 549.82">
  <defs>
    <style>
      .cls-1 {
        fill: #f871a0;
      }

      .cls-2 {
        fill: #00b26e;
      }

      .cls-3 {
        fill: #00baeb;
      }

      .cls-4 {
        fill: #ff9d5b;
      }

      .cls-5 {
        fill: #4271d6;
      }

      .cls-6 {
        fill: #383838;
      }

      .cls-7 {
        fill: #45d8f9;
      }
    </style>
  </defs>
  <g id="Layer_1-2" data-name="Layer 1">
    <g>
      <path class="cls-6" d="m320.65,176.12c-15.63,9.02-31.26,18.05-46.89,27.07-6.73,3.88-13.65,7.54-20.23,11.68-7.68,4.83-7.58,11.79-7.58,19.62v63.91c0,7.76-.16,14.79,7.49,19.56,6.49,4.05,13.29,7.67,19.92,11.5,15.69,9.06,31.15,19.06,47.29,27.3,9.02,4.6,16.53-1.39,24.05-5.74,9.97-5.76,19.94-11.51,29.91-17.27,8.29-4.78,16.57-9.57,24.86-14.35,2.67-1.54,5.22-2.92,7.13-5.49,2.48-3.33,2.85-7.07,2.85-11.02v-62.2c0-7.02,1.55-16.8-3.44-22.49-4.3-4.9-12.02-7.89-17.52-11.07-17.52-10.12-34.86-20.66-52.61-30.38-5.13-2.81-9.8-3.05-15.22-.65-3.73,1.66-4.53,7.02-2.69,10.26,2.18,3.84,6.58,4.32,10.26,2.69-.7.31-1.52-.12-.25.46.97.44,1.89,1.09,2.82,1.63,3.34,1.93,6.68,3.86,10.02,5.79,9.59,5.53,19.17,11.07,28.76,16.6,7.5,4.33,15.01,8.67,22.51,13,.77.44,1.53.91,2.31,1.33.88.48.24.2.06-.46.42,1.54,0,3.78,0,5.36v70.5c0,.64.12,1.42,0,2.06-.12.68.99-1.06.09-.41-5.32,3.83-11.66,6.73-17.33,10.01-9.6,5.54-19.2,11.09-28.81,16.63-4.17,2.41-8.34,4.82-12.51,7.22-2.41,1.39-5.44,2.61-7.59,4.38-.24.19-1.4.65-.85.57,1.18-.17.5.13-.23-.5-2.03-1.75-5.09-2.94-7.41-4.28-8.91-5.15-17.82-10.29-26.73-15.44-8.62-4.98-17.23-9.95-25.85-14.93-2.08-1.2-4.41-2.27-6.36-3.67-.76-.55.06.42.09.55-.14-.51-.03-1.34,0-1.85.49-8.09,0-16.37,0-24.47v-45.83c0-1.77-.43-4.14,0-5.87.06-.25-.93,1.09-.09.51.71-.49,1.53-.88,2.28-1.32,2.98-1.72,5.95-3.44,8.93-5.16,17.45-10.07,34.89-20.15,52.34-30.22,1.27-.73,2.54-1.47,3.81-2.2,8.36-4.83.81-17.79-7.57-12.95Z"/>
      <g>
        <path class="cls-6" d="m169.31,168.64c0,4.67-2.78,8.68-6.75,10.54-1.5.7-3.16,1.13-4.92,1.13-6.43,0-11.67-5.24-11.67-11.67s5.24-11.67,11.67-11.67c6.08,0,11.04,4.7,11.57,10.65.03.34.1.67.1,1.02Z"/>
        <path class="cls-6" d="m164.31,168.64c-.53,9-14.08,8.25-13.29-.59.75-8.4,12.48-7.43,13.29.59.64,6.34,10.65,6.41,10,0-.9-8.97-7.02-16.67-16.67-16.67-8.86,0-16.25,7.24-16.64,16.03-.39,8.83,6.61,16.54,15.37,17.24,9.87.79,17.38-7.17,17.94-16.6.38-6.43-9.62-6.41-10,0Z"/>
      </g>
      <g>
        <path class="cls-6" d="m321.03,456.47c1.72-1.01,3.7-1.63,5.84-1.63,2.87,0,5.46,1.08,7.5,2.8,2.53,2.14,4.17,5.3,4.17,8.87,0,4.31-2.37,8.04-5.86,10.06-1.72,1-3.69,1.61-5.81,1.61-.87,0-1.7-.11-2.52-.29-5.23-1.16-9.16-5.81-9.16-11.38,0-4.3,2.36-8.02,5.83-10.04Z"/>
        <path class="cls-6" d="m323.56,460.79c8.2-4.16,14.22,8.26,5.83,11.8-7.58,3.2-12.48-7.4-5.83-11.8,5.34-3.53.34-12.2-5.05-8.63-7.53,4.98-10.8,14.61-6.03,22.76,4.44,7.58,14.3,10.37,22.07,6.31,7.96-4.16,11.24-14.16,7.18-22.2-4.44-8.78-14.83-11.12-23.21-6.87-5.74,2.91-.69,11.54,5.05,8.63Z"/>
      </g>
      <g>
        <path class="cls-6" d="m145.97,365.01c0-6.43,5.24-11.67,11.67-11.67,1.76,0,3.42.42,4.92,1.13,3.97,1.86,6.75,5.87,6.75,10.54,0,.35-.07.68-.1,1.02-.53,5.95-5.48,10.65-11.57,10.65-6.43,0-11.67-5.24-11.67-11.67Z"/>
        <path class="cls-6" d="m150.97,365.01c.48-8.88,14.02-8.34,13.29.47-.7,8.35-12.84,7.76-13.29-.47-.35-6.4-10.35-6.44-10,0,.49,9.02,7.26,16.67,16.67,16.67,8.93,0,16.2-7.34,16.62-16.16.43-9.22-7.48-17.13-16.62-17.18-9.4-.05-16.18,7.69-16.67,16.67-.35,6.43,9.65,6.41,10,0Z"/>
      </g>
      <path class="cls-6" d="m259.01,214.65c-27.22-14.7-54.44-29.4-81.66-44.1-3.85-2.08-7.71-4.16-11.56-6.24-8.49-4.59-16.08,8.36-7.57,12.95,27.22,14.7,54.44,29.4,81.66,44.1,3.85,2.08,7.71,4.16,11.56,6.24,8.49,4.59,16.08-8.36,7.57-12.95h0Z"/>
      <path class="cls-6" d="m316.87,352.44c.97,30.76,1.95,61.52,2.92,92.28.14,4.36.28,8.71.41,13.07.3,9.63,15.31,9.67,15,0-.97-30.76-1.95-61.52-2.92-92.28-.14-4.36-.28-8.71-.41-13.07-.3-9.63-15.31-9.67-15,0h0Z"/>
      <path class="cls-6" d="m248.1,300.27c-26.25,16.17-52.49,32.33-78.74,48.5-3.72,2.29-7.43,4.58-11.15,6.87-8.2,5.05-.68,18.03,7.57,12.95,26.25-16.17,52.49-32.33,78.74-48.5,3.72-2.29,7.43-4.58,11.15-6.87,8.2-5.05.68-18.03-7.57-12.95h0Z"/>
      <path class="cls-3" d="m643.72,102.62h54.15c9.65,0,9.67-15,0-15h-54.15c-9.65,0-9.67,15,0,15h0Z"/>
      <rect class="cls-3" x="494.65" y="77.74" width="117.65" height="34.76" rx="15.39" ry="15.39"/>
      <path class="cls-2" d="m643.72,161.62h54.15c9.65,0,9.67-15,0-15h-54.15c-9.65,0-9.67,15,0,15h0Z"/>
      <rect class="cls-2" x="494.65" y="136.74" width="117.65" height="34.76" rx="15.39" ry="15.39"/>
      <path class="cls-1" d="m643.72,314.62h54.15c9.65,0,9.67-15,0-15h-54.15c-9.65,0-9.67,15,0,15h0Z"/>
      <rect class="cls-1" x="494.65" y="289.74" width="117.65" height="34.76" rx="15.39" ry="15.39"/>
      <path class="cls-6" d="m333.7,168.31h-12v-26h12v26Zm0-52h-12v-27.18h10.82v6h1.18v21.18Zm153.51-15.18h-24.69v-12h24.69v12Zm-50.69,0h-26v-12h26v12Zm-52,0h-26v-12h26v12Z"/>
      <path class="cls-6" d="m407.95,204.13h-12v-26h12v26Zm74-44h-26v-12h26v12Zm-52,0h-26v-12h26v12Z"/>
      <path class="cls-6" d="m487.21,312.75h-17.67v-12h17.67v12Zm-43.67,0h-26v-12h26v12Z"/>
      <g>
        <path class="cls-5" d="m336.71,261.09h-11.32c-.89-8.57,5.62-17.04,14.51-18.35,5.15-.76,10.51-.8,15.7-.37,7.08.59,10.51,8.11,6.72,14.45-3.85,6.46-8.09,12.69-12.16,19.02-8.07,12.53-16.16,25.06-24.24,37.58-.07.11-.21.17-.31.26-3.38-10.13,1.01-31.31,11.1-52.59Z"/>
        <path class="cls-5" d="m326.63,212.51c1.56,19.6-1.55,36.98-11.9,53.48h11.71c.83,8.59-5.49,17.08-14.13,18.43-5.41.85-11.07.9-16.53.35-7.03-.71-10.14-8.31-6.18-14.64,7.07-11.32,14.39-22.48,21.61-33.7,4.91-7.63,9.82-15.25,15.4-23.91Z"/>
      </g>
      <g>
        <path class="cls-6" d="m744.37,76.14h16.04c9.65,0,9.67-15,0-15h-16.04c-9.65,0-9.67,15,0,15h0Z"/>
        <path class="cls-6" d="m791.05,76.14h16.04c9.65,0,9.67-15,0-15h-16.04c-9.65,0-9.67,15,0,15h0Z"/>
        <path class="cls-6" d="m783.23,100v-16.04c0-9.65-15-9.67-15,0v16.04c0,9.65,15,9.67,15,0h0Z"/>
        <path class="cls-6" d="m783.23,53.32v-16.04c0-9.65-15-9.67-15,0v16.04c0,9.65,15,9.67,15,0h0Z"/>
      </g>
      <g>
        <path class="cls-6" d="m114.25,12.77c3.78,3.78,7.56,7.56,11.34,11.34,2.78,2.78,7.87,2.99,10.61,0,2.75-2.99,2.96-7.64,0-10.61-3.78-3.78-7.56-7.56-11.34-11.34-2.78-2.78-7.87-2.98-10.61,0-2.75,2.99-2.96,7.64,0,10.61h0Z"/>
        <path class="cls-6" d="m147.26,45.78c3.78,3.78,7.56,7.56,11.34,11.34,2.78,2.78,7.87,2.98,10.61,0,2.75-2.99,2.96-7.64,0-10.61-3.78-3.78-7.56-7.56-11.34-11.34-2.78-2.78-7.87-2.98-10.61,0-2.75,2.99-2.96,7.64,0,10.61h0Z"/>
        <path class="cls-6" d="m124.86,57.12c3.78-3.78,7.56-7.56,11.34-11.34,2.78-2.78,2.98-7.87,0-10.61-2.99-2.75-7.64-2.96-10.61,0-3.78,3.78-7.56,7.56-11.34,11.34-2.78,2.78-2.98,7.87,0,10.61,2.99,2.75,7.64,2.96,10.61,0h0Z"/>
        <path class="cls-6" d="m157.87,24.11c3.78-3.78,7.56-7.56,11.34-11.34,2.78-2.78,2.98-7.87,0-10.61-2.99-2.75-7.64-2.96-10.61,0-3.78,3.78-7.56,7.56-11.34,11.34-2.78,2.78-2.98,7.87,0,10.61,2.99,2.75,7.64,2.96,10.61,0h0Z"/>
      </g>
      <g>
        <path class="cls-6" d="m543.55,428.74c.3-16.87,13.63-30.2,30.5-30.5,9.64-.17,9.67-15.17,0-15-25.09.45-45.05,20.41-45.5,45.5-.17,9.66,14.83,9.66,15,0h0Z"/>
        <path class="cls-6" d="m600.3,424.5c-.3,16.87-13.63,30.2-30.5,30.5-9.64.17-9.67,15.17,0,15,25.09-.45,45.05-20.41,45.5-45.5.17-9.66-14.83-9.66-15,0h0Z"/>
        <path class="cls-6" d="m571.92,434.12c9.65,0,9.67-15,0-15s-9.67,15,0,15h0Z"/>
        <path class="cls-6" d="m550.71,455.34c9.65,0,9.67-15,0-15s-9.67,15,0,15h0Z"/>
        <path class="cls-6" d="m593.64,413.41c9.65,0,9.67-15,0-15s-9.67,15,0,15h0Z"/>
      </g>
      <g>
        <path class="cls-4" d="m169.55,225.24l-49.03,39.03c-.64.64-1,1.51-1,2.41s.36,1.77,1,2.41l49.03,39.03c.64.64,1.51,1,2.41,1s1.77-.36,2.41-1l49.03-39.03c1.33-1.33,1.33-3.49,0-4.82l-49.03-39.03c-1.33-1.33-3.49-1.33-4.82,0Z"/>
        <path class="cls-6" d="m165.85,221.54c-15.51,12.35-31.02,24.69-46.53,37.04-3.58,2.85-6.42,6.4-4.32,11.43,1.21,2.91,4.07,4.58,6.44,6.46,9.54,7.6,19.09,15.2,28.63,22.79,4.03,3.21,8.06,6.41,12.08,9.62,2.66,2.12,5.61,5.15,9.12,5.39,4.16.28,7.07-2.65,10.09-5.05l11.78-9.38,28.87-22.98c2.25-1.79,5.34-3.56,6.67-6.25,2.38-4.81-.07-8.85-3.72-11.75-10.12-8.06-20.24-16.11-30.36-24.17-4.55-3.62-9.09-7.24-13.64-10.86-4.23-3.37-8.58-6.74-14.05-3.11-5.59,3.71-.35,12.78,5.29,9.04-.64.42-2.3-1.59-.29.17,1.16,1.01,2.42,1.92,3.62,2.88l11.66,9.28c8.79,7,17.59,14,26.38,21,.81.65,4.93,4.91,5.98,4.76.66-.09.68-2.25.04-2.38-.13-.03-.52.48-.66.52-1.05.35-2.32,1.84-3.17,2.52-8.28,6.59-16.55,13.18-24.83,19.77l-12.76,10.16c-1.44,1.15-6.49,3.87-7.13,5.67-.27.77,2.17.85,1.8,0-.3-.68-1.91-1.52-2.49-1.98-3.59-2.85-7.17-5.71-10.76-8.56-8.9-7.08-17.79-14.16-26.69-21.25-2.05-1.63-5.39-5.61-7.94-6.32-.18-.05-.45-.52-.62-.49-.23.03-.23,2.32,0,2.35.34.05,1.75-1.39,2.01-1.6,15.63-12.44,31.26-24.88,46.88-37.32,5.27-4.2-2.18-11.56-7.4-7.4Z"/>
      </g>
      <g>
        <path class="cls-7" d="m212.01,383.18l8.89,62.04c.23.88.8,1.62,1.58,2.08.78.46,1.71.59,2.59.36l58.47-22.57c.88-.23,1.62-.8,2.08-1.58.46-.78.59-1.71.36-2.59l-8.89-62.04c-.48-1.82-2.34-2.91-4.16-2.44l-58.46,22.57c-1.82.48-2.91,2.34-2.44,4.16Z"/>
        <path class="cls-6" d="m206.96,384.57c2.81,19.62,5.62,39.25,8.43,58.87.65,4.5,2.29,8.7,7.64,9.43,3.16.43,6.06-1.19,8.92-2.3,11.38-4.39,22.76-8.79,34.14-13.18,4.8-1.85,9.6-3.71,14.41-5.56,3.17-1.23,7.24-2.24,9.22-5.16,2.33-3.44,1.25-7.49.7-11.3-.71-4.97-1.42-9.94-2.14-14.91-1.74-12.18-3.49-24.35-5.23-36.53-.41-2.86-.37-6.42-2.05-8.92-2.98-4.44-7.71-4.31-12.04-2.64-12.07,4.66-24.14,9.32-36.2,13.98-5.42,2.09-10.84,4.19-16.26,6.28-5.03,1.94-10.08,4.01-9.72,10.54.38,6.7,10.85,6.74,10.47,0,.04.79-2.41,1.14.07.32,1.46-.48,2.88-1.11,4.32-1.67,4.64-1.79,9.27-3.58,13.91-5.37,10.49-4.05,20.97-8.1,31.46-12.15.97-.37,6.74-1.77,7.14-2.76.25-.62-1.65-1.64-2.09-1.15-.09.1.15.69.12.83-.23,1.07.42,2.94.57,4.01,1.5,10.47,3,20.94,4.5,31.41.77,5.38,1.54,10.76,2.31,16.14.27,1.86.05,7.51,1.29,9.02.53.64,1.72-1.48.82-1.6-.73-.09-2.29.88-2.97,1.15-4.28,1.65-8.55,3.3-12.83,4.95-10.61,4.1-21.22,8.19-31.82,12.29-2.46.95-7.54,1.82-9.47,3.66-.13.13-.67.13-.73.28-.08.21,1.94,1.28,2.08,1.1.22-.28-.32-2.21-.36-2.54-2.83-19.77-5.66-39.55-8.5-59.32-.95-6.64-11.04-3.82-10.1,2.78Z"/>
      </g>
      <path class="cls-6" d="m474,517.91h187.87c9.65,0,9.67-15,0-15h-187.87c-9.65,0-9.67,15,0,15h0Z"/>
      <path class="cls-6" d="m353.03,549.82h197.4c9.65,0,9.67-15,0-15h-197.4c-9.65,0-9.67,15,0,15h0Z"/>
      <path class="cls-6" d="m7.24,517.91h323.42c14.88,0,29.93.65,44.8,0,.21,0,.43,0,.65,0,9.65,0,9.67-15,0-15H52.69c-14.88,0-29.93-.65-44.8,0-.21,0-.43,0-.65,0-9.65,0-9.67,15,0,15h0Z"/>
      <path class="cls-6" d="m50.38,70.12v356.18c0,16.45-.67,33.05,0,49.49,0,.24,0,.48,0,.73,0,9.65,15,9.67,15,0V120.34c0-16.45.67-33.05,0-49.49,0-.24,0-.48,0-.73,0-9.65-15-9.67-15,0h0Z"/>
      <path class="cls-6" d="m758.38,150.12v326.39c0,9.65,15,9.67,15,0V150.12c0-9.65-15-9.67-15,0h0Z"/>
      <path class="cls-6" d="m226.11,49.64h428.54c19.74,0,39.63.71,59.37,0,.29-.01.58,0,.87,0,9.65,0,9.67-15,0-15h-428.54c-19.74,0-39.63-.71-59.37,0-.29.01-.58,0-.87,0-9.65,0-9.67,15,0,15h0Z"/>
    </g>
  </g>
</svg>