<?xml version="1.0" encoding="UTF-8"?>
<svg id="Layer_2" data-name="Layer 2" xmlns="http://www.w3.org/2000/svg" viewBox="0 0 1590.03 1338.64">
  <defs>
    <style>
      .cls-1 {
        fill: #fff;
      }

      .cls-2, .cls-3 {
        fill: #2e2b28;
      }

      .cls-4, .cls-5 {
        fill: #2e3192;
      }

      .cls-3 {
        stroke-width: 10px;
      }

      .cls-3, .cls-5 {
        stroke: #2e2b28;
        stroke-miterlimit: 10;
      }
    </style>
  </defs>
  <g id="DEEP">
    <g>
      <polygon class="cls-4" points="408.96 216.52 443.75 183.91 478.54 216.52 478.54 75.56 408.96 75.56 408.96 216.52"/>
      <path class="cls-4" d="m1537.09,506.64h-902.23c-14.65,0-26.52,11.87-26.52,26.52v53.98h955.27v-53.98c0-14.65-11.87-26.52-26.52-26.52Z"/>
      <rect class="cls-4" x="665.61" y="1040.6" width="188.8" height="235.54"/>
      <rect class="cls-4" x="994.21" y="1040.6" width="188.8" height="235.54"/>
      <rect class="cls-4" x="1319.21" y="1040.6" width="188.8" height="235.54"/>
      <path class="cls-2" d="m1512.47,139.68c-5.81-1.76-9.1-7.9-7.34-13.72h0c1.76-5.81,7.9-9.1,13.71-7.34h0c5.82,1.76,9.1,7.89,7.35,13.71h0c-1.44,4.75-5.81,7.82-10.53,7.82h0c-1.05,0-2.12-.15-3.19-.47Zm28.31-8.25c-2.47-5.55.03-12.05,5.58-14.52h0c5.55-2.47,12.05.03,14.52,5.58h0c2.47,5.55-.03,12.05-5.58,14.52h0c-1.45.65-2.97.96-4.46.96h0c-4.22,0-8.24-2.44-10.06-6.54Zm-62.46-17.72c-3.26-5.12-1.74-11.92,3.39-15.18h0c5.13-3.26,11.92-1.74,15.18,3.39h0c3.26,5.13,1.74,11.93-3.39,15.18h0c-1.83,1.16-3.87,1.72-5.88,1.72h0c-3.64,0-7.21-1.81-9.3-5.11Zm93.01-1.43c-5.49-2.6-7.84-9.16-5.24-14.65h0c2.59-5.49,9.15-7.84,14.64-5.24h0c5.49,2.59,7.84,9.15,5.25,14.64h0c-1.88,3.98-5.83,6.3-9.96,6.3h0c-1.57,0-3.17-.34-4.69-1.05Zm-92.63-28.05c-6.01-.88-10.17-6.47-9.29-12.48h0c.89-6.01,6.47-10.17,12.48-9.29h0c6.01.89,10.17,6.47,9.29,12.49h0c-.8,5.46-5.5,9.4-10.87,9.4h0c-.53,0-1.07-.04-1.61-.12Zm89.72-14.07h.01c-1.63-5.85,1.8-11.92,7.66-13.54h0c5.85-1.62,11.91,1.81,13.54,7.67h0c1.62,5.85-1.81,11.91-7.67,13.53h0c-.98.28-1.97.41-2.94.41h0c-4.82,0-9.25-3.2-10.6-8.07Zm-79.46-20.49c-3.97-4.6-3.46-11.55,1.14-15.51h0c4.59-3.98,11.54-3.47,15.51,1.13h0c3.97,4.6,3.46,11.54-1.14,15.52h0c-2.08,1.79-4.63,2.67-7.18,2.67h0c-3.09,0-6.16-1.29-8.33-3.81Zm63.28-1.83c-5.05-3.38-6.41-10.21-3.04-15.26h0c3.38-5.05,10.21-6.41,15.26-3.04h0c5.05,3.38,6.41,10.21,3.04,15.26h0c-2.12,3.17-5.61,4.89-9.16,4.89h0c-2.1,0-4.22-.6-6.1-1.85Zm-32.93-17.64c0-6.07,4.92-11,11-11h0c6.07,0,11,4.93,11,11h0c0,6.08-4.93,11-11,11h0c-6.08,0-11-4.92-11-11Z"/>
      <path class="cls-2" d="m1363.98,476.55c-5.82-1.75-9.11-7.89-7.35-13.71h0c1.76-5.81,7.9-9.1,13.71-7.35h.01c5.81,1.76,9.1,7.9,7.34,13.72h0c-1.44,4.75-5.8,7.82-10.52,7.82h0c-1.06,0-2.13-.16-3.19-.48Zm28.3-8.24c-2.47-5.55.03-12.05,5.58-14.52h0c5.55-2.47,12.05.03,14.52,5.58h0c2.47,5.55-.03,12.05-5.58,14.52h0c-1.45.65-2.97.95-4.46.95h0c-4.22,0-8.24-2.43-10.06-6.53Zm-62.46-17.72c-3.25-5.13-1.74-11.92,3.39-15.18h0c5.13-3.26,11.93-1.74,15.18,3.39h0c3.26,5.13,1.74,11.92-3.38,15.18h0c-1.83,1.16-3.87,1.72-5.89,1.72h0c-3.64,0-7.2-1.81-9.3-5.11Zm93.01-1.43c-5.49-2.6-7.84-9.16-5.24-14.65h0c2.6-5.49,9.15-7.84,14.65-5.24h0c5.49,2.59,7.84,9.15,5.24,14.64h0c-1.88,3.98-5.83,6.3-9.95,6.3h0c-1.58,0-3.18-.34-4.7-1.05Zm-92.63-28.05c-6.01-.88-10.17-6.47-9.28-12.48h0c.88-6.01,6.47-10.17,12.48-9.29h0c6.01.88,10.16,6.47,9.28,12.48h0c-.8,5.47-5.5,9.41-10.87,9.41h0c-.53,0-1.07-.04-1.61-.12Zm89.73-14.07c-1.63-5.86,1.81-11.92,7.66-13.54h0c5.85-1.62,11.92,1.81,13.54,7.66h0c1.62,5.86-1.81,11.92-7.66,13.54h0c-.99.27-1.98.4-2.95.4h0c-4.82,0-9.24-3.19-10.59-8.06Zm-79.47-20.49c-3.97-4.6-3.46-11.55,1.14-15.52h0c4.6-3.97,11.54-3.46,15.51,1.14h0c3.97,4.6,3.46,11.54-1.13,15.51h0c-2.08,1.8-4.64,2.68-7.19,2.68h0c-3.08,0-6.15-1.29-8.33-3.81Zm63.28-1.84h0c-5.05-3.37-6.41-10.2-3.04-15.25h0c3.38-5.05,10.21-6.42,15.26-3.04h0c5.05,3.37,6.41,10.2,3.04,15.26h0c-2.12,3.17-5.61,4.89-9.16,4.89h0c-2.1,0-4.22-.6-6.1-1.86Zm-32.93-17.63c0-6.07,4.93-11,11-11h0c6.08,0,11,4.93,11,11h0c0,6.08-4.92,11-11,11h0c-6.07,0-11-4.92-11-11Z"/>
      <path class="cls-2" d="m43.18,810.21h0c-5.81-1.76-9.1-7.9-7.35-13.71h0c1.76-5.82,7.9-9.1,13.72-7.35h0c5.81,1.76,9.1,7.9,7.34,13.71h0c-1.43,4.76-5.8,7.83-10.52,7.83h0c-1.06,0-2.13-.16-3.19-.48Zm28.31-8.24c-2.47-5.55.02-12.05,5.58-14.52h0c5.55-2.47,12.05.03,14.52,5.58h0c2.46,5.55-.03,12.05-5.58,14.52h0c-1.46.64-2.97.95-4.47.95h0c-4.21,0-8.23-2.43-10.05-6.53Zm-62.46-17.72h0c-3.26-5.13-1.74-11.93,3.38-15.18h0c5.13-3.26,11.93-1.74,15.19,3.38h0c3.25,5.13,1.74,11.93-3.39,15.19h0c-1.83,1.16-3.87,1.71-5.89,1.71h0c-3.64,0-7.2-1.8-9.29-5.1Zm93.01-1.44c-5.5-2.6-7.84-9.15-5.25-14.64h0c2.6-5.5,9.16-7.84,14.65-5.25h0c5.49,2.6,7.84,9.16,5.24,14.65h0c-1.88,3.97-5.83,6.3-9.95,6.3h0c-1.57,0-3.18-.34-4.69-1.06Zm-92.63-28.04c-6.02-.89-10.17-6.47-9.29-12.48H.12c.88-6.01,6.47-10.17,12.48-9.29h0c6.01.88,10.17,6.47,9.29,12.48h0c-.81,5.47-5.51,9.41-10.88,9.41h0c-.53,0-1.06-.04-1.6-.12Zm89.72-14.07c-1.62-5.86,1.81-11.92,7.66-13.54h0c5.86-1.62,11.92,1.81,13.54,7.66h0c1.62,5.85-1.81,11.92-7.66,13.54h0c-.99.27-1.97.4-2.95.4h0c-4.82,0-9.24-3.19-10.59-8.06Zm-79.47-20.5c-3.96-4.59-3.46-11.54,1.14-15.51h0c4.6-3.97,11.55-3.46,15.51,1.13h0c3.98,4.6,3.47,11.55-1.13,15.52h0c-2.08,1.8-4.64,2.67-7.18,2.67h0c-3.09,0-6.16-1.29-8.34-3.81Zm63.28-1.83c-5.05-3.37-6.41-10.2-3.03-15.26h0c3.37-5.05,10.2-6.41,15.25-3.03h0c5.06,3.37,6.42,10.2,3.04,15.25h0c-2.12,3.18-5.6,4.89-9.16,4.89h0c-2.1,0-4.22-.6-6.1-1.85Zm-32.93-17.63c0-6.08,4.93-11,11-11h0c6.08,0,11,4.92,11,11h0c0,6.07-4.92,11-11,11h0c-6.07,0-11-4.93-11-11Z"/>
      <path class="cls-2" d="m109.82,1264.56h0c-5.82-1.75-9.11-7.89-7.35-13.71h0c1.76-5.81,7.9-9.1,13.71-7.34h0c5.82,1.75,9.11,7.89,7.35,13.71h0c-1.44,4.75-5.8,7.82-10.53,7.82h0c-1.05,0-2.12-.16-3.18-.48Zm28.3-8.24c-2.47-5.55.03-12.05,5.58-14.52h0c5.55-2.47,12.05.03,14.52,5.58h0c2.47,5.55-.03,12.05-5.58,14.52h0c-1.45.65-2.97.95-4.46.95h0c-4.22,0-8.24-2.43-10.06-6.53Zm-62.46-17.72c-3.26-5.13-1.74-11.92,3.39-15.18h0c5.13-3.26,11.93-1.74,15.18,3.39h0c3.26,5.12,1.74,11.92-3.39,15.18h0c-1.83,1.16-3.87,1.72-5.88,1.72h0c-3.64,0-7.2-1.81-9.3-5.11Zm93.01-1.44c-5.49-2.59-7.84-9.15-5.24-14.64h0c2.59-5.49,9.15-7.84,14.64-5.24h0c5.5,2.59,7.84,9.15,5.25,14.64h0c-1.88,3.97-5.83,6.3-9.96,6.3h0c-1.57,0-3.17-.34-4.69-1.06Zm-92.63-28.04c-6.01-.88-10.17-6.47-9.29-12.48h0c.88-6.01,6.47-10.17,12.48-9.29h0c6.01.88,10.17,6.47,9.29,12.48h0c-.8,5.47-5.5,9.41-10.87,9.41h0c-.53,0-1.07-.04-1.61-.12Zm89.72-14.07h.01c-1.63-5.86,1.8-11.92,7.66-13.54h0c5.85-1.62,11.91,1.81,13.54,7.66h0c1.62,5.86-1.81,11.92-7.67,13.54h0c-.98.27-1.97.4-2.94.4h0c-4.82,0-9.25-3.19-10.6-8.06Zm-79.46-20.49c-3.97-4.6-3.46-11.55,1.14-15.52h0c4.59-3.97,11.54-3.46,15.51,1.14h0c3.97,4.6,3.46,11.54-1.13,15.51h0c-2.08,1.8-4.64,2.68-7.19,2.68h0c-3.09,0-6.16-1.3-8.33-3.81Zm63.28-1.84c-5.05-3.37-6.41-10.2-3.04-15.25h0c3.38-5.06,10.21-6.42,15.26-3.04h0c5.05,3.37,6.41,10.2,3.04,15.25h0c-2.12,3.18-5.61,4.9-9.16,4.9h0c-2.1,0-4.22-.6-6.1-1.86Zm-32.93-17.63c0-6.08,4.92-11,11-11h0c6.07,0,11,4.92,11,11h0c0,6.08-4.93,11-11,11h0c-6.08,0-11-4.92-11-11Z"/>
      <g>
        <path class="cls-2" d="m721.11,142.64c-4.14,0-7.5-3.36-7.5-7.5v-39c0-4.14,3.36-7.5,7.5-7.5s7.5,3.36,7.5,7.5v39c0,4.14-3.36,7.5-7.5,7.5Z"/>
        <path class="cls-2" d="m740.61,123.14h-39c-4.14,0-7.5-3.36-7.5-7.5s3.36-7.5,7.5-7.5h39c4.14,0,7.5,3.36,7.5,7.5s-3.36,7.5-7.5,7.5Z"/>
      </g>
      <g>
        <path class="cls-2" d="m1056.11,403.64c-4.14,0-7.5-3.36-7.5-7.5v-39c0-4.14,3.36-7.5,7.5-7.5s7.5,3.36,7.5,7.5v39c0,4.14-3.36,7.5-7.5,7.5Z"/>
        <path class="cls-2" d="m1075.61,384.14h-39c-4.14,0-7.5-3.36-7.5-7.5s3.36-7.5,7.5-7.5h39c4.14,0,7.5,3.36,7.5,7.5s-3.36,7.5-7.5,7.5Z"/>
      </g>
      <g>
        <path class="cls-2" d="m1404.11,217.64c-4.14,0-7.5-3.36-7.5-7.5v-39c0-4.14,3.36-7.5,7.5-7.5s7.5,3.36,7.5,7.5v39c0,4.14-3.36,7.5-7.5,7.5Z"/>
        <path class="cls-2" d="m1423.61,198.14h-39c-4.14,0-7.5-3.36-7.5-7.5s3.36-7.5,7.5-7.5h39c4.14,0,7.5,3.36,7.5,7.5s-3.36,7.5-7.5,7.5Z"/>
      </g>
      <g>
        <path class="cls-2" d="m494.11,1007.64c-4.14,0-7.5-3.36-7.5-7.5v-39c0-4.14,3.36-7.5,7.5-7.5s7.5,3.36,7.5,7.5v39c0,4.14-3.36,7.5-7.5,7.5Z"/>
        <path class="cls-2" d="m513.61,988.14h-39c-4.14,0-7.5-3.36-7.5-7.5s3.36-7.5,7.5-7.5h39c4.14,0,7.5,3.36,7.5,7.5s-3.36,7.5-7.5,7.5Z"/>
      </g>
      <g>
        <path class="cls-2" d="m111.11,1005.64c-4.14,0-7.5-3.36-7.5-7.5v-39c0-4.14,3.36-7.5,7.5-7.5s7.5,3.36,7.5,7.5v39c0,4.14-3.36,7.5-7.5,7.5Z"/>
        <path class="cls-2" d="m130.61,986.14h-39c-4.14,0-7.5-3.36-7.5-7.5s3.36-7.5,7.5-7.5h39c4.14,0,7.5,3.36,7.5,7.5s-3.36,7.5-7.5,7.5Z"/>
      </g>
      <path class="cls-3" d="m1534.29,1333.64h-891.16c-23.32,0-42.29-18.97-42.29-42.29v-749.93c0-23.32,18.97-42.29,42.29-42.29h891.16c23.32,0,42.29,18.97,42.29,42.29v749.93c0,23.32-18.97,42.29-42.29,42.29Zm-891.16-819.5c-15.05,0-27.29,12.24-27.29,27.29v749.93c0,15.05,12.24,27.29,27.29,27.29h891.16c15.05,0,27.29-12.24,27.29-27.29v-749.93c0-15.05-12.24-27.29-27.29-27.29h-891.16Z"/>
      <path class="cls-3" d="m1486.51,987.91h-804.04c-4.14,0-7.5-3.36-7.5-7.5v-319.55c0-4.14,3.36-7.5,7.5-7.5h804.04c4.14,0,7.5,3.36,7.5,7.5v319.55c0,4.14-3.36,7.5-7.5,7.5Zm-796.54-15h789.04v-304.55h-789.04v304.55Z"/>
      <path class="cls-3" d="m1563.61,596.14h-947c-4.14,0-7.5-3.36-7.5-7.5s3.36-7.5,7.5-7.5h947c4.14,0,7.5,3.36,7.5,7.5s-3.36,7.5-7.5,7.5Z"/>
      <path class="cls-3" d="m813.11,594.64c-4.14,0-7.5-3.36-7.5-7.5v-76c0-4.14,3.36-7.5,7.5-7.5s7.5,3.36,7.5,7.5v76c0,4.14-3.36,7.5-7.5,7.5Z"/>
      <g>
        <path class="cls-1" d="m683.61,557.14h-30c-4.14,0-7.5-3.36-7.5-7.5s3.36-7.5,7.5-7.5h30c4.14,0,7.5,3.36,7.5,7.5s-3.36,7.5-7.5,7.5Z"/>
        <path class="cls-1" d="m767.61,557.14h-30c-4.14,0-7.5-3.36-7.5-7.5s3.36-7.5,7.5-7.5h30c4.14,0,7.5,3.36,7.5,7.5s-3.36,7.5-7.5,7.5Z"/>
      </g>
      <g>
        <path class="cls-1" d="m1330.61,542.14h-489c-4.14,0-7.5-3.36-7.5-7.5s3.36-7.5,7.5-7.5h489c4.14,0,7.5,3.36,7.5,7.5s-3.36,7.5-7.5,7.5Z"/>
        <path class="cls-1" d="m938.61,571.14h-97c-4.14,0-7.5-3.36-7.5-7.5s3.36-7.5,7.5-7.5h97c4.14,0,7.5,3.36,7.5,7.5s-3.36,7.5-7.5,7.5Z"/>
      </g>
      <path class="cls-5" d="m683.21,960.64c-1.92,0-3.84-.73-5.3-2.2-2.93-2.93-2.93-7.68,0-10.61l163.25-163.25c2.93-2.93,7.68-2.93,10.61,0l98.6,98.6,153.32-153.32c2.93-2.93,7.68-2.93,10.61,0l74.52,74.52,112.22-112.22c2.93-2.93,7.68-2.93,10.61,0l117.62,117.62,45.2-45.2c2.93-2.93,7.68-2.93,10.61,0,2.93,2.93,2.93,7.68,0,10.61l-50.5,50.5c-2.93,2.93-7.68,2.93-10.61,0l-117.62-117.62-112.22,112.22c-2.93,2.93-7.68,2.93-10.61,0l-74.52-74.52-153.32,153.32c-2.93,2.93-7.68,2.93-10.61,0l-98.6-98.6-157.95,157.95c-1.46,1.46-3.38,2.2-5.3,2.2Z"/>
      <g>
        <path class="cls-1" d="m841.61,1116.14h-158c-4.14,0-7.5-3.36-7.5-7.5s3.36-7.5,7.5-7.5h158c4.14,0,7.5,3.36,7.5,7.5s-3.36,7.5-7.5,7.5Z"/>
        <path class="cls-1" d="m841.61,1068.14h-158c-4.14,0-7.5-3.36-7.5-7.5s3.36-7.5,7.5-7.5h158c4.14,0,7.5,3.36,7.5,7.5s-3.36,7.5-7.5,7.5Z"/>
        <path class="cls-1" d="m841.61,1164.14h-158c-4.14,0-7.5-3.36-7.5-7.5s3.36-7.5,7.5-7.5h158c4.14,0,7.5,3.36,7.5,7.5s-3.36,7.5-7.5,7.5Z"/>
        <path class="cls-1" d="m841.61,1212.14h-158c-4.14,0-7.5-3.36-7.5-7.5s3.36-7.5,7.5-7.5h158c4.14,0,7.5,3.36,7.5,7.5s-3.36,7.5-7.5,7.5Z"/>
        <path class="cls-1" d="m841.61,1260.14h-158c-4.14,0-7.5-3.36-7.5-7.5s3.36-7.5,7.5-7.5h158c4.14,0,7.5,3.36,7.5,7.5s-3.36,7.5-7.5,7.5Z"/>
      </g>
      <g>
        <path class="cls-1" d="m1167.61,1116.14h-158c-4.14,0-7.5-3.36-7.5-7.5s3.36-7.5,7.5-7.5h158c4.14,0,7.5,3.36,7.5,7.5s-3.36,7.5-7.5,7.5Z"/>
        <path class="cls-1" d="m1167.61,1068.14h-158c-4.14,0-7.5-3.36-7.5-7.5s3.36-7.5,7.5-7.5h158c4.14,0,7.5,3.36,7.5,7.5s-3.36,7.5-7.5,7.5Z"/>
        <path class="cls-1" d="m1167.61,1164.14h-158c-4.14,0-7.5-3.36-7.5-7.5s3.36-7.5,7.5-7.5h158c4.14,0,7.5,3.36,7.5,7.5s-3.36,7.5-7.5,7.5Z"/>
        <path class="cls-1" d="m1167.61,1212.14h-158c-4.14,0-7.5-3.36-7.5-7.5s3.36-7.5,7.5-7.5h158c4.14,0,7.5,3.36,7.5,7.5s-3.36,7.5-7.5,7.5Z"/>
        <path class="cls-1" d="m1167.61,1260.14h-158c-4.14,0-7.5-3.36-7.5-7.5s3.36-7.5,7.5-7.5h158c4.14,0,7.5,3.36,7.5,7.5s-3.36,7.5-7.5,7.5Z"/>
      </g>
      <g>
        <path class="cls-1" d="m1492.61,1116.14h-158c-4.14,0-7.5-3.36-7.5-7.5s3.36-7.5,7.5-7.5h158c4.14,0,7.5,3.36,7.5,7.5s-3.36,7.5-7.5,7.5Z"/>
        <path class="cls-1" d="m1492.61,1068.14h-158c-4.14,0-7.5-3.36-7.5-7.5s3.36-7.5,7.5-7.5h158c4.14,0,7.5,3.36,7.5,7.5s-3.36,7.5-7.5,7.5Z"/>
        <path class="cls-1" d="m1492.61,1164.14h-158c-4.14,0-7.5-3.36-7.5-7.5s3.36-7.5,7.5-7.5h158c4.14,0,7.5,3.36,7.5,7.5s-3.36,7.5-7.5,7.5Z"/>
        <path class="cls-1" d="m1492.61,1212.14h-158c-4.14,0-7.5-3.36-7.5-7.5s3.36-7.5,7.5-7.5h158c4.14,0,7.5,3.36,7.5,7.5s-3.36,7.5-7.5,7.5Z"/>
        <path class="cls-1" d="m1492.61,1260.14h-158c-4.14,0-7.5-3.36-7.5-7.5s3.36-7.5,7.5-7.5h158c4.14,0,7.5,3.36,7.5,7.5s-3.36,7.5-7.5,7.5Z"/>
      </g>
      <g>
        <path class="cls-3" d="m478.54,224.02c-1.87,0-3.71-.7-5.13-2.03l-29.66-27.81-29.66,27.81c-2.18,2.04-5.37,2.6-8.11,1.41-2.74-1.19-4.52-3.89-4.52-6.88V75.56c0-4.14,3.36-7.5,7.5-7.5s7.5,3.36,7.5,7.5v123.65l22.16-20.77c2.89-2.7,7.37-2.7,10.26,0l22.16,20.77v-123.65c0-4.14,3.36-7.5,7.5-7.5s7.5,3.36,7.5,7.5v140.97c0,2.99-1.78,5.69-4.52,6.88-.96.42-1.97.62-2.98.62Z"/>
        <path class="cls-3" d="m526.51,663.14H55.51c-17.25,0-31.28-14.03-31.28-31.28V49.78c0-4.14,3.36-7.5,7.5-7.5s7.5,3.36,7.5,7.5v582.08c0,8.98,7.31,16.28,16.28,16.28h471c8.98,0,16.28-7.31,16.28-16.28V77.73c0-4.14,3.36-7.5,7.5-7.5s7.5,3.36,7.5,7.5v554.13c0,17.25-14.03,31.28-31.28,31.28Z"/>
        <path class="cls-3" d="m550.29,83.06H63.25c-21.52,0-39.03-17.51-39.03-39.03S41.73,5,63.25,5h487.04c2.69,0,5.17,1.44,6.51,3.77,1.34,2.33,1.32,5.2-.04,7.52-10.94,18.66-10.94,36.81,0,55.47,1.36,2.32,1.37,5.19.04,7.52-1.34,2.33-3.82,3.77-6.51,3.77ZM63.25,20c-13.25,0-24.03,10.78-24.03,24.03s10.78,24.03,24.03,24.03h475.02c-6.34-15.98-6.34-32.07,0-48.06H63.25Z"/>
      </g>
      <path class="cls-3" d="m532.61,1213.14h-241.5c-4.14,0-7.5-3.36-7.5-7.5v-454.5c0-4.14,3.36-7.5,7.5-7.5s7.5,3.36,7.5,7.5v447h234c4.14,0,7.5,3.36,7.5,7.5s-3.36,7.5-7.5,7.5Z"/>
      <path class="cls-3" d="m1256.11,449.64c-4.14,0-7.5-3.36-7.5-7.5v-218h-561c-4.14,0-7.5-3.36-7.5-7.5s3.36-7.5,7.5-7.5h568.5c4.14,0,7.5,3.36,7.5,7.5v225.5c0,4.14-3.36,7.5-7.5,7.5Z"/>
    </g>
  </g>
</svg>