<?xml version="1.0" encoding="UTF-8"?>
<svg id="Layer_2" data-name="Layer 2" xmlns="http://www.w3.org/2000/svg" viewBox="0 0 544.07 185.27">
  <defs>
    <style>
      .cls-1 {
        fill: #29abe2;
      }

      .cls-2 {
        fill: none;
        stroke: #29abe2;
        stroke-miterlimit: 10;
        stroke-width: 4px;
      }
    </style>
  </defs>
  <g id="Layer_1-2" data-name="Layer 1">
    <g>
      <g>
        <g>
          <polyline class="cls-1" points="126.73 68.45 126.4 185.27 146.23 115.8 166.07 46.34"/>
          <polyline class="cls-1" points="39.33 68.23 39.67 185.05 19.84 115.58 0 46.12"/>
        </g>
        <g>
          <polyline class="cls-1" points="80.51 185.27 67.75 166.51 67.79 175.88 67.83 185.25"/>
          <polyline class="cls-1" points="85.42 185.27 98.18 166.51 98.14 175.88 98.1 185.26"/>
        </g>
        <polygon class="cls-1" points="83.03 160.78 53.68 68.34 82.81 0 112.39 68.56 83.03 160.78"/>
      </g>
      <g>
        <g>
          <path class="cls-1" d="m200.09,47.49h10.95c.49,0,.59.2.79.59,3.35,10.16,15.28,45.56,17.35,54.13h.1c2.27-8.18,15.38-44.08,18.73-54.13.1-.39.2-.59.69-.59h10.65c.49,0,.49.1.59.49l3.35,64.09c.1.39-.2.59-.59.59h-7.3c-.49,0-.69-.1-.69-.49-.89-22.68-1.87-52.95-1.87-58.87h-.1c-2.37,8.87-15.58,46.15-19.72,58.77-.1.49-.39.59-.79.59h-6.9c-.59,0-.79-.1-.89-.59-5.23-16.37-15.58-48.91-18.24-58.87h-.2c-.1,8.58-1.87,38.16-2.96,58.87,0,.49-.2.59-.69.59h-6.71c-.49,0-.59-.1-.59-.59l4.34-63.99c.1-.59.3-.59.69-.59Z"/>
          <path class="cls-1" d="m316.84,112.08c-.1.49-.3.59-.69.59h-37.47c-.69,0-.79-.2-.79-.79v-63.7c0-.49.2-.69.69-.69h35.99c.49,0,.59.1.69.59l.79,6.21c.1.39,0,.69-.49.69h-29.48v20.61h26.62c.39,0,.59.2.59.59v6.31c0,.49-.3.59-.59.59h-26.62v22.09h31.36c.49,0,.59.2.49.59l-1.08,6.31Z"/>
          <path class="cls-1" d="m328.87,112.67c-.59,0-.79-.3-.79-.79v-63.7c0-.39.1-.69.59-.69h7.1c.39,0,.49.2.49.59v57.09h30.57c.49,0,.59.3.49.59l-1.18,6.31c-.1.49-.39.59-.79.59h-36.48Z"/>
          <path class="cls-1" d="m383.8,111.98c0,.49-.2.69-.59.69h-6.9c-.49,0-.69-.2-.69-.79v-63.8c0-.39.1-.59.59-.59h7c.39,0,.59.2.59.69v63.8Zm38.36-64.49c.69,0,.79.49.49.89l-28.89,30.27c-.2.2-.2.39,0,.69l31.16,32.44c.3.39.1.89-.39.89h-8.68c-.49,0-.79-.1-1.28-.59l-30.27-31.46c-.59-.59-.59-.99,0-1.48l29.09-31.16c.3-.3.49-.49.99-.49h7.79Z"/>
          <path class="cls-1" d="m484.58,79.73c.1,21.2-12.42,33.92-29.48,33.92-18.83,0-29.88-14.3-29.88-33.72s12.52-33.43,29.68-33.43c18.54,0,29.58,14.59,29.68,33.23Zm-29.29,26.53c13.11,0,20.9-10.65,20.81-26.33,0-15.28-8.38-26.03-21.3-26.03-11.83,0-21.2,9.17-21.2,26.03,0,14.3,7.49,26.33,21.69,26.33Z"/>
          <path class="cls-1" d="m497.11,112.67c-.39,0-.59-.1-.59-.59v-63.7c0-.49.1-.79.59-.79,5.52-.2,10.55-.3,17.16-.3,14.49,0,24.16,6.21,24.16,18.83,0,9.27-6.31,14.99-13.61,17.45,3.35,4.63,16.56,24.06,19.13,28.3.2.39.2.79-.3.79h-8.28c-.59,0-.79-.1-1.08-.39-3.06-4.63-11.24-17.26-16.17-24.85-.79-1.18-1.28-1.58-2.27-1.58h-11.24v26.23c0,.39-.2.59-.59.59h-6.9Zm18.04-34.02c9.37,0,15.09-4.83,15.09-12.13s-5.72-11.93-16.27-11.93c-3.75,0-7.4.1-9.37.2v23.86h10.55Z"/>
        </g>
        <g>
          <path class="cls-1" d="m265.16,175.2c-.22-.13-.31-.31-.31-.65v-4.54c0-.17.17-.26.35-.17,2.36,1.53,5.24,2.27,7.77,2.27,3.58,0,5.1-1.4,5.1-3.27,0-1.61-1.05-2.84-4.36-4.23l-2.09-.87c-5.36-2.27-6.76-4.97-6.76-8.24,0-4.67,3.53-8.24,10.12-8.24,2.75,0,5.24.39,6.67,1.13.22.13.26.26.26.57v4.23c0,.17-.13.35-.39.17-1.66-.96-4.06-1.44-6.59-1.44-3.75,0-4.93,1.57-4.93,3.1s1,2.66,4.45,4.1l1.66.7c5.67,2.36,7.28,5.1,7.28,8.55,0,5.1-4.01,8.42-10.6,8.42-3.18,0-5.84-.61-7.63-1.57Z"/>
          <path class="cls-1" d="m313.5,161.85c.04,9.03-5.54,14.92-13.48,14.92-8.46,0-13.52-6.28-13.52-14.79s5.5-14.74,13.52-14.74c8.55,0,13.44,6.54,13.48,14.61Zm-13.3,10.25c4.93,0,7.9-4.06,7.85-10.12,0-6.11-3.01-10.08-8.11-10.08-4.62,0-7.98,3.62-7.98,10.08,0,5.63,2.88,10.12,8.24,10.12Z"/>
          <path class="cls-1" d="m323.62,175.98c0,.26-.09.35-.35.35h-4.62c-.22,0-.31-.13-.31-.35v-28.01c0-.22.09-.31.35-.31h16.84c.26,0,.35.09.39.35l.44,4.06c.04.26-.09.35-.35.35h-12.39v7.63h11.12c.22,0,.35.04.35.31v4.1c0,.22-.13.31-.35.31h-11.12v11.21Z"/>
          <path class="cls-1" d="m348.09,152.42h-8.86c-.22,0-.31-.13-.26-.35l.57-4.06c.04-.26.13-.35.39-.35h21.68c.26,0,.39.09.44.39l.39,3.97c.04.26-.09.39-.31.39h-8.81v23.51c0,.26-.13.39-.35.39h-4.49c-.31.04-.39-.09-.39-.39v-23.51Z"/>
          <path class="cls-1" d="m391.28,169.96h.04c.44-2.44,1.57-8.24,4.62-21.94.04-.22.17-.35.44-.35h4.58c.26,0,.35.13.3.39l-7.37,28.01c-.09.22-.17.26-.44.26h-4.71c-.3,0-.35-.09-.44-.26-1.31-5.67-4.23-18.15-5.1-22.47h-.04c-.78,4.41-4.19,17.01-5.58,22.33-.04.22-.13.39-.44.39h-4.62c-.26,0-.35-.13-.48-.35l-7.29-27.96c-.04-.26.04-.35.26-.35h4.93c.22,0,.39,0,.44.31,3.71,15.57,4.49,19.54,4.84,21.94h.04c.52-2.84,1.83-7.63,5.19-21.9.04-.26.22-.35.44-.35h5.06c.22,0,.26.09.35.35,1.7,7.2,3.79,15.97,4.97,21.94Z"/>
          <path class="cls-1" d="m407.91,168.78l-2.4,7.2c-.09.26-.22.35-.48.35h-4.36c-.26,0-.35-.13-.31-.44l8.99-25.56c.17-.44.3-.87.39-2.36,0-.17.09-.31.26-.31h6.06c.22,0,.26.04.3.26l10.08,28.01c.04.26,0,.39-.26.39h-4.89c-.22,0-.35-.09-.44-.26l-2.53-7.28h-10.43Zm9.03-4.75c-.92-2.88-2.97-8.94-3.84-12h-.04c-.7,2.92-2.44,8.03-3.75,12h7.63Z"/>
          <path class="cls-1" d="m430.2,176.33c-.26,0-.35-.09-.35-.35v-27.87c0-.22.04-.39.31-.39,3.45-.09,5.28-.13,8.64-.13,6.98,0,11.08,3.01,11.08,8.59,0,3.8-2.44,6.5-5.63,7.68,1.44,2.01,6.68,9.82,7.94,12,.13.26.17.48-.09.48h-5.45c-.35,0-.48-.09-.61-.22-1.27-1.96-4.32-6.98-6.24-10.03-.3-.52-.52-.74-1-.74h-3.75v10.64c0,.26-.13.35-.35.35h-4.49Zm8.64-15.49c3.53,0,5.8-1.57,5.8-4.36s-2.31-4.32-6.02-4.32c-1.48,0-2.88.04-3.58.09v8.59h3.79Z"/>
          <path class="cls-1" d="m473.6,175.98c-.04.31-.13.35-.39.35h-17.36c-.3,0-.39-.13-.39-.35v-27.96c0-.22.09-.35.35-.35h16.84c.26,0,.35.04.39.31l.48,4.06c.04.22-.04.39-.31.39h-12.48v6.94h11.34c.22,0,.3.04.3.31v4.14c0,.22-.13.26-.3.26h-11.34v7.5h13.22c.26,0,.35.13.3.35l-.65,4.06Z"/>
        </g>
        <line class="cls-2" x1="195.06" y1="130.55" x2="544.07" y2="130.55"/>
      </g>
    </g>
  </g>
</svg>