<?xml version="1.0" encoding="UTF-8"?>
<svg id="Layer_2" data-name="Layer 2" xmlns="http://www.w3.org/2000/svg" viewBox="0 0 627.16 269.65">
  <defs>
    <style>
      .cls-1 {
        fill: #1a1a1a;
      }

      .cls-2 {
        fill: #2e3192;
      }

      .cls-3 {
        fill: #4f52b0;
      }
    </style>
  </defs>
  <g id="Layer_1-2" data-name="Layer 1">
    <g>
      <g>
        <polygon class="cls-2" points="245.09 65.79 187.3 98.85 186.33 269.35 235.78 98.85 245.09 65.79"/>
        <polygon class="cls-2" points="0 65.79 57.79 98.85 58.88 269.65 9.31 98.85 0 65.79"/>
        <polygon class="cls-2" points="122.57 0 79.32 98.37 122.57 235.79 165.83 98.37 122.57 0"/>
        <g>
          <polygon class="cls-2" points="145.58 269.6 145.94 242.61 124.84 269.61 145.58 269.6"/>
          <polygon class="cls-2" points="120.66 269.61 99.35 242.68 99.95 269.63 120.66 269.61"/>
        </g>
      </g>
      <g>
        <g>
          <path class="cls-1" d="m289.61,169.25l7.94-55.44h.9l22.54,45.49,22.32-45.49h.89l7.98,55.44h-5.43l-5.48-39.65-19.6,39.65h-1.42l-19.84-39.95-5.45,39.95h-5.35Z"/>
          <path class="cls-1" d="m370.82,113.81h31.77v5.43h-26.23v17.38h26.01v5.43h-26.01v21.78h26.01v5.43h-31.55v-55.44Z"/>
          <path class="cls-1" d="m419.89,113.81h5.54v50.09h21.33v5.35h-26.87v-55.44Z"/>
          <path class="cls-1" d="m463.26,113.81h5.65v20.81l22.16-20.81h7.44l-26.63,24.88,28.7,30.57h-7.38l-24.3-25.82v25.82h-5.65v-55.44Z"/>
          <path class="cls-1" d="m542.99,112.41c8.4,0,15.42,2.8,21.08,8.41s8.49,12.5,8.49,20.69-2.82,15-8.47,20.65-12.53,8.48-20.65,8.48-15.16-2.81-20.82-8.44-8.49-12.44-8.49-20.43c0-5.33,1.29-10.26,3.87-14.81s6.09-8.11,10.54-10.69c4.45-2.58,9.27-3.86,14.45-3.86Zm.25,5.39c-4.1,0-7.99,1.07-11.67,3.21-3.67,2.14-6.54,5.02-8.61,8.64-2.06,3.62-3.1,7.66-3.1,12.11,0,6.59,2.28,12.15,6.85,16.69s10.07,6.81,16.52,6.81c4.3,0,8.29-1.04,11.95-3.13,3.66-2.09,6.52-4.94,8.57-8.56,2.05-3.62,3.08-7.64,3.08-12.07s-1.03-8.38-3.08-11.94c-2.05-3.56-4.94-6.41-8.66-8.54s-7.68-3.21-11.85-3.21Z"/>
          <path class="cls-1" d="m591.69,113.81h11.04c6.16,0,10.33.25,12.51.75,3.29.75,5.97,2.37,8.03,4.85,2.06,2.48,3.09,5.53,3.09,9.15,0,3.02-.71,5.67-2.13,7.96-1.42,2.29-3.45,4.02-6.09,5.19-2.64,1.17-6.28,1.77-10.93,1.79l19.94,25.74h-6.85l-19.94-25.74h-3.13v25.74h-5.54v-55.44Zm5.54,5.43v18.84l9.55.08c3.7,0,6.44-.35,8.21-1.06,1.77-.7,3.16-1.83,4.15-3.37s1.49-3.27,1.49-5.18-.5-3.55-1.51-5.07c-1.01-1.52-2.33-2.61-3.96-3.26s-4.35-.98-8.15-.98h-9.78Z"/>
        </g>
        <g>
          <path class="cls-3" d="m322.7,199.67l-3.91,3.45c-1.37-1.91-2.77-2.86-4.19-2.86-.69,0-1.26.19-1.7.56-.44.37-.66.79-.66,1.25s.16.9.47,1.32c.43.55,1.72,1.74,3.87,3.56,2.01,1.68,3.23,2.75,3.66,3.18,1.07,1.08,1.83,2.11,2.27,3.1.45.99.67,2.06.67,3.23,0,2.27-.79,4.15-2.36,5.63-1.57,1.48-3.62,2.22-6.15,2.22-1.97,0-3.69-.48-5.16-1.45-1.46-.97-2.72-2.49-3.76-4.56l4.44-2.68c1.33,2.45,2.87,3.67,4.61,3.67.91,0,1.67-.26,2.28-.79.62-.53.93-1.14.93-1.83,0-.63-.23-1.26-.7-1.88s-1.49-1.59-3.08-2.88c-3.02-2.46-4.97-4.36-5.85-5.7-.88-1.34-1.32-2.67-1.32-4,0-1.92.73-3.57,2.2-4.95,1.46-1.38,3.27-2.06,5.42-2.06,1.38,0,2.7.32,3.95.96,1.25.64,2.61,1.81,4.07,3.5Z"/>
          <path class="cls-3" d="m356.75,195.21c3.92,0,7.29,1.42,10.12,4.26,2.82,2.84,4.23,6.3,4.23,10.38s-1.39,7.47-4.18,10.27c-2.79,2.8-6.16,4.2-10.14,4.2s-7.62-1.44-10.37-4.32-4.13-6.29-4.13-10.25c0-2.65.64-5.09,1.92-7.31s3.04-3.99,5.29-5.29c2.24-1.3,4.66-1.95,7.25-1.95Zm-.06,5.16c-2.57,0-4.72.89-6.47,2.68-1.75,1.78-2.62,4.05-2.62,6.8,0,3.07,1.1,5.49,3.3,7.27,1.71,1.39,3.67,2.09,5.89,2.09,2.5,0,4.63-.9,6.39-2.71,1.76-1.81,2.64-4.04,2.64-6.69s-.89-4.87-2.66-6.7-3.93-2.74-6.47-2.74Z"/>
          <path class="cls-3" d="m391.59,195.9h13.76v5.15h-8.52v5.03h8.52v5.07h-8.52v12.48h-5.24v-27.72Z"/>
          <path class="cls-3" d="m422.74,195.9h15.32v5.2h-5.05v22.52h-5.35v-22.52h-4.92v-5.2Z"/>
          <path class="cls-3" d="m455.02,195.9h5.19l4,17.7,4.95-17.7h4.39l5.02,17.7,3.97-17.7h5.19l-6.25,27.72h-5.06l-5.11-17.92-5.01,17.92h-5.01l-6.28-27.72Z"/>
          <path class="cls-3" d="m515.74,195.9h5.35l10.66,27.72h-5.48l-2.17-5.71h-11.31l-2.25,5.71h-5.48l10.69-27.72Zm2.71,7.35l-3.72,9.52h7.42l-3.7-9.52Z"/>
          <path class="cls-3" d="m551.63,195.9h5.59c3.06,0,5.24.27,6.54.82s2.34,1.45,3.13,2.72c.79,1.27,1.19,2.77,1.19,4.5,0,1.82-.44,3.35-1.31,4.57s-2.19,2.15-3.95,2.78l6.57,12.33h-5.77l-6.23-11.74h-.48v11.74h-5.28v-27.72Zm5.28,10.84h1.65c1.68,0,2.83-.22,3.47-.66.63-.44.95-1.17.95-2.19,0-.6-.16-1.13-.47-1.58-.31-.45-.73-.77-1.26-.96-.53-.2-1.49-.29-2.89-.29h-1.45v5.69Z"/>
          <path class="cls-3" d="m589.12,195.9h15.13v5.16h-9.89v5.01h9.89v5.07h-9.89v7.29h9.89v5.18h-15.13v-27.72Z"/>
        </g>
      </g>
    </g>
  </g>
</svg>