<?xml version="1.0" encoding="UTF-8"?>
<svg id="Layer_2" data-name="Layer 2" xmlns="http://www.w3.org/2000/svg" viewBox="0 0 442.52 128">
  <defs>
    <style>
      .cls-1 {
        fill: #1a1a1a;
      }

      .cls-2 {
        fill: #2e3192;
      }

      .cls-3 {
        fill: #4f52b0;
      }
    </style>
  </defs>
  <g id="Layer_1-2" data-name="Layer 1">
    <g>
      <g>
        <polygon class="cls-2" points="116.34 31.23 88.91 46.92 88.45 127.86 111.92 46.92 116.34 31.23"/>
        <polygon class="cls-2" points="0 31.23 27.43 46.92 27.95 128 4.42 46.92 0 31.23"/>
        <polygon class="cls-2" points="58.18 0 37.65 46.7 58.18 111.93 78.72 46.7 58.18 0"/>
        <g>
          <polygon class="cls-2" points="69.11 127.98 69.28 115.17 59.26 127.98 69.11 127.98"/>
          <polygon class="cls-2" points="57.28 127.98 47.16 115.2 47.44 127.99 57.28 127.98"/>
        </g>
      </g>
      <g>
        <g>
          <path class="cls-1" d="m149.94,80.26l6.88-48.06h.78l19.54,39.43,19.35-39.43h.77l6.92,48.06h-4.71l-4.75-34.37-16.99,34.37h-1.23l-17.19-34.63-4.72,34.63h-4.64Z"/>
          <path class="cls-1" d="m220.33,32.21h27.54v4.7h-22.74v15.06h22.54v4.7h-22.54v18.88h22.54v4.7h-27.34v-48.06Z"/>
          <path class="cls-1" d="m262.86,32.21h4.8v43.42h18.49v4.64h-23.29v-48.06Z"/>
          <path class="cls-1" d="m300.45,32.21h4.9v18.03l19.21-18.03h6.45l-23.08,21.56,24.88,26.49h-6.4l-21.06-22.38v22.38h-4.9v-48.06Z"/>
          <path class="cls-1" d="m369.56,31c7.28,0,13.37,2.43,18.27,7.29s7.36,10.83,7.36,17.93-2.45,13-7.34,17.9-10.86,7.35-17.9,7.35-13.14-2.44-18.04-7.32c-4.9-4.88-7.35-10.78-7.35-17.71,0-4.62,1.12-8.9,3.35-12.84s5.28-7.03,9.14-9.26c3.86-2.23,8.03-3.35,12.52-3.35Zm.21,4.67c-3.56,0-6.93.93-10.11,2.78-3.19,1.85-5.67,4.35-7.46,7.49-1.79,3.14-2.68,6.64-2.68,10.5,0,5.71,1.98,10.53,5.94,14.47,3.96,3.93,8.73,5.9,14.32,5.9,3.73,0,7.18-.9,10.36-2.71,3.17-1.81,5.65-4.28,7.43-7.42,1.78-3.14,2.67-6.63,2.67-10.46s-.89-7.26-2.67-10.35c-1.78-3.08-4.28-5.55-7.51-7.4s-6.65-2.78-10.27-2.78Z"/>
          <path class="cls-1" d="m411.78,32.21h9.57c5.34,0,8.95.22,10.85.65,2.85.65,5.17,2.06,6.96,4.2,1.79,2.15,2.68,4.79,2.68,7.93,0,2.62-.62,4.92-1.85,6.9-1.23,1.98-2.99,3.48-5.28,4.5-2.29,1.01-5.45,1.53-9.47,1.55l17.28,22.31h-5.94l-17.28-22.31h-2.71v22.31h-4.8v-48.06Zm4.8,4.7v16.33l8.28.07c3.21,0,5.58-.3,7.12-.92,1.54-.61,2.74-1.58,3.6-2.92s1.29-2.84,1.29-4.49-.44-3.08-1.31-4.39c-.87-1.32-2.02-2.26-3.44-2.83s-3.77-.85-7.07-.85h-8.47Z"/>
        </g>
        <g>
          <path class="cls-3" d="m178.62,106.63l-3.39,2.99c-1.19-1.65-2.4-2.48-3.63-2.48-.6,0-1.09.16-1.47.48-.38.32-.57.68-.57,1.09s.14.78.41,1.14c.37.48,1.49,1.51,3.35,3.09,1.75,1.46,2.8,2.38,3.18,2.76.93.94,1.58,1.83,1.97,2.69.39.86.58,1.79.58,2.8,0,1.97-.68,3.6-2.04,4.88-1.36,1.28-3.14,1.93-5.33,1.93-1.71,0-3.2-.42-4.47-1.26-1.27-.84-2.36-2.16-3.26-3.95l3.84-2.32c1.16,2.12,2.49,3.19,3.99,3.19.78,0,1.44-.23,1.98-.69.53-.46.8-.99.8-1.58,0-.55-.2-1.09-.61-1.63s-1.29-1.38-2.67-2.5c-2.62-2.13-4.31-3.78-5.07-4.94-.76-1.16-1.15-2.32-1.15-3.47,0-1.67.63-3.1,1.91-4.29,1.27-1.19,2.84-1.79,4.7-1.79,1.2,0,2.34.28,3.43.83,1.08.56,2.26,1.57,3.52,3.04Z"/>
          <path class="cls-3" d="m208.13,102.76c3.4,0,6.32,1.23,8.77,3.69,2.45,2.46,3.67,5.46,3.67,9s-1.21,6.47-3.62,8.9c-2.41,2.43-5.34,3.64-8.79,3.64s-6.6-1.25-8.99-3.74-3.58-5.46-3.58-8.89c0-2.3.56-4.41,1.67-6.34s2.64-3.46,4.58-4.58c1.95-1.13,4.04-1.69,6.28-1.69Zm-.05,4.48c-2.22,0-4.09.77-5.61,2.32-1.52,1.55-2.27,3.51-2.27,5.9,0,2.66.95,4.76,2.86,6.3,1.48,1.21,3.18,1.81,5.1,1.81,2.17,0,4.02-.78,5.54-2.35,1.53-1.57,2.29-3.5,2.29-5.8s-.77-4.22-2.31-5.81-3.41-2.38-5.61-2.38Z"/>
          <path class="cls-3" d="m238.33,103.37h11.92v4.46h-7.38v4.36h7.38v4.39h-7.38v10.81h-4.54v-24.03Z"/>
          <path class="cls-3" d="m265.33,103.37h13.28v4.51h-4.38v19.52h-4.64v-19.52h-4.26v-4.51Z"/>
          <path class="cls-3" d="m293.31,103.37h4.5l3.47,15.34,4.29-15.34h3.8l4.35,15.34,3.44-15.34h4.5l-5.41,24.03h-4.39l-4.43-15.53-4.35,15.53h-4.34l-5.44-24.03Z"/>
          <path class="cls-3" d="m345.95,103.37h4.64l9.24,24.03h-4.75l-1.88-4.95h-9.8l-1.95,4.95h-4.75l9.27-24.03Zm2.35,6.37l-3.22,8.25h6.43l-3.2-8.25Z"/>
          <path class="cls-3" d="m377.05,103.37h4.85c2.65,0,4.54.24,5.67.71s2.03,1.26,2.72,2.36c.68,1.1,1.03,2.4,1.03,3.9,0,1.58-.38,2.9-1.14,3.96s-1.9,1.86-3.42,2.41l5.69,10.68h-5l-5.4-10.18h-.42v10.18h-4.57v-24.03Zm4.57,9.39h1.43c1.45,0,2.46-.19,3-.57.55-.38.82-1.02.82-1.9,0-.52-.14-.98-.41-1.37-.27-.39-.64-.67-1.09-.84-.46-.17-1.29-.25-2.51-.25h-1.25v4.93Z"/>
          <path class="cls-3" d="m409.55,103.37h13.12v4.48h-8.58v4.34h8.58v4.39h-8.58v6.32h8.58v4.49h-13.12v-24.03Z"/>
        </g>
      </g>
    </g>
  </g>
</svg>