<?xml version="1.0" encoding="UTF-8"?>
<svg id="Layer_2" data-name="Layer 2" xmlns="http://www.w3.org/2000/svg" viewBox="0 0 438.01 127.53">
  <defs>
    <style>
      .cls-1 {
        fill: #1a1a1a;
      }

      .cls-2 {
        fill: #2e3192;
      }

      .cls-3 {
        fill: #4f52b0;
      }
    </style>
  </defs>
  <g id="Layer_1-2" data-name="Layer 1">
    <g>
      <polygon class="cls-2" points="115.83 31.09 88.52 46.72 88.06 127.3 111.43 46.72 115.83 31.09"/>
      <polygon class="cls-2" points="0 31.09 27.31 46.72 27.83 127.44 4.4 46.72 0 31.09"/>
      <polygon class="cls-2" points="57.93 0 37.49 46.49 57.93 111.44 78.37 46.49 57.93 0"/>
      <g>
        <polygon class="cls-2" points="68.8 127.41 68.97 114.66 59 127.42 68.8 127.41"/>
        <polygon class="cls-2" points="57.02 127.42 46.95 114.69 47.24 127.43 57.02 127.42"/>
      </g>
    </g>
    <g>
      <g>
        <path class="cls-1" d="m148.98,80.37l6.8-47.47h.77l19.3,38.95,19.11-38.95h.76l6.83,47.47h-4.65l-4.69-33.95-16.79,33.95h-1.21l-16.99-34.21-4.66,34.21h-4.58Z"/>
        <path class="cls-1" d="m218.52,32.9h27.21v4.65h-22.46v14.88h22.27v4.65h-22.27v18.65h22.27v4.65h-27.01v-47.47Z"/>
        <path class="cls-1" d="m260.53,32.9h4.74v42.89h18.27v4.58h-23.01v-47.47Z"/>
        <path class="cls-1" d="m297.67,32.9h4.84v17.82l18.98-17.82h6.37l-22.8,21.3,24.58,26.17h-6.32l-20.81-22.11v22.11h-4.84v-47.47Z"/>
        <path class="cls-1" d="m365.94,31.71c7.19,0,13.21,2.4,18.05,7.2s7.27,10.7,7.27,17.72-2.42,12.84-7.25,17.69-10.73,7.26-17.68,7.26-12.98-2.41-17.83-7.23-7.27-10.65-7.27-17.49c0-4.56,1.1-8.79,3.31-12.68s5.22-6.94,9.03-9.15c3.81-2.21,7.93-3.31,12.37-3.31Zm.21,4.61c-3.51,0-6.84.92-9.99,2.75-3.15,1.83-5.6,4.3-7.37,7.4-1.77,3.1-2.65,6.56-2.65,10.37,0,5.64,1.96,10.41,5.87,14.29s8.63,5.83,14.14,5.83c3.68,0,7.1-.89,10.23-2.68,3.13-1.79,5.58-4.23,7.34-7.33,1.76-3.1,2.63-6.55,2.63-10.34s-.88-7.18-2.63-10.22c-1.76-3.05-4.23-5.48-7.42-7.32s-6.57-2.75-10.15-2.75Z"/>
        <path class="cls-1" d="m407.64,32.9h9.46c5.27,0,8.84.22,10.71.65,2.82.65,5.11,2.03,6.87,4.15,1.76,2.12,2.65,4.73,2.65,7.84,0,2.59-.61,4.86-1.82,6.82-1.22,1.96-2.95,3.44-5.21,4.44-2.26,1-5.38,1.51-9.36,1.54l17.07,22.04h-5.87l-17.07-22.04h-2.68v22.04h-4.74v-47.47Zm4.74,4.65v16.14l8.18.07c3.17,0,5.51-.3,7.03-.9,1.52-.6,2.7-1.57,3.56-2.89s1.28-2.8,1.28-4.44-.43-3.04-1.29-4.34c-.86-1.3-1.99-2.23-3.39-2.79s-3.73-.84-6.98-.84h-8.37Z"/>
      </g>
      <g>
        <path class="cls-3" d="m177.31,106.42l-3.35,2.95c-1.17-1.63-2.37-2.45-3.59-2.45-.59,0-1.08.16-1.45.48-.38.32-.57.68-.57,1.07s.13.77.4,1.13c.37.47,1.47,1.49,3.31,3.05,1.72,1.44,2.77,2.35,3.14,2.73.92.93,1.56,1.81,1.95,2.65.38.85.57,1.77.57,2.77,0,1.95-.67,3.56-2.02,4.82-1.35,1.27-3.1,1.9-5.27,1.9-1.69,0-3.16-.41-4.42-1.24-1.25-.83-2.33-2.13-3.22-3.91l3.8-2.29c1.14,2.1,2.46,3.15,3.94,3.15.78,0,1.43-.23,1.96-.68.53-.45.79-.97.79-1.56,0-.54-.2-1.08-.6-1.61s-1.28-1.36-2.63-2.47c-2.59-2.11-4.26-3.74-5.01-4.88-.76-1.15-1.13-2.29-1.13-3.43,0-1.65.63-3.06,1.88-4.24,1.25-1.18,2.8-1.77,4.64-1.77,1.18,0,2.31.28,3.38.82,1.07.55,2.23,1.55,3.48,3Z"/>
        <path class="cls-3" d="m206.47,102.6c3.36,0,6.25,1.22,8.66,3.65,2.42,2.43,3.62,5.4,3.62,8.89s-1.19,6.4-3.58,8.79c-2.38,2.4-5.28,3.6-8.68,3.6s-6.52-1.23-8.88-3.7-3.54-5.39-3.54-8.78c0-2.27.55-4.36,1.65-6.26s2.61-3.41,4.53-4.53c1.92-1.11,3.99-1.67,6.21-1.67Zm-.05,4.42c-2.2,0-4.04.76-5.54,2.29-1.5,1.53-2.25,3.47-2.25,5.83,0,2.62.94,4.7,2.83,6.23,1.46,1.19,3.14,1.79,5.04,1.79,2.14,0,3.97-.77,5.48-2.32,1.51-1.55,2.26-3.46,2.26-5.73s-.76-4.17-2.28-5.74-3.37-2.35-5.54-2.35Z"/>
        <path class="cls-3" d="m236.3,103.2h11.78v4.41h-7.29v4.31h7.29v4.34h-7.29v10.68h-4.49v-23.74Z"/>
        <path class="cls-3" d="m262.98,103.2h13.12v4.45h-4.32v19.28h-4.58v-19.28h-4.21v-4.45Z"/>
        <path class="cls-3" d="m290.61,103.2h4.45l3.43,15.15,4.24-15.15h3.76l4.3,15.15,3.4-15.15h4.45l-5.35,23.74h-4.33l-4.37-15.35-4.29,15.35h-4.29l-5.37-23.74Z"/>
        <path class="cls-3" d="m342.61,103.2h4.58l9.13,23.74h-4.7l-1.86-4.89h-9.69l-1.93,4.89h-4.7l9.15-23.74Zm2.32,6.29l-3.19,8.15h6.35l-3.17-8.15Z"/>
        <path class="cls-3" d="m373.34,103.2h4.79c2.62,0,4.49.23,5.6.7s2.01,1.25,2.68,2.33c.68,1.09,1.02,2.37,1.02,3.86,0,1.56-.37,2.86-1.12,3.91s-1.87,1.84-3.38,2.38l5.62,10.55h-4.94l-5.34-10.05h-.41v10.05h-4.52v-23.74Zm4.52,9.28h1.42c1.44,0,2.43-.19,2.97-.57.54-.38.81-1,.81-1.88,0-.52-.13-.97-.4-1.35-.27-.38-.63-.66-1.08-.83-.45-.17-1.28-.25-2.48-.25h-1.24v4.87Z"/>
        <path class="cls-3" d="m405.44,103.2h12.96v4.42h-8.47v4.29h8.47v4.34h-8.47v6.24h8.47v4.44h-12.96v-23.74Z"/>
      </g>
    </g>
  </g>
</svg>