<?xml version="1.0" encoding="UTF-8"?>
<svg id="Layer_2" data-name="Layer 2" xmlns="http://www.w3.org/2000/svg" viewBox="0 0 930.18 636.97">
  <defs>
    <style>
      .cls-1 {
        fill: #00baeb;
      }

      .cls-2 {
        fill: #4271d6;
      }

      .cls-3 {
        fill: #2b6ed4;
      }

      .cls-4 {
        fill: #383838;
      }

      .cls-5 {
        fill: #2e3192;
      }
    </style>
  </defs>
  <g id="Layer_1-2" data-name="Layer 1">
    <path class="cls-4" d="m217.09,453.73V129.38l-7.5,7.5h315.13c14.52,0,29.21.65,43.72,0,.2,0,.41,0,.61,0,9.65,0,9.67-15,0-15H253.93c-14.52,0-29.21-.65-43.72,0-.2,0-.41,0-.61,0-4.05,0-7.5,3.44-7.5,7.5v324.35c0,9.65,15,9.67,15,0h0Z"/>
    <path class="cls-4" d="m773.63,346.79v211.24l7.5-7.5h-426.02c-19.66,0-39.48-.75-59.13,0-.27.01-.55,0-.83,0-9.65,0-9.67,15,0,15h426.02c19.66,0,39.48.75,59.13,0,.27-.01.55,0,.83,0,4.05,0,7.5-3.44,7.5-7.5v-211.24c0-9.65-15-9.67-15,0h0Z"/>
    <path class="cls-4" d="m263.53,428.03v-252.22l-7.5,7.5h325.86c9.65,0,9.67-15,0-15h-325.86c-4.05,0-7.5,3.44-7.5,7.5v252.22c0,9.65,15,9.67,15,0h0Z"/>
    <path class="cls-4" d="m727.2,321.56v170.98l7.5-7.5h-352.77c-16.25,0-32.67-.67-48.91,0-.23,0-.46,0-.69,0-9.65,0-9.67,15,0,15h352.77c16.25,0,32.67.67,48.91,0,.23,0,.46,0,.69,0,4.05,0,7.5-3.44,7.5-7.5v-170.98c0-9.65-15-9.67-15,0h0Z"/>
    <g>
      <path class="cls-4" d="m402.78,534.1h54.15c9.65,0,9.67-15,0-15h-54.15c-9.65,0-9.67,15,0,15h0Z"/>
      <path class="cls-4" d="m533.8,534.1h54.15c9.65,0,9.67-15,0-15h-54.15c-9.65,0-9.67,15,0,15h0Z"/>
      <path class="cls-4" d="m481.66,534.1h27.41c9.65,0,9.67-15,0-15h-27.41c-9.65,0-9.67,15,0,15h0Z"/>
    </g>
    <path class="cls-1" d="m444.23,240.66h54.15c9.65,0,9.67-15,0-15h-54.15c-9.65,0-9.67,15,0,15h0Z"/>
    <rect class="cls-1" x="295.16" y="215.78" width="117.65" height="34.76" rx="15.39" ry="15.39"/>
    <path class="cls-3" d="m444.23,288.79h94.25c9.65,0,9.67-15,0-15h-94.25c-9.65,0-9.67,15,0,15h0Z"/>
    <rect class="cls-3" x="295.16" y="263.9" width="117.65" height="34.76" rx="15.39" ry="15.39"/>
    <path class="cls-2" d="m444.23,336.91h134.36c9.65,0,9.67-15,0-15h-134.36c-9.65,0-9.67,15,0,15h0Z"/>
    <rect class="cls-2" x="295.16" y="312.03" width="117.65" height="34.76" rx="15.39" ry="15.39"/>
    <path class="cls-2" d="m346.35,400.03h59.26c3.34,0,6.05,2.71,6.05,6.05v22.66c0,3.34-2.71,6.05-6.05,6.05h-59.26c-3.34,0-6.05-2.71-6.05-6.05v-22.66c0-3.34,2.71-6.05,6.05-6.05Z"/>
    <path class="cls-1" d="m447.35,400.03h59.26c3.34,0,6.05,2.71,6.05,6.05v22.66c0,3.34-2.71,6.05-6.05,6.05h-59.26c-3.34,0-6.05-2.71-6.05-6.05v-22.66c0-3.34,2.71-6.05,6.05-6.05Z"/>
    <path class="cls-1" d="m548.35,400.03h59.26c3.34,0,6.05,2.71,6.05,6.05v22.66c0,3.34-2.71,6.05-6.05,6.05h-59.26c-3.34,0-6.05-2.71-6.05-6.05v-22.66c0-3.34,2.71-6.05,6.05-6.05Z"/>
    <g>
      <path class="cls-4" d="m7.24,437.89h16.04c9.65,0,9.67-15,0-15H7.24c-9.65,0-9.67,15,0,15h0Z"/>
      <path class="cls-4" d="m53.92,437.89h16.04c9.65,0,9.67-15,0-15h-16.04c-9.65,0-9.67,15,0,15h0Z"/>
      <path class="cls-4" d="m46.11,461.75v-16.04c0-9.65-15-9.67-15,0v16.04c0,9.65,15,9.67,15,0h0Z"/>
      <path class="cls-4" d="m46.11,415.07v-16.04c0-9.65-15-9.67-15,0v16.04c0,9.65,15,9.67,15,0h0Z"/>
    </g>
    <g>
      <path class="cls-4" d="m79.13,139.51c3.78,3.78,7.56,7.56,11.34,11.34,2.78,2.78,7.87,2.98,10.61,0,2.75-2.99,2.96-7.64,0-10.61-3.78-3.78-7.56-7.56-11.34-11.34-2.78-2.78-7.87-2.98-10.61,0-2.75,2.99-2.96,7.64,0,10.61h0Z"/>
      <path class="cls-4" d="m112.13,172.52c3.78,3.78,7.56,7.56,11.34,11.34,2.78,2.78,7.87,2.98,10.61,0,2.75-2.99,2.96-7.64,0-10.61-3.78-3.78-7.56-7.56-11.34-11.34-2.78-2.78-7.87-2.98-10.61,0-2.75,2.99-2.96,7.64,0,10.61h0Z"/>
      <path class="cls-4" d="m89.73,183.87c3.78-3.78,7.56-7.56,11.34-11.34,2.78-2.78,2.98-7.87,0-10.61-2.99-2.75-7.64-2.96-10.61,0-3.78,3.78-7.56,7.56-11.34,11.34-2.78,2.78-2.98,7.87,0,10.61,2.99,2.75,7.64,2.96,10.61,0h0Z"/>
      <path class="cls-4" d="m122.74,150.86c3.78-3.78,7.56-7.56,11.34-11.34,2.78-2.78,2.98-7.87,0-10.61-2.99-2.75-7.64-2.96-10.61,0-3.78,3.78-7.56,7.56-11.34,11.34-2.78,2.78-2.98,7.87,0,10.61,2.99,2.75,7.64,2.96,10.61,0h0Z"/>
    </g>
    <g>
      <path class="cls-4" d="m550.13,35.51c3.78,3.78,7.56,7.56,11.34,11.34,2.78,2.78,7.87,2.98,10.61,0,2.75-2.99,2.96-7.64,0-10.61-3.78-3.78-7.56-7.56-11.34-11.34-2.78-2.78-7.87-2.98-10.61,0-2.75,2.99-2.96,7.64,0,10.61h0Z"/>
      <path class="cls-4" d="m583.13,68.52c3.78,3.78,7.56,7.56,11.34,11.34,2.78,2.78,7.87,2.98,10.61,0,2.75-2.99,2.96-7.64,0-10.61-3.78-3.78-7.56-7.56-11.34-11.34-2.78-2.78-7.87-2.98-10.61,0-2.75,2.99-2.96,7.64,0,10.61h0Z"/>
      <path class="cls-4" d="m560.73,79.87c3.78-3.78,7.56-7.56,11.34-11.34,2.78-2.78,2.98-7.87,0-10.61-2.99-2.75-7.64-2.96-10.61,0-3.78,3.78-7.56,7.56-11.34,11.34-2.78,2.78-2.98,7.87,0,10.61,2.99,2.75,7.64,2.96,10.61,0h0Z"/>
      <path class="cls-4" d="m593.74,46.86c3.78-3.78,7.56-7.56,11.34-11.34,2.78-2.78,2.99-7.87,0-10.61-2.99-2.75-7.64-2.96-10.61,0-3.78,3.78-7.56,7.56-11.34,11.34-2.78,2.78-2.98,7.87,0,10.61,2.99,2.75,7.64,2.96,10.61,0h0Z"/>
    </g>
    <path class="cls-4" d="m560.87,605.06h187.87c9.65,0,9.67-15,0-15h-187.87c-9.65,0-9.67,15,0,15h0Z"/>
    <path class="cls-4" d="m439.9,636.97h197.4c9.65,0,9.67-15,0-15h-197.4c-9.65,0-9.67,15,0,15h0Z"/>
    <path class="cls-4" d="m291,605.06h171.98c9.65,0,9.67-15,0-15h-171.98c-9.65,0-9.67,15,0,15h0Z"/>
    <path class="cls-4" d="m94.12,605.06h128.44c9.65,0,9.67-15,0-15H94.12c-9.65,0-9.67,15,0,15h0Z"/>
    <path class="cls-3" d="m789.05,84.43h54.15c9.65,0,9.67-15,0-15h-54.15c-9.65,0-9.67,15,0,15h0Z"/>
    <path class="cls-3" d="m647.12,163.5h54.15c9.65,0,9.67-15,0-15h-54.15c-9.65,0-9.67,15,0,15h0Z"/>
    <path class="cls-5" d="m726.9,131.84v-30.61c0-9.65-15-9.67-15,0v30.61c0,9.65,15,9.67,15,0h0Z"/>
    <path class="cls-5" d="m760.65,180.59v110.73l7.5-7.5h-48.75l7.5,7.5v-110.73c0-9.65-15-9.67-15,0v110.73c0,4.05,3.44,7.5,7.5,7.5h48.75c4.05,0,7.5-3.44,7.5-7.5v-110.73c0-9.65-15-9.67-15,0h0Z"/>
    <path class="cls-5" d="m760.65,101.23v30.61c0,9.65,15,9.67,15,0v-30.61c0-9.65-15-9.67-15,0h0Z"/>
    <path class="cls-5" d="m726.9,52.49c0-6.57-.06-13.15,0-19.72.08-9.52,6.9-17.82,16.87-17.82s16.78,8.17,16.87,17.62c.07,6.64,0,13.28,0,19.92,0,9.65,15,9.67,15,0,0-6.41.03-12.82,0-19.23-.05-10.88-4.42-20.74-13.3-27.26-20.99-15.39-49.9.83-50.44,25.97-.15,6.83,0,13.68,0,20.51,0,9.65,15,9.67,15,0h0Z"/>
    <path class="cls-5" d="m862.24,93.73h-170.61l7.5,7.5v-48.75l-7.5,7.5h170.61c-1.77-.73-3.54-1.46-5.3-2.2,8.12,8.12,16.25,16.25,24.37,24.37v-10.61c-8.12,8.12-16.25,16.25-24.37,24.37-6.83,6.83,3.77,17.44,10.61,10.61,8.12-8.12,16.25-16.25,24.37-24.37,2.86-2.86,2.87-7.74,0-10.61-5.11-5.11-10.21-10.21-15.32-15.32-3.87-3.87-8.73-10.92-14.64-11.25-9.36-.53-18.91,0-28.28,0h-142.05c-4.05,0-7.5,3.44-7.5,7.5v48.75c0,4.05,3.44,7.5,7.5,7.5h170.61c9.65,0,9.67-15,0-15Z"/>
    <path class="cls-5" d="m625.31,188.09h170.61c4.05,0,7.5-3.44,7.5-7.5v-48.75c0-4.05-3.44-7.5-7.5-7.5h-78.81c-30.11,0-60.33-.79-90.42,0-5.94.16-9.17,4.68-13.1,8.62l-17.95,17.95c-2.86,2.86-2.87,7.74,0,10.61,8.12,8.12,16.25,16.25,24.37,24.37,6.83,6.83,17.44-3.77,10.61-10.61-8.12-8.12-16.25-16.25-24.37-24.37v10.61c8.12-8.12,16.25-16.25,24.37-24.37-1.77.73-3.54,1.46-5.3,2.2h170.61l-7.5-7.5v48.75l7.5-7.5h-170.61c-9.65,0-9.67,15,0,15Z"/>
    <g>
      <path class="cls-4" d="m858.42,283.49c.3-16.87,13.63-30.2,30.5-30.5,9.64-.17,9.67-15.17,0-15-25.09.45-45.05,20.41-45.5,45.5-.17,9.66,14.83,9.66,15,0h0Z"/>
      <path class="cls-4" d="m915.18,279.25c-.3,16.87-13.63,30.2-30.5,30.5-9.64.17-9.67,15.17,0,15,25.09-.45,45.05-20.41,45.5-45.5.17-9.66-14.83-9.66-15,0h0Z"/>
      <path class="cls-4" d="m886.8,288.87c9.65,0,9.67-15,0-15s-9.67,15,0,15h0Z"/>
      <path class="cls-4" d="m865.59,310.08c9.65,0,9.67-15,0-15s-9.67,15,0,15h0Z"/>
      <path class="cls-4" d="m908.51,268.16c9.65,0,9.67-15,0-15s-9.67,15,0,15h0Z"/>
    </g>
    <g>
      <path class="cls-1" d="m292.75,461.23c-31.52,29.68-63.03,59.35-94.55,89.03-4.45,4.19-8.89,8.37-13.34,12.56-7.04,6.63,3.58,17.22,10.61,10.61,31.52-29.68,63.03-59.35,94.55-89.03,4.45-4.19,8.89-8.37,13.34-12.56,7.04-6.63-3.58-17.22-10.61-10.61h0Z"/>
      <path class="cls-3" d="m218.86,574.28c8.28,8.77,16.21,18.08,24.93,26.41,9.09,8.68,23,4.9,27.18-6.67.93-2.57,1.67-5.21,2.51-7.81,9.68-30.12,19.36-60.23,29.04-90.35,1.7-5.29,3.4-10.58,5.1-15.87,1.17-3.64,2.49-7.05,2.16-10.98-.9-10.81-11.33-16.31-21.17-14-3.69.87-7.35,1.9-11.02,2.85-31,8.02-62,16.04-93,24.05-9.58,2.48-23.3,3.61-27.15,14.39-3.19,8.95,2.23,15.26,7.88,21.24,5.62,5.96,11.24,11.91,16.86,17.87,1.26,1.33,2.51,2.66,3.77,3.99,6.64,7.04,17.23-3.59,10.61-10.61-3.59-3.8-7.18-7.6-10.76-11.41-2.63-2.79-5.26-5.58-7.89-8.36-1.77-1.87-4.31-3.83-5.68-6.02-1.24-1.98-.22-2.28,1.67-2.84,3.56-1.05,7.21-1.86,10.8-2.79,28.71-7.43,57.43-14.85,86.14-22.28,5.13-1.33,10.27-2.66,15.4-3.98,1.83-.47,5.25-2.13,7.16-1.85,2.34.34,1.07,2.62.54,4.27-1.29,4.02-2.59,8.05-3.88,12.07-9.13,28.39-18.25,56.78-27.38,85.17-1.63,5.06-3.25,10.12-4.88,15.19-.52,1.61-.8,5.26-3.07,4.45-1.31-.47-2.95-3.1-3.85-4.06-2.87-3.04-5.74-6.08-8.61-9.12-4.27-4.52-8.54-9.05-12.81-13.57-6.64-7.04-17.23,3.59-10.61,10.61h0Z"/>
    </g>
  </g>
</svg>