<?xml version="1.0" encoding="UTF-8"?>
<svg id="Layer_2" data-name="Layer 2" xmlns="http://www.w3.org/2000/svg" viewBox="0 0 565.1 402.9">
  <defs>
    <style>
      .cls-1 {
        fill: #f7af1e;
      }

      .cls-2 {
        fill: #0065ff;
      }

      .cls-3 {
        fill: #e6e6e6;
      }

      .cls-4 {
        fill: #fff;
      }

      .cls-5 {
        fill: #ff4325;
      }

      .cls-6 {
        fill: #6ab54a;
      }

      .cls-7 {
        fill: #999;
      }

      .cls-8 {
        fill: #9e005d;
      }

      .cls-9 {
        fill: #333;
      }

      .cls-10 {
        fill: #d7f3ff;
      }

      .cls-11 {
        fill: #ccc;
      }

      .cls-12 {
        fill: #5d2d91;
      }
    </style>
  </defs>
  <g id="Layer_1-2" data-name="Layer 1">
    <g>
      <path class="cls-7" d="m563.72,394.91h-141.71c-5.45,0-10.69-1.99-14.77-5.6l-91.34-80.82c-3.55-3.14-8.11-4.86-12.84-4.86h-92.75c-5.87,0-11.42-2.27-15.61-6.38l-87.1-85.42c-3.64-3.57-8.46-5.54-13.57-5.54H2.97v-2.92h91.06c5.87,0,11.42,2.26,15.61,6.38l87.1,85.42c3.64,3.57,8.46,5.54,13.57,5.54h92.75c5.45,0,10.69,1.99,14.77,5.6l91.34,80.82c3.55,3.14,8.11,4.86,12.84,4.86h141.71v2.92Z"/>
      <g>
        <rect class="cls-3" x="2.97" y="203.38" width="2.5" height="2.92"/>
        <path class="cls-3" d="m556.18,394.91h-5.02v-2.92h5.02v2.92Zm-10.03,0h-5.02v-2.92h5.02v2.92Zm-10.03,0h-5.02v-2.92h5.02v2.92Zm-10.03,0h-5.02v-2.92h5.02v2.92Zm-10.03,0h-5.02v-2.92h5.02v2.92Zm-10.03,0h-5.02v-2.92h5.02v2.92Zm-10.03,0h-5.02v-2.92h5.02v2.92Zm-10.03,0h-5.02v-2.92h5.02v2.92Zm-10.03,0h-5.02v-2.92h5.02v2.92Zm-10.03,0h-5.02v-2.92h5.02v2.92Zm-10.03,0h-5.02v-2.92h5.02v2.92Zm-10.03,0h-5.02v-2.92h5.02v2.92Zm-10.03,0h-5.02v-2.92h5.02v2.92Zm-10.03,0h-3.76c-.45,0-.9-.01-1.34-.04l.18-2.91c.39.02.78.04,1.17.04h3.76v2.92Zm-10.37-1c-1.71-.53-3.35-1.27-4.88-2.19l1.5-2.5c1.33.8,2.76,1.44,4.25,1.9l-.87,2.79Zm-9.07-5.4l-3.76-3.32,1.93-2.18,3.76,3.32-1.93,2.18Zm-7.51-6.65l-3.76-3.32,1.93-2.18,3.76,3.32-1.93,2.18Zm-7.51-6.65l-3.76-3.32,1.93-2.18,3.76,3.32-1.93,2.18Zm-7.51-6.65l-3.76-3.32,1.93-2.18,3.76,3.32-1.93,2.18Zm-7.51-6.65l-3.76-3.32,1.93-2.18,3.76,3.32-1.93,2.18Zm-7.51-6.65l-3.76-3.32,1.93-2.18,3.76,3.32-1.93,2.18Zm-7.51-6.65l-3.76-3.32,1.93-2.18,3.76,3.32-1.93,2.18Zm-7.51-6.65l-3.76-3.32,1.93-2.18,3.76,3.32-1.93,2.18Zm-7.51-6.65l-3.76-3.32,1.93-2.18,3.76,3.32-1.93,2.18Zm-7.51-6.65l-3.76-3.32,1.93-2.18,3.76,3.32-1.93,2.18Zm-7.51-6.65l-3.76-3.32,1.93-2.18,3.76,3.32-1.93,2.18Zm-7.51-6.65l-3.76-3.32,1.93-2.18,3.76,3.32-1.93,2.18Zm-7.51-6.65l-.28-.25c-1.08-.95-2.26-1.79-3.52-2.48l1.4-2.56c1.45.79,2.81,1.75,4.05,2.85l.28.25-1.93,2.18Zm-8.12-4.46c-1.5-.4-3.05-.62-4.61-.65l.06-2.91c1.79.04,3.57.29,5.3.75l-.75,2.82Zm-9.59-.66h-5.02v-2.92h5.02v2.92Zm-10.03,0h-5.02v-2.92h5.02v2.92Zm-10.03,0h-5.02v-2.92h5.02v2.92Zm-10.03,0h-5.02v-2.92h5.02v2.92Zm-10.03,0h-5.02v-2.92h5.02v2.92Zm-10.03,0h-5.02v-2.92h5.02v2.92Zm-10.03,0h-5.02v-2.92h5.02v2.92Zm-10.03,0h-5.02v-2.92h5.02v2.92Zm-10.03,0h-5.02v-2.92h5.02v2.92Zm-10.18-.12c-1.78-.18-3.54-.58-5.22-1.18l.98-2.75c1.46.52,2.99.87,4.54,1.03l-.3,2.9Zm-10.01-3.58c-1.19-.79-2.3-1.69-3.32-2.68l-.73-.71,2.04-2.08.73.71c.88.87,1.85,1.65,2.89,2.33l-1.61,2.43Zm-7.63-6.91l-3.58-3.51,2.04-2.08,3.58,3.51-2.04,2.08Zm-7.16-7.02l-3.58-3.51,2.04-2.08,3.58,3.51-2.04,2.08Zm-7.16-7.02l-3.58-3.51,2.04-2.08,3.58,3.51-2.04,2.08Zm-7.16-7.02l-3.58-3.51,2.04-2.08,3.58,3.51-2.04,2.08Zm-7.16-7.02l-3.58-3.51,2.04-2.08,3.58,3.51-2.04,2.08Zm-7.16-7.02l-3.58-3.51,2.04-2.08,3.58,3.51-2.04,2.08Zm-7.16-7.02l-3.58-3.51,2.04-2.08,3.58,3.51-2.04,2.08Zm-7.16-7.02l-3.58-3.51,2.04-2.08,3.58,3.51-2.04,2.08Zm-7.16-7.02l-3.58-3.51,2.04-2.08,3.58,3.51-2.04,2.08Zm-7.16-7.02l-3.58-3.51,2.04-2.08,3.58,3.51-2.04,2.08Zm-7.16-7.02l-3.58-3.51,2.04-2.08,3.58,3.51-2.04,2.08Zm-7.16-7.02l-3.58-3.51,2.04-2.08,3.58,3.51-2.04,2.08Zm-7.22-6.48c-1.31-.83-2.73-1.5-4.2-2l.93-2.77c1.7.57,3.32,1.34,4.84,2.3l-1.56,2.47Zm-8.76-2.93c-.53-.04-1.07-.07-1.6-.07h-3.3v-2.92h3.3c.61,0,1.23.03,1.84.08l-.24,2.91Zm-9.91-.07h-5.02v-2.92h5.02v2.92Zm-10.03,0h-5.02v-2.92h5.02v2.92Zm-10.03,0h-5.02v-2.92h5.02v2.92Zm-10.03,0h-5.02v-2.92h5.02v2.92Zm-10.03,0h-5.02v-2.92h5.02v2.92Zm-10.03,0h-5.02v-2.92h5.02v2.92Zm-10.03,0h-5.02v-2.92h5.02v2.92Zm-10.03,0h-5.02v-2.92h5.02v2.92Z"/>
        <rect class="cls-3" x="561.22" y="391.99" width="2.5" height="2.92"/>
      </g>
    </g>
    <path class="cls-10" d="m531.17.58v107.55c0,9.09-3.67,17.81-10.21,24.24h0c-6.54,6.43-10.21,15.15-10.21,24.24v55.15h-191.93c-11.01,0-21.56-4.31-29.32-11.99l-109.5-108.27c-8.69-8.59-20.5-13.42-32.82-13.42h-44.83c-24.73,0-48.18-10.82-63.99-29.52L2.03,5.6v85.67h94.72c18.38,0,36,7.21,48.96,20.02l42.59,42.11c3.94,3.89,10.34,3.89,14.28,0h0c3.94-3.89,10.34-3.89,14.28,0l70.71,69.91c7.76,7.67,18.31,11.99,29.32,11.99h45.71c6.05,0,11.85-2.37,16.12-6.59h0c4.27-4.22,10.07-6.59,16.12-6.59h89.98c8.13,0,15.79,3.75,20.69,10.14h0c3.38,4.42,5.22,9.8,5.22,15.33v22.61c0,11.81,4.77,23.14,13.27,31.5l1.57,1.55c10.12,9.95,23.83,15.53,38.14,15.53h0V.58h-32.55Z"/>
    <path class="cls-5" d="m468.61,234.94c-2.88,0-5.21-2.33-5.21-5.21V73.44c0-8.62-7.01-15.62-15.62-15.62h-90.22c-4.17,0-8.1,1.63-11.05,4.58l-123.1,123.1c-4.92,4.92-11.46,7.63-18.41,7.63s-13.5-2.71-18.41-7.63l-44.91-44.91c-4.92-4.92-7.63-11.46-7.63-18.41v-43.35c0-4.13-1.68-8.17-4.61-11.08L73.66,12.25c-2.04-2.03-2.05-5.33-.02-7.37,2.03-2.04,5.33-2.05,7.37-.02l55.77,55.49c4.88,4.85,7.68,11.58,7.68,18.46v43.35c0,4.17,1.62,8.1,4.58,11.05l44.91,44.91c2.95,2.95,6.88,4.58,11.05,4.58s8.1-1.62,11.05-4.58l123.1-123.1c4.92-4.92,11.46-7.63,18.41-7.63h90.22c14.36,0,26.04,11.68,26.04,26.04v156.29c0,2.88-2.33,5.21-5.21,5.21Z"/>
    <path class="cls-2" d="m340.95,310.9c-2.88,0-5.21-2.33-5.21-5.21v-96.61c0-14.36,11.68-26.04,26.04-26.04h75.86c4.17,0,8.1-1.62,11.05-4.58l53.54-53.54c2.95-2.95,4.58-6.88,4.58-11.05V5.21c0-2.88,2.33-5.21,5.21-5.21s5.21,2.33,5.21,5.21v108.66c0,6.96-2.71,13.5-7.63,18.41l-53.54,53.54c-4.92,4.92-11.46,7.63-18.41,7.63h-75.86c-8.62,0-15.62,7.01-15.62,15.62v96.61c0,2.88-2.33,5.21-5.21,5.21Z"/>
    <g>
      <path class="cls-4" d="m512.02,66.05c-1.75,0-3.16-1.39-3.16-3.1s1.41-3.11,3.16-3.11,3.16,1.39,3.16,3.11-1.41,3.1-3.16,3.1Z"/>
      <path class="cls-4" d="m512.02,36.68c-1.75,0-3.16-1.39-3.16-3.1s1.41-3.1,3.16-3.1,3.16,1.39,3.16,3.1-1.41,3.1-3.16,3.1Z"/>
      <path class="cls-4" d="m512.02,8.44c-1.75,0-3.16-1.39-3.16-3.1s1.41-3.11,3.16-3.11,3.16,1.39,3.16,3.11-1.41,3.1-3.16,3.1Z"/>
      <path class="cls-4" d="m512.02,96.12c-1.75,0-3.16-1.39-3.16-3.1s1.41-3.11,3.16-3.11,3.16,1.39,3.16,3.11-1.41,3.1-3.16,3.1Z"/>
      <path class="cls-4" d="m510.58,124.85c-1.75,0-3.16-1.39-3.16-3.1s1.41-3.11,3.16-3.11,3.16,1.39,3.16,3.11-1.42,3.1-3.16,3.1Z"/>
      <path class="cls-4" d="m486.85,147.98c-1.23-1.23-1.25-3.22-.04-4.43,1.21-1.21,3.2-1.2,4.43.04,1.23,1.23,1.25,3.22.04,4.43-1.21,1.21-3.2,1.2-4.43-.04Z"/>
      <path class="cls-4" d="m449.13,184.79c-.47-.72-.64-1.58-.57-2.33.07-.76.36-1.44.91-1.92.27-.25.56-.41.93-.54.38-.15.78-.22,1.18-.22.8,0,1.61.32,2.22.94.62.62.93,1.42.94,2.22,0,.4-.07.8-.22,1.18-.16.39-.46.79-.82,1.12-.74.66-1.67.94-2.51.84-.85-.1-1.58-.55-2.06-1.29Z"/>
      <path class="cls-4" d="m431.18,188.24c0-1.75,1.39-3.16,3.11-3.16s3.1,1.41,3.1,3.16-1.39,3.16-3.1,3.16-3.11-1.41-3.11-3.16Z"/>
      <path class="cls-4" d="m382.31,188.24c0-1.75,1.39-3.16,3.11-3.16s3.1,1.41,3.1,3.16-1.39,3.16-3.1,3.16-3.11-1.41-3.11-3.16Z"/>
      <path class="cls-4" d="m357.52,188.24c0-1.75,1.39-3.16,3.11-3.16s3.1,1.41,3.1,3.16-1.39,3.16-3.1,3.16-3.11-1.41-3.11-3.16Z"/>
      <path class="cls-4" d="m340.95,216.09c-1.75,0-3.16-1.39-3.16-3.1s1.41-3.11,3.16-3.11,3.16,1.39,3.16,3.11-1.42,3.1-3.16,3.1Z"/>
      <path class="cls-4" d="m340.95,282.08c-1.75,0-3.16-1.39-3.16-3.1s1.41-3.11,3.16-3.11,3.16,1.39,3.16,3.11-1.42,3.1-3.16,3.1Z"/>
      <path class="cls-4" d="m340.95,308.75c-1.75,0-3.16-1.39-3.16-3.11s1.41-3.1,3.16-3.1,3.16,1.39,3.16,3.1-1.42,3.11-3.16,3.11Z"/>
    </g>
    <path class="cls-8" d="m520.95,398.98c-2.88,0-5.21-2.33-5.21-5.21v-34.77c0-4.17-1.62-8.1-4.58-11.05l-100.78-100.77c-4.92-4.92-7.63-11.46-7.63-18.42V5.21c0-2.88,2.33-5.21,5.21-5.21s5.21,2.33,5.21,5.21v223.55c0,4.17,1.62,8.1,4.58,11.05l100.77,100.78c4.92,4.92,7.63,11.46,7.63,18.41v34.77c0,2.88-2.33,5.21-5.21,5.21Z"/>
    <path class="cls-1" d="m358.53,385.51c-6.6,0-13.19-2.47-18.24-7.42l-65.04-63.83c-4.96-4.87-7.8-11.64-7.8-18.59v-156.88c0-4.17-1.62-8.1-4.58-11.05l-38.86-38.86c-4.92-4.92-7.63-11.46-7.63-18.41V30.99c0-14.36,11.68-26.04,26.04-26.04h57.04c2.88,0,5.21,2.33,5.21,5.21s-2.33,5.21-5.21,5.21h-57.04c-8.62,0-15.62,7.01-15.62,15.62v39.47c0,4.17,1.63,8.1,4.58,11.05l38.86,38.86c4.92,4.92,7.63,11.46,7.63,18.41v156.88c0,4.17,1.71,8.23,4.68,11.15l65.04,63.83c6.09,5.98,15.96,5.93,21.99-.1l30.09-30.09c2.03-2.03,5.33-2.03,7.37,0,2.03,2.03,2.03,5.33,0,7.37l-30.09,30.09c-5.06,5.06-11.74,7.59-18.42,7.59Z"/>
    <path class="cls-6" d="m559.89,355.9h-94.46c-6.96,0-13.5-2.71-18.41-7.63l-95.02-95.02c-6.09-6.09-16-6.09-22.1,0l-90.72,90.72c-4.92,4.92-11.46,7.63-18.41,7.63h-.02c-6.96,0-13.5-2.72-18.42-7.66-18.45-18.51-49.86-49.72-62.51-62.28-4.89-4.85-7.69-11.59-7.69-18.48v-69.5c0-4.17-1.63-8.1-4.58-11.05l-52.9-52.9c-2.95-2.95-6.88-4.58-11.05-4.58H5.21c-2.88,0-5.21-2.33-5.21-5.21s2.33-5.21,5.21-5.21h58.39c6.96,0,13.5,2.71,18.41,7.63l52.9,52.9c4.92,4.92,7.63,11.46,7.63,18.41v69.5c0,4.19,1.64,8.13,4.61,11.08,12.65,12.57,44.08,43.79,62.55,62.32,2.95,2.96,6.87,4.59,11.05,4.59h.01c4.17,0,8.1-1.62,11.05-4.58l90.72-90.72c10.15-10.15,26.67-10.15,36.83,0l95.02,95.02c2.95,2.95,6.88,4.58,11.05,4.58h94.46c2.88,0,5.21,2.33,5.21,5.21s-2.33,5.21-5.21,5.21Z"/>
    <path class="cls-12" d="m124.41,397.07c-1.34,0-2.67-.51-3.69-1.53l-47.99-48.15c-4.91-4.91-7.62-11.45-7.62-18.41v-69.15c0-14.36,11.68-26.04,26.04-26.04h136.18c4.17,0,8.1-1.63,11.05-4.58l115.14-115.14c4.92-4.92,11.46-7.63,18.42-7.63h62.86c2.88,0,5.21,2.33,5.21,5.21s-2.33,5.21-5.21,5.21h-62.86c-4.17,0-8.1,1.62-11.05,4.58l-115.14,115.14c-4.92,4.92-11.46,7.63-18.41,7.63H91.15c-8.62,0-15.62,7.01-15.62,15.62v69.15c0,4.17,1.63,8.1,4.58,11.05l48,48.16c2.03,2.04,2.03,5.34-.01,7.37-1.02,1.01-2.35,1.52-3.68,1.52Z"/>
    <g>
      <path class="cls-4" d="m94.41,25.56c-1.23,1.24-3.24,1.23-4.49,0s-1.26-3.25-.03-4.49c1.23-1.24,3.24-1.23,4.49,0,1.25,1.24,1.26,3.25.03,4.49Z"/>
      <path class="cls-4" d="m79.57,10.56c-1.23,1.24-3.24,1.23-4.49,0-1.25-1.24-1.26-3.25-.03-4.49,1.23-1.24,3.24-1.23,4.49,0s1.26,3.25.03,4.49Z"/>
      <path class="cls-4" d="m110.85,41.93c-1.23,1.24-3.24,1.23-4.49,0-1.25-1.24-1.26-3.25-.03-4.49,1.23-1.24,3.24-1.23,4.49,0,1.25,1.24,1.26,3.25.03,4.49Z"/>
      <path class="cls-4" d="m128.72,59.67c-1.23,1.24-3.24,1.23-4.49,0-1.25-1.24-1.26-3.25-.03-4.49,1.23-1.24,3.24-1.23,4.49,0,1.25,1.24,1.26,3.25.03,4.49Z"/>
      <path class="cls-4" d="m139.04,92.79c-1.74,0-3.16-1.43-3.16-3.19s1.41-3.19,3.16-3.19,3.16,1.43,3.16,3.19-1.41,3.19-3.16,3.19Z"/>
      <ellipse class="cls-4" cx="139.25" cy="111.92" rx="3.16" ry="3.19"/>
      <path class="cls-4" d="m153.3,144.95c-1.23,1.23-3.24,1.22-4.49-.02s-1.25-3.26-.02-4.49c1.23-1.23,3.24-1.22,4.49.02,1.25,1.25,1.25,3.26.02,4.49Z"/>
      <path class="cls-4" d="m171.19,162.73c-1.23,1.23-3.24,1.22-4.49-.02s-1.25-3.26-.02-4.49c1.23-1.23,3.24-1.22,4.49.02,1.25,1.25,1.25,3.25.02,4.49Z"/>
      <path class="cls-4" d="m188.66,180.2c-1.23,1.23-3.24,1.22-4.49-.02-1.25-1.25-1.25-3.26-.02-4.49s3.24-1.22,4.49.02c1.25,1.25,1.25,3.26.02,4.49Z"/>
      <path class="cls-4" d="m223.55,177.87c1.23,1.23,1.22,3.24-.02,4.49-1.25,1.25-3.26,1.25-4.49.02s-1.22-3.24.02-4.49c1.25-1.25,3.26-1.25,4.49-.02Z"/>
      <path class="cls-4" d="m240.38,161.15c1.23,1.23,1.22,3.24-.02,4.49-1.25,1.25-3.26,1.25-4.49.02-1.23-1.23-1.22-3.24.02-4.49s3.25-1.25,4.49-.02Z"/>
      <path class="cls-4" d="m258.7,142.84c1.23,1.23,1.22,3.24-.02,4.49-1.25,1.25-3.26,1.25-4.49.02s-1.22-3.24.02-4.49,3.25-1.25,4.49-.02Z"/>
      <path class="cls-4" d="m306.02,95.51c1.23,1.23,1.23,3.24-.02,4.49-1.25,1.25-3.25,1.25-4.49.02-1.23-1.23-1.22-3.24.02-4.49,1.25-1.25,3.25-1.25,4.49-.02Z"/>
      <path class="cls-4" d="m289.27,111.95c1.23,1.23,1.22,3.24-.02,4.49-1.25,1.25-3.26,1.25-4.49.02-1.23-1.23-1.22-3.24.02-4.49,1.25-1.25,3.26-1.25,4.49-.02Z"/>
      <path class="cls-4" d="m323.35,78.18c1.23,1.23,1.22,3.24-.02,4.49-1.25,1.25-3.25,1.25-4.49.02-1.23-1.23-1.22-3.24.02-4.49,1.25-1.25,3.25-1.25,4.49-.02Z"/>
      <path class="cls-4" d="m339.88,61.66c1.23,1.23,1.22,3.24-.02,4.49-1.25,1.25-3.26,1.25-4.49.02-1.23-1.23-1.22-3.24.02-4.49,1.25-1.25,3.26-1.25,4.49-.02Z"/>
      <path class="cls-4" d="m366.96,52.6c0,1.74-1.43,3.16-3.19,3.16s-3.19-1.42-3.19-3.16,1.43-3.16,3.19-3.16,3.19,1.41,3.19,3.16Z"/>
      <path class="cls-4" d="m386.92,52.6c0,1.74-1.43,3.16-3.19,3.16s-3.19-1.42-3.19-3.16,1.43-3.16,3.19-3.16,3.19,1.41,3.19,3.16Z"/>
      <path class="cls-4" d="m430.17,52.6c0,1.74-1.43,3.16-3.19,3.16s-3.19-1.42-3.19-3.16,1.43-3.16,3.19-3.16,3.19,1.41,3.19,3.16Z"/>
      <path class="cls-4" d="m468.61,101.11c-1.75,0-3.16-1.43-3.16-3.19s1.41-3.19,3.16-3.19,3.16,1.43,3.16,3.19-1.41,3.19-3.16,3.19Z"/>
      <path class="cls-4" d="m468.61,73.53c-1.75,0-3.16-1.43-3.16-3.19s1.41-3.19,3.16-3.19,3.16,1.43,3.16,3.19-1.41,3.19-3.16,3.19Z"/>
      <path class="cls-4" d="m448.43,55.89c-1.75,0-3.16-1.43-3.16-3.19s1.41-3.19,3.16-3.19,3.16,1.43,3.16,3.19-1.42,3.19-3.16,3.19Z"/>
      <path class="cls-4" d="m468.61,128.95c-1.75,0-3.16-1.43-3.16-3.19s1.41-3.19,3.16-3.19,3.16,1.43,3.16,3.19-1.41,3.19-3.16,3.19Z"/>
      <path class="cls-4" d="m468.61,203.9c-1.75,0-3.16-1.43-3.16-3.19s1.41-3.19,3.16-3.19,3.16,1.43,3.16,3.19-1.41,3.19-3.16,3.19Z"/>
      <path class="cls-4" d="m468.61,232.63c-1.75,0-3.16-1.43-3.16-3.19s1.41-3.19,3.16-3.19,3.16,1.43,3.16,3.19-1.41,3.19-3.16,3.19Z"/>
    </g>
    <g>
      <path class="cls-4" d="m407.97,8.54c-1.75,0-3.16-1.43-3.16-3.19s1.41-3.19,3.16-3.19,3.16,1.43,3.16,3.19-1.42,3.19-3.16,3.19Z"/>
      <path class="cls-4" d="m407.97,84.8c-1.75,0-3.16-1.43-3.16-3.19s1.41-3.19,3.16-3.19,3.16,1.43,3.16,3.19-1.42,3.19-3.16,3.19Z"/>
      <path class="cls-4" d="m407.97,135.7c-1.75,0-3.16-1.43-3.16-3.19s1.41-3.19,3.16-3.19,3.16,1.43,3.16,3.19-1.42,3.19-3.16,3.19Z"/>
      <path class="cls-4" d="m407.97,154.83c-1.75,0-3.16-1.43-3.16-3.19s1.41-3.19,3.16-3.19,3.16,1.43,3.16,3.19-1.42,3.19-3.16,3.19Z"/>
      <path class="cls-4" d="m407.97,173.96c-1.75,0-3.16-1.43-3.16-3.19s1.41-3.19,3.16-3.19,3.16,1.43,3.16,3.19-1.42,3.19-3.16,3.19Z"/>
      <path class="cls-4" d="m407.97,215.61c-1.75,0-3.16-1.43-3.16-3.19s1.41-3.19,3.16-3.19,3.16,1.43,3.16,3.19-1.42,3.19-3.16,3.19Z"/>
      <path class="cls-4" d="m419.8,249.06c-1.23,1.23-3.24,1.22-4.49-.02-1.25-1.25-1.25-3.25-.02-4.49,1.23-1.23,3.24-1.22,4.49.02,1.25,1.25,1.25,3.25.02,4.49Z"/>
      <path class="cls-4" d="m438.86,268.32c-1.23,1.23-3.24,1.23-4.49-.02s-1.25-3.25-.02-4.49,3.24-1.23,4.49.02c1.24,1.25,1.25,3.25.02,4.49Z"/>
      <path class="cls-4" d="m458.76,288.02c-1.23,1.23-3.24,1.22-4.49-.02s-1.25-3.25-.02-4.49c1.23-1.23,3.24-1.22,4.49.02,1.25,1.24,1.25,3.25.02,4.49Z"/>
      <path class="cls-4" d="m472.29,301.55c-1.23,1.23-3.24,1.22-4.49-.02s-1.25-3.25-.02-4.49c1.23-1.23,3.24-1.22,4.49.02,1.25,1.24,1.25,3.25.02,4.49Z"/>
      <path class="cls-4" d="m485.82,315.07c-1.23,1.23-3.24,1.22-4.49-.02-1.25-1.25-1.25-3.25-.02-4.49,1.23-1.23,3.24-1.22,4.49.02,1.25,1.24,1.25,3.25.02,4.49Z"/>
      <path class="cls-4" d="m499.34,328.6c-1.23,1.23-3.24,1.22-4.49-.02-1.24-1.25-1.25-3.25-.02-4.49s3.24-1.22,4.49.02c1.25,1.24,1.25,3.25.02,4.49Z"/>
      <path class="cls-4" d="m520.95,375.71c-1.75,0-3.16-1.43-3.16-3.19s1.41-3.19,3.16-3.19,3.16,1.43,3.16,3.19-1.42,3.19-3.16,3.19Z"/>
      <path class="cls-4" d="m520.95,396.66c-1.75,0-3.16-1.43-3.16-3.19s1.41-3.19,3.16-3.19,3.16,1.43,3.16,3.19-1.42,3.19-3.16,3.19Z"/>
    </g>
    <g>
      <path class="cls-4" d="m280.7,10.16c0-1.75,1.4-3.16,3.13-3.16s3.13,1.41,3.13,3.16-1.4,3.16-3.13,3.16-3.13-1.42-3.13-3.16Z"/>
      <path class="cls-4" d="m296.5,10.16c0-1.75,1.4-3.16,3.13-3.16s3.13,1.41,3.13,3.16-1.4,3.16-3.13,3.16-3.13-1.42-3.13-3.16Z"/>
      <path class="cls-4" d="m261.94,10.16c0-1.75,1.4-3.16,3.13-3.16s3.13,1.41,3.13,3.16-1.4,3.16-3.13,3.16-3.13-1.42-3.13-3.16Z"/>
      <path class="cls-4" d="m243.18,10.16c0-1.75,1.4-3.16,3.13-3.16s3.13,1.41,3.13,3.16-1.4,3.16-3.13,3.16-3.13-1.42-3.13-3.16Z"/>
      <path class="cls-4" d="m221.59,35.03c-1.74,0-3.16-1.4-3.16-3.13,0-.22.02-.43.06-.63.02-.1.05-.2.08-.3.04-.11.08-.22.12-.33.18-.42.43-.79.73-1.09.6-.59,1.4-.87,2.28-.78.85.09,1.63.51,2.18,1.05.27.27.49.57.63.9.04.08.07.16.09.25.03.09.06.2.08.3.04.2.06.41.06.63,0,1.73-1.41,3.13-3.16,3.13Z"/>
      <path class="cls-4" d="m221.59,35.03c-1.74,0-3.16-1.4-3.16-3.13,0-.22.02-.43.06-.63.02-.1.05-.2.08-.3.04-.11.08-.22.12-.33.18-.42.43-.79.73-1.09.6-.59,1.4-.87,2.28-.78.85.09,1.63.51,2.18,1.05.27.27.49.57.63.9.04.08.07.16.09.25.03.09.06.2.08.3.04.2.06.41.06.63,0,1.73-1.41,3.13-3.16,3.13Z"/>
      <path class="cls-4" d="m221.59,53.86c-1.74,0-3.16-1.4-3.16-3.13,0-.22.02-.43.06-.63.02-.1.05-.2.08-.3.04-.11.08-.22.12-.33.18-.42.43-.79.73-1.09.6-.59,1.4-.87,2.28-.78.85.09,1.63.51,2.18,1.05.27.27.49.57.63.9.04.08.07.16.09.25.03.09.06.2.08.3.04.2.06.41.06.63,0,1.73-1.41,3.13-3.16,3.13Z"/>
      <path class="cls-4" d="m221.7,72.55c-.87.09-1.68-.19-2.3-.79-.31-.3-.54-.67-.71-1.09-.09-.23-.15-.4-.19-.61-.04-.2-.06-.41-.06-.63,0-1.73,1.41-3.13,3.16-3.13s3.16,1.4,3.16,3.13c0,.22-.02.43-.06.63-.04.2-.11.41-.18.56-.15.32-.38.62-.65.89-.53.53-1.3.95-2.16,1.04Z"/>
      <path class="cls-4" d="m244.13,101.63c-1.23,1.23-3.22,1.24-4.44.02-1.22-1.22-1.21-3.21.02-4.44s3.22-1.24,4.45-.02c1.22,1.22,1.21,3.21-.02,4.45Z"/>
      <path class="cls-4" d="m257.4,114.9c-1.23,1.23-3.22,1.24-4.44.02-1.22-1.22-1.21-3.21.02-4.45s3.22-1.24,4.44-.02c1.22,1.22,1.21,3.21-.02,4.44Z"/>
      <path class="cls-4" d="m272.65,160.17c-1.75,0-3.16-1.4-3.16-3.13s1.41-3.13,3.16-3.13,3.16,1.4,3.16,3.13-1.41,3.13-3.16,3.13Z"/>
      <path class="cls-4" d="m272.65,181.71c-1.75,0-3.16-1.4-3.16-3.13s1.41-3.13,3.16-3.13,3.16,1.4,3.16,3.13-1.41,3.13-3.16,3.13Z"/>
      <path class="cls-4" d="m272.65,235.75c-1.75,0-3.16-1.4-3.16-3.13s1.41-3.13,3.16-3.13,3.16,1.4,3.16,3.13-1.41,3.13-3.16,3.13Z"/>
      <path class="cls-4" d="m272.65,260.41c-1.75,0-3.16-1.4-3.16-3.13s1.41-3.13,3.16-3.13,3.16,1.4,3.16,3.13-1.41,3.13-3.16,3.13Z"/>
      <path class="cls-4" d="m294.86,326.21c-1.22,1.25-3.21,1.27-4.44.07-1.23-1.21-1.24-3.2-.02-4.45,1.22-1.25,3.21-1.27,4.44-.06,1.23,1.21,1.24,3.2.02,4.44Z"/>
      <path class="cls-4" d="m310.33,341.26c-1.22,1.25-3.21,1.27-4.45.07-1.23-1.21-1.24-3.2-.02-4.45,1.22-1.25,3.21-1.27,4.44-.07,1.23,1.21,1.24,3.2.02,4.45Z"/>
      <path class="cls-4" d="m327.07,357.91c-1.22,1.25-3.21,1.27-4.44.06-1.23-1.21-1.24-3.2-.02-4.44,1.22-1.25,3.21-1.27,4.45-.07,1.23,1.21,1.24,3.2.02,4.45Z"/>
      <path class="cls-4" d="m344.39,374.78c-1.22,1.25-3.21,1.27-4.44.06-1.23-1.21-1.24-3.2-.02-4.45,1.22-1.25,3.21-1.27,4.44-.06,1.23,1.21,1.24,3.2.02,4.45Z"/>
      <path class="cls-4" d="m380.28,367.37c1.23,1.23,1.24,3.22.02,4.44s-3.21,1.21-4.45-.02-1.24-3.22-.02-4.45,3.21-1.21,4.45.02Z"/>
      <path class="cls-4" d="m393.71,353.95c1.23,1.23,1.24,3.22.02,4.44-1.22,1.22-3.21,1.21-4.45-.02-1.23-1.23-1.24-3.22-.02-4.44,1.22-1.22,3.21-1.21,4.45.02Z"/>
      <path class="cls-4" d="m405.67,341.98c1.23,1.23,1.24,3.22.02,4.45s-3.21,1.21-4.45-.02c-1.23-1.23-1.24-3.22-.02-4.44s3.21-1.21,4.45.02Z"/>
    </g>
    <g>
      <path class="cls-4" d="m556.53,350.69c0-1.75,1.43-3.16,3.19-3.16s3.19,1.41,3.19,3.16-1.43,3.16-3.19,3.16-3.19-1.41-3.19-3.16Z"/>
      <path class="cls-4" d="m483.26,350.69c0-1.75,1.43-3.16,3.19-3.16s3.19,1.41,3.19,3.16-1.43,3.16-3.19,3.16-3.19-1.41-3.19-3.16Z"/>
      <path class="cls-4" d="m434.23,328.12c1.23-1.23,3.25-1.22,4.49.02,1.25,1.25,1.26,3.26.02,4.49-1.23,1.23-3.25,1.22-4.49-.02-1.25-1.25-1.26-3.26-.02-4.49Z"/>
      <path class="cls-4" d="m420.69,314.57c1.23-1.23,3.25-1.22,4.49.02,1.25,1.25,1.26,3.26.02,4.49-1.23,1.23-3.25,1.22-4.49-.02-1.25-1.25-1.26-3.26-.02-4.49Z"/>
      <path class="cls-4" d="m407.14,301.02c1.23-1.23,3.25-1.22,4.49.02,1.25,1.25,1.26,3.26.02,4.49-1.23,1.23-3.25,1.22-4.49-.02-1.25-1.25-1.26-3.26-.02-4.49Z"/>
      <path class="cls-4" d="m393.59,287.48c1.23-1.23,3.25-1.22,4.49.02,1.25,1.25,1.26,3.26.02,4.49-1.23,1.23-3.25,1.22-4.49-.02-1.25-1.25-1.26-3.26-.02-4.49Z"/>
      <path class="cls-4" d="m380.05,273.93c1.23-1.23,3.25-1.22,4.49.02,1.25,1.25,1.26,3.26.02,4.49s-3.24,1.22-4.49-.02-1.26-3.26-.02-4.49Z"/>
      <path class="cls-4" d="m366.5,260.38c1.23-1.23,3.25-1.22,4.49.02,1.25,1.25,1.26,3.26.02,4.49-1.23,1.23-3.25,1.22-4.49-.02-1.25-1.25-1.26-3.26-.02-4.49Z"/>
      <path class="cls-4" d="m310.38,265.41c-1.23-1.23-1.22-3.25.02-4.49,1.25-1.25,3.26-1.26,4.49-.02,1.23,1.23,1.22,3.25-.02,4.49-1.25,1.25-3.26,1.26-4.49.02Z"/>
      <path class="cls-4" d="m294.78,280.8c-1.23-1.23-1.22-3.24.02-4.49,1.25-1.25,3.26-1.26,4.49-.02,1.23,1.23,1.22,3.24-.02,4.49-1.25,1.25-3.26,1.26-4.49.02Z"/>
      <path class="cls-4" d="m250.42,325.59c-1.23-1.23-1.22-3.24.02-4.49,1.25-1.25,3.26-1.26,4.49-.02,1.23,1.23,1.22,3.25-.02,4.49-1.25,1.25-3.26,1.26-4.49.02Z"/>
      <path class="cls-4" d="m236.96,338.99c-1.23-1.23-1.22-3.24.02-4.49,1.25-1.25,3.26-1.26,4.49-.02,1.23,1.23,1.22,3.25-.02,4.49-1.25,1.25-3.26,1.26-4.49.02Z"/>
      <path class="cls-4" d="m194.77,329.07c1.23-1.23,3.25-1.22,4.5.02,1.25,1.24,1.26,3.25.03,4.49-1.23,1.23-3.25,1.22-4.5-.02-1.25-1.24-1.26-3.25-.03-4.49Z"/>
      <path class="cls-4" d="m181.2,315.55c1.23-1.24,3.25-1.23,4.5.02,1.25,1.25,1.26,3.25.03,4.49s-3.25,1.23-4.5-.02c-1.25-1.24-1.26-3.25-.03-4.49Z"/>
      <path class="cls-4" d="m167.62,302.03c1.23-1.24,3.24-1.23,4.49.02,1.25,1.25,1.26,3.26.03,4.49-1.23,1.24-3.24,1.23-4.49-.02-1.25-1.24-1.26-3.25-.03-4.49Z"/>
      <path class="cls-4" d="m154.05,288.5c1.23-1.24,3.24-1.23,4.49.01,1.25,1.25,1.26,3.26.03,4.49-1.23,1.24-3.24,1.23-4.49-.01-1.25-1.25-1.26-3.26-.03-4.49Z"/>
      <path class="cls-4" d="m137.34,257.64c1.75,0,3.16,1.43,3.16,3.19s-1.41,3.19-3.16,3.19-3.16-1.43-3.16-3.19,1.41-3.19,3.16-3.19Z"/>
      <path class="cls-4" d="m137.34,217.41c1.75,0,3.16,1.43,3.16,3.19s-1.41,3.19-3.16,3.19-3.16-1.43-3.16-3.19,1.41-3.19,3.16-3.19Z"/>
      <path class="cls-4" d="m137.34,198.25c1.75,0,3.16,1.43,3.16,3.19s-1.41,3.19-3.16,3.19-3.16-1.43-3.16-3.19,1.41-3.19,3.16-3.19Z"/>
      <path class="cls-4" d="m115.78,163.5c1.23-1.23,3.25-1.22,4.49.02,1.25,1.25,1.26,3.26.02,4.49s-3.25,1.22-4.49-.02c-1.25-1.25-1.26-3.26-.02-4.49Z"/>
      <path class="cls-4" d="m102.24,149.95c1.23-1.23,3.24-1.22,4.49.02,1.25,1.25,1.26,3.26.02,4.49-1.23,1.23-3.24,1.22-4.49-.02-1.25-1.25-1.26-3.26-.02-4.49Z"/>
      <path class="cls-4" d="m88.69,136.4c1.23-1.23,3.25-1.22,4.49.02,1.25,1.25,1.26,3.26.02,4.49-1.23,1.23-3.25,1.22-4.49-.02-1.25-1.25-1.26-3.26-.02-4.49Z"/>
      <path class="cls-4" d="m44.48,119.94c0-1.75,1.43-3.16,3.19-3.16s3.19,1.41,3.19,3.16-1.43,3.16-3.19,3.16-3.19-1.41-3.19-3.16Z"/>
      <path class="cls-4" d="m22.61,119.94c0-1.75,1.43-3.16,3.19-3.16s3.19,1.41,3.19,3.16-1.43,3.16-3.19,3.16-3.19-1.41-3.19-3.16Z"/>
      <path class="cls-4" d="m2.18,119.94c0-1.75,1.43-3.16,3.19-3.16s3.19,1.41,3.19,3.16-1.43,3.16-3.19,3.16-3.19-1.41-3.19-3.16Z"/>
    </g>
    <g>
      <path class="cls-4" d="m431.69,111.64c0-1.75,1.47-3.16,3.28-3.16s3.28,1.41,3.28,3.16-1.47,3.16-3.28,3.16-3.28-1.41-3.28-3.16Z"/>
      <path class="cls-4" d="m366.36,111.64c0-1.75,1.47-3.16,3.28-3.16s3.28,1.41,3.28,3.16-1.47,3.16-3.28,3.16-3.28-1.41-3.28-3.16Z"/>
      <path class="cls-4" d="m382.74,111.64c0-1.75,1.47-3.16,3.28-3.16s3.28,1.41,3.28,3.16-1.47,3.16-3.28,3.16-3.28-1.41-3.28-3.16Z"/>
      <path class="cls-4" d="m343.6,131.33c-1.23-1.23-1.2-3.27.09-4.55,1.28-1.28,3.32-1.32,4.55-.09,1.23,1.23,1.2,3.27-.09,4.55s-3.32,1.32-4.55.09Z"/>
      <path class="cls-4" d="m329.68,145.25c-1.23-1.23-1.2-3.27.09-4.55,1.28-1.28,3.32-1.32,4.55-.09,1.23,1.23,1.2,3.27-.09,4.55s-3.32,1.32-4.55.09Z"/>
      <path class="cls-4" d="m315.76,159.17c-1.23-1.23-1.2-3.27.09-4.55,1.28-1.28,3.32-1.32,4.55-.09,1.23,1.23,1.2,3.27-.09,4.55s-3.32,1.32-4.55.09Z"/>
      <path class="cls-4" d="m301.84,173.1c-1.23-1.23-1.2-3.27.09-4.55,1.28-1.28,3.32-1.32,4.55-.09,1.23,1.23,1.2,3.27-.09,4.55-1.28,1.28-3.32,1.32-4.55.09Z"/>
      <path class="cls-4" d="m287.92,187.02c-1.23-1.23-1.2-3.27.09-4.55,1.28-1.28,3.32-1.32,4.55-.09,1.23,1.23,1.2,3.27-.09,4.55-1.28,1.28-3.32,1.32-4.55.09Z"/>
      <path class="cls-4" d="m257.85,217.09c-1.23-1.23-1.2-3.27.09-4.55,1.28-1.28,3.32-1.32,4.55-.09,1.23,1.23,1.2,3.27-.09,4.55-1.28,1.28-3.32,1.32-4.55.09Z"/>
      <path class="cls-4" d="m243.77,231.17c-1.23-1.23-1.2-3.27.09-4.55,1.28-1.28,3.32-1.32,4.55-.09,1.23,1.23,1.2,3.27-.09,4.55-1.28,1.28-3.32,1.32-4.55.09Z"/>
      <ellipse class="cls-4" cx="218.4" cy="238.98" rx="3.25" ry="3.16"/>
      <ellipse class="cls-4" cx="198.9" cy="238.98" rx="3.25" ry="3.16"/>
      <path class="cls-4" d="m176.15,238.98c0-1.75,1.45-3.16,3.25-3.16s3.25,1.41,3.25,3.16-1.46,3.16-3.25,3.16-3.25-1.41-3.25-3.16Z"/>
      <ellipse class="cls-4" cx="159.91" cy="238.98" rx="3.25" ry="3.16"/>
      <path class="cls-4" d="m108.98,238.98c0-1.75,1.46-3.16,3.25-3.16s3.25,1.41,3.25,3.16-1.46,3.16-3.25,3.16-3.25-1.41-3.25-3.16Z"/>
      <path class="cls-4" d="m87.28,238.98c0-1.75,1.46-3.16,3.25-3.16s3.25,1.41,3.25,3.16-1.45,3.16-3.25,3.16-3.25-1.41-3.25-3.16Z"/>
      <path class="cls-4" d="m70.31,272.35c-1.75,0-3.16-1.46-3.16-3.25s1.41-3.25,3.16-3.25,3.16,1.46,3.16,3.25-1.41,3.25-3.16,3.25Z"/>
      <path class="cls-4" d="m70.31,298.07c-1.75,0-3.16-1.46-3.16-3.25s1.41-3.25,3.16-3.25,3.16,1.45,3.16,3.25-1.41,3.25-3.16,3.25Z"/>
      <path class="cls-4" d="m70.31,325.23c-1.75,0-3.16-1.46-3.16-3.25s1.41-3.25,3.16-3.25,3.16,1.46,3.16,3.25-1.41,3.25-3.16,3.25Z"/>
      <path class="cls-4" d="m84.36,351.65c-1.23,1.23-3.26,1.21-4.53-.06-1.27-1.27-1.3-3.3-.06-4.53,1.23-1.23,3.26-1.2,4.53.06,1.27,1.27,1.3,3.3.06,4.53Z"/>
      <path class="cls-4" d="m98.14,365.54c-1.23,1.23-3.26,1.21-4.53-.06-1.27-1.27-1.3-3.3-.06-4.53,1.23-1.23,3.26-1.21,4.53.06,1.27,1.27,1.3,3.3.06,4.53Z"/>
      <path class="cls-4" d="m112.24,379.42c-1.23,1.23-3.26,1.21-4.53-.06-1.27-1.27-1.3-3.3-.06-4.53,1.23-1.23,3.26-1.21,4.53.06,1.27,1.27,1.3,3.3.06,4.53Z"/>
      <path class="cls-4" d="m126.76,394.1c-1.23,1.23-3.26,1.21-4.53-.06-1.27-1.27-1.3-3.3-.06-4.53,1.23-1.23,3.26-1.21,4.53.06,1.27,1.27,1.3,3.3.06,4.53Z"/>
    </g>
    <g>
      <path class="cls-9" d="m265.77,130.59c0-2.93,2.35-5.31,5.25-5.31s5.25,2.38,5.25,5.31-2.35,5.31-5.25,5.31-5.25-2.38-5.25-5.31Z"/>
      <path class="cls-4" d="m267.89,130.59c0-1.74,1.4-3.16,3.13-3.16s3.13,1.41,3.13,3.16-1.4,3.16-3.13,3.16-3.13-1.41-3.13-3.16Z"/>
    </g>
    <g>
      <path class="cls-9" d="m267.47,202.3c0-2.93,2.35-5.31,5.25-5.31s5.25,2.38,5.25,5.31-2.35,5.31-5.25,5.31-5.25-2.38-5.25-5.31Z"/>
      <path class="cls-4" d="m269.59,202.3c0-1.75,1.4-3.16,3.13-3.16s3.13,1.41,3.13,3.16-1.4,3.16-3.13,3.16-3.13-1.41-3.13-3.16Z"/>
    </g>
    <g>
      <ellipse class="cls-9" cx="137.32" cy="239.05" rx="5.25" ry="5.31"/>
      <path class="cls-4" d="m134.2,239.05c0-1.75,1.4-3.16,3.13-3.16s3.13,1.41,3.13,3.16-1.4,3.16-3.13,3.16-3.13-1.41-3.13-3.16Z"/>
    </g>
    <g>
      <path class="cls-9" d="m268.43,302.08c0-2.93,2.35-5.31,5.25-5.31s5.25,2.38,5.25,5.31-2.35,5.31-5.25,5.31-5.25-2.38-5.25-5.31Z"/>
      <path class="cls-4" d="m270.55,302.08c0-1.75,1.4-3.16,3.13-3.16s3.13,1.41,3.13,3.16-1.4,3.16-3.13,3.16-3.13-1.41-3.13-3.16Z"/>
    </g>
    <g>
      <path class="cls-9" d="m335.73,243.48c0-2.93,2.35-5.31,5.25-5.31s5.25,2.38,5.25,5.31-2.35,5.31-5.25,5.31-5.25-2.38-5.25-5.31Z"/>
      <path class="cls-4" d="m337.85,243.48c0-1.75,1.4-3.16,3.13-3.16s3.13,1.41,3.13,3.16-1.4,3.16-3.13,3.16-3.13-1.42-3.13-3.16Z"/>
    </g>
    <g>
      <path class="cls-9" d="m402.74,188.24c0-2.93,2.35-5.31,5.25-5.31s5.25,2.38,5.25,5.31-2.35,5.31-5.25,5.31-5.25-2.38-5.25-5.31Z"/>
      <path class="cls-4" d="m404.86,188.24c0-1.75,1.4-3.16,3.13-3.16s3.13,1.41,3.13,3.16-1.4,3.16-3.13,3.16-3.13-1.41-3.13-3.16Z"/>
    </g>
    <g>
      <path class="cls-9" d="m402.74,111.62c0-2.93,2.35-5.31,5.25-5.31s5.25,2.38,5.25,5.31-2.35,5.31-5.25,5.31-5.25-2.38-5.25-5.31Z"/>
      <path class="cls-4" d="m404.86,111.62c0-1.74,1.4-3.16,3.13-3.16s3.13,1.41,3.13,3.16-1.4,3.16-3.13,3.16-3.13-1.41-3.13-3.16Z"/>
    </g>
    <g>
      <path class="cls-9" d="m402.74,52.68c0-2.93,2.35-5.31,5.25-5.31s5.25,2.38,5.25,5.31-2.35,5.31-5.25,5.31-5.25-2.38-5.25-5.31Z"/>
      <path class="cls-4" d="m404.86,52.68c0-1.75,1.4-3.16,3.13-3.16s3.13,1.41,3.13,3.16-1.4,3.16-3.13,3.16-3.13-1.41-3.13-3.16Z"/>
    </g>
    <g>
      <path class="cls-9" d="m513.55,350.66c0-2.93,2.35-5.31,5.25-5.31s5.25,2.38,5.25,5.31-2.35,5.31-5.25,5.31-5.25-2.38-5.25-5.31Z"/>
      <path class="cls-4" d="m515.67,350.66c0-1.75,1.4-3.16,3.13-3.16s3.13,1.42,3.13,3.16-1.4,3.16-3.13,3.16-3.13-1.41-3.13-3.16Z"/>
    </g>
    <g>
      <path class="cls-9" d="m271.02,140.07c-5.19,0-9.42-4.25-9.42-9.47s4.22-9.47,9.42-9.47,9.42,4.25,9.42,9.47-4.22,9.47-9.42,9.47Z"/>
      <path class="cls-4" d="m271.02,137.98c-4.04,0-7.33-3.31-7.33-7.39s3.29-7.39,7.33-7.39,7.33,3.31,7.33,7.39-3.29,7.39-7.33,7.39Z"/>
      <path class="cls-1" d="m276.27,130.59c0-2.93-2.35-5.31-5.25-5.31s-5.25,2.38-5.25,5.31,2.35,5.31,5.25,5.31,5.25-2.38,5.25-5.31Z"/>
      <path class="cls-5" d="m271.17,125.3v10.6c2.83-.08,5.1-2.42,5.1-5.3s-2.27-5.22-5.1-5.3Z"/>
      <path class="cls-9" d="m272.72,211.77c-5.19,0-9.42-4.25-9.42-9.47s4.22-9.47,9.42-9.47,9.42,4.25,9.42,9.47-4.22,9.47-9.42,9.47Z"/>
      <path class="cls-4" d="m272.72,209.69c-4.04,0-7.33-3.31-7.33-7.39s3.29-7.39,7.33-7.39,7.33,3.32,7.33,7.39-3.29,7.39-7.33,7.39Z"/>
      <path class="cls-1" d="m272.72,207.6c2.9,0,5.25-2.38,5.25-5.31s-2.35-5.31-5.25-5.31-5.25,2.38-5.25,5.31,2.35,5.31,5.25,5.31Z"/>
      <path class="cls-12" d="m272.81,196.99v10.6c2.86-.05,5.16-2.4,5.16-5.3s-2.3-5.25-5.16-5.3Z"/>
      <path class="cls-9" d="m137.32,248.52c-5.19,0-9.42-4.25-9.42-9.47s4.22-9.47,9.42-9.47,9.42,4.25,9.42,9.47-4.22,9.47-9.42,9.47Z"/>
      <ellipse class="cls-4" cx="137.32" cy="239.05" rx="7.33" ry="7.39"/>
      <ellipse class="cls-6" cx="137.32" cy="239.05" rx="5.25" ry="5.31"/>
      <ellipse class="cls-6" cx="137.32" cy="239.05" rx="5.25" ry="5.31"/>
      <path class="cls-9" d="m273.68,311.56c-5.19,0-9.42-4.25-9.42-9.47s4.22-9.47,9.42-9.47,9.42,4.25,9.42,9.47-4.23,9.47-9.42,9.47Z"/>
      <path class="cls-4" d="m273.68,309.47c-4.04,0-7.33-3.31-7.33-7.39s3.29-7.39,7.33-7.39,7.33,3.32,7.33,7.39-3.29,7.39-7.33,7.39Z"/>
      <path class="cls-1" d="m273.68,296.78c-2.9,0-5.25,2.38-5.25,5.31s2.35,5.31,5.25,5.31,5.25-2.38,5.25-5.31-2.35-5.31-5.25-5.31Z"/>
      <path class="cls-9" d="m340.98,252.95c-5.19,0-9.42-4.25-9.42-9.47s4.22-9.47,9.42-9.47,9.42,4.25,9.42,9.47-4.22,9.47-9.42,9.47Z"/>
      <path class="cls-4" d="m340.98,250.87c-4.04,0-7.33-3.31-7.33-7.39s3.29-7.39,7.33-7.39,7.33,3.32,7.33,7.39-3.29,7.39-7.33,7.39Z"/>
      <path class="cls-2" d="m340.98,238.17c-2.9,0-5.25,2.38-5.25,5.31s2.35,5.31,5.25,5.31,5.25-2.38,5.25-5.31-2.35-5.31-5.25-5.31Z"/>
      <path class="cls-6" d="m341.11,238.18v10.6c2.84-.07,5.12-2.41,5.12-5.3s-2.28-5.23-5.12-5.3Z"/>
      <path class="cls-9" d="m407.99,197.71c-5.19,0-9.42-4.25-9.42-9.47s4.22-9.47,9.42-9.47,9.42,4.25,9.42,9.47-4.22,9.47-9.42,9.47Z"/>
      <ellipse class="cls-4" cx="407.99" cy="188.24" rx="7.33" ry="7.39"/>
      <path class="cls-8" d="m407.99,182.93c-2.9,0-5.25,2.38-5.25,5.31s2.35,5.31,5.25,5.31,5.25-2.38,5.25-5.31-2.35-5.31-5.25-5.31Z"/>
      <path class="cls-2" d="m407.99,182.93s0,0-.01,0v10.61s0,0,.01,0c2.9,0,5.25-2.38,5.25-5.31s-2.35-5.31-5.25-5.31Z"/>
      <path class="cls-9" d="m407.99,121.09c-5.19,0-9.42-4.25-9.42-9.47s4.22-9.47,9.42-9.47,9.42,4.25,9.42,9.47-4.22,9.47-9.42,9.47Z"/>
      <path class="cls-4" d="m407.99,119.01c-4.04,0-7.33-3.31-7.33-7.39s3.29-7.39,7.33-7.39,7.33,3.31,7.33,7.39-3.29,7.39-7.33,7.39Z"/>
      <path class="cls-8" d="m407.99,106.31c-2.9,0-5.25,2.38-5.25,5.31s2.35,5.31,5.25,5.31,5.25-2.38,5.25-5.31-2.35-5.31-5.25-5.31Z"/>
      <path class="cls-12" d="m407.99,106.31s0,0-.01,0v10.61s0,0,.01,0c2.9,0,5.25-2.38,5.25-5.31s-2.35-5.31-5.25-5.31Z"/>
      <path class="cls-9" d="m407.99,62.15c-5.19,0-9.42-4.25-9.42-9.47s4.22-9.47,9.42-9.47,9.42,4.25,9.42,9.47-4.22,9.47-9.42,9.47Z"/>
      <ellipse class="cls-4" cx="407.99" cy="52.68" rx="7.33" ry="7.39"/>
      <path class="cls-8" d="m407.99,47.38c-2.9,0-5.25,2.38-5.25,5.31s2.35,5.31,5.25,5.31,5.25-2.38,5.25-5.31-2.35-5.31-5.25-5.31Z"/>
      <path class="cls-5" d="m408.13,47.38v10.6c2.83-.08,5.1-2.42,5.1-5.3s-2.27-5.22-5.1-5.3Z"/>
      <ellipse class="cls-9" cx="518.8" cy="350.66" rx="9.42" ry="9.47"/>
      <path class="cls-4" d="m518.8,358.05c-4.04,0-7.33-3.31-7.33-7.39s3.29-7.39,7.33-7.39,7.33,3.32,7.33,7.39-3.29,7.39-7.33,7.39Z"/>
      <path class="cls-8" d="m518.8,345.35c-2.9,0-5.25,2.38-5.25,5.31s2.35,5.31,5.25,5.31,5.25-2.38,5.25-5.31-2.35-5.31-5.25-5.31Z"/>
      <path class="cls-6" d="m518.88,345.36v10.6c2.86-.04,5.17-2.4,5.17-5.3s-2.31-5.26-5.17-5.3Z"/>
    </g>
    <g>
      <path class="cls-9" d="m468.62,175.35c-5.19,0-9.42-4.25-9.42-9.47s4.22-9.47,9.42-9.47,9.42,4.25,9.42,9.47-4.22,9.47-9.42,9.47Z"/>
      <ellipse class="cls-4" cx="468.62" cy="165.87" rx="7.33" ry="7.39"/>
      <path class="cls-5" d="m463.37,165.87c0-2.93,2.35-5.31,5.25-5.31s5.25,2.38,5.25,5.31-2.35,5.31-5.25,5.31-5.25-2.38-5.25-5.31Z"/>
      <path class="cls-2" d="m468.77,160.57v10.6c2.83-.08,5.1-2.42,5.1-5.3s-2.27-5.22-5.1-5.3Z"/>
    </g>
    <g>
      <path class="cls-12" d="m137.28,239.17l.05.03v5.16h-.01c-2.9,0-5.25-2.38-5.25-5.31,0-.91.23-1.77.63-2.53l4.58,2.64Z"/>
      <path class="cls-11" d="m137.33,239.2v-.06l4.59-2.65c.41.76.65,1.63.65,2.56,0,2.93-2.34,5.3-5.24,5.31v-5.16Z"/>
      <path class="cls-6" d="m137.33,239.14l-.05.03-4.58-2.64c.89-1.65,2.62-2.78,4.62-2.78s3.71,1.11,4.6,2.75l-4.59,2.65Z"/>
      <polygon class="cls-6" points="137.33 239.14 137.33 239.2 137.28 239.17 137.33 239.14"/>
    </g>
    <g>
      <path class="cls-6" d="m273.64,302.19l.05.03v5.16h-.01c-2.9,0-5.25-2.38-5.25-5.31,0-.91.23-1.77.63-2.53l4.58,2.64Z"/>
      <path class="cls-11" d="m273.69,302.22v-.06l4.59-2.65c.41.76.65,1.63.65,2.56,0,2.93-2.34,5.3-5.24,5.31v-5.16Z"/>
      <path class="cls-1" d="m273.69,302.16l-.05.03-4.58-2.64c.89-1.65,2.62-2.78,4.62-2.78s3.71,1.11,4.6,2.75l-4.59,2.65Z"/>
      <polygon class="cls-6" points="273.69 302.16 273.69 302.22 273.64 302.19 273.69 302.16"/>
    </g>
    <g>
      <ellipse class="cls-9" cx="520.87" cy="393.43" rx="9.42" ry="9.47"/>
      <path class="cls-4" d="m520.87,400.82c-4.04,0-7.33-3.32-7.33-7.39s3.29-7.39,7.33-7.39,7.33,3.31,7.33,7.39-3.29,7.39-7.33,7.39Z"/>
      <path class="cls-8" d="m520.87,388.12c-2.9,0-5.25,2.38-5.25,5.31s2.35,5.31,5.25,5.31,5.25-2.38,5.25-5.31-2.35-5.31-5.25-5.31Z"/>
      <path class="cls-11" d="m520.95,388.12v10.6c2.86-.05,5.17-2.4,5.17-5.3s-2.31-5.26-5.17-5.3Z"/>
    </g>
  </g>
</svg>