<?xml version="1.0" encoding="UTF-8"?>
<svg id="Layer_2" data-name="Layer 2" xmlns="http://www.w3.org/2000/svg" viewBox="0 0 1582.99 1292.5">
  <defs>
    <style>
      .cls-1, .cls-2 {
        fill: #2e2b28;
      }

      .cls-2 {
        stroke: #2e2b28;
        stroke-miterlimit: 10;
        stroke-width: 10px;
      }
    </style>
  </defs>
  <g id="EFFICIENCY">
    <g>
      <g>
        <path class="cls-2" d="m1202.92,840.95H340.18c-4.14,0-7.5-3.36-7.5-7.5,0-59.24,11.6-116.72,34.49-170.83,22.1-52.26,53.75-99.2,94.05-139.5s87.24-71.95,139.5-94.05c54.11-22.89,111.59-34.49,170.83-34.49s116.72,11.6,170.83,34.49c52.26,22.1,99.2,53.75,139.5,94.05s71.95,87.24,94.05,139.5c22.89,54.11,34.49,111.59,34.49,170.83,0,4.14-3.36,7.5-7.5,7.5Zm-855.18-15h847.61c-4.02-230.27-192.59-416.37-423.81-416.37s-419.78,186.1-423.81,416.37Z"/>
        <path class="cls-2" d="m1112.22,840.27c-4.14,0-7.5-3.36-7.5-7.5,0-183.71-149.46-333.17-333.17-333.17s-333.17,149.46-333.17,333.17c0,4.14-3.36,7.5-7.5,7.5s-7.5-3.36-7.5-7.5c0-47,9.21-92.6,27.36-135.53,17.54-41.46,42.64-78.69,74.61-110.67,31.97-31.97,69.21-57.08,110.67-74.61,42.93-18.16,88.53-27.36,135.53-27.36s92.6,9.21,135.53,27.36c41.46,17.54,78.7,42.64,110.67,74.61,31.97,31.97,57.08,69.21,74.61,110.67,18.16,42.93,27.36,88.53,27.36,135.53,0,4.14-3.36,7.5-7.5,7.5Z"/>
        <path class="cls-2" d="m1044.37,840.27c-4.14,0-7.5-3.36-7.5-7.5,0-28.07-4.36-55.71-12.96-82.15-1.28-3.94.87-8.17,4.81-9.45,3.93-1.28,8.17.87,9.45,4.81,9.09,27.94,13.7,57.14,13.7,86.79,0,4.14-3.36,7.5-7.5,7.5Z"/>
        <path class="cls-2" d="m1000.24,691.44c-2.45,0-4.85-1.2-6.29-3.4-12.12-18.59-26.57-35.64-42.93-50.68-3.05-2.8-3.25-7.55-.45-10.6,2.8-3.05,7.55-3.25,10.6-.45,17.29,15.88,32.54,33.89,45.35,53.53,2.26,3.47,1.28,8.12-2.19,10.38-1.26.82-2.68,1.22-4.09,1.22Z"/>
        <path class="cls-2" d="m498.73,840.27c-4.14,0-7.5-3.36-7.5-7.5,0-74.88,29.16-145.27,82.1-198.22,52.95-52.95,123.34-82.1,198.22-82.1,4.14,0,7.5,3.36,7.5,7.5s-3.36,7.5-7.5,7.5c-146.3,0-265.32,119.02-265.32,265.32,0,4.14-3.36,7.5-7.5,7.5Z"/>
        <path class="cls-2" d="m810.14,840.69c-4.14,0-7.5-3.36-7.5-7.5,0-17.14-13.95-31.09-31.09-31.09s-31.09,13.95-31.09,31.09c0,4.14-3.36,7.5-7.5,7.5s-7.5-3.36-7.5-7.5c0-25.41,20.67-46.09,46.09-46.09s46.09,20.67,46.09,46.09c0,4.14-3.36,7.5-7.5,7.5Z"/>
        <path class="cls-2" d="m810.13,829.82c-.85,0-1.71-.14-2.55-.45-3.89-1.41-5.91-5.71-4.5-9.61l25.57-70.6-51.86,50.79c-2.96,2.9-7.71,2.85-10.61-.11-2.9-2.96-2.85-7.71.11-10.61l75.36-73.81c2.5-2.45,6.36-2.84,9.31-.95,2.94,1.89,4.19,5.57,2.99,8.86l-36.77,101.53c-1.11,3.05-3.98,4.95-7.05,4.95Z"/>
        <g>
          <path class="cls-2" d="m1204.01,841h-45c-4.14,0-7.5-3.36-7.5-7.5s3.36-7.5,7.5-7.5h45c4.14,0,7.5,3.36,7.5,7.5s-3.36,7.5-7.5,7.5Z"/>
          <path class="cls-2" d="m386.01,841h-45c-4.14,0-7.5-3.36-7.5-7.5s3.36-7.5,7.5-7.5h45c4.14,0,7.5,3.36,7.5,7.5s-3.36,7.5-7.5,7.5Z"/>
        </g>
        <path class="cls-2" d="m771.51,454.5c-4.14,0-7.5-3.36-7.5-7.5v-45c0-4.14,3.36-7.5,7.5-7.5s7.5,3.36,7.5,7.5v45c0,4.14-3.36,7.5-7.5,7.5Z"/>
        <path class="cls-2" d="m1044.77,567.45c-1.92,0-3.84-.73-5.3-2.2-2.93-2.93-2.93-7.68,0-10.61l31.59-31.59c2.93-2.93,7.68-2.93,10.61,0,2.93,2.93,2.93,7.68,0,10.61l-31.59,31.59c-1.46,1.46-3.38,2.2-5.3,2.2Z"/>
        <path class="cls-2" d="m497.7,567.45c-1.92,0-3.84-.73-5.3-2.2l-31.59-31.59c-2.93-2.93-2.93-7.68,0-10.61,2.93-2.93,7.68-2.93,10.61,0l31.59,31.59c2.93,2.93,2.93,7.68,0,10.61-1.46,1.46-3.38,2.2-5.3,2.2Z"/>
      </g>
      <path class="cls-2" d="m791.32,409.84c-4.14,0-7.5-3.36-7.5-7.5v-72.33c0-4.14,3.36-7.5,7.5-7.5s7.5,3.36,7.5,7.5v72.33c0,4.14-3.36,7.5-7.5,7.5Z"/>
      <path class="cls-2" d="m751.77,409.84c-4.14,0-7.5-3.36-7.5-7.5v-72.33c0-4.14,3.36-7.5,7.5-7.5s7.5,3.36,7.5,7.5v72.33c0,4.14-3.36,7.5-7.5,7.5Z"/>
      <path class="cls-2" d="m829.42,335.42h-115.74c-4.14,0-7.5-3.36-7.5-7.5v-46.92c0-4.14,3.36-7.5,7.5-7.5h115.74c4.14,0,7.5,3.36,7.5,7.5v46.92c0,4.14-3.36,7.5-7.5,7.5Zm-108.24-15h100.74v-31.92h-100.74v31.92Z"/>
    </g>
    <g>
      <path class="cls-2" d="m219.77,314.85c-2.21,0-4.38-.97-5.85-2.8-2.39-2.98-2.16-7.29.54-9.99l109.75-110.05h-122.14c-3.17,0-5.99-1.99-7.06-4.96-1.07-2.98-.16-6.31,2.29-8.32L405.52,6.96c2.88-2.38,7.07-2.27,9.83.25,2.76,2.52,3.24,6.68,1.14,9.76l-85.92,126.03h135.53c3.33,0,6.27,2.2,7.2,5.4.93,3.2-.36,6.63-3.17,8.42l-246.34,156.85c-1.24.79-2.64,1.17-4.02,1.17Zm3.17-137.85h119.33c3.03,0,5.76,1.83,6.93,4.62,1.16,2.8.52,6.02-1.62,8.17l-74.51,74.72,167.29-106.52h-123.98c-2.78,0-5.33-1.54-6.63-4-1.3-2.46-1.13-5.43.43-7.73l64.23-94.22-151.47,124.94Z"/>
      <path class="cls-2" d="m320.01,20h-108c-4.14,0-7.5-3.36-7.5-7.5s3.36-7.5,7.5-7.5h108c4.14,0,7.5,3.36,7.5,7.5s-3.36,7.5-7.5,7.5Z"/>
      <path class="cls-2" d="m225.01,94h-117c-4.14,0-7.5-3.36-7.5-7.5s3.36-7.5,7.5-7.5h117c4.14,0,7.5,3.36,7.5,7.5s-3.36,7.5-7.5,7.5Z"/>
      <path class="cls-2" d="m143.01,167h-41c-4.14,0-7.5-3.36-7.5-7.5s3.36-7.5,7.5-7.5h41c4.14,0,7.5,3.36,7.5,7.5s-3.36,7.5-7.5,7.5Z"/>
      <path class="cls-2" d="m202.01,241H61.01c-4.14,0-7.5-3.36-7.5-7.5s3.36-7.5,7.5-7.5h141c4.14,0,7.5,3.36,7.5,7.5s-3.36,7.5-7.5,7.5Z"/>
      <path class="cls-2" d="m166.01,314h-30c-4.14,0-7.5-3.36-7.5-7.5s3.36-7.5,7.5-7.5h30c4.14,0,7.5,3.36,7.5,7.5s-3.36,7.5-7.5,7.5Z"/>
    </g>
    <g>
      <path class="cls-2" d="m1554.94,1273.2h-394c-4.14,0-7.5-3.36-7.5-7.5v-426.2c0-4.14,3.36-7.5,7.5-7.5s7.5,3.36,7.5,7.5v418.7h379v-479.14h-344.52c-4.14,0-7.5-3.36-7.5-7.5s3.36-7.5,7.5-7.5h352.02c4.14,0,7.5,3.36,7.5,7.5v494.14c0,4.14-3.36,7.5-7.5,7.5Z"/>
      <path class="cls-2" d="m1258.41,1240h-65.79c-4.14,0-7.5-3.36-7.5-7.5v-65.8c0-4.14,3.36-7.5,7.5-7.5s7.5,3.36,7.5,7.5v58.3h58.29c4.14,0,7.5,3.36,7.5,7.5s-3.36,7.5-7.5,7.5Z"/>
      <path class="cls-2" d="m1523.27,878.05c-4.14,0-7.5-3.36-7.5-7.5v-58.3h-58.3c-4.14,0-7.5-3.36-7.5-7.5s3.36-7.5,7.5-7.5h65.8c4.14,0,7.5,3.36,7.5,7.5v65.8c0,4.14-3.36,7.5-7.5,7.5Z"/>
      <g>
        <path class="cls-2" d="m1487.01,887h-257c-4.14,0-7.5-3.36-7.5-7.5s3.36-7.5,7.5-7.5h257c4.14,0,7.5,3.36,7.5,7.5s-3.36,7.5-7.5,7.5Z"/>
        <path class="cls-2" d="m1487.01,847h-257c-4.14,0-7.5-3.36-7.5-7.5s3.36-7.5,7.5-7.5h257c4.14,0,7.5,3.36,7.5,7.5s-3.36,7.5-7.5,7.5Z"/>
        <path class="cls-2" d="m1487.01,928h-257c-4.14,0-7.5-3.36-7.5-7.5s3.36-7.5,7.5-7.5h257c4.14,0,7.5,3.36,7.5,7.5s-3.36,7.5-7.5,7.5Z"/>
        <path class="cls-2" d="m1487.01,968h-257c-4.14,0-7.5-3.36-7.5-7.5s3.36-7.5,7.5-7.5h257c4.14,0,7.5,3.36,7.5,7.5s-3.36,7.5-7.5,7.5Z"/>
        <path class="cls-2" d="m1487.01,1010h-257c-4.14,0-7.5-3.36-7.5-7.5s3.36-7.5,7.5-7.5h257c4.14,0,7.5,3.36,7.5,7.5s-3.36,7.5-7.5,7.5Z"/>
        <path class="cls-2" d="m1358.01,1050h-128c-4.14,0-7.5-3.36-7.5-7.5s3.36-7.5,7.5-7.5h128c4.14,0,7.5,3.36,7.5,7.5s-3.36,7.5-7.5,7.5Z"/>
      </g>
    </g>
    <path class="cls-2" d="m150.51,1126c-1.98,0-3.87-.78-5.28-2.17-1.42-1.41-2.22-3.33-2.22-5.33V398c0-4.14,3.36-7.5,7.5-7.5s7.5,3.36,7.5,7.5v712.93l619-5.86v-226.07c0-4.14,3.36-7.5,7.5-7.5s7.5,3.36,7.5,7.5v233.5c0,4.11-3.31,7.46-7.43,7.5l-634,6h-.07Z"/>
    <path class="cls-2" d="m1350.51,703.5c-4.14,0-7.5-3.36-7.5-7.5V104h-564v130c0,4.14-3.36,7.5-7.5,7.5s-7.5-3.36-7.5-7.5V96.5c0-4.14,3.36-7.5,7.5-7.5h579c4.14,0,7.5,3.36,7.5,7.5v599.5c0,4.14-3.36,7.5-7.5,7.5Z"/>
    <path class="cls-1" d="m1505.44,134.38c-5.81-1.76-9.11-7.9-7.35-13.72h0c1.76-5.81,7.9-9.1,13.72-7.35h0c5.81,1.76,9.1,7.9,7.34,13.72h0c-1.44,4.75-5.8,7.82-10.53,7.82h0c-1.05,0-2.12-.15-3.18-.47Zm28.3-8.25c-2.47-5.55.03-12.05,5.58-14.52h0c5.55-2.47,12.06.03,14.53,5.58h0c2.46,5.55-.04,12.05-5.58,14.52h0c-1.46.65-2.98.95-4.47.95h0c-4.21,0-8.24-2.43-10.06-6.53Zm-62.46-17.72h0c-3.26-5.13-1.75-11.92,3.38-15.18h0c5.13-3.26,11.93-1.74,15.18,3.39h0c3.26,5.13,1.75,11.92-3.38,15.18h0c-1.83,1.16-3.87,1.72-5.89,1.72h0c-3.64,0-7.2-1.81-9.3-5.11Zm93.01-1.43c-5.49-2.6-7.84-9.16-5.24-14.65h0c2.6-5.49,9.16-7.84,14.65-5.24h0c5.49,2.59,7.84,9.15,5.24,14.64h0c-1.88,3.98-5.83,6.3-9.95,6.3h0c-1.58,0-3.18-.34-4.7-1.05Zm-92.63-28.05c-6.01-.88-10.17-6.47-9.28-12.48h0c.88-6.01,6.47-10.17,12.48-9.29h0c6.01.88,10.16,6.47,9.28,12.48h0c-.8,5.47-5.5,9.41-10.87,9.41h0c-.53,0-1.07-.04-1.61-.12Zm89.73-14.07h0c-1.62-5.86,1.81-11.92,7.66-13.54h0c5.86-1.62,11.92,1.81,13.54,7.66h0c1.62,5.86-1.81,11.92-7.66,13.54h0c-.99.28-1.97.41-2.95.4h0c-4.82,0-9.24-3.19-10.59-8.06Zm-79.47-20.49c-3.96-4.6-3.46-11.55,1.14-15.52h0c4.6-3.97,11.55-3.46,15.51,1.14h0c3.98,4.6,3.47,11.54-1.13,15.51h0c-2.08,1.8-4.64,2.68-7.19,2.68h0c-3.08,0-6.15-1.29-8.33-3.81Zm63.29-1.84c-5.06-3.37-6.42-10.2-3.04-15.25h0c3.37-5.06,10.2-6.42,15.25-3.04h0c5.05,3.38,6.42,10.21,3.04,15.26h0c-2.12,3.17-5.61,4.89-9.16,4.89h0c-2.1,0-4.22-.6-6.09-1.86Zm-32.94-17.63c0-6.07,4.93-11,11-11h0c6.08,0,11,4.93,11,11h0c0,6.08-4.92,11-11,11h0c-6.07,0-11-4.92-11-11Z"/>
    <path class="cls-1" d="m1160,339.92c-5.82-1.75-9.11-7.89-7.35-13.71h0c1.76-5.82,7.9-9.1,13.71-7.35h0c5.82,1.76,9.11,7.9,7.35,13.72h0c-1.44,4.75-5.8,7.82-10.53,7.82h0c-1.05,0-2.12-.16-3.18-.48Zm28.3-8.24c-2.47-5.55.03-12.05,5.58-14.52h0c5.55-2.47,12.05.03,14.52,5.58h0c2.47,5.55-.03,12.05-5.58,14.52h0c-1.45.65-2.97.95-4.46.95h0c-4.22,0-8.24-2.43-10.06-6.53Zm-62.46-17.72c-3.26-5.13-1.74-11.92,3.39-15.18h0c5.13-3.26,11.92-1.74,15.18,3.39h0c3.26,5.12,1.74,11.92-3.39,15.18h0c-1.83,1.16-3.87,1.72-5.88,1.72h0c-3.64,0-7.2-1.81-9.3-5.11Zm93.01-1.44c-5.49-2.59-7.84-9.15-5.24-14.64h0c2.59-5.49,9.15-7.84,14.64-5.25h0c5.49,2.6,7.84,9.16,5.25,14.65h0c-1.88,3.98-5.83,6.3-9.95,6.3h0c-1.58,0-3.18-.34-4.7-1.06Zm-92.63-28.04c-6.01-.88-10.17-6.47-9.29-12.48h0c.88-6.01,6.47-10.17,12.49-9.29h0c6.01.88,10.16,6.47,9.28,12.48h0c-.8,5.47-5.5,9.41-10.87,9.41h0c-.53,0-1.07-.04-1.61-.12Zm89.73-14.07h0c-1.63-5.86,1.8-11.92,7.66-13.54h0c5.85-1.62,11.91,1.81,13.54,7.66h0c1.62,5.86-1.81,11.92-7.67,13.54h0c-.98.27-1.97.4-2.94.4h0c-4.82,0-9.25-3.19-10.59-8.06Zm-79.47-20.49c-3.97-4.6-3.46-11.55,1.14-15.52h0c4.6-3.97,11.54-3.46,15.51,1.14h0c3.97,4.59,3.47,11.54-1.13,15.51h0c-2.08,1.8-4.64,2.68-7.19,2.68h0c-3.09,0-6.15-1.3-8.33-3.81Zm63.28-1.84c-5.05-3.37-6.41-10.2-3.04-15.25h0c3.38-5.06,10.21-6.42,15.26-3.04h0c5.05,3.37,6.41,10.2,3.04,15.26h0c-2.12,3.17-5.61,4.89-9.16,4.89h0c-2.1,0-4.22-.6-6.1-1.86Zm-32.93-17.63c0-6.07,4.92-11,11-11h0c6.07,0,11,4.93,11,11h0c0,6.08-4.93,11-11,11h0c-6.08,0-11-4.92-11-11Z"/>
    <path class="cls-1" d="m495.7,363.38c-5.81-1.75-9.1-7.89-7.34-13.71h0c1.76-5.82,7.9-9.1,13.71-7.35h0c5.82,1.76,9.11,7.9,7.35,13.72h0c-1.44,4.75-5.81,7.82-10.53,7.82h0c-1.05,0-2.12-.16-3.19-.48Zm28.31-8.24c-2.47-5.55.03-12.05,5.58-14.52h0c5.55-2.47,12.05.03,14.52,5.58h0c2.47,5.55-.03,12.05-5.58,14.52h0c-1.45.65-2.97.95-4.46.95h0c-4.22,0-8.24-2.43-10.06-6.53Zm-62.46-17.72c-3.26-5.13-1.74-11.93,3.39-15.18h0c5.13-3.26,11.92-1.74,15.18,3.39h0c3.26,5.12,1.74,11.92-3.39,15.18h0c-1.83,1.16-3.87,1.72-5.88,1.72h0c-3.64,0-7.21-1.81-9.3-5.11Zm93.01-1.44c-5.49-2.59-7.84-9.15-5.24-14.64h0c2.59-5.49,9.15-7.84,14.64-5.25h0c5.49,2.6,7.84,9.16,5.25,14.65h0c-1.87,3.97-5.83,6.3-9.95,6.3h0c-1.57,0-3.17-.34-4.69-1.06Zm-92.63-28.04c-6.01-.88-10.17-6.47-9.29-12.48h0c.88-6.01,6.47-10.17,12.48-9.29h0c6.01.88,10.17,6.47,9.29,12.48h0c-.8,5.47-5.5,9.41-10.87,9.41h0c-.53,0-1.07-.04-1.61-.12Zm89.72-14.07c-1.62-5.86,1.81-11.92,7.67-13.54h0c5.85-1.62,11.91,1.81,13.54,7.66h0c1.62,5.86-1.81,11.92-7.67,13.54h0c-.98.27-1.97.4-2.94.4h0c-4.82,0-9.25-3.19-10.6-8.06Zm-79.46-20.5c-3.97-4.59-3.47-11.54,1.13-15.51h0c4.6-3.97,11.55-3.46,15.52,1.14h0c3.97,4.59,3.46,11.54-1.14,15.51h0c-2.08,1.8-4.64,2.68-7.18,2.68h0c-3.09,0-6.16-1.3-8.33-3.82Zm63.28-1.83h0c-5.05-3.37-6.41-10.2-3.04-15.25h0c3.38-5.06,10.21-6.42,15.26-3.04h0c5.05,3.37,6.41,10.2,3.04,15.25h0c-2.13,3.18-5.61,4.89-9.16,4.89h0c-2.1,0-4.22-.6-6.1-1.85Zm-32.93-17.63c0-6.08,4.92-11,11-11h0c6.07,0,11,4.92,11,11h0c0,6.08-4.93,11-11,11h0c-6.08,0-11-4.92-11-11Z"/>
    <path class="cls-1" d="m1013.21,1077.55c-5.81-1.76-9.1-7.9-7.34-13.71h0c1.75-5.82,7.89-9.11,13.71-7.35h0c5.81,1.76,9.1,7.9,7.34,13.71h0c-1.43,4.76-5.8,7.82-10.52,7.82h0c-1.06,0-2.13-.15-3.19-.47Zm28.3-8.25c-2.46-5.55.03-12.05,5.59-14.52h-.01c5.55-2.47,12.06.03,14.53,5.58h0c2.46,5.55-.03,12.06-5.58,14.52h0c-1.46.65-2.97.96-4.47.96h0c-4.21,0-8.23-2.44-10.06-6.54Zm-62.45-17.71c-3.26-5.13-1.75-11.93,3.38-15.18h0c5.13-3.26,11.93-1.74,15.19,3.38h0c3.25,5.13,1.74,11.93-3.39,15.19h0c-1.83,1.16-3.87,1.71-5.89,1.71h0c-3.64,0-7.2-1.8-9.29-5.1Zm93-1.44c-5.49-2.6-7.83-9.15-5.24-14.65h0c2.6-5.49,9.15-7.84,14.65-5.24h0c5.49,2.6,7.84,9.15,5.24,14.65h0c-1.88,3.97-5.83,6.3-9.95,6.3h0c-1.58,0-3.18-.34-4.7-1.06Zm-92.63-28.05c-6.01-.88-10.17-6.46-9.28-12.48h0c.88-6.01,6.47-10.16,12.48-9.28h0c6.01.88,10.17,6.47,9.29,12.48h0c-.81,5.47-5.51,9.4-10.87,9.4h0c-.54,0-1.08-.04-1.62-.12Zm89.73-14.07c-1.62-5.85,1.81-11.91,7.66-13.53h0c5.86-1.63,11.92,1.8,13.54,7.66h0c1.62,5.85-1.81,11.91-7.66,13.54h0c-.98.27-1.97.4-2.94.4h0c-4.83,0-9.25-3.2-10.6-8.07Zm-79.47-20.49c-3.97-4.6-3.46-11.54,1.14-15.51h0c4.6-3.97,11.54-3.47,15.52,1.13h0c3.97,4.6,3.46,11.55-1.14,15.52h0c-2.08,1.79-4.64,2.67-7.19,2.67h0c-3.08,0-6.15-1.29-8.33-3.81Zm63.28-1.83c-5.05-3.38-6.41-10.21-3.03-15.26h0c3.37-5.05,10.2-6.41,15.25-3.03h0c5.05,3.37,6.41,10.2,3.03,15.25h0c-2.12,3.18-5.6,4.89-9.16,4.89h0c-2.1,0-4.22-.6-6.1-1.85Zm-32.93-17.63c0-6.08,4.93-11,11-11h0c6.08,0,11,4.92,11,11h0c0,6.07-4.92,11-11,11h0c-6.07,0-11-4.93-11-11Z"/>
    <path class="cls-1" d="m43.18,1284.92c-5.82-1.75-9.1-7.89-7.35-13.71h0c1.76-5.81,7.9-9.1,13.72-7.34h0c5.81,1.75,9.1,7.89,7.34,13.71h0c-1.43,4.75-5.8,7.82-10.52,7.82h0c-1.06,0-2.13-.16-3.19-.48Zm28.3-8.24c-2.47-5.55.03-12.05,5.59-14.52h0c5.55-2.47,12.05.03,14.52,5.58h0c2.46,5.55-.03,12.05-5.58,14.52h0c-1.46.65-2.98.95-4.47.95h0c-4.21,0-8.23-2.43-10.06-6.53Zm-62.46-17.72h0c-3.26-5.13-1.75-11.92,3.38-15.18h0c5.13-3.26,11.93-1.74,15.19,3.39h0c3.26,5.13,1.74,11.92-3.39,15.18h0c-1.83,1.16-3.87,1.72-5.89,1.72h0c-3.64,0-7.2-1.81-9.3-5.11Zm93.02-1.44c-5.5-2.59-7.84-9.15-5.25-14.64h0c2.6-5.49,9.16-7.84,14.65-5.25h0c5.49,2.6,7.84,9.16,5.24,14.65h0c-1.88,3.97-5.83,6.3-9.95,6.3h0c-1.57,0-3.17-.34-4.69-1.06Zm-92.64-28.04c-6.01-.88-10.16-6.47-9.28-12.48H.12c.88-6.01,6.47-10.17,12.48-9.29h0c6.01.88,10.17,6.47,9.28,12.48h0c-.8,5.47-5.5,9.41-10.86,9.41h0c-.54,0-1.07-.04-1.62-.12Zm89.73-14.07c-1.62-5.86,1.81-11.92,7.66-13.54h0c5.86-1.62,11.92,1.81,13.54,7.66h0c1.62,5.86-1.81,11.92-7.66,13.54h0c-.98.27-1.97.4-2.95.4h0c-4.82,0-9.24-3.19-10.59-8.06Zm-79.46-20.49c-3.97-4.6-3.47-11.55,1.13-15.52h0c4.6-3.97,11.55-3.46,15.52,1.14h0c3.97,4.6,3.46,11.54-1.14,15.51h0c-2.08,1.8-4.64,2.68-7.18,2.68h0c-3.09,0-6.16-1.3-8.33-3.81Zm63.27-1.84c-5.05-3.37-6.41-10.2-3.03-15.25h0c3.37-5.06,10.21-6.42,15.26-3.04h0c5.05,3.37,6.41,10.2,3.03,15.25h0c-2.12,3.18-5.6,4.9-9.16,4.9h0c-2.1,0-4.22-.6-6.1-1.86Zm-32.93-17.63c0-6.07,4.93-11,11-11h0c6.08,0,11,4.93,11,11h0c0,6.08-4.92,11-11,11h0c-6.07,0-11-4.92-11-11Z"/>
    <path class="cls-1" d="m323.18,1004.92h0c-5.82-1.75-9.11-7.89-7.35-13.71h0c1.76-5.81,7.9-9.1,13.72-7.35h0c5.81,1.76,9.1,7.9,7.34,13.72h0c-1.43,4.75-5.8,7.82-10.52,7.82h0c-1.06,0-2.13-.16-3.19-.48Zm28.3-8.24c-2.47-5.55.03-12.05,5.59-14.52h0c5.55-2.47,12.05.03,14.51,5.58h0c2.47,5.55-.02,12.05-5.57,14.52h0c-1.46.65-2.98.95-4.47.95h0c-4.21,0-8.23-2.43-10.06-6.53Zm-62.46-17.72h0c-3.26-5.13-1.74-11.92,3.38-15.18h0c5.13-3.26,11.93-1.74,15.19,3.39h0c3.25,5.12,1.74,11.92-3.39,15.18h0c-1.83,1.16-3.87,1.72-5.89,1.72h0c-3.64,0-7.2-1.81-9.3-5.11Zm93.02-1.43c-5.5-2.6-7.84-9.16-5.25-14.65h0c2.6-5.49,9.16-7.84,14.65-5.24h0c5.49,2.59,7.84,9.15,5.24,14.64h0c-1.88,3.98-5.83,6.3-9.95,6.3h0c-1.58,0-3.18-.34-4.69-1.05Zm-92.64-28.05c-6.01-.88-10.17-6.47-9.28-12.48h0c.88-6.02,6.47-10.17,12.48-9.29h0c6.01.88,10.17,6.47,9.29,12.48h0c-.81,5.47-5.51,9.41-10.87,9.41h0c-.54,0-1.07-.04-1.62-.12Zm89.73-14.07c-1.62-5.86,1.81-11.92,7.67-13.54h0c5.85-1.62,11.91,1.81,13.53,7.66h0c1.62,5.86-1.81,11.92-7.66,13.54h0c-.98.27-1.97.4-2.94.4h0c-4.83,0-9.25-3.19-10.6-8.06Zm-79.47-20.49c-3.97-4.6-3.46-11.55,1.14-15.52h0c4.6-3.97,11.55-3.46,15.52,1.14h0c3.97,4.59,3.46,11.54-1.14,15.51h0c-2.08,1.8-4.64,2.68-7.19,2.68h0c-3.08,0-6.15-1.3-8.33-3.81Zm63.28-1.84c-5.05-3.37-6.41-10.2-3.03-15.25h0c3.37-5.06,10.21-6.41,15.26-3.04h0c5.05,3.37,6.41,10.2,3.03,15.26h0c-2.12,3.17-5.6,4.89-9.16,4.89h0c-2.1,0-4.22-.6-6.1-1.86Zm-32.93-17.63c0-6.08,4.93-11,11-11h0c6.08,0,11,4.92,11,11h0c0,6.08-4.92,11-11,11h0c-6.07,0-11-4.92-11-11Z"/>
    <g>
      <path class="cls-1" d="m1457.51,353.5c-4.14,0-7.5-3.36-7.5-7.5v-39c0-4.14,3.36-7.5,7.5-7.5s7.5,3.36,7.5,7.5v39c0,4.14-3.36,7.5-7.5,7.5Z"/>
      <path class="cls-1" d="m1477.01,334h-39c-4.14,0-7.5-3.36-7.5-7.5s3.36-7.5,7.5-7.5h39c4.14,0,7.5,3.36,7.5,7.5s-3.36,7.5-7.5,7.5Z"/>
    </g>
    <g>
      <path class="cls-1" d="m653.51,113.5c-4.14,0-7.5-3.36-7.5-7.5v-39c0-4.14,3.36-7.5,7.5-7.5s7.5,3.36,7.5,7.5v39c0,4.14-3.36,7.5-7.5,7.5Z"/>
      <path class="cls-1" d="m673.01,94h-39c-4.14,0-7.5-3.36-7.5-7.5s3.36-7.5,7.5-7.5h39c4.14,0,7.5,3.36,7.5,7.5s-3.36,7.5-7.5,7.5Z"/>
    </g>
    <g>
      <path class="cls-1" d="m277.51,571.5c-4.14,0-7.5-3.36-7.5-7.5v-39c0-4.14,3.36-7.5,7.5-7.5s7.5,3.36,7.5,7.5v39c0,4.14-3.36,7.5-7.5,7.5Z"/>
      <path class="cls-1" d="m297.01,552h-39c-4.14,0-7.5-3.36-7.5-7.5s3.36-7.5,7.5-7.5h39c4.14,0,7.5,3.36,7.5,7.5s-3.36,7.5-7.5,7.5Z"/>
    </g>
    <g>
      <path class="cls-1" d="m976.51,307.5c-4.14,0-7.5-3.36-7.5-7.5v-39c0-4.14,3.36-7.5,7.5-7.5s7.5,3.36,7.5,7.5v39c0,4.14-3.36,7.5-7.5,7.5Z"/>
      <path class="cls-1" d="m996.01,288h-39c-4.14,0-7.5-3.36-7.5-7.5s3.36-7.5,7.5-7.5h39c4.14,0,7.5,3.36,7.5,7.5s-3.36,7.5-7.5,7.5Z"/>
    </g>
    <g>
      <path class="cls-1" d="m1252.51,591.5c-4.14,0-7.5-3.36-7.5-7.5v-39c0-4.14,3.36-7.5,7.5-7.5s7.5,3.36,7.5,7.5v39c0,4.14-3.36,7.5-7.5,7.5Z"/>
      <path class="cls-1" d="m1272.01,572h-39c-4.14,0-7.5-3.36-7.5-7.5s3.36-7.5,7.5-7.5h39c4.14,0,7.5,3.36,7.5,7.5s-3.36,7.5-7.5,7.5Z"/>
    </g>
    <g>
      <path class="cls-1" d="m879.51,987.5c-4.14,0-7.5-3.36-7.5-7.5v-39c0-4.14,3.36-7.5,7.5-7.5s7.5,3.36,7.5,7.5v39c0,4.14-3.36,7.5-7.5,7.5Z"/>
      <path class="cls-1" d="m899.01,968h-39c-4.14,0-7.5-3.36-7.5-7.5s3.36-7.5,7.5-7.5h39c4.14,0,7.5,3.36,7.5,7.5s-3.36,7.5-7.5,7.5Z"/>
    </g>
    <g>
      <path class="cls-1" d="m859.51,1292.5c-4.14,0-7.5-3.36-7.5-7.5v-39c0-4.14,3.36-7.5,7.5-7.5s7.5,3.36,7.5,7.5v39c0,4.14-3.36,7.5-7.5,7.5Z"/>
      <path class="cls-1" d="m879.01,1273h-39c-4.14,0-7.5-3.36-7.5-7.5s3.36-7.5,7.5-7.5h39c4.14,0,7.5,3.36,7.5,7.5s-3.36,7.5-7.5,7.5Z"/>
    </g>
    <g>
      <path class="cls-1" d="m29.51,931.5c-4.14,0-7.5-3.36-7.5-7.5v-39c0-4.14,3.36-7.5,7.5-7.5s7.5,3.36,7.5,7.5v39c0,4.14-3.36,7.5-7.5,7.5Z"/>
      <path class="cls-1" d="m49.01,912H10.01c-4.14,0-7.5-3.36-7.5-7.5s3.36-7.5,7.5-7.5h39c4.14,0,7.5,3.36,7.5,7.5s-3.36,7.5-7.5,7.5Z"/>
    </g>
    <g>
      <path class="cls-1" d="m583.51,1023.5c-4.14,0-7.5-3.36-7.5-7.5v-39c0-4.14,3.36-7.5,7.5-7.5s7.5,3.36,7.5,7.5v39c0,4.14-3.36,7.5-7.5,7.5Z"/>
      <path class="cls-1" d="m603.01,1004h-39c-4.14,0-7.5-3.36-7.5-7.5s3.36-7.5,7.5-7.5h39c4.14,0,7.5,3.36,7.5,7.5s-3.36,7.5-7.5,7.5Z"/>
    </g>
    <g>
      <path class="cls-1" d="m363.51,1259.5c-4.14,0-7.5-3.36-7.5-7.5v-39c0-4.14,3.36-7.5,7.5-7.5s7.5,3.36,7.5,7.5v39c0,4.14-3.36,7.5-7.5,7.5Z"/>
      <path class="cls-1" d="m383.01,1240h-39c-4.14,0-7.5-3.36-7.5-7.5s3.36-7.5,7.5-7.5h39c4.14,0,7.5,3.36,7.5,7.5s-3.36,7.5-7.5,7.5Z"/>
    </g>
  </g>
</svg>