<?xml version="1.0" encoding="UTF-8"?>
<svg id="Layer_2" data-name="Layer 2" xmlns="http://www.w3.org/2000/svg" viewBox="0 0 1518.93 1278.2">
  <defs>
    <style>
      .cls-1 {
        fill: #2e2b28;
        stroke: #2e2b28;
        stroke-miterlimit: 10;
        stroke-width: 10px;
      }
    </style>
  </defs>
  <g id="EFFICIENCY">
    <g>
      <g>
        <path class="cls-1" d="m1154.41,840.95H291.67c-4.14,0-7.5-3.36-7.5-7.5,0-59.24,11.6-116.72,34.49-170.83,22.1-52.26,53.75-99.2,94.05-139.5s87.24-71.95,139.5-94.05c54.11-22.89,111.59-34.49,170.83-34.49s116.72,11.6,170.83,34.49c52.26,22.1,99.2,53.75,139.5,94.05s71.95,87.24,94.05,139.5c22.89,54.11,34.49,111.59,34.49,170.83,0,4.14-3.36,7.5-7.5,7.5Zm-855.18-15h847.61c-4.02-230.27-192.59-416.37-423.81-416.37s-419.78,186.1-423.81,416.37Z"/>
        <path class="cls-1" d="m1063.71,840.27c-4.14,0-7.5-3.36-7.5-7.5,0-183.71-149.46-333.17-333.17-333.17s-333.17,149.46-333.17,333.17c0,4.14-3.36,7.5-7.5,7.5s-7.5-3.36-7.5-7.5c0-47,9.21-92.6,27.36-135.53,17.54-41.46,42.64-78.69,74.61-110.67,31.97-31.97,69.21-57.08,110.67-74.61,42.93-18.16,88.53-27.36,135.53-27.36s92.6,9.21,135.53,27.36c41.46,17.54,78.7,42.64,110.67,74.61,31.97,31.97,57.08,69.21,74.61,110.67,18.16,42.93,27.36,88.53,27.36,135.53,0,4.14-3.36,7.5-7.5,7.5Z"/>
        <path class="cls-1" d="m995.86,840.27c-4.14,0-7.5-3.36-7.5-7.5,0-28.07-4.36-55.71-12.96-82.15-1.28-3.94.87-8.17,4.81-9.45,3.93-1.28,8.17.87,9.45,4.81,9.09,27.94,13.7,57.14,13.7,86.79,0,4.14-3.36,7.5-7.5,7.5Z"/>
        <path class="cls-1" d="m951.73,691.44c-2.45,0-4.85-1.2-6.29-3.4-12.12-18.59-26.57-35.64-42.93-50.68-3.05-2.8-3.25-7.55-.45-10.6,2.8-3.05,7.55-3.25,10.6-.45,17.29,15.88,32.54,33.89,45.35,53.53,2.26,3.47,1.28,8.12-2.19,10.38-1.26.82-2.68,1.22-4.09,1.22Z"/>
        <path class="cls-1" d="m450.22,840.27c-4.14,0-7.5-3.36-7.5-7.5,0-74.88,29.16-145.27,82.1-198.22,52.95-52.95,123.34-82.1,198.22-82.1,4.14,0,7.5,3.36,7.5,7.5s-3.36,7.5-7.5,7.5c-146.3,0-265.32,119.02-265.32,265.32,0,4.14-3.36,7.5-7.5,7.5Z"/>
        <path class="cls-1" d="m761.62,840.69c-4.14,0-7.5-3.36-7.5-7.5,0-17.14-13.95-31.09-31.09-31.09s-31.09,13.95-31.09,31.09c0,4.14-3.36,7.5-7.5,7.5s-7.5-3.36-7.5-7.5c0-25.41,20.67-46.09,46.09-46.09s46.09,20.67,46.09,46.09c0,4.14-3.36,7.5-7.5,7.5Z"/>
        <path class="cls-1" d="m761.62,829.82c-.85,0-1.71-.14-2.55-.45-3.89-1.41-5.91-5.71-4.5-9.61l25.57-70.6-51.86,50.79c-2.96,2.9-7.71,2.85-10.61-.11-2.9-2.96-2.85-7.71.11-10.61l75.36-73.81c2.5-2.45,6.36-2.84,9.31-.95,2.94,1.89,4.19,5.57,2.99,8.86l-36.77,101.53c-1.11,3.05-3.98,4.95-7.05,4.95Z"/>
        <g>
          <path class="cls-1" d="m1155.5,841h-45c-4.14,0-7.5-3.36-7.5-7.5s3.36-7.5,7.5-7.5h45c4.14,0,7.5,3.36,7.5,7.5s-3.36,7.5-7.5,7.5Z"/>
          <path class="cls-1" d="m337.5,841h-45c-4.14,0-7.5-3.36-7.5-7.5s3.36-7.5,7.5-7.5h45c4.14,0,7.5,3.36,7.5,7.5s-3.36,7.5-7.5,7.5Z"/>
        </g>
        <path class="cls-1" d="m723,454.5c-4.14,0-7.5-3.36-7.5-7.5v-45c0-4.14,3.36-7.5,7.5-7.5s7.5,3.36,7.5,7.5v45c0,4.14-3.36,7.5-7.5,7.5Z"/>
        <path class="cls-1" d="m996.26,567.45c-1.92,0-3.84-.73-5.3-2.2-2.93-2.93-2.93-7.68,0-10.61l31.59-31.59c2.93-2.93,7.68-2.93,10.61,0,2.93,2.93,2.93,7.68,0,10.61l-31.59,31.59c-1.46,1.46-3.38,2.2-5.3,2.2Z"/>
        <path class="cls-1" d="m449.19,567.45c-1.92,0-3.84-.73-5.3-2.2l-31.59-31.59c-2.93-2.93-2.93-7.68,0-10.61,2.93-2.93,7.68-2.93,10.61,0l31.59,31.59c2.93,2.93,2.93,7.68,0,10.61-1.46,1.46-3.38,2.2-5.3,2.2Z"/>
      </g>
      <path class="cls-1" d="m742.81,409.84c-4.14,0-7.5-3.36-7.5-7.5v-72.33c0-4.14,3.36-7.5,7.5-7.5s7.5,3.36,7.5,7.5v72.33c0,4.14-3.36,7.5-7.5,7.5Z"/>
      <path class="cls-1" d="m703.26,409.84c-4.14,0-7.5-3.36-7.5-7.5v-72.33c0-4.14,3.36-7.5,7.5-7.5s7.5,3.36,7.5,7.5v72.33c0,4.14-3.36,7.5-7.5,7.5Z"/>
      <path class="cls-1" d="m780.91,335.42h-115.74c-4.14,0-7.5-3.36-7.5-7.5v-46.92c0-4.14,3.36-7.5,7.5-7.5h115.74c4.14,0,7.5,3.36,7.5,7.5v46.92c0,4.14-3.36,7.5-7.5,7.5Zm-108.24-15h100.74v-31.92h-100.74v31.92Z"/>
    </g>
    <g>
      <path class="cls-1" d="m171.26,314.85c-2.21,0-4.38-.97-5.85-2.8-2.39-2.98-2.16-7.29.54-9.99l109.75-110.05h-122.14c-3.17,0-5.99-1.99-7.06-4.96-1.07-2.98-.16-6.31,2.29-8.32L357.01,6.96c2.88-2.38,7.07-2.27,9.83.25,2.76,2.52,3.24,6.68,1.14,9.76l-85.92,126.03h135.53c3.33,0,6.27,2.2,7.2,5.4.93,3.2-.36,6.63-3.17,8.42l-246.34,156.85c-1.24.79-2.64,1.17-4.02,1.17Zm3.17-137.85h119.33c3.03,0,5.76,1.83,6.93,4.62,1.16,2.8.52,6.02-1.62,8.17l-74.51,74.72,167.29-106.52h-123.98c-2.78,0-5.33-1.54-6.63-4-1.3-2.46-1.13-5.43.43-7.73l64.23-94.22-151.47,124.94Z"/>
      <path class="cls-1" d="m271.5,20h-108c-4.14,0-7.5-3.36-7.5-7.5s3.36-7.5,7.5-7.5h108c4.14,0,7.5,3.36,7.5,7.5s-3.36,7.5-7.5,7.5Z"/>
      <path class="cls-1" d="m176.5,94H59.5c-4.14,0-7.5-3.36-7.5-7.5s3.36-7.5,7.5-7.5h117c4.14,0,7.5,3.36,7.5,7.5s-3.36,7.5-7.5,7.5Z"/>
      <path class="cls-1" d="m94.5,167h-41c-4.14,0-7.5-3.36-7.5-7.5s3.36-7.5,7.5-7.5h41c4.14,0,7.5,3.36,7.5,7.5s-3.36,7.5-7.5,7.5Z"/>
      <path class="cls-1" d="m153.5,241H12.5c-4.14,0-7.5-3.36-7.5-7.5s3.36-7.5,7.5-7.5h141c4.14,0,7.5,3.36,7.5,7.5s-3.36,7.5-7.5,7.5Z"/>
      <path class="cls-1" d="m117.5,314h-30c-4.14,0-7.5-3.36-7.5-7.5s3.36-7.5,7.5-7.5h30c4.14,0,7.5,3.36,7.5,7.5s-3.36,7.5-7.5,7.5Z"/>
    </g>
    <g>
      <path class="cls-1" d="m1506.43,1273.2h-394c-4.14,0-7.5-3.36-7.5-7.5v-426.2c0-4.14,3.36-7.5,7.5-7.5s7.5,3.36,7.5,7.5v418.7h379v-479.14h-344.52c-4.14,0-7.5-3.36-7.5-7.5s3.36-7.5,7.5-7.5h352.02c4.14,0,7.5,3.36,7.5,7.5v494.14c0,4.14-3.36,7.5-7.5,7.5Z"/>
      <path class="cls-1" d="m1209.9,1240h-65.79c-4.14,0-7.5-3.36-7.5-7.5v-65.8c0-4.14,3.36-7.5,7.5-7.5s7.5,3.36,7.5,7.5v58.3h58.29c4.14,0,7.5,3.36,7.5,7.5s-3.36,7.5-7.5,7.5Z"/>
      <path class="cls-1" d="m1474.76,878.05c-4.14,0-7.5-3.36-7.5-7.5v-58.3h-58.3c-4.14,0-7.5-3.36-7.5-7.5s3.36-7.5,7.5-7.5h65.8c4.14,0,7.5,3.36,7.5,7.5v65.8c0,4.14-3.36,7.5-7.5,7.5Z"/>
      <g>
        <path class="cls-1" d="m1438.5,887h-257c-4.14,0-7.5-3.36-7.5-7.5s3.36-7.5,7.5-7.5h257c4.14,0,7.5,3.36,7.5,7.5s-3.36,7.5-7.5,7.5Z"/>
        <path class="cls-1" d="m1438.5,847h-257c-4.14,0-7.5-3.36-7.5-7.5s3.36-7.5,7.5-7.5h257c4.14,0,7.5,3.36,7.5,7.5s-3.36,7.5-7.5,7.5Z"/>
        <path class="cls-1" d="m1438.5,928h-257c-4.14,0-7.5-3.36-7.5-7.5s3.36-7.5,7.5-7.5h257c4.14,0,7.5,3.36,7.5,7.5s-3.36,7.5-7.5,7.5Z"/>
        <path class="cls-1" d="m1438.5,968h-257c-4.14,0-7.5-3.36-7.5-7.5s3.36-7.5,7.5-7.5h257c4.14,0,7.5,3.36,7.5,7.5s-3.36,7.5-7.5,7.5Z"/>
        <path class="cls-1" d="m1438.5,1010h-257c-4.14,0-7.5-3.36-7.5-7.5s3.36-7.5,7.5-7.5h257c4.14,0,7.5,3.36,7.5,7.5s-3.36,7.5-7.5,7.5Z"/>
        <path class="cls-1" d="m1309.5,1050h-128c-4.14,0-7.5-3.36-7.5-7.5s3.36-7.5,7.5-7.5h128c4.14,0,7.5,3.36,7.5,7.5s-3.36,7.5-7.5,7.5Z"/>
      </g>
    </g>
    <path class="cls-1" d="m102,1126c-1.98,0-3.87-.78-5.28-2.17-1.42-1.41-2.22-3.33-2.22-5.33V398c0-4.14,3.36-7.5,7.5-7.5s7.5,3.36,7.5,7.5v712.93l619-5.86v-226.07c0-4.14,3.36-7.5,7.5-7.5s7.5,3.36,7.5,7.5v233.5c0,4.11-3.31,7.46-7.43,7.5l-634,6h-.07Z"/>
    <path class="cls-1" d="m1302,703.5c-4.14,0-7.5-3.36-7.5-7.5V104h-564v130c0,4.14-3.36,7.5-7.5,7.5s-7.5-3.36-7.5-7.5V96.5c0-4.14,3.36-7.5,7.5-7.5h579c4.14,0,7.5,3.36,7.5,7.5v599.5c0,4.14-3.36,7.5-7.5,7.5Z"/>
  </g>
</svg>