<?xml version="1.0" encoding="UTF-8"?>
<svg id="Layer_2" data-name="Layer 2" xmlns="http://www.w3.org/2000/svg" viewBox="0 0 1004.14 686.6">
  <defs>
    <style>
      .cls-1 {
        fill: #fff;
        stroke-width: 13.36px;
      }

      .cls-1, .cls-2, .cls-3, .cls-4, .cls-5, .cls-6, .cls-7, .cls-8, .cls-9 {
        stroke-miterlimit: 10;
      }

      .cls-1, .cls-2, .cls-9 {
        stroke: #383838;
      }

      .cls-10 {
        fill: #00b26e;
      }

      .cls-11 {
        fill: #383838;
      }

      .cls-2 {
        fill: #f3f5f5;
        stroke-width: 1.22px;
      }

      .cls-3, .cls-4, .cls-5, .cls-6, .cls-7, .cls-8, .cls-9 {
        fill: none;
      }

      .cls-3, .cls-5 {
        stroke: #f94151;
      }

      .cls-3, .cls-9 {
        stroke-dasharray: 0 26;
        stroke-width: 10.36px;
      }

      .cls-4 {
        stroke: #45d8f9;
        stroke-width: 6.27px;
      }

      .cls-5, .cls-6, .cls-7, .cls-8 {
        stroke-width: 6.63px;
      }

      .cls-6 {
        stroke: #fe3e64;
      }

      .cls-7 {
        stroke: #ffd74e;
      }

      .cls-8 {
        stroke: #00b26e;
      }
    </style>
  </defs>
  <g id="Layer_1-2" data-name="Layer 1">
    <g>
      <g>
        <path class="cls-5" d="m737.92,44.4l30.99-14.07c-4.62,6.91-8.59,14.38-11.53,22.35l-19.46-8.28Z"/>
        <path class="cls-5" d="m800.52,95.27c7.95-3.01,15.39-7.02,22.27-11.7l-13.84,31.09-8.43-19.4Z"/>
        <path class="cls-5" d="m811.21,41.21c-3.96-3.96-3.96-10.41,0-14.38,3.96-3.96,10.42-3.96,14.38,0,3.91,3.96,3.96,10.41,0,14.38-3.96,3.96-10.41,3.96-14.38,0"/>
        <polyline class="cls-5" points="782.45 77.13 775.29 69.96 782.45 77.13"/>
        <line class="cls-5" x1="763.18" y1="110.03" x2="781.67" y2="91.53"/>
        <line class="cls-5" x1="771.68" y1="80.86" x2="744.19" y2="108.63"/>
        <line class="cls-5" x1="760.44" y1="71.48" x2="741.95" y2="89.97"/>
        <path class="cls-5" d="m793.22,23.28c-11.13,11.13-17.78,23.37-22.1,34.09-1.42,3.81-.46,7.98,2.34,10.82l10.82,10.77c2.79,2.85,6.96,3.76,10.77,2.34,10.87-4.17,22.96-10.97,34.09-22.1,28.76-28.76,17.99-53.9,17.99-53.9,0,0-25.15-10.78-53.9,17.98Z"/>
      </g>
      <path class="cls-3" d="m730.98,120.36s-223.61,200.99-381.11,174.49"/>
      <path class="cls-7" d="m153.22,159.85l-8.59,22.91-22.91,8.59,22.91,8.59,8.59,22.91,8.59-22.91,22.91-8.59-22.91-8.59-8.59-22.91Z"/>
      <g>
        <line class="cls-8" x1="420.34" y1="129.68" x2="446.39" y2="129.68"/>
        <line class="cls-8" x1="467.02" y1="129.68" x2="493.07" y2="129.68"/>
        <line class="cls-8" x1="456.7" y1="166.04" x2="456.7" y2="139.99"/>
        <line class="cls-8" x1="456.7" y1="119.36" x2="456.7" y2="93.31"/>
      </g>
      <g>
        <line class="cls-4" x1="475.99" y1="632.96" x2="494.41" y2="651.38"/>
        <line class="cls-4" x1="509" y1="665.97" x2="527.42" y2="684.39"/>
        <line class="cls-4" x1="475.99" y1="684.39" x2="494.41" y2="665.97"/>
        <line class="cls-4" x1="509" y1="651.38" x2="527.42" y2="632.96"/>
      </g>
      <g>
        <line class="cls-6" x1="918.99" y1="374.96" x2="937.41" y2="393.38"/>
        <line class="cls-6" x1="952" y1="407.97" x2="970.42" y2="426.39"/>
        <line class="cls-6" x1="918.99" y1="426.39" x2="937.41" y2="407.97"/>
        <line class="cls-6" x1="952" y1="393.38" x2="970.42" y2="374.96"/>
      </g>
      <path class="cls-9" d="m531.88,611.85c309.27,8.66,275.17-116,470.58-49"/>
      <path class="cls-9" d="m2.62,507.03c267.04,156.25,318.1-38.87,457.26,113.82"/>
      <path class="cls-6" d="m121.3,302.85l-9.98,26.6-26.6,9.98,26.6,9.98,9.98,26.6,9.98-26.6,26.6-9.98-26.6-9.98-9.98-26.6Z"/>
      <path class="cls-1" d="m235.06,191.35h648.59v289.82c0,15.83-12.85,28.68-28.68,28.68H206.38V220.03c0-15.83,12.85-28.68,28.68-28.68Z"/>
      <line class="cls-1" x1="380.27" y1="191.35" x2="380.27" y2="509.85"/>
      <line class="cls-1" x1="480.34" y1="191.35" x2="480.34" y2="509.85"/>
      <line class="cls-1" x1="581.62" y1="191.35" x2="581.62" y2="509.85"/>
      <line class="cls-1" x1="582.23" y1="191.35" x2="582.23" y2="509.85"/>
      <line class="cls-1" x1="682.3" y1="191.35" x2="682.3" y2="509.85"/>
      <line class="cls-1" x1="783.58" y1="191.35" x2="783.58" y2="509.85"/>
      <rect class="cls-10" x="401.63" y="209.65" width="15.25" height="15.25"/>
      <rect class="cls-10" x="422.37" y="209.65" width="15.25" height="15.25"/>
      <rect class="cls-10" x="443.12" y="209.65" width="15.25" height="15.25"/>
      <rect class="cls-10" x="339.39" y="282.87" width="15.25" height="15.25" transform="translate(637.52 -56.52) rotate(90)"/>
      <rect class="cls-10" x="343.05" y="209.65" width="15.25" height="15.25" transform="translate(567.96 -133.4) rotate(90)"/>
      <rect class="cls-10" x="322.31" y="209.65" width="15.25" height="15.25" transform="translate(547.21 -112.65) rotate(90)"/>
      <rect class="cls-10" x="339.39" y="303.62" width="15.25" height="15.25" transform="translate(658.26 -35.77) rotate(90)"/>
      <rect class="cls-10" x="339.39" y="324.36" width="15.25" height="15.25" transform="translate(679.01 -15.03) rotate(90)"/>
      <rect class="cls-10" x="501.69" y="209.65" width="15.25" height="15.25"/>
      <rect class="cls-10" x="522.44" y="209.65" width="15.25" height="15.25"/>
      <rect class="cls-10" x="543.18" y="209.65" width="15.25" height="15.25"/>
      <rect class="cls-10" x="602.98" y="209.65" width="15.25" height="15.25"/>
      <rect class="cls-10" x="623.72" y="209.65" width="15.25" height="15.25"/>
      <rect class="cls-10" x="644.47" y="209.65" width="15.25" height="15.25"/>
      <rect class="cls-10" x="805.55" y="209.65" width="15.25" height="15.25"/>
      <rect class="cls-10" x="826.29" y="209.65" width="15.25" height="15.25"/>
      <rect class="cls-10" x="847.04" y="209.65" width="15.25" height="15.25"/>
      <rect class="cls-10" x="703.04" y="209.65" width="15.25" height="15.25"/>
      <rect class="cls-10" x="723.79" y="209.65" width="15.25" height="15.25"/>
      <rect class="cls-10" x="744.53" y="209.65" width="15.25" height="15.25"/>
      <path class="cls-11" d="m242.82,257.02h75.27c13.76,0,13.78-21.39,0-21.39h-75.27c-13.76,0-13.78,21.39,0,21.39h0Z"/>
      <path class="cls-11" d="m300.17,491.31h50.87c13.76,0,13.78-21.39,0-21.39h-50.87c-13.76,0-13.78,21.39,0,21.39h0Z"/>
      <path class="cls-11" d="m413.66,491.31h26.46c13.76,0,13.78-21.39,0-21.39h-26.46c-13.76,0-13.78,21.39,0,21.39h0Z"/>
      <path class="cls-11" d="m516.17,491.31h26.46c13.76,0,13.78-21.39,0-21.39h-26.46c-13.76,0-13.78,21.39,0,21.39h0Z"/>
      <path class="cls-11" d="m618.67,491.31h26.46c13.76,0,13.78-21.39,0-21.39h-26.46c-13.76,0-13.78,21.39,0,21.39h0Z"/>
      <path class="cls-11" d="m721.18,491.31h26.46c13.76,0,13.78-21.39,0-21.39h-26.46c-13.76,0-13.78,21.39,0,21.39h0Z"/>
      <path class="cls-11" d="m823.68,491.31h26.46c13.76,0,13.78-21.39,0-21.39h-26.46c-13.76,0-13.78,21.39,0,21.39h0Z"/>
      <rect class="cls-2" x="232.25" y="282.26" width="96.76" height="57.35"/>
      <rect class="cls-2" x="232.25" y="350.6" width="96.76" height="57.35"/>
    </g>
  </g>
</svg>