<svg id="visual" viewBox="0 0 3440 2160" width="3440" height="2160" xmlns="http://www.w3.org/2000/svg" xmlns:xlink="http://www.w3.org/1999/xlink" version="1.1"><g stroke-width="1" stroke-linejoin="bevel"><path d="M1799 1049.9L1902 1191.1L1828 1042.9Z" fill="#c3c2ea" stroke="#c3c2ea"></path><path d="M1799 1049.9L1784 1209.1L1902 1191.1Z" fill="#2e3192" stroke="#2e3192"></path><path d="M1902 1191.1L2014 1054.9L1828 1042.9Z" fill="#2e3192" stroke="#2e3192"></path><path d="M1621 1280.2L1725 1301.2L1784 1209.1Z" fill="#eaeaff" stroke="#eaeaff"></path><path d="M1784 1209.1L1799 1344.2L1902 1191.1Z" fill="#c3c2ea" stroke="#c3c2ea"></path><path d="M2066 1254.2L2038 1182.1L1902 1191.1Z" fill="#eaeaff" stroke="#eaeaff"></path><path d="M1902 1191.1L2038 1182.1L2014 1054.9Z" fill="#6865b4" stroke="#6865b4"></path><path d="M1725 1301.2L1799 1344.2L1784 1209.1Z" fill="#5653a9" stroke="#5653a9"></path><path d="M1592 1230.1L1621 1280.2L1784 1209.1Z" fill="#c3c2ea" stroke="#c3c2ea"></path><path d="M1725 1301.2L1664 1579.4L1799 1344.2Z" fill="#43429d" stroke="#43429d"></path><path d="M1799 1049.9L1592 1230.1L1784 1209.1Z" fill="#9e9cd5" stroke="#9e9cd5"></path><path d="M1799 1344.2L2066 1254.2L1902 1191.1Z" fill="#eaeaff" stroke="#eaeaff"></path><path d="M2188 1057.9L2061 920.8L2014 1054.9Z" fill="#6865b4" stroke="#6865b4"></path><path d="M2014 1054.9L1936 881.8L1828 1042.9Z" fill="#5653a9" stroke="#5653a9"></path><path d="M1828 1042.9L1710 760.8L1799 1049.9Z" fill="#b1afe0" stroke="#b1afe0"></path><path d="M1452 1002.9L1440 1089.1L1592 1230.1Z" fill="#7a77bf" stroke="#7a77bf"></path><path d="M2188 1057.9L2014 1054.9L2038 1182.1Z" fill="#b1afe0" stroke="#b1afe0"></path><path d="M2014 1054.9L2061 920.8L1936 881.8Z" fill="#d6d6f5" stroke="#d6d6f5"></path><path d="M2210 1084.1L2188 1057.9L2038 1182.1Z" fill="#43429d" stroke="#43429d"></path><path d="M2066 1254.2L2210 1084.1L2038 1182.1Z" fill="#c3c2ea" stroke="#c3c2ea"></path><path d="M1710 760.8L1605 829.8L1799 1049.9Z" fill="#7a77bf" stroke="#7a77bf"></path><path d="M1937 706.6L1710 760.8L1936 881.8Z" fill="#c3c2ea" stroke="#c3c2ea"></path><path d="M1936 881.8L1710 760.8L1828 1042.9Z" fill="#5653a9" stroke="#5653a9"></path><path d="M1452 1002.9L1592 1230.1L1799 1049.9Z" fill="#2e3192" stroke="#2e3192"></path><path d="M1283 1440.4L1620 1570.4L1621 1280.2Z" fill="#8c89ca" stroke="#8c89ca"></path><path d="M1605 829.8L1452 1002.9L1799 1049.9Z" fill="#5653a9" stroke="#5653a9"></path><path d="M1973 1548.4L1982 1535.4L1799 1344.2Z" fill="#2e3192" stroke="#2e3192"></path><path d="M1799 1344.2L1982 1535.4L2066 1254.2Z" fill="#5653a9" stroke="#5653a9"></path><path d="M2066 1254.2L2242 1397.2L2210 1084.1Z" fill="#d6d6f5" stroke="#d6d6f5"></path><path d="M1972 638.6L1937 706.6L2061 920.8Z" fill="#6865b4" stroke="#6865b4"></path><path d="M2061 920.8L1937 706.6L1936 881.8Z" fill="#2e3192" stroke="#2e3192"></path><path d="M1972 638.6L2061 920.8L2279 825.8Z" fill="#5653a9" stroke="#5653a9"></path><path d="M1811 1649.5L1973 1548.4L1799 1344.2Z" fill="#9e9cd5" stroke="#9e9cd5"></path><path d="M1710 760.8L1556 755.6L1605 829.8Z" fill="#eaeaff" stroke="#eaeaff"></path><path d="M1605 829.8L1556 755.6L1452 1002.9Z" fill="#6865b4" stroke="#6865b4"></path><path d="M1642 642.6L1556 755.6L1710 760.8Z" fill="#d6d6f5" stroke="#d6d6f5"></path><path d="M1620 1570.4L1725 1301.2L1621 1280.2Z" fill="#d6d6f5" stroke="#d6d6f5"></path><path d="M1620 1570.4L1664 1579.4L1725 1301.2Z" fill="#eaeaff" stroke="#eaeaff"></path><path d="M2318 1573.4L2242 1397.2L1982 1535.4Z" fill="#b1afe0" stroke="#b1afe0"></path><path d="M1982 1535.4L2242 1397.2L2066 1254.2Z" fill="#6865b4" stroke="#6865b4"></path><path d="M1307 1294.2L1621 1280.2L1592 1230.1Z" fill="#eaeaff" stroke="#eaeaff"></path><path d="M2279 825.8L2061 920.8L2188 1057.9Z" fill="#7a77bf" stroke="#7a77bf"></path><path d="M1856 590.5L1642 642.6L1710 760.8Z" fill="#d6d6f5" stroke="#d6d6f5"></path><path d="M1699 1716.5L1811 1649.5L1664 1579.4Z" fill="#2e3192" stroke="#2e3192"></path><path d="M1664 1579.4L1811 1649.5L1799 1344.2Z" fill="#2e3192" stroke="#2e3192"></path><path d="M2215 1752.5L2318 1573.4L1982 1535.4Z" fill="#9e9cd5" stroke="#9e9cd5"></path><path d="M1856 590.5L1710 760.8L1937 706.6Z" fill="#d6d6f5" stroke="#d6d6f5"></path><path d="M1452 1002.9L1310 1055.9L1440 1089.1Z" fill="#b1afe0" stroke="#b1afe0"></path><path d="M1440 1089.1L1307 1294.2L1592 1230.1Z" fill="#43429d" stroke="#43429d"></path><path d="M1290 839.8L1310 1055.9L1452 1002.9Z" fill="#5653a9" stroke="#5653a9"></path><path d="M1282 1075.9L1310 1055.9L1290 839.8Z" fill="#eaeaff" stroke="#eaeaff"></path><path d="M2379 1053.9L2188 1057.9L2210 1084.1Z" fill="#b1afe0" stroke="#b1afe0"></path><path d="M2379 1053.9L2279 825.8L2188 1057.9Z" fill="#8c89ca" stroke="#8c89ca"></path><path d="M1972 638.6L1856 590.5L1937 706.6Z" fill="#d6d6f5" stroke="#d6d6f5"></path><path d="M2391 1286.2L2379 1053.9L2210 1084.1Z" fill="#c3c2ea" stroke="#c3c2ea"></path><path d="M1282 1075.9L1307 1294.2L1440 1089.1Z" fill="#8c89ca" stroke="#8c89ca"></path><path d="M1290 839.8L1452 1002.9L1556 755.6Z" fill="#c3c2ea" stroke="#c3c2ea"></path><path d="M1310 1055.9L1282 1075.9L1440 1089.1Z" fill="#eaeaff" stroke="#eaeaff"></path><path d="M2242 1397.2L2391 1286.2L2210 1084.1Z" fill="#7a77bf" stroke="#7a77bf"></path><path d="M1608 1739.5L1664 1579.4L1620 1570.4Z" fill="#c3c2ea" stroke="#c3c2ea"></path><path d="M1608 1739.5L1699 1716.5L1664 1579.4Z" fill="#6865b4" stroke="#6865b4"></path><path d="M1811 1649.5L1871 1732.7L1973 1548.4Z" fill="#5653a9" stroke="#5653a9"></path><path d="M1699 1716.5L1871 1732.7L1811 1649.5Z" fill="#6865b4" stroke="#6865b4"></path><path d="M2242 1397.2L2528 1432.4L2391 1286.2Z" fill="#6865b4" stroke="#6865b4"></path><path d="M1311 732.8L1290 839.8L1556 755.6Z" fill="#b1afe0" stroke="#b1afe0"></path><path d="M2476 867.8L2324 742.6L2279 825.8Z" fill="#c3c2ea" stroke="#c3c2ea"></path><path d="M2279 825.8L2171 540.5L1972 638.6Z" fill="#d6d6f5" stroke="#d6d6f5"></path><path d="M1763 331.3L1706 493.5L1856 590.5Z" fill="#eaeaff" stroke="#eaeaff"></path><path d="M1290 839.8L1204 1115.1L1282 1075.9Z" fill="#5653a9" stroke="#5653a9"></path><path d="M1282 1075.9L1204 1115.1L1307 1294.2Z" fill="#5653a9" stroke="#5653a9"></path><path d="M1150 1283.2L1283 1440.4L1307 1294.2Z" fill="#c3c2ea" stroke="#c3c2ea"></path><path d="M1307 1294.2L1283 1440.4L1621 1280.2Z" fill="#eaeaff" stroke="#eaeaff"></path><path d="M1467 1703.5L1608 1739.5L1620 1570.4Z" fill="#eaeaff" stroke="#eaeaff"></path><path d="M1699 1716.5L1708 1952.8L1871 1732.7Z" fill="#8c89ca" stroke="#8c89ca"></path><path d="M1856 590.5L1706 493.5L1642 642.6Z" fill="#6865b4" stroke="#6865b4"></path><path d="M1319 635.6L1311 732.8L1556 755.6Z" fill="#eaeaff" stroke="#eaeaff"></path><path d="M1990 391.3L1856 590.5L1972 638.6Z" fill="#2e3192" stroke="#2e3192"></path><path d="M2086 1756.5L1982 1535.4L1973 1548.4Z" fill="#7a77bf" stroke="#7a77bf"></path><path d="M2556 1214.1L2487 1194.1L2391 1286.2Z" fill="#43429d" stroke="#43429d"></path><path d="M2391 1286.2L2487 1194.1L2379 1053.9Z" fill="#b1afe0" stroke="#b1afe0"></path><path d="M2379 1053.9L2476 867.8L2279 825.8Z" fill="#d6d6f5" stroke="#d6d6f5"></path><path d="M1319 635.6L1556 755.6L1642 642.6Z" fill="#2e3192" stroke="#2e3192"></path><path d="M996 914.9L1006 1106.1L1204 1115.1Z" fill="#b1afe0" stroke="#b1afe0"></path><path d="M1907 2091.8L2035 1771.7L1871 1732.7Z" fill="#6865b4" stroke="#6865b4"></path><path d="M1871 1732.7L2035 1771.7L1973 1548.4Z" fill="#7a77bf" stroke="#7a77bf"></path><path d="M2035 1771.7L2086 1756.5L1973 1548.4Z" fill="#7a77bf" stroke="#7a77bf"></path><path d="M1283 1440.4L1467 1703.5L1620 1570.4Z" fill="#b1afe0" stroke="#b1afe0"></path><path d="M2324 742.6L2171 540.5L2279 825.8Z" fill="#c3c2ea" stroke="#c3c2ea"></path><path d="M2602 1054.9L2476 867.8L2379 1053.9Z" fill="#7a77bf" stroke="#7a77bf"></path><path d="M2324 742.6L2418 646.6L2171 540.5Z" fill="#2e3192" stroke="#2e3192"></path><path d="M1006 1106.1L1150 1283.2L1204 1115.1Z" fill="#9e9cd5" stroke="#9e9cd5"></path><path d="M1204 1115.1L1150 1283.2L1307 1294.2Z" fill="#d6d6f5" stroke="#d6d6f5"></path><path d="M1283 1440.4L1217 1688.5L1467 1703.5Z" fill="#d6d6f5" stroke="#d6d6f5"></path><path d="M2171 540.5L2116 489.5L1972 638.6Z" fill="#eaeaff" stroke="#eaeaff"></path><path d="M2215 1752.5L2356 1603.5L2318 1573.4Z" fill="#9e9cd5" stroke="#9e9cd5"></path><path d="M2318 1573.4L2446 1569.4L2242 1397.2Z" fill="#eaeaff" stroke="#eaeaff"></path><path d="M1467 1703.5L1521 1772.7L1608 1739.5Z" fill="#43429d" stroke="#43429d"></path><path d="M1608 1739.5L1656 1914.7L1699 1716.5Z" fill="#43429d" stroke="#43429d"></path><path d="M1507 396.3L1319 635.6L1642 642.6Z" fill="#6865b4" stroke="#6865b4"></path><path d="M1311 732.8L1161 677.6L1290 839.8Z" fill="#43429d" stroke="#43429d"></path><path d="M2528 1432.4L2556 1214.1L2391 1286.2Z" fill="#2e3192" stroke="#2e3192"></path><path d="M2487 1194.1L2602 1054.9L2379 1053.9Z" fill="#eaeaff" stroke="#eaeaff"></path><path d="M2086 1756.5L2215 1752.5L1982 1535.4Z" fill="#d6d6f5" stroke="#d6d6f5"></path><path d="M2297 1914.7L2215 1752.5L2086 1756.5Z" fill="#eaeaff" stroke="#eaeaff"></path><path d="M2560 1717.5L2446 1569.4L2356 1603.5Z" fill="#43429d" stroke="#43429d"></path><path d="M2356 1603.5L2446 1569.4L2318 1573.4Z" fill="#d6d6f5" stroke="#d6d6f5"></path><path d="M2446 1569.4L2528 1432.4L2242 1397.2Z" fill="#8c89ca" stroke="#8c89ca"></path><path d="M2116 489.5L1990 391.3L1972 638.6Z" fill="#b1afe0" stroke="#b1afe0"></path><path d="M2476 867.8L2418 646.6L2324 742.6Z" fill="#8c89ca" stroke="#8c89ca"></path><path d="M2171 540.5L2288 396.3L2116 489.5Z" fill="#43429d" stroke="#43429d"></path><path d="M2116 489.5L2288 396.3L1990 391.3Z" fill="#c3c2ea" stroke="#c3c2ea"></path><path d="M2712 1240.1L2602 1054.9L2556 1214.1Z" fill="#b1afe0" stroke="#b1afe0"></path><path d="M2556 1214.1L2602 1054.9L2487 1194.1Z" fill="#b1afe0" stroke="#b1afe0"></path><path d="M2476 867.8L2523 673.6L2418 646.6Z" fill="#7a77bf" stroke="#7a77bf"></path><path d="M1763 331.3L1542 400.5L1706 493.5Z" fill="#d6d6f5" stroke="#d6d6f5"></path><path d="M1706 493.5L1542 400.5L1642 642.6Z" fill="#6865b4" stroke="#6865b4"></path><path d="M2528 1432.4L2623 1273.2L2556 1214.1Z" fill="#43429d" stroke="#43429d"></path><path d="M1525 1901.8L1656 1914.7L1608 1739.5Z" fill="#c3c2ea" stroke="#c3c2ea"></path><path d="M2037 2085.8L2297 1914.7L2086 1756.5Z" fill="#8c89ca" stroke="#8c89ca"></path><path d="M1990 391.3L1763 331.3L1856 590.5Z" fill="#eaeaff" stroke="#eaeaff"></path><path d="M1607 94.2L1507 396.3L1542 400.5Z" fill="#6865b4" stroke="#6865b4"></path><path d="M1542 400.5L1507 396.3L1642 642.6Z" fill="#2e3192" stroke="#2e3192"></path><path d="M1150 1283.2L1110 1485.4L1283 1440.4Z" fill="#2e3192" stroke="#2e3192"></path><path d="M1467 1703.5L1440 1855.7L1521 1772.7Z" fill="#c3c2ea" stroke="#c3c2ea"></path><path d="M1521 1772.7L1525 1901.8L1608 1739.5Z" fill="#7a77bf" stroke="#7a77bf"></path><path d="M1110 1485.4L1136 1542.4L1283 1440.4Z" fill="#b1afe0" stroke="#b1afe0"></path><path d="M1161 492.5L1161 677.6L1319 635.6Z" fill="#2e3192" stroke="#2e3192"></path><path d="M1319 635.6L1161 677.6L1311 732.8Z" fill="#2e3192" stroke="#2e3192"></path><path d="M1150 1283.2L1001 1345.2L1110 1485.4Z" fill="#d6d6f5" stroke="#d6d6f5"></path><path d="M2660 1011.9L2476 867.8L2602 1054.9Z" fill="#7a77bf" stroke="#7a77bf"></path><path d="M2680 907.8L2583 812.8L2476 867.8Z" fill="#2e3192" stroke="#2e3192"></path><path d="M1507 396.3L1306 501.5L1319 635.6Z" fill="#6865b4" stroke="#6865b4"></path><path d="M1213 1794.7L1440 1855.7L1467 1703.5Z" fill="#6865b4" stroke="#6865b4"></path><path d="M2583 812.8L2523 673.6L2476 867.8Z" fill="#2e3192" stroke="#2e3192"></path><path d="M2418 646.6L2288 396.3L2171 540.5Z" fill="#2e3192" stroke="#2e3192"></path><path d="M996 914.9L1204 1115.1L1290 839.8Z" fill="#5653a9" stroke="#5653a9"></path><path d="M1440 1855.7L1525 1901.8L1521 1772.7Z" fill="#2e3192" stroke="#2e3192"></path><path d="M1633 2160L1708 1952.8L1656 1914.7Z" fill="#6865b4" stroke="#6865b4"></path><path d="M1656 1914.7L1708 1952.8L1699 1716.5Z" fill="#5653a9" stroke="#5653a9"></path><path d="M1136 1542.4L1217 1688.5L1283 1440.4Z" fill="#2e3192" stroke="#2e3192"></path><path d="M2712 1240.1L2660 1011.9L2602 1054.9Z" fill="#9e9cd5" stroke="#9e9cd5"></path><path d="M1006 1106.1L1001 1345.2L1150 1283.2Z" fill="#2e3192" stroke="#2e3192"></path><path d="M902 1628.5L1114 1662.5L1136 1542.4Z" fill="#d6d6f5" stroke="#d6d6f5"></path><path d="M1136 1542.4L1114 1662.5L1217 1688.5Z" fill="#5653a9" stroke="#5653a9"></path><path d="M2528 1432.4L2681 1300.2L2623 1273.2Z" fill="#c3c2ea" stroke="#c3c2ea"></path><path d="M2623 1273.2L2712 1240.1L2556 1214.1Z" fill="#43429d" stroke="#43429d"></path><path d="M2748 1527.4L2681 1300.2L2528 1432.4Z" fill="#6865b4" stroke="#6865b4"></path><path d="M2482 556.5L2288 396.3L2418 646.6Z" fill="#d6d6f5" stroke="#d6d6f5"></path><path d="M1990 391.3L1966 251.3L1763 331.3Z" fill="#c3c2ea" stroke="#c3c2ea"></path><path d="M1161 677.6L996 914.9L1290 839.8Z" fill="#eaeaff" stroke="#eaeaff"></path><path d="M1006 1106.1L920 1366.2L1001 1345.2Z" fill="#b1afe0" stroke="#b1afe0"></path><path d="M2523 673.6L2482 556.5L2418 646.6Z" fill="#43429d" stroke="#43429d"></path><path d="M2578 495.5L2482 556.5L2523 673.6Z" fill="#9e9cd5" stroke="#9e9cd5"></path><path d="M2945 921.9L2680 907.8L2660 1011.9Z" fill="#2e3192" stroke="#2e3192"></path><path d="M2660 1011.9L2680 907.8L2476 867.8Z" fill="#c3c2ea" stroke="#c3c2ea"></path><path d="M2743 737.6L2578 495.5L2523 673.6Z" fill="#9e9cd5" stroke="#9e9cd5"></path><path d="M1507 396.3L1409 363.3L1306 501.5Z" fill="#c3c2ea" stroke="#c3c2ea"></path><path d="M990 710.6L976 791.8L1161 677.6Z" fill="#2e3192" stroke="#2e3192"></path><path d="M1338 232.2L1409 363.3L1607 94.2Z" fill="#d6d6f5" stroke="#d6d6f5"></path><path d="M2681 1300.2L2712 1240.1L2623 1273.2Z" fill="#b1afe0" stroke="#b1afe0"></path><path d="M2288 396.3L1966 251.3L1990 391.3Z" fill="#9e9cd5" stroke="#9e9cd5"></path><path d="M1763 331.3L1736 145.2L1542 400.5Z" fill="#b1afe0" stroke="#b1afe0"></path><path d="M902 1628.5L1136 1542.4L1110 1485.4Z" fill="#eaeaff" stroke="#eaeaff"></path><path d="M1217 1688.5L1213 1794.7L1467 1703.5Z" fill="#43429d" stroke="#43429d"></path><path d="M1114 1662.5L1213 1794.7L1217 1688.5Z" fill="#7a77bf" stroke="#7a77bf"></path><path d="M1440 1855.7L1313 1919.8L1525 1901.8Z" fill="#9e9cd5" stroke="#9e9cd5"></path><path d="M2037 2085.8L2086 1756.5L2035 1771.7Z" fill="#b1afe0" stroke="#b1afe0"></path><path d="M2215 1752.5L2297 1914.7L2356 1603.5Z" fill="#6865b4" stroke="#6865b4"></path><path d="M2446 1569.4L2748 1527.4L2528 1432.4Z" fill="#b1afe0" stroke="#b1afe0"></path><path d="M1161 492.5L1319 635.6L1306 501.5Z" fill="#d6d6f5" stroke="#d6d6f5"></path><path d="M1161 677.6L976 791.8L996 914.9Z" fill="#d6d6f5" stroke="#d6d6f5"></path><path d="M873 1400.4L920 1366.2L776 1102.1Z" fill="#43429d" stroke="#43429d"></path><path d="M1181 270.3L1161 492.5L1306 501.5Z" fill="#c3c2ea" stroke="#c3c2ea"></path><path d="M2503 1900.7L2560 1717.5L2356 1603.5Z" fill="#2e3192" stroke="#2e3192"></path><path d="M2825 1457.4L2862 1205.1L2712 1240.1Z" fill="#43429d" stroke="#43429d"></path><path d="M920 1366.2L1006 1106.1L776 1102.1Z" fill="#7a77bf" stroke="#7a77bf"></path><path d="M1001 1345.2L920 1366.2L1110 1485.4Z" fill="#7a77bf" stroke="#7a77bf"></path><path d="M987 485.5L990 710.6L1161 677.6Z" fill="#43429d" stroke="#43429d"></path><path d="M1213 1794.7L1313 1919.8L1440 1855.7Z" fill="#7a77bf" stroke="#7a77bf"></path><path d="M1542 2160L1633 2160L1656 1914.7Z" fill="#6865b4" stroke="#6865b4"></path><path d="M1955 2160L1907 2091.8L1633 2160Z" fill="#eaeaff" stroke="#eaeaff"></path><path d="M1708 1952.8L1907 2091.8L1871 1732.7Z" fill="#b1afe0" stroke="#b1afe0"></path><path d="M2199 2089.8L2334 1954.8L2297 1914.7Z" fill="#2e3192" stroke="#2e3192"></path><path d="M2297 1914.7L2503 1900.7L2356 1603.5Z" fill="#5653a9" stroke="#5653a9"></path><path d="M1907 2091.8L2037 2085.8L2035 1771.7Z" fill="#8c89ca" stroke="#8c89ca"></path><path d="M2482 556.5L2462 344.3L2288 396.3Z" fill="#c3c2ea" stroke="#c3c2ea"></path><path d="M2288 396.3L2326 217.2L1966 251.3Z" fill="#6865b4" stroke="#6865b4"></path><path d="M2743 737.6L2523 673.6L2583 812.8Z" fill="#9e9cd5" stroke="#9e9cd5"></path><path d="M2945 921.9L2743 737.6L2680 907.8Z" fill="#7a77bf" stroke="#7a77bf"></path><path d="M2680 907.8L2743 737.6L2583 812.8Z" fill="#b1afe0" stroke="#b1afe0"></path><path d="M1990 69.2L1736 145.2L1966 251.3Z" fill="#5653a9" stroke="#5653a9"></path><path d="M1966 251.3L1736 145.2L1763 331.3Z" fill="#7a77bf" stroke="#7a77bf"></path><path d="M1409 363.3L1181 270.3L1306 501.5Z" fill="#5653a9" stroke="#5653a9"></path><path d="M2769 1727.5L2748 1527.4L2560 1717.5Z" fill="#9e9cd5" stroke="#9e9cd5"></path><path d="M2560 1717.5L2748 1527.4L2446 1569.4Z" fill="#c3c2ea" stroke="#c3c2ea"></path><path d="M2712 1240.1L2862 1205.1L2660 1011.9Z" fill="#8c89ca" stroke="#8c89ca"></path><path d="M842 936.9L1006 1106.1L996 914.9Z" fill="#7a77bf" stroke="#7a77bf"></path><path d="M920 1366.2L873 1400.4L1110 1485.4Z" fill="#9e9cd5" stroke="#9e9cd5"></path><path d="M1114 1662.5L1047 1841.7L1213 1794.7Z" fill="#2e3192" stroke="#2e3192"></path><path d="M1083 2021.8L1202 2063.8L1313 1919.8Z" fill="#9e9cd5" stroke="#9e9cd5"></path><path d="M2578 495.5L2462 344.3L2482 556.5Z" fill="#43429d" stroke="#43429d"></path><path d="M840 828.8L996 914.9L976 791.8Z" fill="#43429d" stroke="#43429d"></path><path d="M840 828.8L842 936.9L996 914.9Z" fill="#eaeaff" stroke="#eaeaff"></path><path d="M2596 2040.8L2503 1900.7L2334 1954.8Z" fill="#d6d6f5" stroke="#d6d6f5"></path><path d="M2334 1954.8L2503 1900.7L2297 1914.7Z" fill="#6865b4" stroke="#6865b4"></path><path d="M2040 2160L2199 2089.8L2037 2085.8Z" fill="#eaeaff" stroke="#eaeaff"></path><path d="M2037 2085.8L2199 2089.8L2297 1914.7Z" fill="#c3c2ea" stroke="#c3c2ea"></path><path d="M1607 94.2L1409 363.3L1507 396.3Z" fill="#eaeaff" stroke="#eaeaff"></path><path d="M887 664.6L976 791.8L990 710.6Z" fill="#2e3192" stroke="#2e3192"></path><path d="M2825 1457.4L2712 1240.1L2681 1300.2Z" fill="#5653a9" stroke="#5653a9"></path><path d="M1633 2160L1907 2091.8L1708 1952.8Z" fill="#9e9cd5" stroke="#9e9cd5"></path><path d="M1907 2091.8L1955 2160L2037 2085.8Z" fill="#7a77bf" stroke="#7a77bf"></path><path d="M2462 344.3L2326 217.2L2288 396.3Z" fill="#8c89ca" stroke="#8c89ca"></path><path d="M887 664.6L990 710.6L987 485.5Z" fill="#c3c2ea" stroke="#c3c2ea"></path><path d="M887 664.6L840 828.8L976 791.8Z" fill="#43429d" stroke="#43429d"></path><path d="M776 1102.1L796 1073.1L729 1057.9Z" fill="#9e9cd5" stroke="#9e9cd5"></path><path d="M842 936.9L796 1073.1L1006 1106.1Z" fill="#d6d6f5" stroke="#d6d6f5"></path><path d="M2866 1625.5L2825 1457.4L2748 1527.4Z" fill="#7a77bf" stroke="#7a77bf"></path><path d="M2748 1527.4L2825 1457.4L2681 1300.2Z" fill="#2e3192" stroke="#2e3192"></path><path d="M1542 2160L1656 1914.7L1525 1901.8Z" fill="#2e3192" stroke="#2e3192"></path><path d="M1955 2160L2040 2160L2037 2085.8Z" fill="#5653a9" stroke="#5653a9"></path><path d="M2685 1839.7L2589 1866.7L2596 2040.8Z" fill="#2e3192" stroke="#2e3192"></path><path d="M2503 1900.7L2589 1866.7L2560 1717.5Z" fill="#2e3192" stroke="#2e3192"></path><path d="M683 1477.4L902 1628.5L873 1400.4Z" fill="#43429d" stroke="#43429d"></path><path d="M873 1400.4L902 1628.5L1110 1485.4Z" fill="#8c89ca" stroke="#8c89ca"></path><path d="M1313 1919.8L1542 2160L1525 1901.8Z" fill="#c3c2ea" stroke="#c3c2ea"></path><path d="M987 485.5L1161 677.6L1161 492.5Z" fill="#43429d" stroke="#43429d"></path><path d="M729 1057.9L796 1073.1L842 936.9Z" fill="#43429d" stroke="#43429d"></path><path d="M796 1073.1L776 1102.1L1006 1106.1Z" fill="#2e3192" stroke="#2e3192"></path><path d="M902 1628.5L1047 1841.7L1114 1662.5Z" fill="#b1afe0" stroke="#b1afe0"></path><path d="M1687 0L1607 94.2L1736 145.2Z" fill="#5653a9" stroke="#5653a9"></path><path d="M1736 145.2L1607 94.2L1542 400.5Z" fill="#9e9cd5" stroke="#9e9cd5"></path><path d="M1020 267.3L987 485.5L1161 492.5Z" fill="#7a77bf" stroke="#7a77bf"></path><path d="M1309 2160L1542 2160L1313 1919.8Z" fill="#eaeaff" stroke="#eaeaff"></path><path d="M2133 68.2L1990 69.2L1966 251.3Z" fill="#43429d" stroke="#43429d"></path><path d="M1207 203.2L1181 270.3L1338 232.2Z" fill="#6865b4" stroke="#6865b4"></path><path d="M1338 232.2L1181 270.3L1409 363.3Z" fill="#8c89ca" stroke="#8c89ca"></path><path d="M2326 217.2L2133 68.2L1966 251.3Z" fill="#7a77bf" stroke="#7a77bf"></path><path d="M2596 2040.8L2589 1866.7L2503 1900.7Z" fill="#9e9cd5" stroke="#9e9cd5"></path><path d="M2589 1866.7L2685 1839.7L2560 1717.5Z" fill="#d6d6f5" stroke="#d6d6f5"></path><path d="M730 835.8L729 1057.9L842 936.9Z" fill="#8c89ca" stroke="#8c89ca"></path><path d="M611 1421.2L683 1477.4L873 1400.4Z" fill="#c3c2ea" stroke="#c3c2ea"></path><path d="M730 835.8L842 936.9L840 828.8Z" fill="#5653a9" stroke="#5653a9"></path><path d="M2685 1839.7L2769 1727.5L2560 1717.5Z" fill="#7a77bf" stroke="#7a77bf"></path><path d="M2825 1457.4L2947 1254.2L2862 1205.1Z" fill="#6865b4" stroke="#6865b4"></path><path d="M2862 1205.1L2945 921.9L2660 1011.9Z" fill="#eaeaff" stroke="#eaeaff"></path><path d="M3005 1267.2L2947 1254.2L2825 1457.4Z" fill="#d6d6f5" stroke="#d6d6f5"></path><path d="M1284 0L1207 203.2L1338 232.2Z" fill="#b1afe0" stroke="#b1afe0"></path><path d="M1020 267.3L936 439.5L987 485.5Z" fill="#2e3192" stroke="#2e3192"></path><path d="M2040 2160L2283 2160L2199 2089.8Z" fill="#5653a9" stroke="#5653a9"></path><path d="M2199 2089.8L2283 2160L2334 1954.8Z" fill="#b1afe0" stroke="#b1afe0"></path><path d="M1083 2021.8L1313 1919.8L1213 1794.7Z" fill="#5653a9" stroke="#5653a9"></path><path d="M2485 0L2306 84.2L2326 217.2Z" fill="#5653a9" stroke="#5653a9"></path><path d="M2326 217.2L2306 84.2L2133 68.2Z" fill="#5653a9" stroke="#5653a9"></path><path d="M2578 495.5L2668 372.3L2462 344.3Z" fill="#43429d" stroke="#43429d"></path><path d="M2800 451.5L2668 372.3L2578 495.5Z" fill="#7a77bf" stroke="#7a77bf"></path><path d="M2842 582.6L2578 495.5L2743 737.6Z" fill="#6865b4" stroke="#6865b4"></path><path d="M2947 1254.2L2945 921.9L2862 1205.1Z" fill="#43429d" stroke="#43429d"></path><path d="M2028 0L1841 0L1990 69.2Z" fill="#6865b4" stroke="#6865b4"></path><path d="M1990 69.2L1841 0L1736 145.2Z" fill="#8c89ca" stroke="#8c89ca"></path><path d="M1607 94.2L1582 0L1338 232.2Z" fill="#5653a9" stroke="#5653a9"></path><path d="M987 485.5L936 439.5L887 664.6Z" fill="#9e9cd5" stroke="#9e9cd5"></path><path d="M887 664.6L730 835.8L840 828.8Z" fill="#8c89ca" stroke="#8c89ca"></path><path d="M1020 267.3L1161 492.5L1181 270.3Z" fill="#b1afe0" stroke="#b1afe0"></path><path d="M1841 0L1687 0L1736 145.2Z" fill="#5653a9" stroke="#5653a9"></path><path d="M615 834.8L730 835.8L677 636.6Z" fill="#d6d6f5" stroke="#d6d6f5"></path><path d="M2887 1894.7L2866 1625.5L2769 1727.5Z" fill="#eaeaff" stroke="#eaeaff"></path><path d="M2769 1727.5L2866 1625.5L2748 1527.4Z" fill="#b1afe0" stroke="#b1afe0"></path><path d="M2989 749.8L2842 582.6L2743 737.6Z" fill="#2e3192" stroke="#2e3192"></path><path d="M2281 0L2028 0L2133 68.2Z" fill="#eaeaff" stroke="#eaeaff"></path><path d="M2133 68.2L2028 0L1990 69.2Z" fill="#b1afe0" stroke="#b1afe0"></path><path d="M2566 198.2L2326 217.2L2462 344.3Z" fill="#2e3192" stroke="#2e3192"></path><path d="M2283 2160L2358 2160L2334 1954.8Z" fill="#7a77bf" stroke="#7a77bf"></path><path d="M1202 2063.8L1309 2160L1313 1919.8Z" fill="#d6d6f5" stroke="#d6d6f5"></path><path d="M1687 0L1582 0L1607 94.2Z" fill="#43429d" stroke="#43429d"></path><path d="M1047 1841.7L1083 2021.8L1213 1794.7Z" fill="#b1afe0" stroke="#b1afe0"></path><path d="M1202 2063.8L1194 2160L1309 2160Z" fill="#43429d" stroke="#43429d"></path><path d="M810 1848.7L1083 2021.8L1047 1841.7Z" fill="#2e3192" stroke="#2e3192"></path><path d="M3155 1488.4L3005 1267.2L2825 1457.4Z" fill="#eaeaff" stroke="#eaeaff"></path><path d="M3137 1189.1L3090 925.9L2945 921.9Z" fill="#8c89ca" stroke="#8c89ca"></path><path d="M2842 582.6L2800 451.5L2578 495.5Z" fill="#7a77bf" stroke="#7a77bf"></path><path d="M2668 372.3L2566 198.2L2462 344.3Z" fill="#2e3192" stroke="#2e3192"></path><path d="M2358 2160L2596 2040.8L2334 1954.8Z" fill="#7a77bf" stroke="#7a77bf"></path><path d="M2685 1839.7L2887 1894.7L2769 1727.5Z" fill="#6865b4" stroke="#6865b4"></path><path d="M2673 228.2L2566 198.2L2668 372.3Z" fill="#c3c2ea" stroke="#c3c2ea"></path><path d="M1036 78.2L1020 267.3L1207 203.2Z" fill="#7a77bf" stroke="#7a77bf"></path><path d="M1207 203.2L1020 267.3L1181 270.3Z" fill="#6865b4" stroke="#6865b4"></path><path d="M677 636.6L730 835.8L887 664.6Z" fill="#eaeaff" stroke="#eaeaff"></path><path d="M585 1228.1L873 1400.4L776 1102.1Z" fill="#8c89ca" stroke="#8c89ca"></path><path d="M902 1628.5L810 1848.7L1047 1841.7Z" fill="#c3c2ea" stroke="#c3c2ea"></path><path d="M585 1228.1L776 1102.1L729 1057.9Z" fill="#9e9cd5" stroke="#9e9cd5"></path><path d="M1083 2021.8L1194 2160L1202 2063.8Z" fill="#eaeaff" stroke="#eaeaff"></path><path d="M3005 415.5L2818 381.3L2800 451.5Z" fill="#5653a9" stroke="#5653a9"></path><path d="M2945 921.9L2989 749.8L2743 737.6Z" fill="#7a77bf" stroke="#7a77bf"></path><path d="M3090 925.9L2989 749.8L2945 921.9Z" fill="#eaeaff" stroke="#eaeaff"></path><path d="M2485 0L2281 0L2306 84.2Z" fill="#2e3192" stroke="#2e3192"></path><path d="M2306 84.2L2281 0L2133 68.2Z" fill="#43429d" stroke="#43429d"></path><path d="M2818 381.3L2673 228.2L2668 372.3Z" fill="#9e9cd5" stroke="#9e9cd5"></path><path d="M2566 198.2L2485 0L2326 217.2Z" fill="#7a77bf" stroke="#7a77bf"></path><path d="M2818 381.3L2668 372.3L2800 451.5Z" fill="#6865b4" stroke="#6865b4"></path><path d="M3005 415.5L2800 451.5L2842 582.6Z" fill="#8c89ca" stroke="#8c89ca"></path><path d="M689 1695.5L810 1848.7L902 1628.5Z" fill="#8c89ca" stroke="#8c89ca"></path><path d="M1083 2021.8L1029 2160L1194 2160Z" fill="#b1afe0" stroke="#b1afe0"></path><path d="M479 1009.9L585 1228.1L729 1057.9Z" fill="#8c89ca" stroke="#8c89ca"></path><path d="M683 1477.4L689 1695.5L902 1628.5Z" fill="#7a77bf" stroke="#7a77bf"></path><path d="M677 636.6L887 664.6L641 545.5Z" fill="#7a77bf" stroke="#7a77bf"></path><path d="M730 835.8L615 834.8L729 1057.9Z" fill="#5653a9" stroke="#5653a9"></path><path d="M585 1228.1L611 1421.2L873 1400.4Z" fill="#d6d6f5" stroke="#d6d6f5"></path><path d="M767 382.3L887 664.6L936 439.5Z" fill="#43429d" stroke="#43429d"></path><path d="M1582 0L1284 0L1338 232.2Z" fill="#8c89ca" stroke="#8c89ca"></path><path d="M3137 1189.1L2945 921.9L2947 1254.2Z" fill="#7a77bf" stroke="#7a77bf"></path><path d="M2989 749.8L3020 566.5L2842 582.6Z" fill="#eaeaff" stroke="#eaeaff"></path><path d="M1284 0L1253 0L1207 203.2Z" fill="#c3c2ea" stroke="#c3c2ea"></path><path d="M822 279.3L767 382.3L936 439.5Z" fill="#c3c2ea" stroke="#c3c2ea"></path><path d="M530 1714.5L689 1695.5L683 1477.4Z" fill="#6865b4" stroke="#6865b4"></path><path d="M2634 2160L2783 1993.8L2596 2040.8Z" fill="#7a77bf" stroke="#7a77bf"></path><path d="M2596 2040.8L2783 1993.8L2685 1839.7Z" fill="#8c89ca" stroke="#8c89ca"></path><path d="M3194 1284.2L3137 1189.1L3005 1267.2Z" fill="#9e9cd5" stroke="#9e9cd5"></path><path d="M689 1695.5L761 1840.7L810 1848.7Z" fill="#b1afe0" stroke="#b1afe0"></path><path d="M932 2160L1029 2160L1083 2021.8Z" fill="#8c89ca" stroke="#8c89ca"></path><path d="M2783 1993.8L2887 1894.7L2685 1839.7Z" fill="#d6d6f5" stroke="#d6d6f5"></path><path d="M3005 1267.2L3137 1189.1L2947 1254.2Z" fill="#d6d6f5" stroke="#d6d6f5"></path><path d="M2358 2160L2634 2160L2596 2040.8Z" fill="#6865b4" stroke="#6865b4"></path><path d="M2783 1993.8L2944 2086.8L2887 1894.7Z" fill="#7a77bf" stroke="#7a77bf"></path><path d="M3155 1488.4L2825 1457.4L2866 1625.5Z" fill="#eaeaff" stroke="#eaeaff"></path><path d="M822 279.3L936 439.5L1020 267.3Z" fill="#7a77bf" stroke="#7a77bf"></path><path d="M932 2160L1083 2021.8L801 2077.8Z" fill="#43429d" stroke="#43429d"></path><path d="M2545 0L2566 198.2L2663 0Z" fill="#6865b4" stroke="#6865b4"></path><path d="M2545 0L2485 0L2566 198.2Z" fill="#2e3192" stroke="#2e3192"></path><path d="M585 1228.1L528 1252.2L611 1421.2Z" fill="#6865b4" stroke="#6865b4"></path><path d="M611 1421.2L475 1497.4L683 1477.4Z" fill="#6865b4" stroke="#6865b4"></path><path d="M442 1202.1L528 1252.2L585 1228.1Z" fill="#2e3192" stroke="#2e3192"></path><path d="M3103 567.6L3020 566.5L2989 749.8Z" fill="#8c89ca" stroke="#8c89ca"></path><path d="M2818 381.3L2879 298.3L2673 228.2Z" fill="#5653a9" stroke="#5653a9"></path><path d="M1253 0L1036 78.2L1207 203.2Z" fill="#d6d6f5" stroke="#d6d6f5"></path><path d="M808 113.2L822 279.3L1020 267.3Z" fill="#7a77bf" stroke="#7a77bf"></path><path d="M574 422.3L641 545.5L767 382.3Z" fill="#8c89ca" stroke="#8c89ca"></path><path d="M767 382.3L641 545.5L887 664.6Z" fill="#d6d6f5" stroke="#d6d6f5"></path><path d="M418 674.6L438 841.8L615 834.8Z" fill="#7a77bf" stroke="#7a77bf"></path><path d="M615 834.8L479 1009.9L729 1057.9Z" fill="#7a77bf" stroke="#7a77bf"></path><path d="M3005 415.5L2879 298.3L2818 381.3Z" fill="#43429d" stroke="#43429d"></path><path d="M2663 0L2566 198.2L2673 228.2Z" fill="#8c89ca" stroke="#8c89ca"></path><path d="M438 841.8L479 1009.9L615 834.8Z" fill="#8c89ca" stroke="#8c89ca"></path><path d="M801 2077.8L1083 2021.8L810 1848.7Z" fill="#43429d" stroke="#43429d"></path><path d="M3195 1595.5L3155 1488.4L2866 1625.5Z" fill="#b1afe0" stroke="#b1afe0"></path><path d="M3155 1488.4L3194 1284.2L3005 1267.2Z" fill="#8c89ca" stroke="#8c89ca"></path><path d="M3344 829.8L3184 737.8L3090 925.9Z" fill="#43429d" stroke="#43429d"></path><path d="M3103 567.6L3005 415.5L3020 566.5Z" fill="#b1afe0" stroke="#b1afe0"></path><path d="M3020 566.5L3005 415.5L2842 582.6Z" fill="#7a77bf" stroke="#7a77bf"></path><path d="M3103 567.6L2989 749.8L3184 737.8Z" fill="#b1afe0" stroke="#b1afe0"></path><path d="M808 113.2L780 244.2L822 279.3Z" fill="#7a77bf" stroke="#7a77bf"></path><path d="M822 279.3L780 244.2L767 382.3Z" fill="#9e9cd5" stroke="#9e9cd5"></path><path d="M3184 737.8L2989 749.8L3090 925.9Z" fill="#43429d" stroke="#43429d"></path><path d="M479 1009.9L442 1202.1L585 1228.1Z" fill="#d6d6f5" stroke="#d6d6f5"></path><path d="M420 1437.4L475 1497.4L611 1421.2Z" fill="#d6d6f5" stroke="#d6d6f5"></path><path d="M707 1986.8L810 1848.7L761 1840.7Z" fill="#43429d" stroke="#43429d"></path><path d="M707 1986.8L801 2077.8L810 1848.7Z" fill="#c3c2ea" stroke="#c3c2ea"></path><path d="M707 1986.8L761 1840.7L563 1776.7Z" fill="#6865b4" stroke="#6865b4"></path><path d="M2832 0L2663 0L2673 228.2Z" fill="#7a77bf" stroke="#7a77bf"></path><path d="M2924 185.2L2673 228.2L2879 298.3Z" fill="#9e9cd5" stroke="#9e9cd5"></path><path d="M1253 0L1001 0L1036 78.2Z" fill="#c3c2ea" stroke="#c3c2ea"></path><path d="M1036 78.2L808 113.2L1020 267.3Z" fill="#43429d" stroke="#43429d"></path><path d="M3292 1060.9L3090 925.9L3137 1189.1Z" fill="#eaeaff" stroke="#eaeaff"></path><path d="M420 1437.4L611 1421.2L528 1252.2Z" fill="#6865b4" stroke="#6865b4"></path><path d="M563 1776.7L761 1840.7L689 1695.5Z" fill="#9e9cd5" stroke="#9e9cd5"></path><path d="M530 1714.5L563 1776.7L689 1695.5Z" fill="#8c89ca" stroke="#8c89ca"></path><path d="M418 674.6L615 834.8L677 636.6Z" fill="#2e3192" stroke="#2e3192"></path><path d="M479 1009.9L341 983.9L442 1202.1Z" fill="#c3c2ea" stroke="#c3c2ea"></path><path d="M418 674.6L677 636.6L641 545.5Z" fill="#2e3192" stroke="#2e3192"></path><path d="M475 1497.4L530 1714.5L683 1477.4Z" fill="#c3c2ea" stroke="#c3c2ea"></path><path d="M2634 2160L2832 2160L2783 1993.8Z" fill="#9e9cd5" stroke="#9e9cd5"></path><path d="M3189 1789.7L3195 1595.5L2866 1625.5Z" fill="#5653a9" stroke="#5653a9"></path><path d="M3085 1875.7L2866 1625.5L2887 1894.7Z" fill="#5653a9" stroke="#5653a9"></path><path d="M3155 1488.4L3440 1352.2L3194 1284.2Z" fill="#43429d" stroke="#43429d"></path><path d="M3116 283.3L2924 185.2L2879 298.3Z" fill="#eaeaff" stroke="#eaeaff"></path><path d="M3116 283.3L2879 298.3L3005 415.5Z" fill="#c3c2ea" stroke="#c3c2ea"></path><path d="M3116 283.3L3005 415.5L3266 448.5Z" fill="#c3c2ea" stroke="#c3c2ea"></path><path d="M1001 0L808 113.2L1036 78.2Z" fill="#2e3192" stroke="#2e3192"></path><path d="M780 244.2L574 422.3L767 382.3Z" fill="#b1afe0" stroke="#b1afe0"></path><path d="M411 394.3L574 422.3L466 259.2Z" fill="#6865b4" stroke="#6865b4"></path><path d="M442 1202.1L420 1437.4L528 1252.2Z" fill="#eaeaff" stroke="#eaeaff"></path><path d="M475 1497.4L351 1668.5L530 1714.5Z" fill="#eaeaff" stroke="#eaeaff"></path><path d="M325 1230.2L420 1437.4L442 1202.1Z" fill="#b1afe0" stroke="#b1afe0"></path><path d="M3034 2027.8L3085 1875.7L2887 1894.7Z" fill="#8c89ca" stroke="#8c89ca"></path><path d="M3338 1074.1L3292 1060.9L3194 1284.2Z" fill="#43429d" stroke="#43429d"></path><path d="M3194 1284.2L3292 1060.9L3137 1189.1Z" fill="#c3c2ea" stroke="#c3c2ea"></path><path d="M2832 2160L2944 2086.8L2783 1993.8Z" fill="#6865b4" stroke="#6865b4"></path><path d="M3344 829.8L3258 718.6L3184 737.8Z" fill="#5653a9" stroke="#5653a9"></path><path d="M3184 737.8L3258 718.6L3103 567.6Z" fill="#b1afe0" stroke="#b1afe0"></path><path d="M411 394.3L500 485.5L574 422.3Z" fill="#8c89ca" stroke="#8c89ca"></path><path d="M574 422.3L500 485.5L641 545.5Z" fill="#5653a9" stroke="#5653a9"></path><path d="M707 1986.8L758 2160L801 2077.8Z" fill="#b1afe0" stroke="#b1afe0"></path><path d="M801 2077.8L758 2160L932 2160Z" fill="#d6d6f5" stroke="#d6d6f5"></path><path d="M544 1988.8L758 2160L707 1986.8Z" fill="#d6d6f5" stroke="#d6d6f5"></path><path d="M544 1988.8L707 1986.8L563 1776.7Z" fill="#43429d" stroke="#43429d"></path><path d="M500 485.5L418 674.6L641 545.5Z" fill="#8c89ca" stroke="#8c89ca"></path><path d="M438 841.8L341 983.9L479 1009.9Z" fill="#eaeaff" stroke="#eaeaff"></path><path d="M3189 1789.7L3231 1674.5L3195 1595.5Z" fill="#8c89ca" stroke="#8c89ca"></path><path d="M2944 2086.8L3034 2027.8L2887 1894.7Z" fill="#2e3192" stroke="#2e3192"></path><path d="M3189 1789.7L2866 1625.5L3085 1875.7Z" fill="#6865b4" stroke="#6865b4"></path><path d="M3440 1120.1L3338 1074.1L3194 1284.2Z" fill="#eaeaff" stroke="#eaeaff"></path><path d="M200 846.8L341 983.9L438 841.8Z" fill="#2e3192" stroke="#2e3192"></path><path d="M305 540.5L398 691.6L418 674.6Z" fill="#43429d" stroke="#43429d"></path><path d="M418 674.6L398 691.6L438 841.8Z" fill="#7a77bf" stroke="#7a77bf"></path><path d="M3274 1577.4L3155 1488.4L3195 1595.5Z" fill="#eaeaff" stroke="#eaeaff"></path><path d="M3292 1060.9L3344 829.8L3090 925.9Z" fill="#6865b4" stroke="#6865b4"></path><path d="M3267 2023.8L3189 1789.7L3085 1875.7Z" fill="#5653a9" stroke="#5653a9"></path><path d="M3155 1488.4L3274 1577.4L3440 1471.4Z" fill="#7a77bf" stroke="#7a77bf"></path><path d="M3231 1674.5L3274 1577.4L3195 1595.5Z" fill="#5653a9" stroke="#5653a9"></path><path d="M3194 0L2832 0L2924 185.2Z" fill="#9e9cd5" stroke="#9e9cd5"></path><path d="M2924 185.2L2832 0L2673 228.2Z" fill="#7a77bf" stroke="#7a77bf"></path><path d="M341 983.9L325 1230.2L442 1202.1Z" fill="#6865b4" stroke="#6865b4"></path><path d="M345 1863.7L563 1776.7L530 1714.5Z" fill="#8c89ca" stroke="#8c89ca"></path><path d="M3266 448.5L3005 415.5L3103 567.6Z" fill="#6865b4" stroke="#6865b4"></path><path d="M3338 1074.1L3344 829.8L3292 1060.9Z" fill="#6865b4" stroke="#6865b4"></path><path d="M3258 718.6L3266 448.5L3103 567.6Z" fill="#d6d6f5" stroke="#d6d6f5"></path><path d="M1001 0L785 0L808 113.2Z" fill="#c3c2ea" stroke="#c3c2ea"></path><path d="M466 259.2L574 422.3L780 244.2Z" fill="#d6d6f5" stroke="#d6d6f5"></path><path d="M351 1668.5L475 1497.4L420 1437.4Z" fill="#7a77bf" stroke="#7a77bf"></path><path d="M345 1863.7L544 1988.8L563 1776.7Z" fill="#2e3192" stroke="#2e3192"></path><path d="M2832 2160L3000 2160L2944 2086.8Z" fill="#c3c2ea" stroke="#c3c2ea"></path><path d="M2944 2086.8L3000 2160L3034 2027.8Z" fill="#eaeaff" stroke="#eaeaff"></path><path d="M3034 2027.8L3267 2023.8L3085 1875.7Z" fill="#d6d6f5" stroke="#d6d6f5"></path><path d="M200 1457.4L351 1668.5L420 1437.4Z" fill="#9e9cd5" stroke="#9e9cd5"></path><path d="M3440 553.5L3266 448.5L3258 718.6Z" fill="#6865b4" stroke="#6865b4"></path><path d="M692 0L780 244.2L808 113.2Z" fill="#6865b4" stroke="#6865b4"></path><path d="M500 485.5L305 540.5L418 674.6Z" fill="#43429d" stroke="#43429d"></path><path d="M398 691.6L200 846.8L438 841.8Z" fill="#d6d6f5" stroke="#d6d6f5"></path><path d="M3338 1074.1L3440 870.8L3344 829.8Z" fill="#d6d6f5" stroke="#d6d6f5"></path><path d="M3344 829.8L3440 632.6L3258 718.6Z" fill="#eaeaff" stroke="#eaeaff"></path><path d="M3440 1352.2L3440 1120.1L3194 1284.2Z" fill="#6865b4" stroke="#6865b4"></path><path d="M3440 1120.1L3440 1050.9L3338 1074.1Z" fill="#c3c2ea" stroke="#c3c2ea"></path><path d="M785 0L692 0L808 113.2Z" fill="#8c89ca" stroke="#8c89ca"></path><path d="M3440 1471.4L3274 1577.4L3440 1602.5Z" fill="#8c89ca" stroke="#8c89ca"></path><path d="M3440 1471.4L3440 1352.2L3155 1488.4Z" fill="#b1afe0" stroke="#b1afe0"></path><path d="M3274 1577.4L3231 1674.5L3440 1602.5Z" fill="#eaeaff" stroke="#eaeaff"></path><path d="M600 0L466 259.2L780 244.2Z" fill="#9e9cd5" stroke="#9e9cd5"></path><path d="M3440 1050.9L3440 870.8L3338 1074.1Z" fill="#c3c2ea" stroke="#c3c2ea"></path><path d="M3000 2160L3103 2160L3034 2027.8Z" fill="#7a77bf" stroke="#7a77bf"></path><path d="M3344 288.3L3220 262.2L3266 448.5Z" fill="#7a77bf" stroke="#7a77bf"></path><path d="M3266 448.5L3220 262.2L3116 283.3Z" fill="#5653a9" stroke="#5653a9"></path><path d="M3116 283.3L3193 86.2L2924 185.2Z" fill="#9e9cd5" stroke="#9e9cd5"></path><path d="M192 632.6L305 540.5L93 419.5Z" fill="#c3c2ea" stroke="#c3c2ea"></path><path d="M411 394.3L305 540.5L500 485.5Z" fill="#8c89ca" stroke="#8c89ca"></path><path d="M157 1191.1L179 1264.2L325 1230.2Z" fill="#9e9cd5" stroke="#9e9cd5"></path><path d="M3440 1602.5L3231 1674.5L3440 1832.7Z" fill="#b1afe0" stroke="#b1afe0"></path><path d="M192 632.6L200 846.8L398 691.6Z" fill="#2e3192" stroke="#2e3192"></path><path d="M325 1230.2L200 1457.4L420 1437.4Z" fill="#b1afe0" stroke="#b1afe0"></path><path d="M234 1812.7L345 1863.7L351 1668.5Z" fill="#6865b4" stroke="#6865b4"></path><path d="M351 1668.5L345 1863.7L530 1714.5Z" fill="#43429d" stroke="#43429d"></path><path d="M544 1988.8L453 2160L758 2160Z" fill="#c3c2ea" stroke="#c3c2ea"></path><path d="M157 1191.1L325 1230.2L341 983.9Z" fill="#43429d" stroke="#43429d"></path><path d="M179 1264.2L200 1457.4L325 1230.2Z" fill="#8c89ca" stroke="#8c89ca"></path><path d="M3440 1832.7L3231 1674.5L3189 1789.7Z" fill="#d6d6f5" stroke="#d6d6f5"></path><path d="M692 0L600 0L780 244.2Z" fill="#eaeaff" stroke="#eaeaff"></path><path d="M181 331.3L305 540.5L411 394.3Z" fill="#eaeaff" stroke="#eaeaff"></path><path d="M131 958.9L157 1191.1L341 983.9Z" fill="#2e3192" stroke="#2e3192"></path><path d="M0 1561.4L90 1589.5L200 1457.4Z" fill="#7a77bf" stroke="#7a77bf"></path><path d="M3440 870.8L3440 632.6L3344 829.8Z" fill="#43429d" stroke="#43429d"></path><path d="M3103 2160L3267 2023.8L3034 2027.8Z" fill="#43429d" stroke="#43429d"></path><path d="M3440 632.6L3440 553.5L3258 718.6Z" fill="#b1afe0" stroke="#b1afe0"></path><path d="M0 911.9L131 958.9L0 905.8Z" fill="#c3c2ea" stroke="#c3c2ea"></path><path d="M200 846.8L131 958.9L341 983.9Z" fill="#d6d6f5" stroke="#d6d6f5"></path><path d="M3344 288.3L3193 86.2L3220 262.2Z" fill="#d6d6f5" stroke="#d6d6f5"></path><path d="M3220 262.2L3193 86.2L3116 283.3Z" fill="#43429d" stroke="#43429d"></path><path d="M274 200.2L411 394.3L466 259.2Z" fill="#9e9cd5" stroke="#9e9cd5"></path><path d="M305 540.5L192 632.6L398 691.6Z" fill="#c3c2ea" stroke="#c3c2ea"></path><path d="M436 2160L453 2160L544 1988.8Z" fill="#c3c2ea" stroke="#c3c2ea"></path><path d="M3440 314.3L3344 288.3L3266 448.5Z" fill="#6865b4" stroke="#6865b4"></path><path d="M247 2028.8L544 1988.8L345 1863.7Z" fill="#6865b4" stroke="#6865b4"></path><path d="M247 2028.8L436 2160L544 1988.8Z" fill="#d6d6f5" stroke="#d6d6f5"></path><path d="M90 1589.5L234 1812.7L351 1668.5Z" fill="#2e3192" stroke="#2e3192"></path><path d="M90 1589.5L351 1668.5L200 1457.4Z" fill="#8c89ca" stroke="#8c89ca"></path><path d="M3103 2160L3250 2160L3267 2023.8Z" fill="#d6d6f5" stroke="#d6d6f5"></path><path d="M3440 1922.8L3440 1832.7L3189 1789.7Z" fill="#6865b4" stroke="#6865b4"></path><path d="M3440 1922.8L3189 1789.7L3267 2023.8Z" fill="#5653a9" stroke="#5653a9"></path><path d="M3193 86.2L3194 0L2924 185.2Z" fill="#8c89ca" stroke="#8c89ca"></path><path d="M3327 0L3194 0L3193 86.2Z" fill="#eaeaff" stroke="#eaeaff"></path><path d="M3440 2160L3440 1922.8L3267 2023.8Z" fill="#b1afe0" stroke="#b1afe0"></path><path d="M3440 553.5L3440 314.3L3266 448.5Z" fill="#d6d6f5" stroke="#d6d6f5"></path><path d="M3344 288.3L3327 0L3193 86.2Z" fill="#b1afe0" stroke="#b1afe0"></path><path d="M0 1358.2L179 1264.2L157 1191.1Z" fill="#7a77bf" stroke="#7a77bf"></path><path d="M0 1358.2L200 1457.4L179 1264.2Z" fill="#eaeaff" stroke="#eaeaff"></path><path d="M207 1967.8L247 2028.8L345 1863.7Z" fill="#d6d6f5" stroke="#d6d6f5"></path><path d="M303 0L274 200.2L466 259.2Z" fill="#c3c2ea" stroke="#c3c2ea"></path><path d="M207 1967.8L345 1863.7L234 1812.7Z" fill="#eaeaff" stroke="#eaeaff"></path><path d="M3440 314.3L3440 264.2L3344 288.3Z" fill="#c3c2ea" stroke="#c3c2ea"></path><path d="M0 1768.7L207 1967.8L234 1812.7Z" fill="#9e9cd5" stroke="#9e9cd5"></path><path d="M0 911.9L0 1090.1L131 958.9Z" fill="#8c89ca" stroke="#8c89ca"></path><path d="M131 958.9L0 1090.1L157 1191.1Z" fill="#b1afe0" stroke="#b1afe0"></path><path d="M131 958.9L200 846.8L0 905.8Z" fill="#43429d" stroke="#43429d"></path><path d="M274 200.2L181 331.3L411 394.3Z" fill="#5653a9" stroke="#5653a9"></path><path d="M0 905.8L200 846.8L0 741.6Z" fill="#9e9cd5" stroke="#9e9cd5"></path><path d="M0 1090.1L0 1358.2L157 1191.1Z" fill="#7a77bf" stroke="#7a77bf"></path><path d="M90 1589.5L0 1729.5L234 1812.7Z" fill="#5653a9" stroke="#5653a9"></path><path d="M0 741.6L200 846.8L192 632.6Z" fill="#7a77bf" stroke="#7a77bf"></path><path d="M3440 264.2L3327 0L3344 288.3Z" fill="#eaeaff" stroke="#eaeaff"></path><path d="M0 500.5L0 741.6L192 632.6Z" fill="#6865b4" stroke="#6865b4"></path><path d="M0 366.3L93 419.5L181 331.3Z" fill="#eaeaff" stroke="#eaeaff"></path><path d="M181 331.3L93 419.5L305 540.5Z" fill="#d6d6f5" stroke="#d6d6f5"></path><path d="M0 1358.2L0 1561.4L200 1457.4Z" fill="#8c89ca" stroke="#8c89ca"></path><path d="M600 0L303 0L466 259.2Z" fill="#7a77bf" stroke="#7a77bf"></path><path d="M274 200.2L125 210.2L181 331.3Z" fill="#43429d" stroke="#43429d"></path><path d="M3250 2160L3440 2160L3267 2023.8Z" fill="#6865b4" stroke="#6865b4"></path><path d="M0 1561.4L0 1729.5L90 1589.5Z" fill="#d6d6f5" stroke="#d6d6f5"></path><path d="M207 1967.8L96 2160L247 2028.8Z" fill="#b1afe0" stroke="#b1afe0"></path><path d="M0 366.3L0 500.5L93 419.5Z" fill="#b1afe0" stroke="#b1afe0"></path><path d="M93 419.5L0 500.5L192 632.6Z" fill="#eaeaff" stroke="#eaeaff"></path><path d="M0 1729.5L0 1768.7L234 1812.7Z" fill="#eaeaff" stroke="#eaeaff"></path><path d="M247 0L125 210.2L274 200.2Z" fill="#d6d6f5" stroke="#d6d6f5"></path><path d="M303 0L247 0L274 200.2Z" fill="#7a77bf" stroke="#7a77bf"></path><path d="M3440 264.2L3440 0L3327 0Z" fill="#2e3192" stroke="#2e3192"></path><path d="M0 141.2L0 366.3L125 210.2Z" fill="#2e3192" stroke="#2e3192"></path><path d="M125 210.2L0 366.3L181 331.3Z" fill="#8c89ca" stroke="#8c89ca"></path><path d="M0 2008.8L96 2160L207 1967.8Z" fill="#c3c2ea" stroke="#c3c2ea"></path><path d="M247 2028.8L96 2160L436 2160Z" fill="#5653a9" stroke="#5653a9"></path><path d="M0 1768.7L0 2008.8L207 1967.8Z" fill="#5653a9" stroke="#5653a9"></path><path d="M0 0L0 141.2L125 210.2Z" fill="#2e3192" stroke="#2e3192"></path><path d="M0 2008.8L0 2160L96 2160Z" fill="#c3c2ea" stroke="#c3c2ea"></path><path d="M247 0L0 0L125 210.2Z" fill="#5653a9" stroke="#5653a9"></path></g></svg>