<svg id="visual" viewBox="0 0 3000 3000" width="3000" height="3000" xmlns="http://www.w3.org/2000/svg" xmlns:xlink="http://www.w3.org/1999/xlink" version="1.1"><rect width="3000" height="3000" fill="#ffffff"></rect><g><g transform="translate(2599 280)"><path d="M0 -57.4L49.7 -28.7L49.7 28.7L0 57.4L-49.7 28.7L-49.7 -28.7Z" fill="none" stroke="#cae9f9" stroke-width="1"></path></g><g transform="translate(67 2976)"><path d="M0 -25L21.7 -12.5L21.7 12.5L0 25L-21.7 12.5L-21.7 -12.5Z" fill="none" stroke="#cae9f9" stroke-width="1"></path></g><g transform="translate(1359 992)"><path d="M0 -45L39 -22.5L39 22.5L0 45L-39 22.5L-39 -22.5Z" fill="none" stroke="#cae9f9" stroke-width="1"></path></g><g transform="translate(475 1283)"><path d="M0 -14L12.1 -7L12.1 7L0 14L-12.1 7L-12.1 -7Z" stroke="#cae9f9" fill="none" stroke-width="1"></path></g><g transform="translate(1244 1652)"><path d="M0 -26L22.5 -13L22.5 13L0 26L-22.5 13L-22.5 -13Z" stroke="#cae9f9" fill="none" stroke-width="1"></path></g><g transform="translate(1427 1876)"><path d="M0 -13L11.3 -6.5L11.3 6.5L0 13L-11.3 6.5L-11.3 -6.5Z" stroke="#cae9f9" fill="none" stroke-width="1"></path></g><g transform="translate(2577 2465)"><path d="M0 -46L39.8 -23L39.8 23L0 46L-39.8 23L-39.8 -23Z" stroke="#cae9f9" fill="none" stroke-width="1"></path></g><g transform="translate(2697 2778)"><path d="M0 -25L21.7 -12.5L21.7 12.5L0 25L-21.7 12.5L-21.7 -12.5Z" stroke="#cae9f9" fill="none" stroke-width="1"></path></g><g transform="translate(2869 666)"><path d="M0 -8L6.9 -4L6.9 4L0 8L-6.9 4L-6.9 -4Z" stroke="#cae9f9" fill="none" stroke-width="1"></path></g><g transform="translate(2683 1150)"><path d="M0 -10L8.7 -5L8.7 5L0 10L-8.7 5L-8.7 -5Z" stroke="#cae9f9" fill="none" stroke-width="1"></path></g><g transform="translate(1816 611)"><path d="M0 -18L15.6 -9L15.6 9L0 18L-15.6 9L-15.6 -9Z" stroke="#cae9f9" fill="none" stroke-width="1"></path></g><g transform="translate(295 2146)"><path d="M0 -51L44.2 -25.5L44.2 25.5L0 51L-44.2 25.5L-44.2 -25.5Z" stroke="#cae9f9" fill="none" stroke-width="1"></path></g><g transform="translate(320 287)"><path d="M0 -39L33.8 -19.5L33.8 19.5L0 39L-33.8 19.5L-33.8 -19.5Z" stroke="#cae9f9" fill="none" stroke-width="1"></path></g><g transform="translate(1799 982)"><path d="M0 -33L28.6 -16.5L28.6 16.5L0 33L-28.6 16.5L-28.6 -16.5Z" stroke="#cae9f9" fill="none" stroke-width="1"></path></g><g transform="translate(404 782)"><path d="M0 -7L6.1 -3.5L6.1 3.5L0 7L-6.1 3.5L-6.1 -3.5Z" stroke="#cae9f9" fill="none" stroke-width="1"></path></g><g transform="translate(1133 852)"><path d="M0 -38L32.9 -19L32.9 19L0 38L-32.9 19L-32.9 -19Z" stroke="#cae9f9" fill="none" stroke-width="1"></path></g><g transform="translate(783 2046)"><path d="M0 -7L6.1 -3.5L6.1 3.5L0 7L-6.1 3.5L-6.1 -3.5Z" stroke="#cae9f9" fill="none" stroke-width="1"></path></g><g transform="translate(2022 2486)"><path d="M0 -52L45 -26L45 26L0 52L-45 26L-45 -26Z" stroke="#cae9f9" fill="none" stroke-width="1"></path></g><g transform="translate(1790 2560)"><path d="M0 -18L15.6 -9L15.6 9L0 18L-15.6 9L-15.6 -9Z" stroke="#cae9f9" fill="none" stroke-width="1"></path></g><g transform="translate(1941 1564)"><path d="M0 -32L27.7 -16L27.7 16L0 32L-27.7 16L-27.7 -16Z" stroke="#cae9f9" fill="none" stroke-width="1"></path></g><g transform="translate(1019 92)"><path d="M0 -25L21.7 -12.5L21.7 12.5L0 25L-21.7 12.5L-21.7 -12.5Z" stroke="#cae9f9" fill="none" stroke-width="1"></path></g><g transform="translate(1088 264)"><path d="M0 -43L37.2 -21.5L37.2 21.5L0 43L-37.2 21.5L-37.2 -21.5Z" stroke="#cae9f9" fill="none" stroke-width="1"></path></g><g transform="translate(2499 2251)"><path d="M0 -53L45.9 -26.5L45.9 26.5L0 53L-45.9 26.5L-45.9 -26.5Z" stroke="#cae9f9" fill="none" stroke-width="1"></path></g><g transform="translate(1305 1891)"><path d="M0 -7L6.1 -3.5L6.1 3.5L0 7L-6.1 3.5L-6.1 -3.5Z" stroke="#cae9f9" fill="none" stroke-width="1"></path></g><g transform="translate(2962 1420)"><path d="M0 -48L41.6 -24L41.6 24L0 48L-41.6 24L-41.6 -24Z" stroke="#cae9f9" fill="none" stroke-width="1"></path></g><g transform="translate(1671 1605)"><path d="M0 -21L18.2 -10.5L18.2 10.5L0 21L-18.2 10.5L-18.2 -10.5Z" stroke="#cae9f9" fill="none" stroke-width="1"></path></g><g transform="translate(1938 1910)"><path d="M0 -31L26.8 -15.5L26.8 15.5L0 31L-26.8 15.5L-26.8 -15.5Z" stroke="#cae9f9" fill="none" stroke-width="1"></path></g><g transform="translate(1533 2721)"><path d="M0 -18L15.6 -9L15.6 9L0 18L-15.6 9L-15.6 -9Z" stroke="#cae9f9" fill="none" stroke-width="1"></path></g><g transform="translate(2540 1718)"><path d="M0 -8L6.9 -4L6.9 4L0 8L-6.9 4L-6.9 -4Z" stroke="#cae9f9" fill="none" stroke-width="1"></path></g><g transform="translate(560 1005)"><path d="M0 -36L31.2 -18L31.2 18L0 36L-31.2 18L-31.2 -18Z" stroke="#cae9f9" fill="none" stroke-width="1"></path></g><g transform="translate(2837 1717)"><path d="M0 -13L11.3 -6.5L11.3 6.5L0 13L-11.3 6.5L-11.3 -6.5Z" stroke="#cae9f9" fill="none" stroke-width="1"></path></g><g transform="translate(721 2748)"><path d="M0 -32L27.7 -16L27.7 16L0 32L-27.7 16L-27.7 -16Z" stroke="#cae9f9" fill="none" stroke-width="1"></path></g><g transform="translate(1046 1964)"><path d="M0 -48L41.6 -24L41.6 24L0 48L-41.6 24L-41.6 -24Z" stroke="#cae9f9" fill="none" stroke-width="1"></path></g><g transform="translate(1644 1808)"><path d="M0 -21L18.2 -10.5L18.2 10.5L0 21L-18.2 10.5L-18.2 -10.5Z" stroke="#cae9f9" fill="none" stroke-width="1"></path></g><g transform="translate(1101 996)"><path d="M0 -56L48.5 -28L48.5 28L0 56L-48.5 28L-48.5 -28Z" stroke="#cae9f9" fill="none" stroke-width="1"></path></g><g transform="translate(2058 1143)"><path d="M0 -19L16.5 -9.5L16.5 9.5L0 19L-16.5 9.5L-16.5 -9.5Z" stroke="#cae9f9" fill="none" stroke-width="1"></path></g><g transform="translate(2609 47)"><path d="M0 -50L43.3 -25L43.3 25L0 50L-43.3 25L-43.3 -25Z" stroke="#cae9f9" fill="none" stroke-width="1"></path></g><g transform="translate(1732 2000)"><path d="M0 -55L47.6 -27.5L47.6 27.5L0 55L-47.6 27.5L-47.6 -27.5Z" stroke="#cae9f9" fill="none" stroke-width="1"></path></g><g transform="translate(2224 126)"><path d="M0 -36L31.2 -18L31.2 18L0 36L-31.2 18L-31.2 -18Z" stroke="#cae9f9" fill="none" stroke-width="1"></path></g><g transform="translate(163 2388)"><path d="M0 -50L43.3 -25L43.3 25L0 50L-43.3 25L-43.3 -25Z" stroke="#cae9f9" fill="none" stroke-width="1"></path></g><g transform="translate(1892 84)"><path d="M0 -31L26.8 -15.5L26.8 15.5L0 31L-26.8 15.5L-26.8 -15.5Z" stroke="#cae9f9" fill="none" stroke-width="1"></path></g><g transform="translate(2458 2777)"><path d="M0 -20L17.3 -10L17.3 10L0 20L-17.3 10L-17.3 -10Z" stroke="#cae9f9" fill="none" stroke-width="1"></path></g><g transform="translate(2334 2854)"><path d="M0 -14L12.1 -7L12.1 7L0 14L-12.1 7L-12.1 -7Z" stroke="#cae9f9" fill="none" stroke-width="1"></path></g><g transform="translate(1705 2674)"><path d="M0 -42L36.4 -21L36.4 21L0 42L-36.4 21L-36.4 -21Z" stroke="#cae9f9" fill="none" stroke-width="1"></path></g><g transform="translate(2958 2223)"><path d="M0 -30L26 -15L26 15L0 30L-26 15L-26 -15Z" stroke="#cae9f9" fill="none" stroke-width="1"></path></g><g transform="translate(689 247)"><path d="M0 -24L20.8 -12L20.8 12L0 24L-20.8 12L-20.8 -12Z" stroke="#cae9f9" fill="none" stroke-width="1"></path></g><g transform="translate(444 978)"><path d="M0 -21L18.2 -10.5L18.2 10.5L0 21L-18.2 10.5L-18.2 -10.5Z" stroke="#cae9f9" fill="none" stroke-width="1"></path></g><g transform="translate(2242 2977)"><path d="M0 -15L13 -7.5L13 7.5L0 15L-13 7.5L-13 -7.5Z" stroke="#cae9f9" fill="none" stroke-width="1"></path></g><g transform="translate(1919 701)"><path d="M0 -41L35.5 -20.5L35.5 20.5L0 41L-35.5 20.5L-35.5 -20.5Z" stroke="#cae9f9" fill="none" stroke-width="1"></path></g><g transform="translate(2832 1464)"><path d="M0 -19L16.5 -9.5L16.5 9.5L0 19L-16.5 9.5L-16.5 -9.5Z" stroke="#cae9f9" fill="none" stroke-width="1"></path></g><g transform="translate(461 2018)"><path d="M0 -8L6.9 -4L6.9 4L0 8L-6.9 4L-6.9 -4Z" stroke="#cae9f9" fill="none" stroke-width="1"></path></g><g transform="translate(2453 262)"><path d="M0 -56L48.5 -28L48.5 28L0 56L-48.5 28L-48.5 -28Z" stroke="#cae9f9" fill="none" stroke-width="1"></path></g><g transform="translate(863 1291)"><path d="M0 -21L18.2 -10.5L18.2 10.5L0 21L-18.2 10.5L-18.2 -10.5Z" stroke="#cae9f9" fill="none" stroke-width="1"></path></g><g transform="translate(592 2057)"><path d="M0 -21L18.2 -10.5L18.2 10.5L0 21L-18.2 10.5L-18.2 -10.5Z" stroke="#cae9f9" fill="none" stroke-width="1"></path></g><g transform="translate(194 2239)"><path d="M0 -16L13.9 -8L13.9 8L0 16L-13.9 8L-13.9 -8Z" stroke="#cae9f9" fill="none" stroke-width="1"></path></g><g transform="translate(128 2020)"><path d="M0 -12L10.4 -6L10.4 6L0 12L-10.4 6L-10.4 -6Z" stroke="#cae9f9" fill="none" stroke-width="1"></path></g><g transform="translate(2268 951)"><path d="M0 -14L12.1 -7L12.1 7L0 14L-12.1 7L-12.1 -7Z" stroke="#cae9f9" fill="none" stroke-width="1"></path></g><g transform="translate(2452 1946)"><path d="M0 -39L33.8 -19.5L33.8 19.5L0 39L-33.8 19.5L-33.8 -19.5Z" stroke="#cae9f9" fill="none" stroke-width="1"></path></g><g transform="translate(288 2786)"><path d="M0 -43L37.2 -21.5L37.2 21.5L0 43L-37.2 21.5L-37.2 -21.5Z" stroke="#cae9f9" fill="none" stroke-width="1"></path></g><g transform="translate(778 2208)"><path d="M0 -11L9.5 -5.5L9.5 5.5L0 11L-9.5 5.5L-9.5 -5.5Z" stroke="#cae9f9" fill="none" stroke-width="1"></path></g><g transform="translate(2460 15)"><path d="M0 -51L44.2 -25.5L44.2 25.5L0 51L-44.2 25.5L-44.2 -25.5Z" stroke="#cae9f9" fill="none" stroke-width="1"></path></g><g transform="translate(2727 559)"><path d="M0 -44L38.1 -22L38.1 22L0 44L-38.1 22L-38.1 -22Z" stroke="#cae9f9" fill="none" stroke-width="1"></path></g><g transform="translate(766 2636)"><path d="M0 -49L42.4 -24.5L42.4 24.5L0 49L-42.4 24.5L-42.4 -24.5Z" stroke="#cae9f9" fill="none" stroke-width="1"></path></g><g transform="translate(1248 2130)"><path d="M0 -9L7.8 -4.5L7.8 4.5L0 9L-7.8 4.5L-7.8 -4.5Z" stroke="#cae9f9" fill="none" stroke-width="1"></path></g><g transform="translate(789 144)"><path d="M0 -18L15.6 -9L15.6 9L0 18L-15.6 9L-15.6 -9Z" stroke="#cae9f9" fill="none" stroke-width="1"></path></g><g transform="translate(578 3)"><path d="M0 -52L45 -26L45 26L0 52L-45 26L-45 -26Z" stroke="#cae9f9" fill="none" stroke-width="1"></path></g><g transform="translate(94 237)"><path d="M0 -23L19.9 -11.5L19.9 11.5L0 23L-19.9 11.5L-19.9 -11.5Z" stroke="#cae9f9" fill="none" stroke-width="1"></path></g><g transform="translate(2310 330)"><path d="M0 -50L43.3 -25L43.3 25L0 50L-43.3 25L-43.3 -25Z" stroke="#cae9f9" fill="none" stroke-width="1"></path></g><g transform="translate(2333 1303)"><path d="M0 -10L8.7 -5L8.7 5L0 10L-8.7 5L-8.7 -5Z" stroke="#cae9f9" fill="none" stroke-width="1"></path></g><g transform="translate(470 217)"><path d="M0 -51L44.2 -25.5L44.2 25.5L0 51L-44.2 25.5L-44.2 -25.5Z" stroke="#cae9f9" fill="none" stroke-width="1"></path></g><g transform="translate(1341 399)"><path d="M0 -14L12.1 -7L12.1 7L0 14L-12.1 7L-12.1 -7Z" stroke="#cae9f9" fill="none" stroke-width="1"></path></g><g transform="translate(972 536)"><path d="M0 -33L28.6 -16.5L28.6 16.5L0 33L-28.6 16.5L-28.6 -16.5Z" stroke="#cae9f9" fill="none" stroke-width="1"></path></g><g transform="translate(2404 1470)"><path d="M0 -48L41.6 -24L41.6 24L0 48L-41.6 24L-41.6 -24Z" stroke="#cae9f9" fill="none" stroke-width="1"></path></g><g transform="translate(1109 554)"><path d="M0 -10L8.7 -5L8.7 5L0 10L-8.7 5L-8.7 -5Z" stroke="#cae9f9" fill="none" stroke-width="1"></path></g><g transform="translate(1881 1671)"><path d="M0 -48L41.6 -24L41.6 24L0 48L-41.6 24L-41.6 -24Z" stroke="#cae9f9" fill="none" stroke-width="1"></path></g><g transform="translate(142 1421)"><path d="M0 -52L45 -26L45 26L0 52L-45 26L-45 -26Z" stroke="#cae9f9" fill="none" stroke-width="1"></path></g><g transform="translate(723 2953)"><path d="M0 -52L45 -26L45 26L0 52L-45 26L-45 -26Z" stroke="#cae9f9" fill="none" stroke-width="1"></path></g><g transform="translate(158 530)"><path d="M0 -50L43.3 -25L43.3 25L0 50L-43.3 25L-43.3 -25Z" stroke="#cae9f9" fill="none" stroke-width="1"></path></g><g transform="translate(36 1085)"><path d="M0 -10L8.7 -5L8.7 5L0 10L-8.7 5L-8.7 -5Z" stroke="#cae9f9" fill="none" stroke-width="1"></path></g><g transform="translate(1652 2909)"><path d="M0 -10L8.7 -5L8.7 5L0 10L-8.7 5L-8.7 -5Z" stroke="#cae9f9" fill="none" stroke-width="1"></path></g><g transform="translate(1701 165)"><path d="M0 -49L42.4 -24.5L42.4 24.5L0 49L-42.4 24.5L-42.4 -24.5Z" stroke="#cae9f9" fill="none" stroke-width="1"></path></g><g transform="translate(1374 2250)"><path d="M0 -17L14.7 -8.5L14.7 8.5L0 17L-14.7 8.5L-14.7 -8.5Z" stroke="#cae9f9" fill="none" stroke-width="1"></path></g><g transform="translate(594 600)"><path d="M0 -9L7.8 -4.5L7.8 4.5L0 9L-7.8 4.5L-7.8 -4.5Z" stroke="#cae9f9" fill="none" stroke-width="1"></path></g><g transform="translate(421 2912)"><path d="M0 -31L26.8 -15.5L26.8 15.5L0 31L-26.8 15.5L-26.8 -15.5Z" stroke="#cae9f9" fill="none" stroke-width="1"></path></g><g transform="translate(913 1731)"><path d="M0 -21L18.2 -10.5L18.2 10.5L0 21L-18.2 10.5L-18.2 -10.5Z" stroke="#cae9f9" fill="none" stroke-width="1"></path></g><g transform="translate(2373 2503)"><path d="M0 -19L16.5 -9.5L16.5 9.5L0 19L-16.5 9.5L-16.5 -9.5Z" stroke="#cae9f9" fill="none" stroke-width="1"></path></g><g transform="translate(1489 2318)"><path d="M0 -48L41.6 -24L41.6 24L0 48L-41.6 24L-41.6 -24Z" stroke="#cae9f9" fill="none" stroke-width="1"></path></g><g transform="translate(2679 2913)"><path d="M0 -19L16.5 -9.5L16.5 9.5L0 19L-16.5 9.5L-16.5 -9.5Z" stroke="#cae9f9" fill="none" stroke-width="1"></path></g><g transform="translate(2229 2554)"><path d="M0 -45L39 -22.5L39 22.5L0 45L-39 22.5L-39 -22.5Z" stroke="#cae9f9" fill="none" stroke-width="1"></path></g><g transform="translate(2990 1891)"><path d="M0 -17L14.7 -8.5L14.7 8.5L0 17L-14.7 8.5L-14.7 -8.5Z" stroke="#cae9f9" fill="none" stroke-width="1"></path></g><g transform="translate(624 1505)"><path d="M0 -21L18.2 -10.5L18.2 10.5L0 21L-18.2 10.5L-18.2 -10.5Z" stroke="#cae9f9" fill="none" stroke-width="1"></path></g><g transform="translate(934 907)"><path d="M0 -19L16.5 -9.5L16.5 9.5L0 19L-16.5 9.5L-16.5 -9.5Z" stroke="#cae9f9" fill="none" stroke-width="1"></path></g><g transform="translate(2260 1458)"><path d="M0 -47L40.7 -23.5L40.7 23.5L0 47L-40.7 23.5L-40.7 -23.5Z" stroke="#cae9f9" fill="none" stroke-width="1"></path></g><g transform="translate(2578 2071)"><path d="M0 -9L7.8 -4.5L7.8 4.5L0 9L-7.8 4.5L-7.8 -4.5Z" stroke="#cae9f9" fill="none" stroke-width="1"></path></g><g transform="translate(426 1720)"><path d="M0 -8L6.9 -4L6.9 4L0 8L-6.9 4L-6.9 -4Z" stroke="#cae9f9" fill="none" stroke-width="1"></path></g><g transform="translate(1405 77)"><path d="M0 -33L28.6 -16.5L28.6 16.5L0 33L-28.6 16.5L-28.6 -16.5Z" stroke="#cae9f9" fill="none" stroke-width="1"></path></g><g transform="translate(1467 610)"><path d="M0 -39L33.8 -19.5L33.8 19.5L0 39L-33.8 19.5L-33.8 -19.5Z" stroke="#cae9f9" fill="none" stroke-width="1"></path></g><g transform="translate(167 2870)"><path d="M0 -21L18.2 -10.5L18.2 10.5L0 21L-18.2 10.5L-18.2 -10.5Z" stroke="#cae9f9" fill="none" stroke-width="1"></path></g><g transform="translate(600 1749)"><path d="M0 -23L19.9 -11.5L19.9 11.5L0 23L-19.9 11.5L-19.9 -11.5Z" stroke="#cae9f9" fill="none" stroke-width="1"></path></g><g transform="translate(1948 502)"><path d="M0 -14L12.1 -7L12.1 7L0 14L-12.1 7L-12.1 -7Z" stroke="#cae9f9" fill="none" stroke-width="1"></path></g><g transform="translate(1028 2518)"><path d="M0 -30L26 -15L26 15L0 30L-26 15L-26 -15Z" stroke="#cae9f9" fill="none" stroke-width="1"></path></g><g transform="translate(11 116)"><path d="M0 -38L32.9 -19L32.9 19L0 38L-32.9 19L-32.9 -19Z" stroke="#cae9f9" fill="none" stroke-width="1"></path></g><g transform="translate(2424 2644)"><path d="M0 -37L32 -18.5L32 18.5L0 37L-32 18.5L-32 -18.5Z" stroke="#cae9f9" fill="none" stroke-width="1"></path></g><g transform="translate(1657 2431)"><path d="M0 -25L21.7 -12.5L21.7 12.5L0 25L-21.7 12.5L-21.7 -12.5Z" stroke="#cae9f9" fill="none" stroke-width="1"></path></g><g transform="translate(2385 1813)"><path d="M0 -27L23.4 -13.5L23.4 13.5L0 27L-23.4 13.5L-23.4 -13.5Z" stroke="#cae9f9" fill="none" stroke-width="1"></path></g><g transform="translate(1375 711)"><path d="M0 -26L22.5 -13L22.5 13L0 26L-22.5 13L-22.5 -13Z" stroke="#cae9f9" fill="none" stroke-width="1"></path></g><g transform="translate(1590 829)"><path d="M0 -48L41.6 -24L41.6 24L0 48L-41.6 24L-41.6 -24Z" stroke="#cae9f9" fill="none" stroke-width="1"></path></g><g transform="translate(1297 141)"><path d="M0 -13L11.3 -6.5L11.3 6.5L0 13L-11.3 6.5L-11.3 -6.5Z" stroke="#cae9f9" fill="none" stroke-width="1"></path></g><g transform="translate(84 2781)"><path d="M0 -45L39 -22.5L39 22.5L0 45L-39 22.5L-39 -22.5Z" stroke="#cae9f9" fill="none" stroke-width="1"></path></g><g transform="translate(180 1880)"><path d="M0 -36L31.2 -18L31.2 18L0 36L-31.2 18L-31.2 -18Z" stroke="#cae9f9" fill="none" stroke-width="1"></path></g><g transform="translate(1256 1237)"><path d="M0 -31L26.8 -15.5L26.8 15.5L0 31L-26.8 15.5L-26.8 -15.5Z" stroke="#cae9f9" fill="none" stroke-width="1"></path></g><g transform="translate(347 2302)"><path d="M0 -51L44.2 -25.5L44.2 25.5L0 51L-44.2 25.5L-44.2 -25.5Z" stroke="#cae9f9" fill="none" stroke-width="1"></path></g><g transform="translate(519 2757)"><path d="M0 -13L11.3 -6.5L11.3 6.5L0 13L-11.3 6.5L-11.3 -6.5Z" stroke="#cae9f9" fill="none" stroke-width="1"></path></g><g transform="translate(2429 831)"><path d="M0 -16L13.9 -8L13.9 8L0 16L-13.9 8L-13.9 -8Z" stroke="#cae9f9" fill="none" stroke-width="1"></path></g><g transform="translate(260 1447)"><path d="M0 -20L17.3 -10L17.3 10L0 20L-17.3 10L-17.3 -10Z" stroke="#cae9f9" fill="none" stroke-width="1"></path></g><g transform="translate(468 66)"><path d="M0 -7L6.1 -3.5L6.1 3.5L0 7L-6.1 3.5L-6.1 -3.5Z" stroke="#cae9f9" fill="none" stroke-width="1"></path></g><g transform="translate(2669 2559)"><path d="M0 -24L20.8 -12L20.8 12L0 24L-20.8 12L-20.8 -12Z" stroke="#cae9f9" fill="none" stroke-width="1"></path></g><g transform="translate(936 2589)"><path d="M0 -11L9.5 -5.5L9.5 5.5L0 11L-9.5 5.5L-9.5 -5.5Z" stroke="#cae9f9" fill="none" stroke-width="1"></path></g><g transform="translate(2138 907)"><path d="M0 -27L23.4 -13.5L23.4 13.5L0 27L-23.4 13.5L-23.4 -13.5Z" stroke="#cae9f9" fill="none" stroke-width="1"></path></g><g transform="translate(8 2187)"><path d="M0 -27L23.4 -13.5L23.4 13.5L0 27L-23.4 13.5L-23.4 -13.5Z" stroke="#cae9f9" fill="none" stroke-width="1"></path></g><g transform="translate(638 124)"><path d="M0 -53L45.9 -26.5L45.9 26.5L0 53L-45.9 26.5L-45.9 -26.5Z" stroke="#cae9f9" fill="none" stroke-width="1"></path></g><g transform="translate(2626 1940)"><path d="M0 -20L17.3 -10L17.3 10L0 20L-17.3 10L-17.3 -10Z" stroke="#cae9f9" fill="none" stroke-width="1"></path></g><g transform="translate(1185 1510)"><path d="M0 -38L32.9 -19L32.9 19L0 38L-32.9 19L-32.9 -19Z" stroke="#cae9f9" fill="none" stroke-width="1"></path></g><g transform="translate(1153 2477)"><path d="M0 -19L16.5 -9.5L16.5 9.5L0 19L-16.5 9.5L-16.5 -9.5Z" stroke="#cae9f9" fill="none" stroke-width="1"></path></g><g transform="translate(2976 1287)"><path d="M0 -18L15.6 -9L15.6 9L0 18L-15.6 9L-15.6 -9Z" stroke="#cae9f9" fill="none" stroke-width="1"></path></g><g transform="translate(1389 862)"><path d="M0 -50L43.3 -25L43.3 25L0 50L-43.3 25L-43.3 -25Z" stroke="#cae9f9" fill="none" stroke-width="1"></path></g><g transform="translate(1008 1563)"><path d="M0 -17L14.7 -8.5L14.7 8.5L0 17L-14.7 8.5L-14.7 -8.5Z" stroke="#cae9f9" fill="none" stroke-width="1"></path></g><g transform="translate(678 1046)"><path d="M0 -17L14.7 -8.5L14.7 8.5L0 17L-14.7 8.5L-14.7 -8.5Z" stroke="#cae9f9" fill="none" stroke-width="1"></path></g><g transform="translate(2977 394)"><path d="M0 -46L39.8 -23L39.8 23L0 46L-39.8 23L-39.8 -23Z" stroke="#cae9f9" fill="none" stroke-width="1"></path></g><g transform="translate(2340 525)"><path d="M0 -49L42.4 -24.5L42.4 24.5L0 49L-42.4 24.5L-42.4 -24.5Z" stroke="#cae9f9" fill="none" stroke-width="1"></path></g><g transform="translate(2472 976)"><path d="M0 -32L27.7 -16L27.7 16L0 32L-27.7 16L-27.7 -16Z" stroke="#cae9f9" fill="none" stroke-width="1"></path></g><g transform="translate(1123 2785)"><path d="M0 -17L14.7 -8.5L14.7 8.5L0 17L-14.7 8.5L-14.7 -8.5Z" stroke="#cae9f9" fill="none" stroke-width="1"></path></g><g transform="translate(184 1186)"><path d="M0 -10L8.7 -5L8.7 5L0 10L-8.7 5L-8.7 -5Z" stroke="#cae9f9" fill="none" stroke-width="1"></path></g><g transform="translate(1629 2071)"><path d="M0 -55L47.6 -27.5L47.6 27.5L0 55L-47.6 27.5L-47.6 -27.5Z" stroke="#cae9f9" fill="none" stroke-width="1"></path></g><g transform="translate(42 843)"><path d="M0 -42L36.4 -21L36.4 21L0 42L-36.4 21L-36.4 -21Z" stroke="#cae9f9" fill="none" stroke-width="1"></path></g><g transform="translate(2525 1837)"><path d="M0 -55L47.6 -27.5L47.6 27.5L0 55L-47.6 27.5L-47.6 -27.5Z" stroke="#cae9f9" fill="none" stroke-width="1"></path></g><g transform="translate(2608 1605)"><path d="M0 -12L10.4 -6L10.4 6L0 12L-10.4 6L-10.4 -6Z" stroke="#cae9f9" fill="none" stroke-width="1"></path></g><g transform="translate(1501 1584)"><path d="M0 -29L25.1 -14.5L25.1 14.5L0 29L-25.1 14.5L-25.1 -14.5Z" stroke="#cae9f9" fill="none" stroke-width="1"></path></g><g transform="translate(768 1121)"><path d="M0 -29L25.1 -14.5L25.1 14.5L0 29L-25.1 14.5L-25.1 -14.5Z" stroke="#cae9f9" fill="none" stroke-width="1"></path></g><g transform="translate(2131 2207)"><path d="M0 -14L12.1 -7L12.1 7L0 14L-12.1 7L-12.1 -7Z" stroke="#cae9f9" fill="none" stroke-width="1"></path></g><g transform="translate(2319 1080)"><path d="M0 -18L15.6 -9L15.6 9L0 18L-15.6 9L-15.6 -9Z" stroke="#cae9f9" fill="none" stroke-width="1"></path></g><g transform="translate(1573 1116)"><path d="M0 -23L19.9 -11.5L19.9 11.5L0 23L-19.9 11.5L-19.9 -11.5Z" stroke="#cae9f9" fill="none" stroke-width="1"></path></g><g transform="translate(1774 2240)"><path d="M0 -20L17.3 -10L17.3 10L0 20L-17.3 10L-17.3 -10Z" stroke="#cae9f9" fill="none" stroke-width="1"></path></g><g transform="translate(254 1329)"><path d="M0 -37L32 -18.5L32 18.5L0 37L-32 18.5L-32 -18.5Z" stroke="#cae9f9" fill="none" stroke-width="1"></path></g><g transform="translate(598 2492)"><path d="M0 -21L18.2 -10.5L18.2 10.5L0 21L-18.2 10.5L-18.2 -10.5Z" stroke="#cae9f9" fill="none" stroke-width="1"></path></g><g transform="translate(1115 2254)"><path d="M0 -37L32 -18.5L32 18.5L0 37L-32 18.5L-32 -18.5Z" stroke="#cae9f9" fill="none" stroke-width="1"></path></g><g transform="translate(980 2929)"><path d="M0 -19L16.5 -9.5L16.5 9.5L0 19L-16.5 9.5L-16.5 -9.5Z" stroke="#cae9f9" fill="none" stroke-width="1"></path></g><g transform="translate(2688 2123)"><path d="M0 -45L39 -22.5L39 22.5L0 45L-39 22.5L-39 -22.5Z" stroke="#cae9f9" fill="none" stroke-width="1"></path></g><g transform="translate(1632 1358)"><path d="M0 -39L33.8 -19.5L33.8 19.5L0 39L-33.8 19.5L-33.8 -19.5Z" stroke="#cae9f9" fill="none" stroke-width="1"></path></g><g transform="translate(2571 1264)"><path d="M0 -30L26 -15L26 15L0 30L-26 15L-26 -15Z" stroke="#cae9f9" fill="none" stroke-width="1"></path></g><g transform="translate(2205 1245)"><path d="M0 -51L44.2 -25.5L44.2 25.5L0 51L-44.2 25.5L-44.2 -25.5Z" stroke="#cae9f9" fill="none" stroke-width="1"></path></g><g transform="translate(566 2947)"><path d="M0 -51L44.2 -25.5L44.2 25.5L0 51L-44.2 25.5L-44.2 -25.5Z" stroke="#cae9f9" fill="none" stroke-width="1"></path></g><g transform="translate(2339 1581)"><path d="M0 -28L24.2 -14L24.2 14L0 28L-24.2 14L-24.2 -14Z" stroke="#cae9f9" fill="none" stroke-width="1"></path></g><g transform="translate(1716 1145)"><path d="M0 -42L36.4 -21L36.4 21L0 42L-36.4 21L-36.4 -21Z" stroke="#cae9f9" fill="none" stroke-width="1"></path></g><g transform="translate(2198 2690)"><path d="M0 -42L36.4 -21L36.4 21L0 42L-36.4 21L-36.4 -21Z" stroke="#cae9f9" fill="none" stroke-width="1"></path></g><g transform="translate(2067 2671)"><path d="M0 -21L18.2 -10.5L18.2 10.5L0 21L-18.2 10.5L-18.2 -10.5Z" stroke="#cae9f9" fill="none" stroke-width="1"></path></g><g transform="translate(2856 2724)"><path d="M0 -37L32 -18.5L32 18.5L0 37L-32 18.5L-32 -18.5Z" stroke="#cae9f9" fill="none" stroke-width="1"></path></g><g transform="translate(1294 2888)"><path d="M0 -29L25.1 -14.5L25.1 14.5L0 29L-25.1 14.5L-25.1 -14.5Z" stroke="#cae9f9" fill="none" stroke-width="1"></path></g><g transform="translate(2538 2580)"><path d="M0 -30L26 -15L26 15L0 30L-26 15L-26 -15Z" stroke="#cae9f9" fill="none" stroke-width="1"></path></g><g transform="translate(1369 2675)"><path d="M0 -46L39.8 -23L39.8 23L0 46L-39.8 23L-39.8 -23Z" stroke="#cae9f9" fill="none" stroke-width="1"></path></g><g transform="translate(2687 1739)"><path d="M0 -18L15.6 -9L15.6 9L0 18L-15.6 9L-15.6 -9Z" stroke="#cae9f9" fill="none" stroke-width="1"></path></g><g transform="translate(2034 1467)"><path d="M0 -55L47.6 -27.5L47.6 27.5L0 55L-47.6 27.5L-47.6 -27.5Z" stroke="#cae9f9" fill="none" stroke-width="1"></path></g><g transform="translate(1674 499)"><path d="M0 -43L37.2 -21.5L37.2 21.5L0 43L-37.2 21.5L-37.2 -21.5Z" stroke="#cae9f9" fill="none" stroke-width="1"></path></g><g transform="translate(2322 1967)"><path d="M0 -12L10.4 -6L10.4 6L0 12L-10.4 6L-10.4 -6Z" stroke="#cae9f9" fill="none" stroke-width="1"></path></g><g transform="translate(2924 31)"><path d="M0 -9L7.8 -4.5L7.8 4.5L0 9L-7.8 4.5L-7.8 -4.5Z" stroke="#cae9f9" fill="none" stroke-width="1"></path></g><g transform="translate(274 411)"><path d="M0 -17L14.7 -8.5L14.7 8.5L0 17L-14.7 8.5L-14.7 -8.5Z" stroke="#cae9f9" fill="none" stroke-width="1"></path></g><g transform="translate(321 877)"><path d="M0 -47L40.7 -23.5L40.7 23.5L0 47L-40.7 23.5L-40.7 -23.5Z" stroke="#cae9f9" fill="none" stroke-width="1"></path></g><g transform="translate(781 1750)"><path d="M0 -10L8.7 -5L8.7 5L0 10L-8.7 5L-8.7 -5Z" stroke="#cae9f9" fill="none" stroke-width="1"></path></g><g transform="translate(2530 518)"><path d="M0 -22L19.1 -11L19.1 11L0 22L-19.1 11L-19.1 -11Z" stroke="#cae9f9" fill="none" stroke-width="1"></path></g><g transform="translate(2755 1315)"><path d="M0 -47L40.7 -23.5L40.7 23.5L0 47L-40.7 23.5L-40.7 -23.5Z" stroke="#cae9f9" fill="none" stroke-width="1"></path></g><g transform="translate(539 2383)"><path d="M0 -45L39 -22.5L39 22.5L0 45L-39 22.5L-39 -22.5Z" stroke="#cae9f9" fill="none" stroke-width="1"></path></g><g transform="translate(1554 148)"><path d="M0 -44L38.1 -22L38.1 22L0 44L-38.1 22L-38.1 -22Z" stroke="#cae9f9" fill="none" stroke-width="1"></path></g><g transform="translate(980 1297)"><path d="M0 -32L27.7 -16L27.7 16L0 32L-27.7 16L-27.7 -16Z" stroke="#cae9f9" fill="none" stroke-width="1"></path></g><g transform="translate(1005 2387)"><path d="M0 -29L25.1 -14.5L25.1 14.5L0 29L-25.1 14.5L-25.1 -14.5Z" stroke="#cae9f9" fill="none" stroke-width="1"></path></g><g transform="translate(1523 1458)"><path d="M0 -23L19.9 -11.5L19.9 11.5L0 23L-19.9 11.5L-19.9 -11.5Z" stroke="#cae9f9" fill="none" stroke-width="1"></path></g><g transform="translate(2375 2328)"><path d="M0 -14L12.1 -7L12.1 7L0 14L-12.1 7L-12.1 -7Z" stroke="#cae9f9" fill="none" stroke-width="1"></path></g><g transform="translate(2735 790)"><path d="M0 -15L13 -7.5L13 7.5L0 15L-13 7.5L-13 -7.5Z" stroke="#cae9f9" fill="none" stroke-width="1"></path></g><g transform="translate(2587 2715)"><path d="M0 -12L10.4 -6L10.4 6L0 12L-10.4 6L-10.4 -6Z" stroke="#cae9f9" fill="none" stroke-width="1"></path></g><g transform="translate(2854 1905)"><path d="M0 -47L40.7 -23.5L40.7 23.5L0 47L-40.7 23.5L-40.7 -23.5Z" stroke="#cae9f9" fill="none" stroke-width="1"></path></g><g transform="translate(2896 2984)"><path d="M0 -10L8.7 -5L8.7 5L0 10L-8.7 5L-8.7 -5Z" stroke="#cae9f9" fill="none" stroke-width="1"></path></g><g transform="translate(2795 171)"><path d="M0 -23L19.9 -11.5L19.9 11.5L0 23L-19.9 11.5L-19.9 -11.5Z" stroke="#cae9f9" fill="none" stroke-width="1"></path></g><g transform="translate(2185 521)"><path d="M0 -41L35.5 -20.5L35.5 20.5L0 41L-35.5 20.5L-35.5 -20.5Z" stroke="#cae9f9" fill="none" stroke-width="1"></path></g><g transform="translate(308 2621)"><path d="M0 -54L46.8 -27L46.8 27L0 54L-46.8 27L-46.8 -27Z" stroke="#cae9f9" fill="none" stroke-width="1"></path></g><g transform="translate(1936 1315)"><path d="M0 -53L45.9 -26.5L45.9 26.5L0 53L-45.9 26.5L-45.9 -26.5Z" stroke="#cae9f9" fill="none" stroke-width="1"></path></g><g transform="translate(2067 1639)"><path d="M0 -26L22.5 -13L22.5 13L0 26L-22.5 13L-22.5 -13Z" stroke="#cae9f9" fill="none" stroke-width="1"></path></g><g transform="translate(777 2517)"><path d="M0 -56L48.5 -28L48.5 28L0 56L-48.5 28L-48.5 -28Z" stroke="#cae9f9" fill="none" stroke-width="1"></path></g><g transform="translate(557 2237)"><path d="M0 -29L25.1 -14.5L25.1 14.5L0 29L-25.1 14.5L-25.1 -14.5Z" stroke="#cae9f9" fill="none" stroke-width="1"></path></g><g transform="translate(805 323)"><path d="M0 -19L16.5 -9.5L16.5 9.5L0 19L-16.5 9.5L-16.5 -9.5Z" stroke="#cae9f9" fill="none" stroke-width="1"></path></g><g transform="translate(1963 1061)"><path d="M0 -9L7.8 -4.5L7.8 4.5L0 9L-7.8 4.5L-7.8 -4.5Z" stroke="#cae9f9" fill="none" stroke-width="1"></path></g><g transform="translate(1645 659)"><path d="M0 -32L27.7 -16L27.7 16L0 32L-27.7 16L-27.7 -16Z" stroke="#cae9f9" fill="none" stroke-width="1"></path></g><g transform="translate(1210 764)"><path d="M0 -35L30.3 -17.5L30.3 17.5L0 35L-30.3 17.5L-30.3 -17.5Z" stroke="#cae9f9" fill="none" stroke-width="1"></path></g><g transform="translate(419 1505)"><path d="M0 -40L34.6 -20L34.6 20L0 40L-34.6 20L-34.6 -20Z" stroke="#cae9f9" fill="none" stroke-width="1"></path></g><g transform="translate(2566 810)"><path d="M0 -37L32 -18.5L32 18.5L0 37L-32 18.5L-32 -18.5Z" stroke="#cae9f9" fill="none" stroke-width="1"></path></g><g transform="translate(498 706)"><path d="M0 -41L35.5 -20.5L35.5 20.5L0 41L-35.5 20.5L-35.5 -20.5Z" stroke="#cae9f9" fill="none" stroke-width="1"></path></g><g transform="translate(442 2489)"><path d="M0 -41L35.5 -20.5L35.5 20.5L0 41L-35.5 20.5L-35.5 -20.5Z" stroke="#cae9f9" fill="none" stroke-width="1"></path></g><g transform="translate(2004 2907)"><path d="M0 -7L6.1 -3.5L6.1 3.5L0 7L-6.1 3.5L-6.1 -3.5Z" stroke="#cae9f9" fill="none" stroke-width="1"></path></g><g transform="translate(1911 953)"><path d="M0 -32L27.7 -16L27.7 16L0 32L-27.7 16L-27.7 -16Z" stroke="#cae9f9" fill="none" stroke-width="1"></path></g><g transform="translate(957 2055)"><path d="M0 -19L16.5 -9.5L16.5 9.5L0 19L-16.5 9.5L-16.5 -9.5Z" stroke="#cae9f9" fill="none" stroke-width="1"></path></g><g transform="translate(1782 450)"><path d="M0 -24L20.8 -12L20.8 12L0 24L-20.8 12L-20.8 -12Z" stroke="#cae9f9" fill="none" stroke-width="1"></path></g><g transform="translate(1759 309)"><path d="M0 -22L19.1 -11L19.1 11L0 22L-19.1 11L-19.1 -11Z" stroke="#cae9f9" fill="none" stroke-width="1"></path></g><g transform="translate(1446 2911)"><path d="M0 -16L13.9 -8L13.9 8L0 16L-13.9 8L-13.9 -8Z" stroke="#cae9f9" fill="none" stroke-width="1"></path></g><g transform="translate(643 392)"><path d="M0 -54L46.8 -27L46.8 27L0 54L-46.8 27L-46.8 -27Z" stroke="#cae9f9" fill="none" stroke-width="1"></path></g><g transform="translate(2428 1668)"><path d="M0 -12L10.4 -6L10.4 6L0 12L-10.4 6L-10.4 -6Z" stroke="#cae9f9" fill="none" stroke-width="1"></path></g><g transform="translate(342 1042)"><path d="M0 -8L6.9 -4L6.9 4L0 8L-6.9 4L-6.9 -4Z" stroke="#cae9f9" fill="none" stroke-width="1"></path></g><g transform="translate(2891 1000)"><path d="M0 -25L21.7 -12.5L21.7 12.5L0 25L-21.7 12.5L-21.7 -12.5Z" stroke="#cae9f9" fill="none" stroke-width="1"></path></g><g transform="translate(270 2500)"><path d="M0 -51L44.2 -25.5L44.2 25.5L0 51L-44.2 25.5L-44.2 -25.5Z" stroke="#cae9f9" fill="none" stroke-width="1"></path></g><g transform="translate(881 655)"><path d="M0 -24L20.8 -12L20.8 12L0 24L-20.8 12L-20.8 -12Z" stroke="#cae9f9" fill="none" stroke-width="1"></path></g><g transform="translate(44 613)"><path d="M0 -24L20.8 -12L20.8 12L0 24L-20.8 12L-20.8 -12Z" stroke="#cae9f9" fill="none" stroke-width="1"></path></g><g transform="translate(1399 2393)"><path d="M0 -34L29.4 -17L29.4 17L0 34L-29.4 17L-29.4 -17Z" stroke="#cae9f9" fill="none" stroke-width="1"></path></g><g transform="translate(1810 1893)"><path d="M0 -22L19.1 -11L19.1 11L0 22L-19.1 11L-19.1 -11Z" stroke="#cae9f9" fill="none" stroke-width="1"></path></g><g transform="translate(141 2553)"><path d="M0 -48L41.6 -24L41.6 24L0 48L-41.6 24L-41.6 -24Z" stroke="#cae9f9" fill="none" stroke-width="1"></path></g><g transform="translate(2929 514)"><path d="M0 -14L12.1 -7L12.1 7L0 14L-12.1 7L-12.1 -7Z" stroke="#cae9f9" fill="none" stroke-width="1"></path></g><g transform="translate(7 2336)"><path d="M0 -17L14.7 -8.5L14.7 8.5L0 17L-14.7 8.5L-14.7 -8.5Z" stroke="#cae9f9" fill="none" stroke-width="1"></path></g><g transform="translate(280 620)"><path d="M0 -39L33.8 -19.5L33.8 19.5L0 39L-33.8 19.5L-33.8 -19.5Z" stroke="#cae9f9" fill="none" stroke-width="1"></path></g><g transform="translate(180 1731)"><path d="M0 -51L44.2 -25.5L44.2 25.5L0 51L-44.2 25.5L-44.2 -25.5Z" stroke="#cae9f9" fill="none" stroke-width="1"></path></g><g transform="translate(1904 382)"><path d="M0 -9L7.8 -4.5L7.8 4.5L0 9L-7.8 4.5L-7.8 -4.5Z" stroke="#cae9f9" fill="none" stroke-width="1"></path></g><g transform="translate(742 888)"><path d="M0 -43L37.2 -21.5L37.2 21.5L0 43L-37.2 21.5L-37.2 -21.5Z" stroke="#cae9f9" fill="none" stroke-width="1"></path></g><g transform="translate(2948 2623)"><path d="M0 -21L18.2 -10.5L18.2 10.5L0 21L-18.2 10.5L-18.2 -10.5Z" stroke="#cae9f9" fill="none" stroke-width="1"></path></g><g transform="translate(178 26)"><path d="M0 -16L13.9 -8L13.9 8L0 16L-13.9 8L-13.9 -8Z" stroke="#cae9f9" fill="none" stroke-width="1"></path></g><g transform="translate(554 2613)"><path d="M0 -55L47.6 -27.5L47.6 27.5L0 55L-47.6 27.5L-47.6 -27.5Z" stroke="#cae9f9" fill="none" stroke-width="1"></path></g><g transform="translate(1532 2447)"><path d="M0 -55L47.6 -27.5L47.6 27.5L0 55L-47.6 27.5L-47.6 -27.5Z" stroke="#cae9f9" fill="none" stroke-width="1"></path></g><g transform="translate(2491 1128)"><path d="M0 -20L17.3 -10L17.3 10L0 20L-17.3 10L-17.3 -10Z" stroke="#cae9f9" fill="none" stroke-width="1"></path></g><g transform="translate(1603 2188)"><path d="M0 -45L39 -22.5L39 22.5L0 45L-39 22.5L-39 -22.5Z" stroke="#cae9f9" fill="none" stroke-width="1"></path></g><g transform="translate(890 2794)"><path d="M0 -40L34.6 -20L34.6 20L0 40L-34.6 20L-34.6 -20Z" stroke="#cae9f9" fill="none" stroke-width="1"></path></g><g transform="translate(630 1360)"><path d="M0 -11L9.5 -5.5L9.5 5.5L0 11L-9.5 5.5L-9.5 -5.5Z" stroke="#cae9f9" fill="none" stroke-width="1"></path></g><g transform="translate(1196 1394)"><path d="M0 -20L17.3 -10L17.3 10L0 20L-17.3 10L-17.3 -10Z" stroke="#cae9f9" fill="none" stroke-width="1"></path></g><g transform="translate(1850 2910)"><path d="M0 -25L21.7 -12.5L21.7 12.5L0 25L-21.7 12.5L-21.7 -12.5Z" stroke="#cae9f9" fill="none" stroke-width="1"></path></g><g transform="translate(283 2947)"><path d="M0 -15L13 -7.5L13 7.5L0 15L-13 7.5L-13 -7.5Z" stroke="#cae9f9" fill="none" stroke-width="1"></path></g><g transform="translate(2861 2405)"><path d="M0 -46L39.8 -23L39.8 23L0 46L-39.8 23L-39.8 -23Z" stroke="#cae9f9" fill="none" stroke-width="1"></path></g><g transform="translate(1147 2644)"><path d="M0 -19L16.5 -9.5L16.5 9.5L0 19L-16.5 9.5L-16.5 -9.5Z" stroke="#cae9f9" fill="none" stroke-width="1"></path></g><g transform="translate(2154 2419)"><path d="M0 -44L38.1 -22L38.1 22L0 44L-38.1 22L-38.1 -22Z" stroke="#cae9f9" fill="none" stroke-width="1"></path></g><g transform="translate(415 382)"><path d="M0 -28L24.2 -14L24.2 14L0 28L-24.2 14L-24.2 -14Z" stroke="#cae9f9" fill="none" stroke-width="1"></path></g><g transform="translate(389 536)"><path d="M0 -31L26.8 -15.5L26.8 15.5L0 31L-26.8 15.5L-26.8 -15.5Z" stroke="#cae9f9" fill="none" stroke-width="1"></path></g><g transform="translate(1399 1289)"><path d="M0 -42L36.4 -21L36.4 21L0 42L-36.4 21L-36.4 -21Z" stroke="#cae9f9" fill="none" stroke-width="1"></path></g><g transform="translate(1910 222)"><path d="M0 -26L22.5 -13L22.5 13L0 26L-22.5 13L-22.5 -13Z" stroke="#cae9f9" fill="none" stroke-width="1"></path></g><g transform="translate(807 1911)"><path d="M0 -31L26.8 -15.5L26.8 15.5L0 31L-26.8 15.5L-26.8 -15.5Z" stroke="#cae9f9" fill="none" stroke-width="1"></path></g><g transform="translate(2561 2921)"><path d="M0 -31L26.8 -15.5L26.8 15.5L0 31L-26.8 15.5L-26.8 -15.5Z" stroke="#cae9f9" fill="none" stroke-width="1"></path></g><g transform="translate(1757 1311)"><path d="M0 -20L17.3 -10L17.3 10L0 20L-17.3 10L-17.3 -10Z" stroke="#cae9f9" fill="none" stroke-width="1"></path></g><g transform="translate(1898 2095)"><path d="M0 -43L37.2 -21.5L37.2 21.5L0 43L-37.2 21.5L-37.2 -21.5Z" stroke="#cae9f9" fill="none" stroke-width="1"></path></g><g transform="translate(2971 1102)"><path d="M0 -38L32.9 -19L32.9 19L0 38L-32.9 19L-32.9 -19Z" stroke="#cae9f9" fill="none" stroke-width="1"></path></g><g transform="translate(54 1336)"><path d="M0 -31L26.8 -15.5L26.8 15.5L0 31L-26.8 15.5L-26.8 -15.5Z" stroke="#cae9f9" fill="none" stroke-width="1"></path></g><g transform="translate(1526 2579)"><path d="M0 -18L15.6 -9L15.6 9L0 18L-15.6 9L-15.6 -9Z" stroke="#cae9f9" fill="none" stroke-width="1"></path></g><g transform="translate(2000 2273)"><path d="M0 -40L34.6 -20L34.6 20L0 40L-34.6 20L-34.6 -20Z" stroke="#cae9f9" fill="none" stroke-width="1"></path></g><g transform="translate(2103 2782)"><path d="M0 -21L18.2 -10.5L18.2 10.5L0 21L-18.2 10.5L-18.2 -10.5Z" stroke="#cae9f9" fill="none" stroke-width="1"></path></g><g transform="translate(991 1067)"><path d="M0 -55L47.6 -27.5L47.6 27.5L0 55L-47.6 27.5L-47.6 -27.5Z" stroke="#cae9f9" fill="none" stroke-width="1"></path></g><g transform="translate(2994 147)"><path d="M0 -24L20.8 -12L20.8 12L0 24L-20.8 12L-20.8 -12Z" stroke="#cae9f9" fill="none" stroke-width="1"></path></g><g transform="translate(1287 516)"><path d="M0 -38L32.9 -19L32.9 19L0 38L-32.9 19L-32.9 -19Z" stroke="#cae9f9" fill="none" stroke-width="1"></path></g><g transform="translate(2124 703)"><path d="M0 -44L38.1 -22L38.1 22L0 44L-38.1 22L-38.1 -22Z" stroke="#cae9f9" fill="none" stroke-width="1"></path></g><g transform="translate(2146 1967)"><path d="M0 -30L26 -15L26 15L0 30L-26 15L-26 -15Z" stroke="#cae9f9" fill="none" stroke-width="1"></path></g><g transform="translate(2985 1701)"><path d="M0 -27L23.4 -13.5L23.4 13.5L0 27L-23.4 13.5L-23.4 -13.5Z" stroke="#cae9f9" fill="none" stroke-width="1"></path></g><g transform="translate(2800 2167)"><path d="M0 -24L20.8 -12L20.8 12L0 24L-20.8 12L-20.8 -12Z" stroke="#cae9f9" fill="none" stroke-width="1"></path></g><g transform="translate(899 422)"><path d="M0 -25L21.7 -12.5L21.7 12.5L0 25L-21.7 12.5L-21.7 -12.5Z" stroke="#cae9f9" fill="none" stroke-width="1"></path></g><g transform="translate(2348 733)"><path d="M0 -50L43.3 -25L43.3 25L0 50L-43.3 25L-43.3 -25Z" stroke="#cae9f9" fill="none" stroke-width="1"></path></g><g transform="translate(1269 2505)"><path d="M0 -18L15.6 -9L15.6 9L0 18L-15.6 9L-15.6 -9Z" stroke="#cae9f9" fill="none" stroke-width="1"></path></g><g transform="translate(1570 431)"><path d="M0 -18L15.6 -9L15.6 9L0 18L-15.6 9L-15.6 -9Z" stroke="#cae9f9" fill="none" stroke-width="1"></path></g><g transform="translate(695 1956)"><path d="M0 -51L44.2 -25.5L44.2 25.5L0 51L-44.2 25.5L-44.2 -25.5Z" stroke="#cae9f9" fill="none" stroke-width="1"></path></g><g transform="translate(2345 211)"><path d="M0 -19L16.5 -9.5L16.5 9.5L0 19L-16.5 9.5L-16.5 -9.5Z" stroke="#cae9f9" fill="none" stroke-width="1"></path></g><g transform="translate(1176 172)"><path d="M0 -51L44.2 -25.5L44.2 25.5L0 51L-44.2 25.5L-44.2 -25.5Z" stroke="#cae9f9" fill="none" stroke-width="1"></path></g><g transform="translate(2221 2095)"><path d="M0 -54L46.8 -27L46.8 27L0 54L-46.8 27L-46.8 -27Z" stroke="#cae9f9" fill="none" stroke-width="1"></path></g><g transform="translate(2501 1539)"><path d="M0 -39L33.8 -19.5L33.8 19.5L0 39L-33.8 19.5L-33.8 -19.5Z" stroke="#cae9f9" fill="none" stroke-width="1"></path></g><g transform="translate(578 794)"><path d="M0 -53L45.9 -26.5L45.9 26.5L0 53L-45.9 26.5L-45.9 -26.5Z" stroke="#cae9f9" fill="none" stroke-width="1"></path></g><g transform="translate(1837 2767)"><path d="M0 -11L9.5 -5.5L9.5 5.5L0 11L-9.5 5.5L-9.5 -5.5Z" stroke="#cae9f9" fill="none" stroke-width="1"></path></g><g transform="translate(2309 29)"><path d="M0 -20L17.3 -10L17.3 10L0 20L-17.3 10L-17.3 -10Z" stroke="#cae9f9" fill="none" stroke-width="1"></path></g><g transform="translate(60 1881)"><path d="M0 -36L31.2 -18L31.2 18L0 36L-31.2 18L-31.2 -18Z" stroke="#cae9f9" fill="none" stroke-width="1"></path></g><g transform="translate(1097 2947)"><path d="M0 -43L37.2 -21.5L37.2 21.5L0 43L-37.2 21.5L-37.2 -21.5Z" stroke="#cae9f9" fill="none" stroke-width="1"></path></g><g transform="translate(52 2664)"><path d="M0 -12L10.4 -6L10.4 6L0 12L-10.4 6L-10.4 -6Z" stroke="#cae9f9" fill="none" stroke-width="1"></path></g><g transform="translate(2028 193)"><path d="M0 -38L32.9 -19L32.9 19L0 38L-32.9 19L-32.9 -19Z" stroke="#cae9f9" fill="none" stroke-width="1"></path></g><g transform="translate(2627 936)"><path d="M0 -48L41.6 -24L41.6 24L0 48L-41.6 24L-41.6 -24Z" stroke="#cae9f9" fill="none" stroke-width="1"></path></g><g transform="translate(2930 2036)"><path d="M0 -55L47.6 -27.5L47.6 27.5L0 55L-47.6 27.5L-47.6 -27.5Z" stroke="#cae9f9" fill="none" stroke-width="1"></path></g><g transform="translate(1484 2076)"><path d="M0 -11L9.5 -5.5L9.5 5.5L0 11L-9.5 5.5L-9.5 -5.5Z" stroke="#cae9f9" fill="none" stroke-width="1"></path></g><g transform="translate(2179 1778)"><path d="M0 -21L18.2 -10.5L18.2 10.5L0 21L-18.2 10.5L-18.2 -10.5Z" stroke="#cae9f9" fill="none" stroke-width="1"></path></g><g transform="translate(1517 1729)"><path d="M0 -18L15.6 -9L15.6 9L0 18L-15.6 9L-15.6 -9Z" stroke="#cae9f9" fill="none" stroke-width="1"></path></g><g transform="translate(2172 1555)"><path d="M0 -48L41.6 -24L41.6 24L0 48L-41.6 24L-41.6 -24Z" stroke="#cae9f9" fill="none" stroke-width="1"></path></g><g transform="translate(2677 2296)"><path d="M0 -55L47.6 -27.5L47.6 27.5L0 55L-47.6 27.5L-47.6 -27.5Z" stroke="#cae9f9" fill="none" stroke-width="1"></path></g><g transform="translate(907 1502)"><path d="M0 -17L14.7 -8.5L14.7 8.5L0 17L-14.7 8.5L-14.7 -8.5Z" stroke="#cae9f9" fill="none" stroke-width="1"></path></g><g transform="translate(1667 985)"><path d="M0 -9L7.8 -4.5L7.8 4.5L0 9L-7.8 4.5L-7.8 -4.5Z" stroke="#cae9f9" fill="none" stroke-width="1"></path></g><g transform="translate(685 2291)"><path d="M0 -34L29.4 -17L29.4 17L0 34L-29.4 17L-29.4 -17Z" stroke="#cae9f9" fill="none" stroke-width="1"></path></g><g transform="translate(1868 2345)"><path d="M0 -26L22.5 -13L22.5 13L0 26L-22.5 13L-22.5 -13Z" stroke="#cae9f9" fill="none" stroke-width="1"></path></g><g transform="translate(854 2962)"><path d="M0 -34L29.4 -17L29.4 17L0 34L-29.4 17L-29.4 -17Z" stroke="#cae9f9" fill="none" stroke-width="1"></path></g><g transform="translate(747 553)"><path d="M0 -32L27.7 -16L27.7 16L0 32L-27.7 16L-27.7 -16Z" stroke="#cae9f9" fill="none" stroke-width="1"></path></g><g transform="translate(71 405)"><path d="M0 -40L34.6 -20L34.6 20L0 40L-34.6 20L-34.6 -20Z" stroke="#cae9f9" fill="none" stroke-width="1"></path></g><g transform="translate(1042 677)"><path d="M0 -30L26 -15L26 15L0 30L-26 15L-26 -15Z" stroke="#cae9f9" fill="none" stroke-width="1"></path></g><g transform="translate(2824 2853)"><path d="M0 -8L6.9 -4L6.9 4L0 8L-6.9 4L-6.9 -4Z" stroke="#cae9f9" fill="none" stroke-width="1"></path></g><g transform="translate(2158 1369)"><path d="M0 -21L18.2 -10.5L18.2 10.5L0 21L-18.2 10.5L-18.2 -10.5Z" stroke="#cae9f9" fill="none" stroke-width="1"></path></g><g transform="translate(1111 411)"><path d="M0 -40L34.6 -20L34.6 20L0 40L-34.6 20L-34.6 -20Z" stroke="#cae9f9" fill="none" stroke-width="1"></path></g><g transform="translate(2437 2961)"><path d="M0 -30L26 -15L26 15L0 30L-26 15L-26 -15Z" stroke="#cae9f9" fill="none" stroke-width="1"></path></g><g transform="translate(1740 1449)"><path d="M0 -20L17.3 -10L17.3 10L0 20L-17.3 10L-17.3 -10Z" stroke="#cae9f9" fill="none" stroke-width="1"></path></g><g transform="translate(2007 874)"><path d="M0 -22L19.1 -11L19.1 11L0 22L-19.1 11L-19.1 -11Z" stroke="#cae9f9" fill="none" stroke-width="1"></path></g><g transform="translate(1170 1112)"><path d="M0 -37L32 -18.5L32 18.5L0 37L-32 18.5L-32 -18.5Z" stroke="#cae9f9" fill="none" stroke-width="1"></path></g><g transform="translate(403 1901)"><path d="M0 -31L26.8 -15.5L26.8 15.5L0 31L-26.8 15.5L-26.8 -15.5Z" stroke="#cae9f9" fill="none" stroke-width="1"></path></g><g transform="translate(586 1889)"><path d="M0 -43L37.2 -21.5L37.2 21.5L0 43L-37.2 21.5L-37.2 -21.5Z" stroke="#cae9f9" fill="none" stroke-width="1"></path></g><g transform="translate(1186 2031)"><path d="M0 -44L38.1 -22L38.1 22L0 44L-38.1 22L-38.1 -22Z" stroke="#cae9f9" fill="none" stroke-width="1"></path></g><g transform="translate(236 752)"><path d="M0 -53L45.9 -26.5L45.9 26.5L0 53L-45.9 26.5L-45.9 -26.5Z" stroke="#cae9f9" fill="none" stroke-width="1"></path></g><g transform="translate(2764 979)"><path d="M0 -15L13 -7.5L13 7.5L0 15L-13 7.5L-13 -7.5Z" stroke="#cae9f9" fill="none" stroke-width="1"></path></g><g transform="translate(1379 2548)"><path d="M0 -39L33.8 -19.5L33.8 19.5L0 39L-33.8 19.5L-33.8 -19.5Z" stroke="#cae9f9" fill="none" stroke-width="1"></path></g><g transform="translate(537 331)"><path d="M0 -13L11.3 -6.5L11.3 6.5L0 13L-11.3 6.5L-11.3 -6.5Z" stroke="#cae9f9" fill="none" stroke-width="1"></path></g><g transform="translate(2257 1691)"><path d="M0 -14L12.1 -7L12.1 7L0 14L-12.1 7L-12.1 -7Z" stroke="#cae9f9" fill="none" stroke-width="1"></path></g><g transform="translate(738 1304)"><path d="M0 -50L43.3 -25L43.3 25L0 50L-43.3 25L-43.3 -25Z" stroke="#cae9f9" fill="none" stroke-width="1"></path></g><g transform="translate(153 1027)"><path d="M0 -56L48.5 -28L48.5 28L0 56L-48.5 28L-48.5 -28Z" stroke="#cae9f9" fill="none" stroke-width="1"></path></g><g transform="translate(336 18)"><path d="M0 -48L41.6 -24L41.6 24L0 48L-41.6 24L-41.6 -24Z" stroke="#cae9f9" fill="none" stroke-width="1"></path></g><g transform="translate(1955 2611)"><path d="M0 -38L32.9 -19L32.9 19L0 38L-32.9 19L-32.9 -19Z" stroke="#cae9f9" fill="none" stroke-width="1"></path></g><g transform="translate(2995 2768)"><path d="M0 -9L7.8 -4.5L7.8 4.5L0 9L-7.8 4.5L-7.8 -4.5Z" stroke="#cae9f9" fill="none" stroke-width="1"></path></g><g transform="translate(894 199)"><path d="M0 -27L23.4 -13.5L23.4 13.5L0 27L-23.4 13.5L-23.4 -13.5Z" stroke="#cae9f9" fill="none" stroke-width="1"></path></g><g transform="translate(987 2258)"><path d="M0 -36L31.2 -18L31.2 18L0 36L-31.2 18L-31.2 -18Z" stroke="#cae9f9" fill="none" stroke-width="1"></path></g><g transform="translate(2600 1444)"><path d="M0 -7L6.1 -3.5L6.1 3.5L0 7L-6.1 3.5L-6.1 -3.5Z" stroke="#cae9f9" fill="none" stroke-width="1"></path></g><g transform="translate(798 1570)"><path d="M0 -47L40.7 -23.5L40.7 23.5L0 47L-40.7 23.5L-40.7 -23.5Z" stroke="#cae9f9" fill="none" stroke-width="1"></path></g><g transform="translate(1219 2979)"><path d="M0 -54L46.8 -27L46.8 27L0 54L-46.8 27L-46.8 -27Z" stroke="#cae9f9" fill="none" stroke-width="1"></path></g><g transform="translate(2709 1502)"><path d="M0 -22L19.1 -11L19.1 11L0 22L-19.1 11L-19.1 -11Z" stroke="#cae9f9" fill="none" stroke-width="1"></path></g><g transform="translate(1050 1388)"><path d="M0 -31L26.8 -15.5L26.8 15.5L0 31L-26.8 15.5L-26.8 -15.5Z" stroke="#cae9f9" fill="none" stroke-width="1"></path></g><g transform="translate(1677 23)"><path d="M0 -49L42.4 -24.5L42.4 24.5L0 49L-42.4 24.5L-42.4 -24.5Z" stroke="#cae9f9" fill="none" stroke-width="1"></path></g><g transform="translate(2971 1544)"><path d="M0 -52L45 -26L45 26L0 52L-45 26L-45 -26Z" stroke="#cae9f9" fill="none" stroke-width="1"></path></g><g transform="translate(764 1425)"><path d="M0 -55L47.6 -27.5L47.6 27.5L0 55L-47.6 27.5L-47.6 -27.5Z" stroke="#cae9f9" fill="none" stroke-width="1"></path></g><g transform="translate(2697 447)"><path d="M0 -40L34.6 -20L34.6 20L0 40L-34.6 20L-34.6 -20Z" stroke="#cae9f9" fill="none" stroke-width="1"></path></g><g transform="translate(2764 57)"><path d="M0 -26L22.5 -13L22.5 13L0 26L-22.5 13L-22.5 -13Z" stroke="#cae9f9" fill="none" stroke-width="1"></path></g><g transform="translate(1018 1813)"><path d="M0 -23L19.9 -11.5L19.9 11.5L0 23L-19.9 11.5L-19.9 -11.5Z" stroke="#cae9f9" fill="none" stroke-width="1"></path></g><g transform="translate(2031 322)"><path d="M0 -17L14.7 -8.5L14.7 8.5L0 17L-14.7 8.5L-14.7 -8.5Z" stroke="#cae9f9" fill="none" stroke-width="1"></path></g><g transform="translate(2028 1804)"><path d="M0 -28L24.2 -14L24.2 14L0 28L-24.2 14L-24.2 -14Z" stroke="#cae9f9" fill="none" stroke-width="1"></path></g><g transform="translate(896 2172)"><path d="M0 -21L18.2 -10.5L18.2 10.5L0 21L-18.2 10.5L-18.2 -10.5Z" stroke="#cae9f9" fill="none" stroke-width="1"></path></g><g transform="translate(1361 1438)"><path d="M0 -42L36.4 -21L36.4 21L0 42L-36.4 21L-36.4 -21Z" stroke="#cae9f9" fill="none" stroke-width="1"></path></g><g transform="translate(53 1745)"><path d="M0 -46L39.8 -23L39.8 23L0 46L-39.8 23L-39.8 -23Z" stroke="#cae9f9" fill="none" stroke-width="1"></path></g><g transform="translate(1265 290)"><path d="M0 -15L13 -7.5L13 7.5L0 15L-13 7.5L-13 -7.5Z" stroke="#cae9f9" fill="none" stroke-width="1"></path></g><g transform="translate(1201 1823)"><path d="M0 -51L44.2 -25.5L44.2 25.5L0 51L-44.2 25.5L-44.2 -25.5Z" stroke="#cae9f9" fill="none" stroke-width="1"></path></g><g transform="translate(2160 355)"><path d="M0 -37L32 -18.5L32 18.5L0 37L-32 18.5L-32 -18.5Z" stroke="#cae9f9" fill="none" stroke-width="1"></path></g><g transform="translate(1378 1673)"><path d="M0 -46L39.8 -23L39.8 23L0 46L-39.8 23L-39.8 -23Z" stroke="#cae9f9" fill="none" stroke-width="1"></path></g><g transform="translate(1599 1949)"><path d="M0 -24L20.8 -12L20.8 12L0 24L-20.8 12L-20.8 -12Z" stroke="#cae9f9" fill="none" stroke-width="1"></path></g><g transform="translate(850 2407)"><path d="M0 -36L31.2 -18L31.2 18L0 36L-31.2 18L-31.2 -18Z" stroke="#cae9f9" fill="none" stroke-width="1"></path></g><g transform="translate(2863 847)"><path d="M0 -14L12.1 -7L12.1 7L0 14L-12.1 7L-12.1 -7Z" stroke="#cae9f9" fill="none" stroke-width="1"></path></g><g transform="translate(2919 240)"><path d="M0 -26L22.5 -13L22.5 13L0 26L-22.5 13L-22.5 -13Z" stroke="#cae9f9" fill="none" stroke-width="1"></path></g><g transform="translate(308 1173)"><path d="M0 -25L21.7 -12.5L21.7 12.5L0 25L-21.7 12.5L-21.7 -12.5Z" stroke="#cae9f9" fill="none" stroke-width="1"></path></g><g transform="translate(1562 304)"><path d="M0 -54L46.8 -27L46.8 27L0 54L-46.8 27L-46.8 -27Z" stroke="#cae9f9" fill="none" stroke-width="1"></path></g><g transform="translate(2776 1821)"><path d="M0 -33L28.6 -16.5L28.6 16.5L0 33L-28.6 16.5L-28.6 -16.5Z" stroke="#cae9f9" fill="none" stroke-width="1"></path></g><g transform="translate(1859 1457)"><path d="M0 -31L26.8 -15.5L26.8 15.5L0 31L-26.8 15.5L-26.8 -15.5Z" stroke="#cae9f9" fill="none" stroke-width="1"></path></g><g transform="translate(2434 2148)"><path d="M0 -7L6.1 -3.5L6.1 3.5L0 7L-6.1 3.5L-6.1 -3.5Z" stroke="#cae9f9" fill="none" stroke-width="1"></path></g><g transform="translate(2257 2207)"><path d="M0 -38L32.9 -19L32.9 19L0 38L-32.9 19L-32.9 -19Z" stroke="#cae9f9" fill="none" stroke-width="1"></path></g><g transform="translate(1799 812)"><path d="M0 -14L12.1 -7L12.1 7L0 14L-12.1 7L-12.1 -7Z" stroke="#cae9f9" fill="none" stroke-width="1"></path></g><g transform="translate(417 2174)"><path d="M0 -31L26.8 -15.5L26.8 15.5L0 31L-26.8 15.5L-26.8 -15.5Z" stroke="#cae9f9" fill="none" stroke-width="1"></path></g><g transform="translate(2188 2862)"><path d="M0 -33L28.6 -16.5L28.6 16.5L0 33L-28.6 16.5L-28.6 -16.5Z" stroke="#cae9f9" fill="none" stroke-width="1"></path></g><g transform="translate(272 177)"><path d="M0 -53L45.9 -26.5L45.9 26.5L0 53L-45.9 26.5L-45.9 -26.5Z" stroke="#cae9f9" fill="none" stroke-width="1"></path></g><g transform="translate(270 1632)"><path d="M0 -56L48.5 -28L48.5 28L0 56L-48.5 28L-48.5 -28Z" stroke="#cae9f9" fill="none" stroke-width="1"></path></g><g transform="translate(903 1162)"><path d="M0 -33L28.6 -16.5L28.6 16.5L0 33L-28.6 16.5L-28.6 -16.5Z" stroke="#cae9f9" fill="none" stroke-width="1"></path></g><g transform="translate(1404 1128)"><path d="M0 -7L6.1 -3.5L6.1 3.5L0 7L-6.1 3.5L-6.1 -3.5Z" stroke="#cae9f9" fill="none" stroke-width="1"></path></g><g transform="translate(784 14)"><path d="M0 -14L12.1 -7L12.1 7L0 14L-12.1 7L-12.1 -7Z" stroke="#cae9f9" fill="none" stroke-width="1"></path></g><g transform="translate(435 1132)"><path d="M0 -55L47.6 -27.5L47.6 27.5L0 55L-47.6 27.5L-47.6 -27.5Z" stroke="#cae9f9" fill="none" stroke-width="1"></path></g><g transform="translate(926 24)"><path d="M0 -37L32 -18.5L32 18.5L0 37L-32 18.5L-32 -18.5Z" stroke="#cae9f9" fill="none" stroke-width="1"></path></g><g transform="translate(22 1627)"><path d="M0 -16L13.9 -8L13.9 8L0 16L-13.9 8L-13.9 -8Z" stroke="#cae9f9" fill="none" stroke-width="1"></path></g><g transform="translate(2816 2589)"><path d="M0 -46L39.8 -23L39.8 23L0 46L-39.8 23L-39.8 -23Z" stroke="#cae9f9" fill="none" stroke-width="1"></path></g><g transform="translate(2227 784)"><path d="M0 -24L20.8 -12L20.8 12L0 24L-20.8 12L-20.8 -12Z" stroke="#cae9f9" fill="none" stroke-width="1"></path></g><g transform="translate(672 1638)"><path d="M0 -43L37.2 -21.5L37.2 21.5L0 43L-37.2 21.5L-37.2 -21.5Z" stroke="#cae9f9" fill="none" stroke-width="1"></path></g><g transform="translate(1476 1008)"><path d="M0 -44L38.1 -22L38.1 22L0 44L-38.1 22L-38.1 -22Z" stroke="#cae9f9" fill="none" stroke-width="1"></path></g><g transform="translate(1079 2119)"><path d="M0 -51L44.2 -25.5L44.2 25.5L0 51L-44.2 25.5L-44.2 -25.5Z" stroke="#cae9f9" fill="none" stroke-width="1"></path></g><g transform="translate(2240 668)"><path d="M0 -47L40.7 -23.5L40.7 23.5L0 47L-40.7 23.5L-40.7 -23.5Z" stroke="#cae9f9" fill="none" stroke-width="1"></path></g><g transform="translate(514 483)"><path d="M0 -40L34.6 -20L34.6 20L0 40L-34.6 20L-34.6 -20Z" stroke="#cae9f9" fill="none" stroke-width="1"></path></g><g transform="translate(939 1908)"><path d="M0 -54L46.8 -27L46.8 27L0 54L-46.8 27L-46.8 -27Z" stroke="#cae9f9" fill="none" stroke-width="1"></path></g><g transform="translate(2166 1088)"><path d="M0 -10L8.7 -5L8.7 5L0 10L-8.7 5L-8.7 -5Z" stroke="#cae9f9" fill="none" stroke-width="1"></path></g><g transform="translate(2986 782)"><path d="M0 -14L12.1 -7L12.1 7L0 14L-12.1 7L-12.1 -7Z" stroke="#cae9f9" fill="none" stroke-width="1"></path></g><g transform="translate(1345 2015)"><path d="M0 -33L28.6 -16.5L28.6 16.5L0 33L-28.6 16.5L-28.6 -16.5Z" stroke="#cae9f9" fill="none" stroke-width="1"></path></g><g transform="translate(986 2714)"><path d="M0 -9L7.8 -4.5L7.8 4.5L0 9L-7.8 4.5L-7.8 -4.5Z" stroke="#cae9f9" fill="none" stroke-width="1"></path></g><g transform="translate(2560 652)"><path d="M0 -54L46.8 -27L46.8 27L0 54L-46.8 27L-46.8 -27Z" stroke="#cae9f9" fill="none" stroke-width="1"></path></g><g transform="translate(777 766)"><path d="M0 -21L18.2 -10.5L18.2 10.5L0 21L-18.2 10.5L-18.2 -10.5Z" stroke="#cae9f9" fill="none" stroke-width="1"></path></g><g transform="translate(2039 2026)"><path d="M0 -18L15.6 -9L15.6 9L0 18L-15.6 9L-15.6 -9Z" stroke="#cae9f9" fill="none" stroke-width="1"></path></g><g transform="translate(1375 2805)"><path d="M0 -22L19.1 -11L19.1 11L0 22L-19.1 11L-19.1 -11Z" stroke="#cae9f9" fill="none" stroke-width="1"></path></g><g transform="translate(633 1159)"><path d="M0 -26L22.5 -13L22.5 13L0 26L-22.5 13L-22.5 -13Z" stroke="#cae9f9" fill="none" stroke-width="1"></path></g><g transform="translate(2830 1118)"><path d="M0 -45L39 -22.5L39 22.5L0 45L-39 22.5L-39 -22.5Z" stroke="#cae9f9" fill="none" stroke-width="1"></path></g><g transform="translate(2066 506)"><path d="M0 -28L24.2 -14L24.2 14L0 28L-24.2 14L-24.2 -14Z" stroke="#cae9f9" fill="none" stroke-width="1"></path></g><g transform="translate(1980 2748)"><path d="M0 -48L41.6 -24L41.6 24L0 48L-41.6 24L-41.6 -24Z" stroke="#cae9f9" fill="none" stroke-width="1"></path></g><g transform="translate(2007 625)"><path d="M0 -26L22.5 -13L22.5 13L0 26L-22.5 13L-22.5 -13Z" stroke="#cae9f9" fill="none" stroke-width="1"></path></g><g transform="translate(2706 320)"><path d="M0 -20L17.3 -10L17.3 10L0 20L-17.3 10L-17.3 -10Z" stroke="#cae9f9" fill="none" stroke-width="1"></path></g><g transform="translate(843 1020)"><path d="M0 -24L20.8 -12L20.8 12L0 24L-20.8 12L-20.8 -12Z" stroke="#cae9f9" fill="none" stroke-width="1"></path></g><g transform="translate(2013 73)"><path d="M0 -29L25.1 -14.5L25.1 14.5L0 29L-25.1 14.5L-25.1 -14.5Z" stroke="#cae9f9" fill="none" stroke-width="1"></path></g><g transform="translate(1740 1717)"><path d="M0 -22L19.1 -11L19.1 11L0 22L-19.1 11L-19.1 -11Z" stroke="#cae9f9" fill="none" stroke-width="1"></path></g><g transform="translate(1508 1244)"><path d="M0 -51L44.2 -25.5L44.2 25.5L0 51L-44.2 25.5L-44.2 -25.5Z" stroke="#cae9f9" fill="none" stroke-width="1"></path></g><g transform="translate(2566 406)"><path d="M0 -13L11.3 -6.5L11.3 6.5L0 13L-11.3 6.5L-11.3 -6.5Z" stroke="#cae9f9" fill="none" stroke-width="1"></path></g><g transform="translate(1229 995)"><path d="M0 -41L35.5 -20.5L35.5 20.5L0 41L-35.5 20.5L-35.5 -20.5Z" stroke="#cae9f9" fill="none" stroke-width="1"></path></g><g transform="translate(2992 2460)"><path d="M0 -9L7.8 -4.5L7.8 4.5L0 9L-7.8 4.5L-7.8 -4.5Z" stroke="#cae9f9" fill="none" stroke-width="1"></path></g><g transform="translate(1123 1656)"><path d="M0 -11L9.5 -5.5L9.5 5.5L0 11L-9.5 5.5L-9.5 -5.5Z" stroke="#cae9f9" fill="none" stroke-width="1"></path></g><g transform="translate(1903 1785)"><path d="M0 -38L32.9 -19L32.9 19L0 38L-32.9 19L-32.9 -19Z" stroke="#cae9f9" fill="none" stroke-width="1"></path></g><g transform="translate(1079 1195)"><path d="M0 -16L13.9 -8L13.9 8L0 16L-13.9 8L-13.9 -8Z" stroke="#cae9f9" fill="none" stroke-width="1"></path></g><g transform="translate(60 1517)"><path d="M0 -55L47.6 -27.5L47.6 27.5L0 55L-47.6 27.5L-47.6 -27.5Z" stroke="#cae9f9" fill="none" stroke-width="1"></path></g><g transform="translate(1570 558)"><path d="M0 -36L31.2 -18L31.2 18L0 36L-31.2 18L-31.2 -18Z" stroke="#cae9f9" fill="none" stroke-width="1"></path></g><g transform="translate(2272 1855)"><path d="M0 -15L13 -7.5L13 7.5L0 15L-13 7.5L-13 -7.5Z" stroke="#cae9f9" fill="none" stroke-width="1"></path></g><g transform="translate(2065 1258)"><path d="M0 -43L37.2 -21.5L37.2 21.5L0 43L-37.2 21.5L-37.2 -21.5Z" stroke="#cae9f9" fill="none" stroke-width="1"></path></g><g transform="translate(1203 2338)"><path d="M0 -50L43.3 -25L43.3 25L0 50L-43.3 25L-43.3 -25Z" stroke="#cae9f9" fill="none" stroke-width="1"></path></g><g transform="translate(923 787)"><path d="M0 -44L38.1 -22L38.1 22L0 44L-38.1 22L-38.1 -22Z" stroke="#cae9f9" fill="none" stroke-width="1"></path></g><g transform="translate(556 1605)"><path d="M0 -51L44.2 -25.5L44.2 25.5L0 51L-44.2 25.5L-44.2 -25.5Z" stroke="#cae9f9" fill="none" stroke-width="1"></path></g><g transform="translate(276 2003)"><path d="M0 -46L39.8 -23L39.8 23L0 46L-39.8 23L-39.8 -23Z" stroke="#cae9f9" fill="none" stroke-width="1"></path></g><g transform="translate(1863 1140)"><path d="M0 -14L12.1 -7L12.1 7L0 14L-12.1 7L-12.1 -7Z" stroke="#cae9f9" fill="none" stroke-width="1"></path></g><g transform="translate(1792 12)"><path d="M0 -41L35.5 -20.5L35.5 20.5L0 41L-35.5 20.5L-35.5 -20.5Z" stroke="#cae9f9" fill="none" stroke-width="1"></path></g><g transform="translate(2514 121)"><path d="M0 -44L38.1 -22L38.1 22L0 44L-38.1 22L-38.1 -22Z" stroke="#cae9f9" fill="none" stroke-width="1"></path></g><g transform="translate(397 1391)"><path d="M0 -46L39.8 -23L39.8 23L0 46L-39.8 23L-39.8 -23Z" stroke="#cae9f9" fill="none" stroke-width="1"></path></g><g transform="translate(55 2459)"><path d="M0 -18L15.6 -9L15.6 9L0 18L-15.6 9L-15.6 -9Z" stroke="#cae9f9" fill="none" stroke-width="1"></path></g><g transform="translate(1120 28)"><path d="M0 -40L34.6 -20L34.6 20L0 40L-34.6 20L-34.6 -20Z" stroke="#cae9f9" fill="none" stroke-width="1"></path></g><g transform="translate(712 2410)"><path d="M0 -52L45 -26L45 26L0 52L-45 26L-45 -26Z" stroke="#cae9f9" fill="none" stroke-width="1"></path></g><g transform="translate(2080 1012)"><path d="M0 -54L46.8 -27L46.8 27L0 54L-46.8 27L-46.8 -27Z" stroke="#cae9f9" fill="none" stroke-width="1"></path></g><g transform="translate(23 967)"><path d="M0 -19L16.5 -9.5L16.5 9.5L0 19L-16.5 9.5L-16.5 -9.5Z" stroke="#cae9f9" fill="none" stroke-width="1"></path></g><g transform="translate(2485 2384)"><path d="M0 -25L21.7 -12.5L21.7 12.5L0 25L-21.7 12.5L-21.7 -12.5Z" stroke="#cae9f9" fill="none" stroke-width="1"></path></g><g transform="translate(2477 1339)"><path d="M0 -28L24.2 -14L24.2 14L0 28L-24.2 14L-24.2 -14Z" stroke="#cae9f9" fill="none" stroke-width="1"></path></g><g transform="translate(1660 2297)"><path d="M0 -16L13.9 -8L13.9 8L0 16L-13.9 8L-13.9 -8Z" stroke="#cae9f9" fill="none" stroke-width="1"></path></g><g transform="translate(384 2716)"><path d="M0 -45L39 -22.5L39 22.5L0 45L-39 22.5L-39 -22.5Z" stroke="#cae9f9" fill="none" stroke-width="1"></path></g><g transform="translate(1558 2842)"><path d="M0 -28L24.2 -14L24.2 14L0 28L-24.2 14L-24.2 -14Z" stroke="#cae9f9" fill="none" stroke-width="1"></path></g><g transform="translate(1443 490)"><path d="M0 -38L32.9 -19L32.9 19L0 38L-32.9 19L-32.9 -19Z" stroke="#cae9f9" fill="none" stroke-width="1"></path></g><g transform="translate(294 1859)"><path d="M0 -33L28.6 -16.5L28.6 16.5L0 33L-28.6 16.5L-28.6 -16.5Z" stroke="#cae9f9" fill="none" stroke-width="1"></path></g><g transform="translate(194 2662)"><path d="M0 -31L26.8 -15.5L26.8 15.5L0 31L-26.8 15.5L-26.8 -15.5Z" stroke="#cae9f9" fill="none" stroke-width="1"></path></g><g transform="translate(1759 2997)"><path d="M0 -39L33.8 -19.5L33.8 19.5L0 39L-33.8 19.5L-33.8 -19.5Z" stroke="#cae9f9" fill="none" stroke-width="1"></path></g><g transform="translate(1520 720)"><path d="M0 -35L30.3 -17.5L30.3 17.5L0 35L-30.3 17.5L-30.3 -17.5Z" stroke="#cae9f9" fill="none" stroke-width="1"></path></g><g transform="translate(1742 2836)"><path d="M0 -41L35.5 -20.5L35.5 20.5L0 41L-35.5 20.5L-35.5 -20.5Z" stroke="#cae9f9" fill="none" stroke-width="1"></path></g><g transform="translate(40 1216)"><path d="M0 -42L36.4 -21L36.4 21L0 42L-36.4 21L-36.4 -21Z" stroke="#cae9f9" fill="none" stroke-width="1"></path></g><g transform="translate(2955 2878)"><path d="M0 -18L15.6 -9L15.6 9L0 18L-15.6 9L-15.6 -9Z" stroke="#cae9f9" fill="none" stroke-width="1"></path></g><g transform="translate(619 2821)"><path d="M0 -8L6.9 -4L6.9 4L0 8L-6.9 4L-6.9 -4Z" stroke="#cae9f9" fill="none" stroke-width="1"></path></g><g transform="translate(19 2060)"><path d="M0 -25L21.7 -12.5L21.7 12.5L0 25L-21.7 12.5L-21.7 -12.5Z" stroke="#cae9f9" fill="none" stroke-width="1"></path></g><g transform="translate(2310 2715)"><path d="M0 -53L45.9 -26.5L45.9 26.5L0 53L-45.9 26.5L-45.9 -26.5Z" stroke="#cae9f9" fill="none" stroke-width="1"></path></g><g transform="translate(4 501)"><path d="M0 -55L47.6 -27.5L47.6 27.5L0 55L-47.6 27.5L-47.6 -27.5Z" stroke="#cae9f9" fill="none" stroke-width="1"></path></g><g transform="translate(2815 398)"><path d="M0 -28L24.2 -14L24.2 14L0 28L-24.2 14L-24.2 -14Z" stroke="#cae9f9" fill="none" stroke-width="1"></path></g><g transform="translate(1771 2123)"><path d="M0 -52L45 -26L45 26L0 52L-45 26L-45 -26Z" stroke="#cae9f9" fill="none" stroke-width="1"></path></g><g transform="translate(112 731)"><path d="M0 -27L23.4 -13.5L23.4 13.5L0 27L-23.4 13.5L-23.4 -13.5Z" stroke="#cae9f9" fill="none" stroke-width="1"></path></g><g transform="translate(1244 18)"><path d="M0 -22L19.1 -11L19.1 11L0 22L-19.1 11L-19.1 -11Z" stroke="#cae9f9" fill="none" stroke-width="1"></path></g><g transform="translate(1373 238)"><path d="M0 -25L21.7 -12.5L21.7 12.5L0 25L-21.7 12.5L-21.7 -12.5Z" stroke="#cae9f9" fill="none" stroke-width="1"></path></g><g transform="translate(1218 636)"><path d="M0 -30L26 -15L26 15L0 30L-26 15L-26 -15Z" stroke="#cae9f9" fill="none" stroke-width="1"></path></g><g transform="translate(1364 1556)"><path d="M0 -38L32.9 -19L32.9 19L0 38L-32.9 19L-32.9 -19Z" stroke="#cae9f9" fill="none" stroke-width="1"></path></g><g transform="translate(1788 1583)"><path d="M0 -23L19.9 -11.5L19.9 11.5L0 23L-19.9 11.5L-19.9 -11.5Z" stroke="#cae9f9" fill="none" stroke-width="1"></path></g><g transform="translate(2414 395)"><path d="M0 -29L25.1 -14.5L25.1 14.5L0 29L-25.1 14.5L-25.1 -14.5Z" stroke="#cae9f9" fill="none" stroke-width="1"></path></g><g transform="translate(2762 1978)"><path d="M0 -40L34.6 -20L34.6 20L0 40L-34.6 20L-34.6 -20Z" stroke="#cae9f9" fill="none" stroke-width="1"></path></g><g transform="translate(1266 2622)"><path d="M0 -30L26 -15L26 15L0 30L-26 15L-26 -15Z" stroke="#cae9f9" fill="none" stroke-width="1"></path></g><g transform="translate(2248 2352)"><path d="M0 -27L23.4 -13.5L23.4 13.5L0 27L-23.4 13.5L-23.4 -13.5Z" stroke="#cae9f9" fill="none" stroke-width="1"></path></g><g transform="translate(209 316)"><path d="M0 -40L34.6 -20L34.6 20L0 40L-34.6 20L-34.6 -20Z" stroke="#cae9f9" fill="none" stroke-width="1"></path></g><g transform="translate(216 931)"><path d="M0 -51L44.2 -25.5L44.2 25.5L0 51L-44.2 25.5L-44.2 -25.5Z" stroke="#cae9f9" fill="none" stroke-width="1"></path></g><g transform="translate(2843 2279)"><path d="M0 -37L32 -18.5L32 18.5L0 37L-32 18.5L-32 -18.5Z" stroke="#cae9f9" fill="none" stroke-width="1"></path></g><g transform="translate(2370 1185)"><path d="M0 -47L40.7 -23.5L40.7 23.5L0 47L-40.7 23.5L-40.7 -23.5Z" stroke="#cae9f9" fill="none" stroke-width="1"></path></g><g transform="translate(2599 1071)"><path d="M0 -21L18.2 -10.5L18.2 10.5L0 21L-18.2 10.5L-18.2 -10.5Z" stroke="#cae9f9" fill="none" stroke-width="1"></path></g><g transform="translate(1253 2765)"><path d="M0 -11L9.5 -5.5L9.5 5.5L0 11L-9.5 5.5L-9.5 -5.5Z" stroke="#cae9f9" fill="none" stroke-width="1"></path></g><g transform="translate(2705 673)"><path d="M0 -39L33.8 -19.5L33.8 19.5L0 39L-33.8 19.5L-33.8 -19.5Z" stroke="#cae9f9" fill="none" stroke-width="1"></path></g><g transform="translate(523 1422)"><path d="M0 -43L37.2 -21.5L37.2 21.5L0 43L-37.2 21.5L-37.2 -21.5Z" stroke="#cae9f9" fill="none" stroke-width="1"></path></g><g transform="translate(2756 2474)"><path d="M0 -42L36.4 -21L36.4 21L0 42L-36.4 21L-36.4 -21Z" stroke="#cae9f9" fill="none" stroke-width="1"></path></g><g transform="translate(783 2852)"><path d="M0 -13L11.3 -6.5L11.3 6.5L0 13L-11.3 6.5L-11.3 -6.5Z" stroke="#cae9f9" fill="none" stroke-width="1"></path></g><g transform="translate(2844 1585)"><path d="M0 -12L10.4 -6L10.4 6L0 12L-10.4 6L-10.4 -6Z" stroke="#cae9f9" fill="none" stroke-width="1"></path></g><g transform="translate(1538 18)"><path d="M0 -18L15.6 -9L15.6 9L0 18L-15.6 9L-15.6 -9Z" stroke="#cae9f9" fill="none" stroke-width="1"></path></g><g transform="translate(2443 668)"><path d="M0 -16L13.9 -8L13.9 8L0 16L-13.9 8L-13.9 -8Z" stroke="#cae9f9" fill="none" stroke-width="1"></path></g><g transform="translate(2679 160)"><path d="M0 -17L14.7 -8.5L14.7 8.5L0 17L-14.7 8.5L-14.7 -8.5Z" stroke="#cae9f9" fill="none" stroke-width="1"></path></g><g transform="translate(1795 2436)"><path d="M0 -36L31.2 -18L31.2 18L0 36L-31.2 18L-31.2 -18Z" stroke="#cae9f9" fill="none" stroke-width="1"></path></g><g transform="translate(2196 7)"><path d="M0 -53L45.9 -26.5L45.9 26.5L0 53L-45.9 26.5L-45.9 -26.5Z" stroke="#cae9f9" fill="none" stroke-width="1"></path></g><g transform="translate(1445 347)"><path d="M0 -12L10.4 -6L10.4 6L0 12L-10.4 6L-10.4 -6Z" stroke="#cae9f9" fill="none" stroke-width="1"></path></g><g transform="translate(2015 2150)"><path d="M0 -48L41.6 -24L41.6 24L0 48L-41.6 24L-41.6 -24Z" stroke="#cae9f9" fill="none" stroke-width="1"></path></g><g transform="translate(663 694)"><path d="M0 -45L39 -22.5L39 22.5L0 45L-39 22.5L-39 -22.5Z" stroke="#cae9f9" fill="none" stroke-width="1"></path></g><g transform="translate(60 7)"><path d="M0 -39L33.8 -19.5L33.8 19.5L0 39L-33.8 19.5L-33.8 -19.5Z" stroke="#cae9f9" fill="none" stroke-width="1"></path></g><g transform="translate(2991 626)"><path d="M0 -20L17.3 -10L17.3 10L0 20L-17.3 10L-17.3 -10Z" stroke="#cae9f9" fill="none" stroke-width="1"></path></g><g transform="translate(975 308)"><path d="M0 -11L9.5 -5.5L9.5 5.5L0 11L-9.5 5.5L-9.5 -5.5Z" stroke="#cae9f9" fill="none" stroke-width="1"></path></g><g transform="translate(2144 235)"><path d="M0 -50L43.3 -25L43.3 25L0 50L-43.3 25L-43.3 -25Z" stroke="#cae9f9" fill="none" stroke-width="1"></path></g><g transform="translate(667 2152)"><path d="M0 -20L17.3 -10L17.3 10L0 20L-17.3 10L-17.3 -10Z" stroke="#cae9f9" fill="none" stroke-width="1"></path></g><g transform="translate(138 1617)"><path d="M0 -17L14.7 -8.5L14.7 8.5L0 17L-14.7 8.5L-14.7 -8.5Z" stroke="#cae9f9" fill="none" stroke-width="1"></path></g><g transform="translate(118 2148)"><path d="M0 -52L45 -26L45 26L0 52L-45 26L-45 -26Z" stroke="#cae9f9" fill="none" stroke-width="1"></path></g><g transform="translate(1629 1237)"><path d="M0 -9L7.8 -4.5L7.8 4.5L0 9L-7.8 4.5L-7.8 -4.5Z" stroke="#cae9f9" fill="none" stroke-width="1"></path></g><g transform="translate(1904 2492)"><path d="M0 -38L32.9 -19L32.9 19L0 38L-32.9 19L-32.9 -19Z" stroke="#cae9f9" fill="none" stroke-width="1"></path></g><g transform="translate(687 1828)"><path d="M0 -50L43.3 -25L43.3 25L0 50L-43.3 25L-43.3 -25Z" stroke="#cae9f9" fill="none" stroke-width="1"></path></g><g transform="translate(1547 2990)"><path d="M0 -29L25.1 -14.5L25.1 14.5L0 29L-25.1 14.5L-25.1 -14.5Z" stroke="#cae9f9" fill="none" stroke-width="1"></path></g><g transform="translate(393 658)"><path d="M0 -54L46.8 -27L46.8 27L0 54L-46.8 27L-46.8 -27Z" stroke="#cae9f9" fill="none" stroke-width="1"></path></g><g transform="translate(2089 2987)"><path d="M0 -20L17.3 -10L17.3 10L0 20L-17.3 10L-17.3 -10Z" stroke="#cae9f9" fill="none" stroke-width="1"></path></g><g transform="translate(1363 2131)"><path d="M0 -26L22.5 -13L22.5 13L0 26L-22.5 13L-22.5 -13Z" stroke="#cae9f9" fill="none" stroke-width="1"></path></g><g transform="translate(1634 1496)"><path d="M0 -15L13 -7.5L13 7.5L0 15L-13 7.5L-13 -7.5Z" stroke="#cae9f9" fill="none" stroke-width="1"></path></g><g transform="translate(1893 2218)"><path d="M0 -13L11.3 -6.5L11.3 6.5L0 13L-11.3 6.5L-11.3 -6.5Z" stroke="#cae9f9" fill="none" stroke-width="1"></path></g><g transform="translate(2771 2984)"><path d="M0 -51L44.2 -25.5L44.2 25.5L0 51L-44.2 25.5L-44.2 -25.5Z" stroke="#cae9f9" fill="none" stroke-width="1"></path></g><g transform="translate(2998 955)"><path d="M0 -27L23.4 -13.5L23.4 13.5L0 27L-23.4 13.5L-23.4 -13.5Z" stroke="#cae9f9" fill="none" stroke-width="1"></path></g><g transform="translate(2860 1261)"><path d="M0 -44L38.1 -22L38.1 22L0 44L-38.1 22L-38.1 -22Z" stroke="#cae9f9" fill="none" stroke-width="1"></path></g><g transform="translate(1254 880)"><path d="M0 -37L32 -18.5L32 18.5L0 37L-32 18.5L-32 -18.5Z" stroke="#cae9f9" fill="none" stroke-width="1"></path></g></g></svg>