<svg id="visual" viewBox="0 0 1920 1080" width="1920" height="1080" xmlns="http://www.w3.org/2000/svg" xmlns:xlink="http://www.w3.org/1999/xlink" version="1.1"><g stroke-width="1" stroke-linejoin="bevel"><path d="M838.7 586.1L763.2 636.1L909.7 718.4Z" fill="#d7d7f5" stroke="#d7d7f5"></path><path d="M763.2 636.1L690.2 713.4L909.7 718.4Z" fill="#c4c3ea" stroke="#c4c3ea"></path><path d="M1079.3 453.9L817.7 463.9L838.7 586.1Z" fill="#9f9dd5" stroke="#9f9dd5"></path><path d="M838.7 586.1L817.7 463.9L763.2 636.1Z" fill="#b2b0e0" stroke="#b2b0e0"></path><path d="M763.2 636.1L651.2 486.9L690.2 713.4Z" fill="#8d8aca" stroke="#8d8aca"></path><path d="M817.7 463.9L651.2 486.9L763.2 636.1Z" fill="#9f9dd5" stroke="#9f9dd5"></path><path d="M671.2 915.7L926.7 920.7L909.7 718.4Z" fill="#c4c3ea" stroke="#c4c3ea"></path><path d="M926.7 920.7L1083.3 778.4L909.7 718.4Z" fill="#6965b4" stroke="#6965b4"></path><path d="M909.7 718.4L1089.3 574.1L838.7 586.1Z" fill="#43429d" stroke="#43429d"></path><path d="M1083.3 778.4L1089.3 574.1L909.7 718.4Z" fill="#ebebff" stroke="#ebebff"></path><path d="M522.6 870.7L671.2 915.7L690.2 713.4Z" fill="#2e3192" stroke="#2e3192"></path><path d="M690.2 713.4L671.2 915.7L909.7 718.4Z" fill="#8d8aca" stroke="#8d8aca"></path><path d="M521.6 616.1L534.6 706.4L690.2 713.4Z" fill="#c4c3ea" stroke="#c4c3ea"></path><path d="M1089.3 574.1L1079.3 453.9L838.7 586.1Z" fill="#6965b4" stroke="#6965b4"></path><path d="M651.2 486.9L521.6 616.1L690.2 713.4Z" fill="#9f9dd5" stroke="#9f9dd5"></path><path d="M926.7 920.7L1099.3 915.7L1083.3 778.4Z" fill="#2e3192" stroke="#2e3192"></path><path d="M1083.3 778.4L1201.8 615.1L1089.3 574.1Z" fill="#b2b0e0" stroke="#b2b0e0"></path><path d="M1008.3 282.6L824.7 306.6L817.7 463.9Z" fill="#d7d7f5" stroke="#d7d7f5"></path><path d="M817.7 463.9L699.2 278.6L651.2 486.9Z" fill="#43429d" stroke="#43429d"></path><path d="M651.2 486.9L508.6 488.9L521.6 616.1Z" fill="#ebebff" stroke="#ebebff"></path><path d="M1253.8 739.4L1201.8 615.1L1083.3 778.4Z" fill="#2e3192" stroke="#2e3192"></path><path d="M1089.3 574.1L1211.8 418.9L1079.3 453.9Z" fill="#d7d7f5" stroke="#d7d7f5"></path><path d="M353.1 788.4L522.6 870.7L534.6 706.4Z" fill="#9f9dd5" stroke="#9f9dd5"></path><path d="M534.6 706.4L522.6 870.7L690.2 713.4Z" fill="#c4c3ea" stroke="#c4c3ea"></path><path d="M546.6 284.6L508.6 488.9L651.2 486.9Z" fill="#5753a9" stroke="#5753a9"></path><path d="M521.6 616.1L354.1 599.1L534.6 706.4Z" fill="#6965b4" stroke="#6965b4"></path><path d="M653.2 1080L832.7 1080L671.2 915.7Z" fill="#9f9dd5" stroke="#9f9dd5"></path><path d="M671.2 915.7L832.7 1080L926.7 920.7Z" fill="#7b77bf" stroke="#7b77bf"></path><path d="M926.7 920.7L1062.3 1080L1099.3 915.7Z" fill="#43429d" stroke="#43429d"></path><path d="M824.7 306.6L699.2 278.6L817.7 463.9Z" fill="#43429d" stroke="#43429d"></path><path d="M1099.3 915.7L1253.8 739.4L1083.3 778.4Z" fill="#c4c3ea" stroke="#c4c3ea"></path><path d="M1211.8 418.9L1008.3 282.6L1079.3 453.9Z" fill="#43429d" stroke="#43429d"></path><path d="M1079.3 453.9L1008.3 282.6L817.7 463.9Z" fill="#b2b0e0" stroke="#b2b0e0"></path><path d="M824.7 306.6L861.7 183.3L699.2 278.6Z" fill="#43429d" stroke="#43429d"></path><path d="M1201.8 615.1L1211.8 418.9L1089.3 574.1Z" fill="#ebebff" stroke="#ebebff"></path><path d="M1355.4 608.1L1211.8 418.9L1201.8 615.1Z" fill="#d7d7f5" stroke="#d7d7f5"></path><path d="M530.6 1080L653.2 1080L671.2 915.7Z" fill="#5753a9" stroke="#5753a9"></path><path d="M832.7 1080L1062.3 1080L926.7 920.7Z" fill="#8d8aca" stroke="#8d8aca"></path><path d="M1099.3 915.7L1216.8 984.7L1253.8 739.4Z" fill="#5753a9" stroke="#5753a9"></path><path d="M699.2 278.6L546.6 284.6L651.2 486.9Z" fill="#b2b0e0" stroke="#b2b0e0"></path><path d="M1034.3 128.3L861.7 183.3L1008.3 282.6Z" fill="#8d8aca" stroke="#8d8aca"></path><path d="M1008.3 282.6L861.7 183.3L824.7 306.6Z" fill="#43429d" stroke="#43429d"></path><path d="M699.2 278.6L633.2 205.3L546.6 284.6Z" fill="#b2b0e0" stroke="#b2b0e0"></path><path d="M1160.8 1080L1216.8 984.7L1099.3 915.7Z" fill="#d7d7f5" stroke="#d7d7f5"></path><path d="M335.1 433.9L354.1 599.1L508.6 488.9Z" fill="#6965b4" stroke="#6965b4"></path><path d="M508.6 488.9L354.1 599.1L521.6 616.1Z" fill="#6965b4" stroke="#6965b4"></path><path d="M354.1 599.1L353.1 788.4L534.6 706.4Z" fill="#2e3192" stroke="#2e3192"></path><path d="M522.6 870.7L530.6 1080L671.2 915.7Z" fill="#8d8aca" stroke="#8d8aca"></path><path d="M861.7 183.3L633.2 205.3L699.2 278.6Z" fill="#ebebff" stroke="#ebebff"></path><path d="M402.1 980.7L530.6 1080L522.6 870.7Z" fill="#c4c3ea" stroke="#c4c3ea"></path><path d="M1422.4 752.4L1355.4 608.1L1253.8 739.4Z" fill="#b2b0e0" stroke="#b2b0e0"></path><path d="M1253.8 739.4L1355.4 608.1L1201.8 615.1Z" fill="#6965b4" stroke="#6965b4"></path><path d="M1062.3 1080L1160.8 1080L1099.3 915.7Z" fill="#d7d7f5" stroke="#d7d7f5"></path><path d="M353.1 788.4L402.1 980.7L522.6 870.7Z" fill="#5753a9" stroke="#5753a9"></path><path d="M1429.4 459.9L1255.8 301.6L1211.8 418.9Z" fill="#5753a9" stroke="#5753a9"></path><path d="M1211.8 418.9L1255.8 301.6L1008.3 282.6Z" fill="#6965b4" stroke="#6965b4"></path><path d="M546.6 284.6L335.1 433.9L508.6 488.9Z" fill="#6965b4" stroke="#6965b4"></path><path d="M354.1 599.1L206.5 593.1L353.1 788.4Z" fill="#2e3192" stroke="#2e3192"></path><path d="M312.1 242.6L335.1 433.9L546.6 284.6Z" fill="#7b77bf" stroke="#7b77bf"></path><path d="M1240.8 214.3L1034.3 128.3L1008.3 282.6Z" fill="#5753a9" stroke="#5753a9"></path><path d="M581.6 0L539.6 93.3L633.2 205.3Z" fill="#ebebff" stroke="#ebebff"></path><path d="M1376.4 935.7L1253.8 739.4L1216.8 984.7Z" fill="#7b77bf" stroke="#7b77bf"></path><path d="M1376.4 935.7L1422.4 752.4L1253.8 739.4Z" fill="#c4c3ea" stroke="#c4c3ea"></path><path d="M1381.4 250.6L1240.8 214.3L1255.8 301.6Z" fill="#5753a9" stroke="#5753a9"></path><path d="M1393.4 1080L1376.4 935.7L1216.8 984.7Z" fill="#6965b4" stroke="#6965b4"></path><path d="M1429.4 459.9L1211.8 418.9L1355.4 608.1Z" fill="#d7d7f5" stroke="#d7d7f5"></path><path d="M1255.8 301.6L1240.8 214.3L1008.3 282.6Z" fill="#7b77bf" stroke="#7b77bf"></path><path d="M1516.9 665.1L1429.4 459.9L1355.4 608.1Z" fill="#c4c3ea" stroke="#c4c3ea"></path><path d="M335.1 433.9L206.5 593.1L354.1 599.1Z" fill="#5753a9" stroke="#5753a9"></path><path d="M141.5 959.7L349.1 1080L402.1 980.7Z" fill="#ebebff" stroke="#ebebff"></path><path d="M141.5 959.7L402.1 980.7L353.1 788.4Z" fill="#7b77bf" stroke="#7b77bf"></path><path d="M402.1 980.7L349.1 1080L530.6 1080Z" fill="#6965b4" stroke="#6965b4"></path><path d="M759.2 0L633.2 205.3L861.7 183.3Z" fill="#c4c3ea" stroke="#c4c3ea"></path><path d="M633.2 205.3L539.6 93.3L546.6 284.6Z" fill="#8d8aca" stroke="#8d8aca"></path><path d="M335.1 433.9L195.5 453.9L206.5 593.1Z" fill="#8d8aca" stroke="#8d8aca"></path><path d="M1105.3 0L842.7 0L1034.3 128.3Z" fill="#8d8aca" stroke="#8d8aca"></path><path d="M1034.3 128.3L842.7 0L861.7 183.3Z" fill="#7b77bf" stroke="#7b77bf"></path><path d="M842.7 0L759.2 0L861.7 183.3Z" fill="#7b77bf" stroke="#7b77bf"></path><path d="M1422.4 752.4L1516.9 665.1L1355.4 608.1Z" fill="#6965b4" stroke="#6965b4"></path><path d="M1560.9 805.4L1516.9 665.1L1422.4 752.4Z" fill="#d7d7f5" stroke="#d7d7f5"></path><path d="M539.6 93.3L312.1 242.6L546.6 284.6Z" fill="#6965b4" stroke="#6965b4"></path><path d="M200.5 294.6L195.5 453.9L335.1 433.9Z" fill="#c4c3ea" stroke="#c4c3ea"></path><path d="M0 666.1L162.5 764.4L206.5 593.1Z" fill="#ebebff" stroke="#ebebff"></path><path d="M206.5 593.1L162.5 764.4L353.1 788.4Z" fill="#c4c3ea" stroke="#c4c3ea"></path><path d="M1429.4 459.9L1381.4 250.6L1255.8 301.6Z" fill="#8d8aca" stroke="#8d8aca"></path><path d="M1240.8 214.3L1105.3 0L1034.3 128.3Z" fill="#43429d" stroke="#43429d"></path><path d="M1561.9 344.6L1381.4 250.6L1429.4 459.9Z" fill="#ebebff" stroke="#ebebff"></path><path d="M1160.8 1080L1393.4 1080L1216.8 984.7Z" fill="#8d8aca" stroke="#8d8aca"></path><path d="M1536.9 921.7L1560.9 805.4L1422.4 752.4Z" fill="#ebebff" stroke="#ebebff"></path><path d="M539.6 93.3L284.1 185.3L312.1 242.6Z" fill="#b2b0e0" stroke="#b2b0e0"></path><path d="M759.2 0L581.6 0L633.2 205.3Z" fill="#7b77bf" stroke="#7b77bf"></path><path d="M1224.8 0L1105.3 0L1240.8 214.3Z" fill="#7b77bf" stroke="#7b77bf"></path><path d="M1536.9 921.7L1422.4 752.4L1376.4 935.7Z" fill="#7b77bf" stroke="#7b77bf"></path><path d="M334.1 0L284.1 185.3L539.6 93.3Z" fill="#ebebff" stroke="#ebebff"></path><path d="M312.1 242.6L200.5 294.6L335.1 433.9Z" fill="#6965b4" stroke="#6965b4"></path><path d="M1393.4 1080L1536.9 921.7L1376.4 935.7Z" fill="#43429d" stroke="#43429d"></path><path d="M223.5 199.3L200.5 294.6L312.1 242.6Z" fill="#6965b4" stroke="#6965b4"></path><path d="M0 465.9L0 666.1L206.5 593.1Z" fill="#7b77bf" stroke="#7b77bf"></path><path d="M1552.9 165.3L1367.4 131.3L1381.4 250.6Z" fill="#9f9dd5" stroke="#9f9dd5"></path><path d="M1381.4 250.6L1367.4 131.3L1240.8 214.3Z" fill="#43429d" stroke="#43429d"></path><path d="M1561.9 344.6L1429.4 459.9L1630.9 408.9Z" fill="#ebebff" stroke="#ebebff"></path><path d="M126.5 1080L141.5 959.7L0 1080Z" fill="#7b77bf" stroke="#7b77bf"></path><path d="M162.5 764.4L141.5 959.7L353.1 788.4Z" fill="#5753a9" stroke="#5753a9"></path><path d="M1367.4 131.3L1224.8 0L1240.8 214.3Z" fill="#b2b0e0" stroke="#b2b0e0"></path><path d="M188.5 0L223.5 199.3L284.1 185.3Z" fill="#7b77bf" stroke="#7b77bf"></path><path d="M284.1 185.3L223.5 199.3L312.1 242.6Z" fill="#c4c3ea" stroke="#c4c3ea"></path><path d="M1630.9 408.9L1429.4 459.9L1516.9 665.1Z" fill="#5753a9" stroke="#5753a9"></path><path d="M0 912.7L141.5 959.7L162.5 764.4Z" fill="#d7d7f5" stroke="#d7d7f5"></path><path d="M141.5 959.7L126.5 1080L349.1 1080Z" fill="#2e3192" stroke="#2e3192"></path><path d="M1698.5 466.9L1630.9 408.9L1516.9 665.1Z" fill="#2e3192" stroke="#2e3192"></path><path d="M1561.9 344.6L1552.9 165.3L1381.4 250.6Z" fill="#7b77bf" stroke="#7b77bf"></path><path d="M581.6 0L334.1 0L539.6 93.3Z" fill="#43429d" stroke="#43429d"></path><path d="M0 465.9L195.5 453.9L200.5 294.6Z" fill="#8d8aca" stroke="#8d8aca"></path><path d="M0 465.9L206.5 593.1L195.5 453.9Z" fill="#9f9dd5" stroke="#9f9dd5"></path><path d="M0 666.1L0 705.4L162.5 764.4Z" fill="#d7d7f5" stroke="#d7d7f5"></path><path d="M0 258.6L0 465.9L200.5 294.6Z" fill="#c4c3ea" stroke="#c4c3ea"></path><path d="M0 258.6L200.5 294.6L223.5 199.3Z" fill="#43429d" stroke="#43429d"></path><path d="M1699.5 299.6L1552.9 165.3L1561.9 344.6Z" fill="#7b77bf" stroke="#7b77bf"></path><path d="M1367.4 131.3L1404.4 0L1224.8 0Z" fill="#43429d" stroke="#43429d"></path><path d="M0 705.4L0 912.7L162.5 764.4Z" fill="#b2b0e0" stroke="#b2b0e0"></path><path d="M1552.9 165.3L1404.4 0L1367.4 131.3Z" fill="#43429d" stroke="#43429d"></path><path d="M1728.5 892.7L1719.5 709.4L1560.9 805.4Z" fill="#6965b4" stroke="#6965b4"></path><path d="M1560.9 805.4L1719.5 709.4L1516.9 665.1Z" fill="#8d8aca" stroke="#8d8aca"></path><path d="M1719.5 709.4L1698.5 466.9L1516.9 665.1Z" fill="#8d8aca" stroke="#8d8aca"></path><path d="M1630.9 408.9L1699.5 299.6L1561.9 344.6Z" fill="#2e3192" stroke="#2e3192"></path><path d="M1536.9 921.7L1728.5 892.7L1560.9 805.4Z" fill="#7b77bf" stroke="#7b77bf"></path><path d="M1393.4 1080L1625.9 1080L1536.9 921.7Z" fill="#d7d7f5" stroke="#d7d7f5"></path><path d="M1625.9 1080L1728.5 892.7L1536.9 921.7Z" fill="#43429d" stroke="#43429d"></path><path d="M0 912.7L0 1080L141.5 959.7Z" fill="#d7d7f5" stroke="#d7d7f5"></path><path d="M334.1 0L188.5 0L284.1 185.3Z" fill="#8d8aca" stroke="#8d8aca"></path><path d="M0 135.3L0 258.6L223.5 199.3Z" fill="#6965b4" stroke="#6965b4"></path><path d="M1920 363.6L1699.5 299.6L1698.5 466.9Z" fill="#43429d" stroke="#43429d"></path><path d="M1698.5 466.9L1699.5 299.6L1630.9 408.9Z" fill="#5753a9" stroke="#5753a9"></path><path d="M1552.9 165.3L1599.9 0L1404.4 0Z" fill="#7b77bf" stroke="#7b77bf"></path><path d="M1801.5 598.1L1698.5 466.9L1719.5 709.4Z" fill="#5753a9" stroke="#5753a9"></path><path d="M1920 637.1L1801.5 598.1L1719.5 709.4Z" fill="#b2b0e0" stroke="#b2b0e0"></path><path d="M188.5 0L0 135.3L223.5 199.3Z" fill="#5753a9" stroke="#5753a9"></path><path d="M1625.9 1080L1760.5 1080L1728.5 892.7Z" fill="#d7d7f5" stroke="#d7d7f5"></path><path d="M1920 793.4L1920 637.1L1719.5 709.4Z" fill="#8d8aca" stroke="#8d8aca"></path><path d="M1733.5 105.3L1552.9 165.3L1699.5 299.6Z" fill="#43429d" stroke="#43429d"></path><path d="M1733.5 105.3L1599.9 0L1552.9 165.3Z" fill="#c4c3ea" stroke="#c4c3ea"></path><path d="M1920 99.3L1733.5 105.3L1699.5 299.6Z" fill="#9f9dd5" stroke="#9f9dd5"></path><path d="M188.5 0L0 0L0 135.3Z" fill="#5753a9" stroke="#5753a9"></path><path d="M1920 793.4L1719.5 709.4L1728.5 892.7Z" fill="#d7d7f5" stroke="#d7d7f5"></path><path d="M1801.5 598.1L1920 457.9L1698.5 466.9Z" fill="#d7d7f5" stroke="#d7d7f5"></path><path d="M1920 912.7L1920 793.4L1728.5 892.7Z" fill="#c4c3ea" stroke="#c4c3ea"></path><path d="M1920 637.1L1920 457.9L1801.5 598.1Z" fill="#b2b0e0" stroke="#b2b0e0"></path><path d="M1760.5 1080L1920 912.7L1728.5 892.7Z" fill="#b2b0e0" stroke="#b2b0e0"></path><path d="M1920 457.9L1920 363.6L1698.5 466.9Z" fill="#2e3192" stroke="#2e3192"></path><path d="M1760.5 1080L1920 1080L1920 912.7Z" fill="#c4c3ea" stroke="#c4c3ea"></path><path d="M1733.5 105.3L1799.5 0L1599.9 0Z" fill="#b2b0e0" stroke="#b2b0e0"></path><path d="M1920 99.3L1799.5 0L1733.5 105.3Z" fill="#43429d" stroke="#43429d"></path><path d="M1920 363.6L1920 99.3L1699.5 299.6Z" fill="#b2b0e0" stroke="#b2b0e0"></path><path d="M1920 99.3L1920 0L1799.5 0Z" fill="#7b77bf" stroke="#7b77bf"></path></g></svg>