<?xml version="1.0" encoding="UTF-8"?>
<svg id="Layer_2" data-name="Layer 2" xmlns="http://www.w3.org/2000/svg" viewBox="0 0 1641.81 1353.1">
  <defs>
    <style>
      .cls-1, .cls-2 {
        fill: #2e2b28;
      }

      .cls-3 {
        fill: #2e3192;
        stroke: #2e3192;
      }

      .cls-3, .cls-2 {
        stroke-miterlimit: 10;
        stroke-width: 10px;
      }

      .cls-2 {
        stroke: #2e2b28;
      }
    </style>
  </defs>
  <g id="SECURE">
    <g>
      <path class="cls-2" d="m843.61,217.71c0,4.79-3.88,8.67-8.67,8.67H13.67c-4.79,0-8.67-3.88-8.67-8.67V13.67c0-4.79,3.88-8.67,8.67-8.67h821.26c4.79,0,8.67,3.88,8.67,8.67v204.04ZM22.34,209.04h803.92V22.34H22.34v186.7Z"/>
      <path class="cls-2" d="m843.61,511.53c0,4.79-3.88,8.67-8.67,8.67H13.67c-4.79,0-8.67-3.88-8.67-8.67v-204.04c0-4.79,3.88-8.67,8.67-8.67h821.26c4.79,0,8.67,3.88,8.67,8.67v204.04Zm-821.26-8.67h803.92v-186.7H22.34v186.7Z"/>
      <path class="cls-2" d="m843.61,805.35c0,4.79-3.88,8.67-8.67,8.67H13.67c-4.79,0-8.67-3.88-8.67-8.67v-205.06c0-4.79,3.88-8.67,8.67-8.67h821.26c4.79,0,8.67,3.88,8.67,8.67v205.06Zm-821.26-8.67h803.92v-187.72H22.34v187.72Z"/>
      <path class="cls-2" d="m13.67,316.67c-4.79,0-8.67-3.88-8.67-8.67v-89.78c0-4.79,3.88-8.67,8.67-8.67s8.67,3.88,8.67,8.67v89.78c0,4.79-3.88,8.67-8.67,8.67Z"/>
      <path class="cls-2" d="m13.67,609.47c-4.79,0-8.67-3.88-8.67-8.67v-88.76c0-4.79,3.88-8.67,8.67-8.67s8.67,3.88,8.67,8.67v88.76c0,4.79-3.88,8.67-8.67,8.67Z"/>
      <path class="cls-3" d="m771.84,156.76c-22.64,0-41.06-18.42-41.06-41.06s18.42-41.06,41.06-41.06,41.06,18.42,41.06,41.06-18.42,41.06-41.06,41.06Zm0-64.78c-13.08,0-23.72,10.64-23.72,23.72s10.64,23.72,23.72,23.72,23.72-10.64,23.72-23.72-10.64-23.72-23.72-23.72Z"/>
      <path class="cls-3" d="m771.84,450.57c-22.64,0-41.06-18.42-41.06-41.06s18.42-41.06,41.06-41.06,41.06,18.42,41.06,41.06-18.42,41.06-41.06,41.06Zm0-64.78c-13.08,0-23.72,10.64-23.72,23.72s10.64,23.72,23.72,23.72,23.72-10.64,23.72-23.72-10.64-23.72-23.72-23.72Z"/>
      <path class="cls-3" d="m771.84,743.88c-22.64,0-41.06-18.42-41.06-41.06s18.42-41.06,41.06-41.06,41.06,18.42,41.06,41.06-18.42,41.06-41.06,41.06Zm0-64.78c-13.08,0-23.72,10.64-23.72,23.72s10.64,23.72,23.72,23.72,23.72-10.64,23.72-23.72-10.64-23.72-23.72-23.72Z"/>
      <path class="cls-3" d="m69.78,163.64c-4.79,0-8.67-3.88-8.67-8.67V55.5c0-4.79,3.88-8.67,8.67-8.67h132.12c4.79,0,8.67,3.88,8.67,8.67s-3.88,8.67-8.67,8.67h-123.44v90.8c0,4.79-3.88,8.67-8.67,8.67Z"/>
      <path class="cls-2" d="m69.78,459.5c-4.79,0-8.67-3.88-8.67-8.67v-82.64c0-4.79,3.88-8.67,8.67-8.67s8.67,3.88,8.67,8.67v82.64c0,4.79-3.88,8.67-8.67,8.67Z"/>
      <path class="cls-3" d="m339.63,761.99H69.78c-4.79,0-8.67-3.88-8.67-8.67v-83.15c0-4.79,3.88-8.67,8.67-8.67s8.67,3.88,8.67,8.67v74.47h261.17c4.79,0,8.67,3.88,8.67,8.67s-3.88,8.67-8.67,8.67Z"/>
      <path class="cls-2" d="m672.21,712h-171.39c-4.79,0-8.67-3.88-8.67-8.67s3.88-8.67,8.67-8.67h171.39c4.79,0,8.67,3.88,8.67,8.67s-3.88,8.67-8.67,8.67Z"/>
      <path class="cls-2" d="m672.21,418.18h-171.39c-4.79,0-8.67-3.88-8.67-8.67s3.88-8.67,8.67-8.67h171.39c4.79,0,8.67,3.88,8.67,8.67s-3.88,8.67-8.67,8.67Z"/>
      <path class="cls-2" d="m672.21,124.36h-171.39c-4.79,0-8.67-3.88-8.67-8.67s3.88-8.67,8.67-8.67h171.39c4.79,0,8.67,3.88,8.67,8.67s-3.88,8.67-8.67,8.67Z"/>
      <g>
        <g>
          <path class="cls-3" d="m1097.64,1181.8c0,4.79-3.88,8.67-8.67,8.67h-77.54c-4.79,0-8.67-3.88-8.67-8.67v-76.52c0-4.79,3.88-8.67,8.67-8.67h77.54c4.79,0,8.67,3.88,8.67,8.67v76.52Zm-77.54-8.67h60.19v-59.17h-60.19v59.17Z"/>
          <path class="cls-3" d="m1050.2,1103.25c-4.79,0-8.67-3.88-8.67-8.67v-72.94c0-4.79,3.88-8.67,8.67-8.67h134.16c4.79,0,8.67,3.88,8.67,8.67s-3.88,8.67-8.67,8.67h-125.49v64.27c0,4.79-3.88,8.67-8.67,8.67Z"/>
          <path class="cls-3" d="m1239.44,1045.1c0,4.79-3.88,8.67-8.67,8.67h-43.87c-4.79,0-8.67-3.88-8.67-8.67v-45.91c0-4.79,3.88-8.67,8.67-8.67h43.87c4.79,0,8.67,3.88,8.67,8.67v45.91Zm-43.87-8.67h26.53v-28.57h-26.53v28.57Z"/>
          <path class="cls-3" d="m1184.35,1271.07h-134.16c-4.79,0-8.67-3.88-8.67-8.67v-73.96c0-4.79,3.88-8.67,8.67-8.67s8.67,3.88,8.67,8.67v65.29h125.49c4.79,0,8.67,3.88,8.67,8.67s-3.88,8.67-8.67,8.67Z"/>
          <path class="cls-3" d="m1583.25,1181.8c0,4.79-3.88,8.67-8.67,8.67h-78.56c-4.79,0-8.67-3.88-8.67-8.67v-76.52c0-4.79,3.88-8.67,8.67-8.67h78.56c4.79,0,8.67,3.88,8.67,8.67v76.52Zm-78.56-8.67h61.21v-59.17h-61.21v59.17Z"/>
          <path class="cls-3" d="m1534.79,1103.25c-4.79,0-8.67-3.88-8.67-8.67v-64.27h-126.5c-4.79,0-8.67-3.88-8.67-8.67s3.88-8.67,8.67-8.67h135.18c4.79,0,8.67,3.88,8.67,8.67v72.94c0,4.79-3.88,8.67-8.67,8.67Z"/>
          <path class="cls-3" d="m1534.79,1271.07h-135.18c-4.79,0-8.67-3.88-8.67-8.67s3.88-8.67,8.67-8.67h126.5v-65.29c0-4.79,3.88-8.67,8.67-8.67s8.67,3.88,8.67,8.67v73.96c0,4.79-3.88,8.67-8.67,8.67Z"/>
          <path class="cls-3" d="m1239.44,1285.86c0,4.79-3.88,8.67-8.67,8.67h-43.87c-4.79,0-8.67-3.88-8.67-8.67v-46.93c0-4.79,3.88-8.67,8.67-8.67h43.87c4.79,0,8.67,3.88,8.67,8.67v46.93Zm-43.87-8.67h26.53v-29.59h-26.53v29.59Z"/>
          <path class="cls-3" d="m1239.44,1165.48c0,4.79-3.88,8.67-8.67,8.67h-43.87c-4.79,0-8.67-3.88-8.67-8.67v-44.89c0-4.79,3.88-8.67,8.67-8.67h43.87c4.79,0,8.67,3.88,8.67,8.67v44.89Zm-43.87-8.67h26.53v-27.55h-26.53v27.55Z"/>
          <path class="cls-3" d="m1406.76,1043.06c0,4.79-3.88,8.67-8.67,8.67h-45.91c-4.79,0-8.67-3.88-8.67-8.67v-43.87c0-4.79,3.88-8.67,8.67-8.67h45.91c4.79,0,8.67,3.88,8.67,8.67v43.87Zm-45.91-8.67h28.57v-26.53h-28.57v26.53Z"/>
          <path class="cls-3" d="m1406.76,1285.86c0,4.79-3.88,8.67-8.67,8.67h-45.91c-4.79,0-8.67-3.88-8.67-8.67v-46.93c0-4.79,3.88-8.67,8.67-8.67h45.91c4.79,0,8.67,3.88,8.67,8.67v46.93Zm-45.91-8.67h28.57v-29.59h-28.57v29.59Z"/>
          <path class="cls-3" d="m1346.57,1030.3h-112.22c-4.79,0-8.67-3.88-8.67-8.67s3.88-8.67,8.67-8.67h112.22c4.79,0,8.67,3.88,8.67,8.67s-3.88,8.67-8.67,8.67Z"/>
          <path class="cls-3" d="m1346.57,1270.05h-112.22c-4.79,0-8.67-3.88-8.67-8.67s3.88-8.67,8.67-8.67h112.22c4.79,0,8.67,3.88,8.67,8.67s-3.88,8.67-8.67,8.67Z"/>
          <path class="cls-3" d="m1209.35,1123.65c-4.79,0-8.67-3.88-8.67-8.67v-69.37c0-4.79,3.88-8.67,8.67-8.67s8.67,3.88,8.67,8.67v69.37c0,4.79-3.88,8.67-8.67,8.67Z"/>
          <path class="cls-3" d="m1209.35,1245.06c-4.79,0-8.67-3.88-8.67-8.67v-70.39c0-4.79,3.88-8.67,8.67-8.67s8.67,3.88,8.67,8.67v70.39c0,4.79-3.88,8.67-8.67,8.67Z"/>
          <path class="cls-3" d="m1183.33,1151.71h-90.8c-4.79,0-8.67-3.88-8.67-8.67s3.88-8.67,8.67-8.67h90.8c4.79,0,8.67,3.88,8.67,8.67s-3.88,8.67-8.67,8.67Z"/>
          <path class="cls-3" d="m1349.63,1151.71h-113.24c-4.79,0-8.67-3.88-8.67-8.67s3.88-8.67,8.67-8.67h113.24c4.79,0,8.67,3.88,8.67,8.67s-3.88,8.67-8.67,8.67Z"/>
          <path class="cls-3" d="m1406.76,1165.48c0,4.79-3.88,8.67-8.67,8.67h-45.91c-4.79,0-8.67-3.88-8.67-8.67v-44.89c0-4.79,3.88-8.67,8.67-8.67h45.91c4.79,0,8.67,3.88,8.67,8.67v44.89Zm-45.91-8.67h28.57v-27.55h-28.57v27.55Z"/>
          <path class="cls-3" d="m1375.64,1123.65c-4.79,0-8.67-3.88-8.67-8.67v-69.37c0-4.79,3.88-8.67,8.67-8.67s8.67,3.88,8.67,8.67v69.37c0,4.79-3.88,8.67-8.67,8.67Z"/>
          <path class="cls-3" d="m1375.64,1245.06c-4.79,0-8.67-3.88-8.67-8.67v-70.39c0-4.79,3.88-8.67,8.67-8.67s8.67,3.88,8.67,8.67v70.39c0,4.79-3.88,8.67-8.67,8.67Z"/>
          <path class="cls-3" d="m1493.47,1151.71h-90.8c-4.79,0-8.67-3.88-8.67-8.67s3.88-8.67,8.67-8.67h90.8c4.79,0,8.67,3.88,8.67,8.67s-3.88,8.67-8.67,8.67Z"/>
          <path class="cls-3" d="m1628.14,1149.67h-53.05c-4.79,0-8.67-3.88-8.67-8.67s3.88-8.67,8.67-8.67h53.05c4.79,0,8.67,3.88,8.67,8.67s-3.88,8.67-8.67,8.67Z"/>
          <path class="cls-3" d="m1375.64,1347.08c-4.79,0-8.67-3.88-8.67-8.67v-51.01c0-4.79,3.88-8.67,8.67-8.67s8.67,3.88,8.67,8.67v51.01c0,4.79-3.88,8.67-8.67,8.67Z"/>
          <path class="cls-3" d="m1209.35,1348.1c-4.79,0-8.67-3.88-8.67-8.67v-53.05c0-4.79,3.88-8.67,8.67-8.67s8.67,3.88,8.67,8.67v53.05c0,4.79-3.88,8.67-8.67,8.67Z"/>
          <path class="cls-3" d="m1375.64,1002.25c-4.79,0-8.67-3.88-8.67-8.67v-51.01c0-4.79,3.88-8.67,8.67-8.67s8.67,3.88,8.67,8.67v51.01c0,4.79-3.88,8.67-8.67,8.67Z"/>
          <path class="cls-3" d="m1209.35,1003.27c-4.79,0-8.67-3.88-8.67-8.67v-53.05c0-4.79,3.88-8.67,8.67-8.67s8.67,3.88,8.67,8.67v53.05c0,4.79-3.88,8.67-8.67,8.67Z"/>
        </g>
        <path class="cls-3" d="m1009.9,1149.67h-53.05c-4.79,0-8.67-3.88-8.67-8.67s3.88-8.67,8.67-8.67h53.05c4.79,0,8.67,3.88,8.67,8.67s-3.88,8.67-8.67,8.67Z"/>
      </g>
      <g>
        <g>
          <path class="cls-3" d="m1470.2,268.39c-35.58,0-68.03-18.08-86.79-48.37-2.52-4.07-1.27-9.42,2.8-11.94,4.07-2.52,9.42-1.27,11.94,2.81,15.58,25.14,42.51,40.16,72.05,40.16,46.69,0,84.68-37.99,84.68-84.68s-37.99-84.68-84.68-84.68-84.68,37.99-84.68,84.68c0,4.79-3.88,8.67-8.67,8.67s-8.67-3.88-8.67-8.67c0-56.26,45.77-102.02,102.03-102.02s102.02,45.77,102.02,102.02-45.77,102.02-102.02,102.02Z"/>
          <path class="cls-3" d="m1376.67,175.04c-.2,0-.4,0-.6-.02-2.29-.16-4.43-1.23-5.94-2.96l-17.35-19.96c-3.14-3.61-2.76-9.09.86-12.23,3.62-3.14,9.09-2.76,12.23.86l11.67,13.42,13.42-11.67c3.62-3.14,9.09-2.76,12.23.86,3.14,3.61,2.76,9.09-.86,12.23l-19.96,17.35c-1.58,1.38-3.6,2.13-5.69,2.13Z"/>
        </g>
        <path class="cls-3" d="m1473.09,329.14c-88.75,0-160.95-72.22-160.95-161S1384.36,7.19,1473.14,7.19c4.79,0,8.67,3.88,8.67,8.67s-3.88,8.67-8.67,8.67c-79.21,0-143.66,64.42-143.66,143.6s64.42,143.66,143.61,143.66,143.61-64.41,143.61-143.59c0-4.79,3.88-8.67,8.67-8.67s8.67,3.88,8.67,8.67c0,43.12-16.74,83.58-47.14,113.93-30.36,30.31-70.78,47.01-113.81,47.01Z"/>
      </g>
      <path class="cls-2" d="m897.68,1149.67h-473.88c-4.79,0-8.67-3.88-8.67-8.67v-276.98c0-4.79,3.88-8.67,8.67-8.67s8.67,3.88,8.67,8.67v268.31h465.21c4.79,0,8.67,3.88,8.67,8.67s-3.88,8.67-8.67,8.67Z"/>
      <path class="cls-2" d="m1534.79,932.87c-4.79,0-8.67-3.88-8.67-8.67V410.02c0-4.79,3.88-8.67,8.67-8.67s8.67,3.88,8.67,8.67v514.18c0,4.79-3.88,8.67-8.67,8.67Z"/>
      <path class="cls-2" d="m1186.39,175.37h-270.35c-4.79,0-8.67-3.88-8.67-8.67s3.88-8.67,8.67-8.67h270.35c4.79,0,8.67,3.88,8.67,8.67s-3.88,8.67-8.67,8.67Z"/>
      <path class="cls-1" d="m66.08,984.31c-5.93-1.79-9.28-8.05-7.49-13.99h0c1.79-5.93,8.05-9.28,13.99-7.49h0c5.93,1.79,9.28,8.05,7.49,13.99h0c-1.46,4.85-5.92,7.98-10.73,7.98h0c-1.07,0-2.17-.16-3.25-.49Zm28.88-8.41c-2.52-5.66.02-12.29,5.69-14.81h0c5.67-2.52,12.3.03,14.82,5.69h0c2.52,5.66-.03,12.29-5.69,14.81h0c-1.49.66-3.03.97-4.56.97h0c-4.3,0-8.4-2.48-10.25-6.66Zm-63.72-18.08c-3.33-5.23-1.78-12.16,3.46-15.49h0c5.22-3.33,12.16-1.77,15.49,3.46h0c3.32,5.23,1.77,12.16-3.46,15.49h0c-1.87,1.18-3.95,1.75-6.01,1.75h0c-3.71,0-7.35-1.85-9.48-5.21Zm94.89-1.47c-5.61-2.64-8-9.34-5.36-14.94h0c2.65-5.61,9.35-8,14.95-5.36h0c5.6,2.65,8,9.35,5.35,14.95h0c-1.92,4.05-5.95,6.43-10.15,6.43h0c-1.6,0-3.24-.35-4.79-1.08Zm-94.51-28.61c-6.13-.9-10.37-6.6-9.47-12.73h0c.9-6.13,6.6-10.38,12.73-9.48h0c6.13.9,10.38,6.6,9.48,12.73h0c-.83,5.58-5.62,9.6-11.09,9.6h0c-.55,0-1.09-.04-1.65-.12Zm91.54-14.35c-1.65-5.98,1.85-12.16,7.81-13.81h0c5.98-1.65,12.16,1.85,13.81,7.81h0c1.65,5.98-1.85,12.16-7.81,13.81h0c-1,.28-2.01.41-3,.41h0c-4.93,0-9.44-3.25-10.81-8.22Zm-81.07-20.9c-4.06-4.69-3.54-11.78,1.15-15.83h0c4.69-4.05,11.78-3.53,15.83,1.16h0c4.05,4.68,3.53,11.77-1.16,15.82h0c-2.12,1.84-4.73,2.73-7.32,2.73h0c-3.15,0-6.28-1.32-8.5-3.89Zm64.56-1.88c-5.16-3.44-6.55-10.41-3.1-15.56h0c3.44-5.16,10.41-6.55,15.57-3.1h0c5.15,3.44,6.54,10.42,3.09,15.57h0c-2.16,3.23-5.71,4.99-9.34,4.99h0c-2.14,0-4.31-.61-6.22-1.9Zm-33.61-17.99c0-6.19,5.03-11.22,11.22-11.22h0c6.2,0,11.22,5.03,11.22,11.22h0c0,6.2-5.02,11.22-11.22,11.22h0c-6.19,0-11.22-5.02-11.22-11.22Z"/>
      <path class="cls-1" d="m590.97,1332.76c-5.93-1.8-9.28-8.06-7.49-14h0c1.79-5.93,8.05-9.28,13.99-7.49h0c5.93,1.8,9.28,8.06,7.49,13.99h0c-1.46,4.85-5.92,7.98-10.73,7.98h0c-1.08,0-2.17-.15-3.25-.48Zm28.88-8.42c-2.52-5.66.02-12.29,5.69-14.81h0c5.66-2.52,12.29.03,14.81,5.69h0c2.52,5.66-.03,12.3-5.69,14.81h0c-1.49.66-3.03.98-4.56.98h0c-4.3,0-8.4-2.49-10.25-6.67Zm-63.72-18.07h0c-3.33-5.23-1.78-12.17,3.45-15.5h0c5.23-3.32,12.17-1.78,15.5,3.46h0c3.32,5.23,1.77,12.17-3.46,15.49h0c-1.87,1.19-3.95,1.76-6.01,1.76h0c-3.71,0-7.35-1.84-9.48-5.2Zm94.89-1.47c-5.61-2.65-8-9.35-5.36-14.95h0c2.65-5.6,9.35-8,14.95-5.35h0c5.6,2.64,8,9.33,5.35,14.94h0c-1.92,4.06-5.95,6.44-10.15,6.44h0c-1.61,0-3.24-.35-4.79-1.08Zm-94.5-28.62c-6.14-.9-10.38-6.6-9.48-12.73h0c.9-6.13,6.6-10.38,12.73-9.47h0c6.13.9,10.38,6.6,9.47,12.73h.01c-.83,5.58-5.61,9.59-11.09,9.59h0c-.54,0-1.09-.04-1.64-.12Zm91.53-14.35h0c-1.65-5.97,1.85-12.15,7.81-13.81h0c5.98-1.65,12.16,1.85,13.81,7.81h0c1.65,5.98-1.85,12.16-7.81,13.81h0c-1,.28-2.01.41-3,.41h0c-4.92,0-9.44-3.25-10.81-8.22Zm-81.07-20.9c-4.06-4.69-3.54-11.77,1.15-15.82h0c4.69-4.05,11.78-3.54,15.83,1.15h0c4.05,4.69,3.53,11.78-1.16,15.83h0c-2.12,1.83-4.73,2.72-7.32,2.72h0c-3.15,0-6.28-1.32-8.5-3.89Zm64.55-1.87h0c-5.16-3.45-6.55-10.42-3.1-15.57h0c3.44-5.15,10.41-6.54,15.56-3.1h0c5.15,3.45,6.54,10.42,3.09,15.57h0c-2.16,3.23-5.72,4.99-9.35,4.99h0c-2.14,0-4.3-.61-6.22-1.89Zm-33.6-18c0-6.19,5.03-11.21,11.22-11.21h0c6.2,0,11.22,5.02,11.22,11.21h0c0,6.2-5.02,11.22-11.22,11.22h0c-6.19.01-11.22-5.02-11.22-11.22Z"/>
      <path class="cls-1" d="m1059.68,410.96c-5.93-1.79-9.28-8.05-7.5-13.99h0c1.8-5.93,8.06-9.28,14-7.5h0c5.93,1.8,9.28,8.06,7.49,14h0c-1.46,4.85-5.92,7.98-10.73,7.98h0c-1.08,0-2.17-.16-3.25-.49Zm28.87-8.41c-2.52-5.66.03-12.29,5.69-14.81h0c5.66-2.52,12.29.03,14.81,5.69h0c2.52,5.66-.03,12.29-5.69,14.81h0c-1.48.66-3.03.97-4.55.97h0c-4.3,0-8.4-2.48-10.26-6.66Zm-63.71-18.08c-3.33-5.23-1.79-12.16,3.45-15.49h0c5.23-3.33,12.17-1.77,15.5,3.46h0c3.32,5.22,1.78,12.16-3.46,15.49h0c-1.87,1.18-3.95,1.75-6.01,1.75h0c-3.71,0-7.35-1.85-9.48-5.21Zm94.88-1.47c-5.6-2.64-8-9.34-5.35-14.94h0c2.65-5.6,9.34-8,14.95-5.36h0c5.6,2.65,8,9.35,5.35,14.95h0c-1.92,4.05-5.95,6.43-10.15,6.43h0c-1.61,0-3.24-.35-4.8-1.08Zm-94.5-28.61c-6.13-.9-10.38-6.6-9.47-12.73h0c.9-6.13,6.6-10.38,12.73-9.48h0c6.13.9,10.37,6.6,9.47,12.73h0c-.82,5.58-5.61,9.6-11.08,9.6h0c-.55,0-1.09-.04-1.65-.12Zm91.54-14.35c-1.66-5.98,1.85-12.16,7.81-13.81h0c5.98-1.65,12.16,1.85,13.81,7.81h0c1.65,5.98-1.85,12.16-7.82,13.81h0c-1,.28-2,.41-3,.41h0c-4.92,0-9.43-3.25-10.8-8.22Zm-81.08-20.9c-4.05-4.69-3.53-11.78,1.16-15.83h0c4.69-4.05,11.77-3.53,15.82,1.16h0c4.05,4.69,3.54,11.77-1.15,15.82h0c-2.12,1.84-4.73,2.73-7.34,2.73h0c-3.14,0-6.27-1.32-8.5-3.89Zm64.56-1.88c-5.15-3.44-6.54-10.41-3.09-15.56h0c3.44-5.16,10.41-6.55,15.56-3.1h0c5.15,3.44,6.54,10.41,3.1,15.57h0c-2.16,3.23-5.72,4.99-9.35,4.99h0c-2.14,0-4.31-.62-6.22-1.9Zm-33.59-17.99c0-6.2,5.03-11.22,11.22-11.22h0c6.2,0,11.22,5.02,11.22,11.22h0c0,6.2-5.02,11.22-11.22,11.22h0c-6.19,0-11.22-5.02-11.22-11.22Z"/>
      <path class="cls-1" d="m837.6,1028.18c-5.93-1.79-9.28-8.05-7.49-13.99h0c1.79-5.93,8.05-9.28,13.99-7.5h0c5.93,1.8,9.28,8.06,7.5,14h0c-1.47,4.85-5.93,7.98-10.74,7.98h0c-1.07,0-2.17-.16-3.25-.49Zm28.88-8.41c-2.52-5.66.03-12.29,5.69-14.81h0c5.66-2.52,12.29.03,14.81,5.69h0c2.52,5.66-.03,12.29-5.69,14.81h0c-1.49.66-3.03.97-4.56.97h0c-4.3,0-8.4-2.48-10.25-6.66Zm-63.72-18.08c-3.33-5.23-1.78-12.16,3.46-15.49h0c5.22-3.33,12.16-1.77,15.49,3.46h0c3.32,5.22,1.77,12.16-3.46,15.49h0c-1.87,1.18-3.95,1.75-6.01,1.75h0c-3.7,0-7.35-1.85-9.48-5.21Zm94.89-1.47c-5.6-2.64-8-9.34-5.36-14.94h0c2.65-5.61,9.35-8,14.95-5.36h0c5.6,2.65,8,9.35,5.35,14.95h0c-1.91,4.05-5.95,6.43-10.15,6.43h0c-1.6,0-3.23-.35-4.79-1.08Zm-94.5-28.61c-6.14-.9-10.38-6.6-9.48-12.73h0c.9-6.13,6.6-10.38,12.73-9.48h0c6.13.9,10.38,6.6,9.48,12.73h0c-.83,5.58-5.62,9.6-11.09,9.6h0c-.54,0-1.09-.04-1.64-.12Zm91.53-14.35c-1.65-5.98,1.85-12.16,7.81-13.81h0c5.98-1.65,12.16,1.85,13.81,7.81h0c1.65,5.98-1.85,12.16-7.81,13.81h0c-1,.28-2.01.41-3,.41h0c-4.92,0-9.44-3.25-10.81-8.22Zm-81.07-20.9c-4.05-4.69-3.54-11.78,1.15-15.83h0c4.69-4.05,11.78-3.53,15.83,1.16h0c4.05,4.68,3.53,11.77-1.16,15.82h0c-2.12,1.84-4.73,2.73-7.32,2.73h0c-3.15,0-6.28-1.32-8.5-3.89Zm64.56-1.88c-5.16-3.44-6.55-10.41-3.1-15.56h0c3.44-5.16,10.41-6.55,15.57-3.1h0c5.15,3.44,6.54,10.41,3.09,15.57h0c-2.16,3.23-5.71,4.99-9.34,4.99h0c-2.14,0-4.31-.61-6.22-1.9Zm-33.61-17.99c0-6.19,5.03-11.22,11.23-11.22h0c6.19,0,11.21,5.03,11.21,11.22h0c0,6.2-5.02,11.22-11.21,11.22h0c-6.2,0-11.23-5.02-11.23-11.22Z"/>
      <path class="cls-1" d="m1274.81,795.32h0c-5.94-1.79-9.28-8.05-7.5-13.99h0c1.8-5.93,8.06-9.28,14-7.5h0c5.93,1.8,9.28,8.06,7.49,14h0c-1.46,4.85-5.92,7.98-10.73,7.98h0c-1.08,0-2.17-.16-3.25-.49Zm28.87-8.41c-2.52-5.66.03-12.29,5.69-14.81h0c5.66-2.52,12.29.03,14.81,5.69h0c2.51,5.66-.03,12.29-5.7,14.81h.01c-1.49.66-3.03.97-4.56.97h0c-4.3,0-8.4-2.48-10.26-6.66Zm-63.71-18.08c-3.33-5.23-1.79-12.16,3.45-15.49h0c5.23-3.33,12.17-1.77,15.5,3.46h0c3.32,5.23,1.77,12.16-3.46,15.49h0c-1.87,1.18-3.95,1.75-6.01,1.75h0c-3.71,0-7.35-1.85-9.48-5.21Zm94.88-1.47c-5.6-2.64-7.99-9.34-5.35-14.94h0c2.65-5.6,9.35-8,14.95-5.35h0c5.6,2.64,8,9.34,5.35,14.94h0c-1.92,4.06-5.95,6.43-10.15,6.43h0c-1.61,0-3.24-.35-4.8-1.08Zm-94.5-28.61c-6.13-.9-10.37-6.6-9.47-12.73h0c.9-6.13,6.6-10.38,12.73-9.48h0c6.13.9,10.38,6.6,9.48,12.73h0c-.83,5.58-5.62,9.6-11.1,9.6h0c-.54,0-1.09-.04-1.64-.12Zm91.54-14.35c-1.65-5.98,1.85-12.16,7.81-13.81h0c5.98-1.65,12.16,1.85,13.81,7.81h0c1.65,5.98-1.85,12.16-7.81,13.81h0c-1.01.28-2.01.41-3.01.41h0c-4.92,0-9.43-3.25-10.8-8.22Zm-81.07-20.9c-4.06-4.69-3.54-11.78,1.15-15.83h0c4.69-4.05,11.78-3.53,15.83,1.16h0c4.05,4.68,3.53,11.77-1.16,15.82h0c-2.12,1.84-4.73,2.73-7.33,2.73h0c-3.15,0-6.28-1.33-8.5-3.89Zm64.55-1.88c-5.15-3.44-6.54-10.41-3.09-15.57h0c3.44-5.15,10.41-6.54,15.57-3.09h0c5.14,3.44,6.54,10.41,3.09,15.56h0c-2.16,3.24-5.72,5-9.35,5h0c-2.14,0-4.3-.61-6.22-1.9Zm-33.59-17.99c0-6.19,5.03-11.22,11.22-11.22h0c6.2,0,11.22,5.03,11.22,11.22h0c0,6.2-5.02,11.22-11.22,11.22h0c-6.19,0-11.22-5.02-11.22-11.22Z"/>
      <g>
        <path class="cls-1" d="m313.61,1175.68c-4.79,0-8.67-3.88-8.67-8.67v-53.05c0-4.79,3.88-8.67,8.67-8.67s8.67,3.88,8.67,8.67v53.05c0,4.79-3.88,8.67-8.67,8.67Z"/>
        <path class="cls-1" d="m339.63,1149.67h-53.05c-4.79,0-8.67-3.88-8.67-8.67s3.88-8.67,8.67-8.67h53.05c4.79,0,8.67,3.88,8.67,8.67s-3.88,8.67-8.67,8.67Z"/>
      </g>
      <g>
        <path class="cls-1" d="m1012.45,718.63c-4.79,0-8.67-3.88-8.67-8.67v-53.05c0-4.79,3.88-8.67,8.67-8.67s8.67,3.88,8.67,8.67v53.05c0,4.79-3.88,8.67-8.67,8.67Z"/>
        <path class="cls-1" d="m1038.46,692.62h-53.05c-4.79,0-8.67-3.88-8.67-8.67s3.88-8.67,8.67-8.67h53.05c4.79,0,8.67,3.88,8.67,8.67s-3.88,8.67-8.67,8.67Z"/>
      </g>
      <g>
        <path class="cls-1" d="m1347.08,503.37c-4.79,0-8.67-3.88-8.67-8.67v-53.05c0-4.79,3.88-8.67,8.67-8.67s8.67,3.88,8.67,8.67v53.05c0,4.79-3.88,8.67-8.67,8.67Z"/>
        <path class="cls-1" d="m1373.09,477.35h-53.05c-4.79,0-8.67-3.88-8.67-8.67s3.88-8.67,8.67-8.67h53.05c4.79,0,8.67,3.88,8.67,8.67s-3.88,8.67-8.67,8.67Z"/>
      </g>
      <g>
        <path class="cls-1" d="m1065.5,90.19c-4.79,0-8.67-3.88-8.67-8.67V28.46c0-4.79,3.88-8.67,8.67-8.67s8.67,3.88,8.67,8.67v53.05c0,4.79-3.88,8.67-8.67,8.67Z"/>
        <path class="cls-1" d="m1091.52,64.17h-53.05c-4.79,0-8.67-3.88-8.67-8.67s3.88-8.67,8.67-8.67h53.05c4.79,0,8.67,3.88,8.67,8.67s-3.88,8.67-8.67,8.67Z"/>
      </g>
    </g>
  </g>
</svg>