<?xml version="1.0" encoding="UTF-8"?>
<svg id="Layer_2" data-name="Layer 2" xmlns="http://www.w3.org/2000/svg" viewBox="0 0 1562.36 1338.64">
  <defs>
    <style>
      .cls-1 {
        stroke-width: 10px;
      }

      .cls-1, .cls-2 {
        fill: #2e2b28;
        stroke: #2e2b28;
        stroke-miterlimit: 10;
      }

      .cls-2 {
        stroke-width: 2px;
      }
    </style>
  </defs>
  <g id="DEEP">
    <path class="cls-1" d="m1515.07,1333.64h-891.16c-23.32,0-42.29-18.97-42.29-42.29v-749.93c0-23.32,18.97-42.29,42.29-42.29h891.16c23.32,0,42.29,18.97,42.29,42.29v749.93c0,23.32-18.97,42.29-42.29,42.29Zm-891.16-819.5c-15.05,0-27.29,12.24-27.29,27.29v749.93c0,15.05,12.24,27.29,27.29,27.29h891.16c15.05,0,27.29-12.24,27.29-27.29v-749.93c0-15.05-12.24-27.29-27.29-27.29h-891.16Z"/>
    <path class="cls-1" d="m1467.29,987.91h-804.04c-4.14,0-7.5-3.36-7.5-7.5v-319.55c0-4.14,3.36-7.5,7.5-7.5h804.04c4.14,0,7.5,3.36,7.5,7.5v319.55c0,4.14-3.36,7.5-7.5,7.5Zm-796.54-15h789.04v-304.55h-789.04v304.55Z"/>
    <path class="cls-1" d="m1544.39,596.14h-947c-4.14,0-7.5-3.36-7.5-7.5s3.36-7.5,7.5-7.5h947c4.14,0,7.5,3.36,7.5,7.5s-3.36,7.5-7.5,7.5Z"/>
    <path class="cls-1" d="m793.89,594.64c-4.14,0-7.5-3.36-7.5-7.5v-76c0-4.14,3.36-7.5,7.5-7.5s7.5,3.36,7.5,7.5v76c0,4.14-3.36,7.5-7.5,7.5Z"/>
    <g>
      <path class="cls-2" d="m664.39,557.14h-30c-4.14,0-7.5-3.36-7.5-7.5s3.36-7.5,7.5-7.5h30c4.14,0,7.5,3.36,7.5,7.5s-3.36,7.5-7.5,7.5Z"/>
      <path class="cls-2" d="m748.39,557.14h-30c-4.14,0-7.5-3.36-7.5-7.5s3.36-7.5,7.5-7.5h30c4.14,0,7.5,3.36,7.5,7.5s-3.36,7.5-7.5,7.5Z"/>
    </g>
    <g>
      <path class="cls-2" d="m1311.39,542.14h-489c-4.14,0-7.5-3.36-7.5-7.5s3.36-7.5,7.5-7.5h489c4.14,0,7.5,3.36,7.5,7.5s-3.36,7.5-7.5,7.5Z"/>
      <path class="cls-2" d="m919.39,571.14h-97c-4.14,0-7.5-3.36-7.5-7.5s3.36-7.5,7.5-7.5h97c4.14,0,7.5,3.36,7.5,7.5s-3.36,7.5-7.5,7.5Z"/>
    </g>
    <path class="cls-1" d="m663.99,960.64c-1.92,0-3.84-.73-5.3-2.2-2.93-2.93-2.93-7.68,0-10.61l163.25-163.25c2.93-2.93,7.68-2.93,10.61,0l98.6,98.6,153.32-153.32c2.93-2.93,7.68-2.93,10.61,0l74.52,74.52,112.22-112.22c2.93-2.93,7.68-2.93,10.61,0l117.62,117.62,45.2-45.2c2.93-2.93,7.68-2.93,10.61,0,2.93,2.93,2.93,7.68,0,10.61l-50.5,50.5c-2.93,2.93-7.68,2.93-10.61,0l-117.62-117.62-112.22,112.22c-2.93,2.93-7.68,2.93-10.61,0l-74.52-74.52-153.32,153.32c-2.93,2.93-7.68,2.93-10.61,0l-98.6-98.6-157.95,157.95c-1.46,1.46-3.38,2.2-5.3,2.2Z"/>
    <g>
      <path class="cls-1" d="m822.39,1116.14h-158c-4.14,0-7.5-3.36-7.5-7.5s3.36-7.5,7.5-7.5h158c4.14,0,7.5,3.36,7.5,7.5s-3.36,7.5-7.5,7.5Z"/>
      <path class="cls-1" d="m822.39,1068.14h-158c-4.14,0-7.5-3.36-7.5-7.5s3.36-7.5,7.5-7.5h158c4.14,0,7.5,3.36,7.5,7.5s-3.36,7.5-7.5,7.5Z"/>
      <path class="cls-1" d="m822.39,1164.14h-158c-4.14,0-7.5-3.36-7.5-7.5s3.36-7.5,7.5-7.5h158c4.14,0,7.5,3.36,7.5,7.5s-3.36,7.5-7.5,7.5Z"/>
      <path class="cls-1" d="m822.39,1212.14h-158c-4.14,0-7.5-3.36-7.5-7.5s3.36-7.5,7.5-7.5h158c4.14,0,7.5,3.36,7.5,7.5s-3.36,7.5-7.5,7.5Z"/>
      <path class="cls-1" d="m822.39,1260.14h-158c-4.14,0-7.5-3.36-7.5-7.5s3.36-7.5,7.5-7.5h158c4.14,0,7.5,3.36,7.5,7.5s-3.36,7.5-7.5,7.5Z"/>
    </g>
    <g>
      <path class="cls-1" d="m1148.39,1116.14h-158c-4.14,0-7.5-3.36-7.5-7.5s3.36-7.5,7.5-7.5h158c4.14,0,7.5,3.36,7.5,7.5s-3.36,7.5-7.5,7.5Z"/>
      <path class="cls-1" d="m1148.39,1068.14h-158c-4.14,0-7.5-3.36-7.5-7.5s3.36-7.5,7.5-7.5h158c4.14,0,7.5,3.36,7.5,7.5s-3.36,7.5-7.5,7.5Z"/>
      <path class="cls-1" d="m1148.39,1164.14h-158c-4.14,0-7.5-3.36-7.5-7.5s3.36-7.5,7.5-7.5h158c4.14,0,7.5,3.36,7.5,7.5s-3.36,7.5-7.5,7.5Z"/>
      <path class="cls-1" d="m1148.39,1212.14h-158c-4.14,0-7.5-3.36-7.5-7.5s3.36-7.5,7.5-7.5h158c4.14,0,7.5,3.36,7.5,7.5s-3.36,7.5-7.5,7.5Z"/>
      <path class="cls-1" d="m1148.39,1260.14h-158c-4.14,0-7.5-3.36-7.5-7.5s3.36-7.5,7.5-7.5h158c4.14,0,7.5,3.36,7.5,7.5s-3.36,7.5-7.5,7.5Z"/>
    </g>
    <g>
      <path class="cls-1" d="m1473.39,1116.14h-158c-4.14,0-7.5-3.36-7.5-7.5s3.36-7.5,7.5-7.5h158c4.14,0,7.5,3.36,7.5,7.5s-3.36,7.5-7.5,7.5Z"/>
      <path class="cls-1" d="m1473.39,1068.14h-158c-4.14,0-7.5-3.36-7.5-7.5s3.36-7.5,7.5-7.5h158c4.14,0,7.5,3.36,7.5,7.5s-3.36,7.5-7.5,7.5Z"/>
      <path class="cls-1" d="m1473.39,1164.14h-158c-4.14,0-7.5-3.36-7.5-7.5s3.36-7.5,7.5-7.5h158c4.14,0,7.5,3.36,7.5,7.5s-3.36,7.5-7.5,7.5Z"/>
      <path class="cls-1" d="m1473.39,1212.14h-158c-4.14,0-7.5-3.36-7.5-7.5s3.36-7.5,7.5-7.5h158c4.14,0,7.5,3.36,7.5,7.5s-3.36,7.5-7.5,7.5Z"/>
      <path class="cls-1" d="m1473.39,1260.14h-158c-4.14,0-7.5-3.36-7.5-7.5s3.36-7.5,7.5-7.5h158c4.14,0,7.5,3.36,7.5,7.5s-3.36,7.5-7.5,7.5Z"/>
    </g>
    <path class="cls-1" d="m459.32,224.02c-1.87,0-3.71-.7-5.13-2.03l-29.66-27.81-29.66,27.81c-2.18,2.04-5.37,2.6-8.11,1.41-2.74-1.19-4.52-3.89-4.52-6.88V75.56c0-4.14,3.36-7.5,7.5-7.5s7.5,3.36,7.5,7.5v123.65l22.16-20.77c2.89-2.7,7.37-2.7,10.26,0l22.16,20.77v-123.65c0-4.14,3.36-7.5,7.5-7.5s7.5,3.36,7.5,7.5v140.97c0,2.99-1.78,5.69-4.52,6.88-.96.42-1.97.62-2.98.62Z"/>
    <path class="cls-1" d="m507.29,663.14H36.28c-17.25,0-31.28-14.03-31.28-31.28V49.78c0-4.14,3.36-7.5,7.5-7.5s7.5,3.36,7.5,7.5v582.08c0,8.98,7.31,16.28,16.28,16.28h471c8.98,0,16.28-7.31,16.28-16.28V77.73c0-4.14,3.36-7.5,7.5-7.5s7.5,3.36,7.5,7.5v554.13c0,17.25-14.03,31.28-31.28,31.28Z"/>
    <path class="cls-1" d="m531.07,83.06H44.03c-21.52,0-39.03-17.51-39.03-39.03S22.51,5,44.03,5h487.04c2.69,0,5.17,1.44,6.51,3.77,1.34,2.33,1.32,5.2-.04,7.52-10.94,18.66-10.94,36.81,0,55.47,1.36,2.32,1.37,5.19.04,7.52-1.34,2.33-3.82,3.77-6.51,3.77ZM44.03,20c-13.25,0-24.03,10.78-24.03,24.03s10.78,24.03,24.03,24.03h475.02c-6.34-15.98-6.34-32.07,0-48.06H44.03Z"/>
    <path class="cls-1" d="m513.39,1213.14h-241.5c-4.14,0-7.5-3.36-7.5-7.5v-454.5c0-4.14,3.36-7.5,7.5-7.5s7.5,3.36,7.5,7.5v447h234c4.14,0,7.5,3.36,7.5,7.5s-3.36,7.5-7.5,7.5Z"/>
    <path class="cls-1" d="m1236.89,449.64c-4.14,0-7.5-3.36-7.5-7.5v-218h-561c-4.14,0-7.5-3.36-7.5-7.5s3.36-7.5,7.5-7.5h568.5c4.14,0,7.5,3.36,7.5,7.5v225.5c0,4.14-3.36,7.5-7.5,7.5Z"/>
  </g>
</svg>