<?xml version="1.0" encoding="UTF-8"?>
<svg id="Layer_2" data-name="Layer 2" xmlns="http://www.w3.org/2000/svg" viewBox="0 0 1604.26 1339.57">
  <defs>
    <style>
      .cls-1 {
        fill: #2e2b28;
        stroke: #2e2b28;
        stroke-miterlimit: 10;
        stroke-width: 10px;
      }
    </style>
  </defs>
  <g id="SECURE">
    <g>
      <path class="cls-1" d="m1030.94,453.57c-4.14,0-6.32,3.36-6.32,7.5,0,26.59-40.75,42.86-65.02,50.2-40.12,12.13-94.36,18.8-152.59,18.8s-112.54-6.68-152.67-18.8c-24.27-7.33-65.28-23.61-65.28-50.2,0-4.14-3.96-7.5-8.1-7.5s-8.7,3.36-8.7,7.5v153c0,32.82,27.19,59.95,76.37,78.46,41.63,15.67,98.7,24.29,158.53,24.29s114.5-8.63,156.13-24.29c49.18-18.51,73.97-45.64,73.97-78.46v-153c0-4.14-2.18-7.5-6.32-7.5Zm-8.68,160.5c0,57.61-109.42,87.75-217.5,87.75s-217.5-30.14-217.5-87.75v-120.04c11,11.19,30.56,22.32,61.24,31.6,41.49,12.54,97.8,19.45,157.46,19.45,90.86,0,181.3-16.01,216.3-50.98v119.98Z"/>
      <path class="cls-1" d="m1016.66,424.36c-12.53-8.63-30.38-16.09-53.06-22.16-41.24-11.05-96.62-17.13-155.94-17.13s-114.7,6.08-155.94,17.13c-22.68,6.08-40.53,13.53-53.06,22.16-14.93,10.28-22.5,22.3-22.5,35.71,0,4.14,3.36,7.5,7.5,7.5s7.5-3.36,7.5-7.5c0-16.84,22.89-32.25,64.44-43.38,40.01-10.72,94.01-16.62,152.06-16.62s112.05,5.9,152.06,16.62c41.56,11.13,64.44,26.54,64.44,43.38,0,4.14,3.36,7.5,7.5,7.5s7.5-3.36,7.5-7.5c0-13.41-7.57-25.43-22.5-35.71Z"/>
    </g>
    <g>
      <path class="cls-1" d="m1030.94,725.57c-4.14,0-6.32,3.36-6.32,7.5,0,26.59-40.75,42.86-65.02,50.2-40.12,12.13-94.36,18.8-152.59,18.8s-112.54-6.68-152.67-18.8c-24.27-7.33-65.28-23.61-65.28-50.2,0-4.14-3.96-7.5-8.1-7.5s-8.7,3.36-8.7,7.5v153c0,32.82,27.19,59.95,76.37,78.46,41.63,15.67,98.7,24.29,158.53,24.29s114.5-8.63,156.13-24.29c49.18-18.51,73.97-45.64,73.97-78.46v-153c0-4.14-2.18-7.5-6.32-7.5Zm-8.68,160.5c0,57.61-109.42,87.75-217.5,87.75s-217.5-30.14-217.5-87.75v-120.04c11,11.19,30.56,22.32,61.24,31.6,41.49,12.54,97.8,19.45,157.46,19.45,90.86,0,181.3-16.01,216.3-50.98v119.98Z"/>
      <path class="cls-1" d="m970.94,676.54c-3.97-1.18-8.15,1.08-9.33,5.05-1.18,3.97,1.08,8.15,5.05,9.33,37.12,11.04,57.57,25.9,57.57,41.85,0,4.14,3.36,7.5,7.5,7.5s7.5-3.36,7.5-7.5c0-23.84-22.98-42.75-68.3-56.23Z"/>
      <path class="cls-1" d="m644.03,676.44c-45.53,13.48-68.62,32.43-68.62,56.32,0,4.14,3.36,7.5,7.5,7.5s7.5-3.36,7.5-7.5c0-16,20.56-30.89,57.88-41.94,3.97-1.18,6.24-5.35,5.06-9.32-1.18-3.97-5.35-6.24-9.32-5.06Z"/>
    </g>
    <path class="cls-1" d="m1030.94,986.57c-4.14,0-6.32,3.36-6.32,7.5,0,26.59-40.75,42.86-65.02,50.2-40.12,12.13-94.36,18.8-152.59,18.8s-112.54-6.68-152.67-18.8c-24.27-7.33-65.28-23.61-65.28-50.2,0-4.14-3.96-7.5-8.1-7.5s-8.7,3.36-8.7,7.5v153c0,32.82,27.19,59.95,76.37,78.46,41.63,15.67,98.7,24.29,158.53,24.29s114.5-8.63,156.13-24.29c49.18-18.51,73.97-45.64,73.97-78.46v-153c0-4.14-2.18-7.5-6.32-7.5Zm-8.68,160.5c0,57.61-109.42,87.75-217.5,87.75s-217.5-30.14-217.5-87.75v-120.04c11,11.19,30.56,22.32,61.24,31.6,41.49,12.54,97.8,19.45,157.46,19.45,90.86,0,181.3-16.01,216.3-50.98v119.98Z"/>
    <path class="cls-1" d="m986.44,942.39c-3.88-1.44-8.2.53-9.64,4.42-1.44,3.88.53,8.2,4.42,9.64,19.63,7.3,43.03,19.64,43.03,37.02,0,4.14,3.36,7.5,7.5,7.5s7.5-3.36,7.5-7.5c0-20.87-17.77-38.06-52.8-51.08Z"/>
    <path class="cls-1" d="m627.98,942.48c-34.88,13.01-52.57,30.17-52.57,50.99,0,4.14,3.36,7.5,7.5,7.5s7.5-3.36,7.5-7.5c0-17.33,23.28-29.65,42.81-36.94,3.88-1.45,5.85-5.77,4.4-9.65-1.45-3.88-5.77-5.85-9.65-4.4Z"/>
    <path class="cls-1" d="m642.46,552.65c-17.74,0-32.17,14.43-32.17,32.17s14.43,32.17,32.17,32.17,32.17-14.43,32.17-32.17-14.43-32.17-32.17-32.17Zm0,49.34c-9.47,0-17.17-7.7-17.17-17.17s7.7-17.17,17.17-17.17,17.17,7.7,17.17,17.17-7.7,17.17-17.17,17.17Z"/>
    <path class="cls-1" d="m642.46,824.97c-17.74,0-32.17,14.43-32.17,32.17s14.43,32.17,32.17,32.17,32.17-14.43,32.17-32.17-14.43-32.17-32.17-32.17Zm0,49.34c-9.47,0-17.17-7.7-17.17-17.17s7.7-17.17,17.17-17.17,17.17,7.7,17.17,17.17-7.7,17.17-17.17,17.17Z"/>
    <path class="cls-1" d="m642.46,1085.67c-17.74,0-32.17,14.43-32.17,32.17s14.43,32.17,32.17,32.17,32.17-14.43,32.17-32.17-14.43-32.17-32.17-32.17Zm0,49.34c-9.47,0-17.17-7.7-17.17-17.17s7.7-17.17,17.17-17.17,17.17,7.7,17.17,17.17-7.7,17.17-17.17,17.17Z"/>
    <path class="cls-1" d="m1024.22,555.07c-24.42,26.49-77.9,42.29-158.96,46.94-4.14.24-7.3,3.78-7.06,7.92.23,3.99,3.54,7.07,7.48,7.07.14,0,.29,0,.44-.01,41-2.35,75.71-7.6,103.17-15.61,29.63-8.64,51.82-20.8,65.96-36.13,2.81-3.05,2.61-7.79-.43-10.6-3.05-2.81-7.79-2.61-10.6.43Z"/>
    <g>
      <path class="cls-1" d="m520.31,401.14H127.96c-67.8,0-122.96-55.16-122.96-122.96s55.16-122.96,122.96-122.96c33.53,0,64.86,13.25,88.22,37.31,2.89,2.97,2.82,7.72-.16,10.61-2.97,2.88-7.72,2.82-10.61-.16-20.51-21.12-48.02-32.76-77.46-32.76-59.53,0-107.96,48.43-107.96,107.96s48.43,107.96,107.96,107.96h392.35c80.55,0,146.08-65.53,146.08-146.08s-65.53-146.08-146.08-146.08c-21.72,0-42.61,4.65-62.11,13.82-3.75,1.76-8.22.15-9.98-3.59-1.76-3.75-.15-8.22,3.59-9.98,21.51-10.12,44.55-15.25,68.49-15.25,88.82,0,161.08,72.26,161.08,161.08s-72.26,161.08-161.08,161.08Z"/>
      <path class="cls-1" d="m473.23,192.63c-4.14,0-7.5-3.36-7.5-7.5,0-91.05-74.08-165.13-165.13-165.13-81.39,0-151.63,60.62-163.39,141.02-.6,4.1-4.41,6.94-8.51,6.34-4.1-.6-6.94-4.41-6.34-8.51,6.2-42.37,27.48-81.28,59.93-109.56,32.77-28.56,74.78-44.29,118.3-44.29,99.33,0,180.13,80.81,180.13,180.13,0,4.14-3.36,7.5-7.5,7.5Z"/>
    </g>
    <g>
      <path class="cls-1" d="m1357.55,1334.57h-.82c-1.58,0-3.12-.5-4.4-1.42l-66.18-47.87c-53.56-38.93-97.76-90.65-127.84-149.56-30.12-58.98-46.04-125.11-46.04-191.22v-152.3c0-2.27,1.03-4.43,2.81-5.85,1.78-1.42,4.1-1.96,6.32-1.47,90.5,20.12,167.9-1.12,230.04-63.12,1.41-1.4,3.31-2.19,5.3-2.19h.43c1.99,0,3.89.79,5.3,2.19,47.09,46.99,102.28,70.61,164.64,70.61,20.25,0,41.26-2.49,62.99-7.48,2.23-.51,4.56.02,6.35,1.44,1.79,1.42,2.83,3.58,2.83,5.87v152.3c0,66.3-15.68,132.42-45.34,191.19-29.8,59.04-73.77,110.77-127.16,149.58l-64.76,47.84c-1.29.95-2.85,1.47-4.46,1.47Zm-230.29-533.15v143.07c0,129.45,62.69,252.3,167.69,328.63l62.14,44.95,60.8-44.92c104.19-75.74,166.37-198.59,166.37-328.67v-143.02c-43,8.63-84.11,7.7-121.88-2.78-38.42-10.66-73.86-31.29-105.44-61.36-31.64,30.14-67.11,50.77-105.5,61.37-37.97,10.48-80.17,11.39-124.17,2.72Z"/>
      <path class="cls-1" d="m1357.38,1267.57h-.64c-1.59,0-3.15-.51-4.43-1.45l-50.86-37.26c-41.72-30.33-76.15-70.73-99.52-116.81-23.33-45.99-35.67-97.63-35.67-149.33v-118.32c0-2.28,1.04-4.44,2.83-5.86,1.79-1.42,4.12-1.95,6.35-1.45,69.08,15.8,128.3-.46,176-48.32,1.41-1.41,3.32-2.21,5.31-2.21h.33c1.99,0,3.9.79,5.31,2.21,48.15,48.31,105.64,64.12,175.73,48.31,2.22-.5,4.55.04,6.33,1.46,1.78,1.42,2.82,3.58,2.82,5.86v118.32c0,51.75-12.28,103.38-35.51,149.32-23.32,46.11-57.69,86.51-99.4,116.83l-50.52,37.23c-1.29.95-2.85,1.46-4.45,1.46Zm-176.12-413.93v109.08c0,100.33,48.24,195.29,129.03,254.02l46.75,34.25,46.44-34.22c80.65-58.63,128.77-153.59,128.77-254.05v-109.1c-68,12.92-127.05-3.63-175.36-49.25-24.39,23-51.85,38.78-81.74,46.94-29.06,7.93-60.9,8.71-93.9,2.33Z"/>
    </g>
    <path class="cls-1" d="m472.27,1138.57h-156.5c-4.14,0-7.5-3.36-7.5-7.5V467.57c0-4.14,3.36-7.5,7.5-7.5s7.5,3.36,7.5,7.5v656h149c4.14,0,7.5,3.36,7.5,7.5s-3.36,7.5-7.5,7.5Z"/>
    <path class="cls-1" d="m1355.76,684.07c-4.14,0-7.5-3.36-7.5-7.5V185.57h-542v111c0,4.14-3.36,7.5-7.5,7.5s-7.5-3.36-7.5-7.5v-118.5c0-4.14,3.36-7.5,7.5-7.5h557c4.14,0,7.5,3.36,7.5,7.5v498.5c0,4.14-3.36,7.5-7.5,7.5Z"/>
  </g>
</svg>