<?xml version="1.0" encoding="UTF-8"?>
<svg id="Layer_2" data-name="Layer 2" xmlns="http://www.w3.org/2000/svg" viewBox="0 0 992.86 672.29">
  <defs>
    <style>
      .cls-1 {
        fill: #fff;
      }

      .cls-1, .cls-2, .cls-3, .cls-4, .cls-5, .cls-6, .cls-7, .cls-8, .cls-9, .cls-10, .cls-11 {
        stroke-miterlimit: 10;
      }

      .cls-1, .cls-7, .cls-9, .cls-10 {
        stroke: #383838;
      }

      .cls-1, .cls-9 {
        stroke-width: 13.36px;
      }

      .cls-12 {
        fill: #00b26e;
      }

      .cls-13 {
        fill: #00baeb;
      }

      .cls-14 {
        fill: #ff9f36;
      }

      .cls-15 {
        fill: #fe3e64;
      }

      .cls-16 {
        fill: #6c79e0;
      }

      .cls-17 {
        fill: #2b6ed4;
      }

      .cls-2 {
        stroke-width: 6.27px;
      }

      .cls-2, .cls-3, .cls-4, .cls-5, .cls-6, .cls-7, .cls-8, .cls-9, .cls-10, .cls-11 {
        fill: none;
      }

      .cls-2, .cls-8 {
        stroke: #45d8f9;
      }

      .cls-3 {
        stroke: #2b6ed4;
      }

      .cls-3, .cls-4, .cls-11 {
        stroke-width: 10.36px;
      }

      .cls-4, .cls-11 {
        stroke: #00baeb;
      }

      .cls-5 {
        stroke: #ffd74e;
      }

      .cls-5, .cls-6 {
        stroke-width: 6.63px;
      }

      .cls-6 {
        stroke: #ff8200;
      }

      .cls-7 {
        stroke-dasharray: 0 8.02;
        stroke-width: 5.34px;
      }

      .cls-8 {
        stroke-width: 8.38px;
      }

      .cls-10 {
        stroke-width: 15.61px;
      }

      .cls-11 {
        stroke-dasharray: 0 26;
      }
    </style>
  </defs>
  <g id="Layer_1-2" data-name="Layer 1">
    <g>
      <rect class="cls-1" x="164.86" y="101.94" width="701.36" height="474.51" rx="12.49" ry="12.49"/>
      <g>
        <path class="cls-8" d="m972.44,308.37c1.53-9.71-1.45-19.99-8.93-27.48s-17.77-10.46-27.48-8.93"/>
        <path class="cls-8" d="m929.61,273.67c-4.04,1.55-7.84,3.94-11.1,7.2-11.63,11.63-12.36,30.02-2.21,42.52"/>
        <path class="cls-8" d="m921.01,328.09c12.5,10.15,30.9,9.42,42.52-2.2,3.26-3.26,5.65-7.05,7.2-11.1"/>
      </g>
      <g>
        <path class="cls-6" d="m113.58,413.78c1.14-7.27-1.08-14.97-6.69-20.58-5.61-5.61-13.31-7.83-20.58-6.69"/>
        <path class="cls-6" d="m81.51,387.79c-3.03,1.16-5.87,2.95-8.31,5.39-8.7,8.7-9.25,22.48-1.65,31.84"/>
        <path class="cls-6" d="m75.07,428.54c9.36,7.6,23.13,7.05,31.84-1.65,2.44-2.44,4.23-5.28,5.39-8.31"/>
      </g>
      <g>
        <path class="cls-8" d="m90.58,389.78c1.14-7.27-1.08-14.97-6.69-20.58-5.61-5.61-13.31-7.83-20.58-6.69"/>
        <path class="cls-8" d="m58.51,363.79c-3.03,1.16-5.87,2.95-8.31,5.39-8.7,8.7-9.25,22.48-1.65,31.84"/>
        <path class="cls-8" d="m52.07,404.54c9.36,7.6,23.13,7.05,31.84-1.65,2.44-2.44,4.23-5.28,5.39-8.31"/>
      </g>
      <g>
        <path class="cls-6" d="m942.58,67.78c1.14-7.27-1.08-14.97-6.69-20.58-5.61-5.61-13.31-7.83-20.58-6.69"/>
        <path class="cls-6" d="m910.51,41.79c-3.03,1.16-5.87,2.95-8.31,5.39-8.7,8.7-9.25,22.48-1.65,31.84"/>
        <path class="cls-6" d="m904.07,82.54c9.36,7.6,23.13,7.05,31.84-1.65,2.44-2.44,4.23-5.28,5.39-8.31"/>
      </g>
      <path class="cls-5" d="m177.7,9.44l-8.59,22.91-22.91,8.59,22.91,8.59,8.59,22.91,8.59-22.91,22.91-8.59-22.91-8.59-8.59-22.91Z"/>
      <path class="cls-11" d="m14.19,540.77s-52.36,97.67,95.41,117.67,830.76,14.67,870.76-117.67c40-132.33-97-170.33-97-170.33"/>
      <path class="cls-16" d="m254.69,138.96h56.34c10.04,0,10.06-15.61,0-15.61h-56.34c-10.04,0-10.06,15.61,0,15.61h0Z"/>
      <path class="cls-16" d="m395.03,140.96h170.81c10.04,0,10.06-15.61,0-15.61h-170.81c-10.04,0-10.06,15.61,0,15.61h0Z"/>
      <path class="cls-17" d="m233.74,529.1h56.34c10.04,0,10.06-15.61,0-15.61h-56.34c-10.04,0-10.06,15.61,0,15.61h0Z"/>
      <path class="cls-13" d="m333.64,529.1h56.34c10.04,0,10.06-15.61,0-15.61h-56.34c-10.04,0-10.06,15.61,0,15.61h0Z"/>
      <path class="cls-13" d="m433.53,529.1h56.34c10.04,0,10.06-15.61,0-15.61h-56.34c-10.04,0-10.06,15.61,0,15.61h0Z"/>
      <path class="cls-13" d="m243.66,209.95h56.34c10.04,0,10.06-15.61,0-15.61h-56.34c-10.04,0-10.06,15.61,0,15.61h0Z"/>
      <path class="cls-13" d="m192.23,208.95h20.72c10.04,0,10.06-15.61,0-15.61h-20.72c-10.04,0-10.06,15.61,0,15.61h0Z"/>
      <path class="cls-13" d="m351.43,209.95h56.34c10.04,0,10.06-15.61,0-15.61h-56.34c-10.04,0-10.06,15.61,0,15.61h0Z"/>
      <path class="cls-13" d="m243.66,251.79h56.34c10.04,0,10.06-15.61,0-15.61h-56.34c-10.04,0-10.06,15.61,0,15.61h0Z"/>
      <path class="cls-13" d="m192.23,250.79h20.72c10.04,0,10.06-15.61,0-15.61h-20.72c-10.04,0-10.06,15.61,0,15.61h0Z"/>
      <path class="cls-13" d="m351.43,251.79h56.34c10.04,0,10.06-15.61,0-15.61h-56.34c-10.04,0-10.06,15.61,0,15.61h0Z"/>
      <path class="cls-13" d="m460.97,209.83h215.25c10.04,0,10.06-15.61,0-15.61h-215.25c-10.04,0-10.06,15.61,0,15.61h0Z"/>
      <path class="cls-13" d="m462.01,251.79h139.59c10.04,0,10.06-15.61,0-15.61h-139.59c-10.04,0-10.06,15.61,0,15.61h0Z"/>
      <path class="cls-13" d="m243.66,282.07h56.34c10.04,0,10.06-15.61,0-15.61h-56.34c-10.04,0-10.06,15.61,0,15.61h0Z"/>
      <path class="cls-13" d="m192.23,281.07h20.72c10.04,0,10.06-15.61,0-15.61h-20.72c-10.04,0-10.06,15.61,0,15.61h0Z"/>
      <path class="cls-13" d="m351.43,282.07h56.34c10.04,0,10.06-15.61,0-15.61h-56.34c-10.04,0-10.06,15.61,0,15.61h0Z"/>
      <path class="cls-13" d="m462.01,282.07h166.31c10.04,0,10.06-15.61,0-15.61h-166.31c-10.04,0-10.06,15.61,0,15.61h0Z"/>
      <path class="cls-13" d="m243.66,312.35h56.34c10.04,0,10.06-15.61,0-15.61h-56.34c-10.04,0-10.06,15.61,0,15.61h0Z"/>
      <path class="cls-13" d="m192.23,311.35h20.72c10.04,0,10.06-15.61,0-15.61h-20.72c-10.04,0-10.06,15.61,0,15.61h0Z"/>
      <path class="cls-13" d="m351.43,312.35h56.34c10.04,0,10.06-15.61,0-15.61h-56.34c-10.04,0-10.06,15.61,0,15.61h0Z"/>
      <path class="cls-13" d="m462.01,312.35h193.03c10.04,0,10.06-15.61,0-15.61h-193.03c-10.04,0-10.06,15.61,0,15.61h0Z"/>
      <path class="cls-13" d="m533.43,529.1h56.34c10.04,0,10.06-15.61,0-15.61h-56.34c-10.04,0-10.06,15.61,0,15.61h0Z"/>
      <path class="cls-16" d="m774.85,140.96h56.34c10.04,0,10.06-15.61,0-15.61h-56.34c-10.04,0-10.06,15.61,0,15.61h0Z"/>
      <path class="cls-16" d="m660.38,140.96h56.34c10.04,0,10.06-15.61,0-15.61h-56.34c-10.04,0-10.06,15.61,0,15.61h0Z"/>
      <rect class="cls-17" x="716.5" y="202.13" width="122.43" height="36.17" rx="16.01" ry="16.01"/>
      <rect class="cls-13" x="716.5" y="252.08" width="122.43" height="36.17" rx="16.01" ry="16.01"/>
      <rect class="cls-13" x="716.5" y="302.02" width="122.43" height="36.17" rx="16.01" ry="16.01"/>
      <rect class="cls-13" x="716.5" y="351.97" width="122.43" height="36.17" rx="16.01" ry="16.01"/>
      <rect class="cls-13" x="716.5" y="401.92" width="122.43" height="36.17" rx="16.01" ry="16.01"/>
      <rect class="cls-13" x="716.5" y="451.87" width="122.43" height="36.17" rx="16.01" ry="16.01"/>
      <rect class="cls-13" x="716.5" y="501.82" width="122.43" height="36.17" rx="16.01" ry="16.01"/>
      <line class="cls-10" x1="164.86" y1="166.97" x2="866.21" y2="166.97"/>
      <rect class="cls-12" x="194.09" y="405.14" width="152.17" height="65.56"/>
      <rect class="cls-15" x="366.87" y="405.14" width="152.17" height="65.56"/>
      <rect class="cls-14" x="538.81" y="404.81" width="152.17" height="65.56"/>
      <line class="cls-7" x1="199.7" y1="381.63" x2="688.02" y2="381.63"/>
      <g>
        <line class="cls-4" x1="109.59" y1="476.61" x2="24.76" y2="533.89"/>
        <path class="cls-3" d="m47.84,538.25l14.07,20.79c2.56,3.79,8.25,3.44,10.33-.63l39.29-76.88c2.15-4.22-1.19-9.15-5.9-8.72l-85.97,7.9c-4.55.42-6.99,5.57-4.43,9.35l14.06,20.77"/>
      </g>
      <line class="cls-9" x1="520.66" y1="614.48" x2="178.66" y2="614.48"/>
      <line class="cls-9" x1="870.67" y1="614.48" x2="607.49" y2="614.48"/>
      <line class="cls-9" x1="734.51" y1="647.44" x2="421.8" y2="647.44"/>
      <g>
        <line class="cls-2" x1="697.64" y1="3.06" x2="716.06" y2="21.47"/>
        <line class="cls-2" x1="730.65" y1="36.06" x2="749.07" y2="54.48"/>
        <line class="cls-2" x1="697.64" y1="54.48" x2="716.06" y2="36.06"/>
        <line class="cls-2" x1="730.65" y1="21.47" x2="749.07" y2="3.06"/>
      </g>
    </g>
  </g>
</svg>