<?xml version="1.0" encoding="UTF-8"?>
<svg id="Layer_2" data-name="Layer 2" xmlns="http://www.w3.org/2000/svg" viewBox="0 0 444.96 392.88">
  <defs>
    <style>
      .cls-1 {
        fill: none;
        stroke: red;
        stroke-linecap: round;
        stroke-linejoin: round;
        stroke-width: 15px;
      }
    </style>
  </defs>
  <g id="Layer_1-2" data-name="Layer 1">
    <g>
      <polyline class="cls-1" points="312.15 307.33 365.98 276.25 365.98 216.98"/>
      <polyline class="cls-1" points="173.69 331.63 221.88 359.45 271.53 330.78"/>
      <polyline class="cls-1" points="77.77 216.98 77.77 276.25 129.03 305.85"/>
      <polyline class="cls-1" points="129.03 80.25 77.77 109.85 77.77 169.12"/>
      <polyline class="cls-1" points="271.53 55.32 221.87 26.65 168.32 57.57"/>
      <polyline class="cls-1" points="365.98 169.12 365.98 109.85 316.2 81.1"/>
      <line class="cls-1" x1="298.75" y1="193.05" x2="401.76" y2="193.05"/>
      <path class="cls-1" d="m419.49,175.08c9.92,0,17.97,8.04,17.97,17.97s-8.04,17.97-17.97,17.97-17.97-8.04-17.97-17.97,8.04-17.97,17.97-17.97Z"/>
      <line class="cls-1" x1="260.44" y1="130.01" x2="312" y2="40.82"/>
      <path class="cls-1" d="m336.43,34.47c4.97-8.59,2.03-19.58-6.56-24.55-8.59-4.97-19.58-2.03-24.55,6.56-4.97,8.59-2.03,19.58,6.56,24.55,8.59,4.97,19.58,2.03,24.55-6.56Z"/>
      <line class="cls-1" x1="260.59" y1="262.88" x2="312.15" y2="352.06"/>
      <path class="cls-1" d="m336.58,358.42c4.97,8.59,2.03,19.58-6.56,24.55-8.59,4.97-19.58,2.03-24.55-6.56-4.97-8.59-2.03-19.58,6.56-24.55,8.59-4.97,19.58-2.03,24.55,6.56Z"/>
      <line class="cls-1" x1="146.21" y1="193.05" x2="43.2" y2="193.05"/>
      <path class="cls-1" d="m25.47,175.08c-9.92,0-17.97,8.04-17.97,17.97s8.04,17.97,17.97,17.97,17.97-8.04,17.97-17.97-8.04-17.97-17.97-17.97Z"/>
      <line class="cls-1" x1="184.52" y1="130.01" x2="132.96" y2="40.82"/>
      <path class="cls-1" d="m108.53,34.47c-4.97-8.59-2.03-19.58,6.56-24.55,8.59-4.97,19.58-2.03,24.55,6.56,4.97,8.59,2.03,19.58-6.56,24.55-8.59,4.97-19.58,2.03-24.55-6.56Z"/>
      <line class="cls-1" x1="184.37" y1="262.88" x2="132.81" y2="352.06"/>
      <path class="cls-1" d="m108.38,358.42c-4.97,8.59-2.03,19.58,6.56,24.55,8.59,4.97,19.58,2.03,24.55-6.56,4.97-8.59,2.03-19.58-6.56-24.55-8.59-4.97-19.58-2.03-24.55,6.56Z"/>
      <path class="cls-1" d="m239.26,97l12.05,27.38c6.85,3.96,11.71,6.77,18.55,10.73l29.74-3.22c7.88,13.66,8.7,15.1,16.58,28.76l-17.68,24.13c0,7.91,0,13.52-.01,21.43l17.66,24.15c-7.89,13.65-8.72,15.09-16.61,28.74l-29.74-3.25c-6.85,3.95-11.71,6.76-18.56,10.7l-12.08,27.37c-15.77,0-17.43,0-33.2-.02l-12.05-27.38c-6.85-3.96-11.71-6.77-18.55-10.73l-29.74,3.22c-7.88-13.66-8.71-15.1-16.58-28.76l17.68-24.13c0-7.91,0-13.52.01-21.43l-17.66-24.15c7.89-13.65,8.72-15.09,16.61-28.74l29.74,3.25c6.85-3.95,11.71-6.75,18.56-10.7l12.09-27.37c15.77,0,17.43,0,33.19.02Z"/>
      <path class="cls-1" d="m271.53,195.48c.02-27.02-21.88-48.93-48.89-48.95-27.02-.01-48.93,21.88-48.95,48.9-.01,27.02,21.88,48.93,48.9,48.95,27.02.02,48.93-21.88,48.95-48.89Z"/>
    </g>
  </g>
</svg>