<?xml version="1.0" encoding="UTF-8"?>
<svg id="Layer_2" data-name="Layer 2" xmlns="http://www.w3.org/2000/svg" viewBox="0 0 1598.41 1339.24">
  <defs>
    <style>
      .cls-1 {
        stroke-width: 10px;
      }

      .cls-1, .cls-2 {
        fill: #2e3192;
        stroke: #2e3192;
        stroke-miterlimit: 10;
      }
    </style>
  </defs>
  <g id="USER">
    <path class="cls-1" d="m507.93,582.8H12.5c-4.14,0-7.5-3.36-7.5-7.5V12.5c0-4.14,3.36-7.5,7.5-7.5h871.87c4.14,0,7.5,3.36,7.5,7.5v362.67c0,4.14-3.36,7.5-7.5,7.5s-7.5-3.36-7.5-7.5V20H20v547.8h487.93c4.14,0,7.5,3.36,7.5,7.5s-3.36,7.5-7.5,7.5Z"/>
    <path class="cls-1" d="m884.7,101.5H13.7c-4.14,0-7.5-3.36-7.5-7.5s3.36-7.5,7.5-7.5h871c4.14,0,7.5,3.36,7.5,7.5s-3.36,7.5-7.5,7.5Z"/>
    <g>
      <path class="cls-2" d="m73,73.66c-11.7,0-21.21-9.52-21.21-21.21s9.52-21.21,21.21-21.21,21.21,9.52,21.21,21.21-9.52,21.21-21.21,21.21Zm0-27.42c-3.42,0-6.21,2.79-6.21,6.21s2.79,6.21,6.21,6.21,6.21-2.79,6.21-6.21-2.79-6.21-6.21-6.21Z"/>
      <path class="cls-2" d="m129.68,73.66c-11.7,0-21.21-9.52-21.21-21.21s9.52-21.21,21.21-21.21,21.21,9.52,21.21,21.21-9.52,21.21-21.21,21.21Zm0-27.42c-3.42,0-6.21,2.79-6.21,6.21s2.79,6.21,6.21,6.21,6.21-2.79,6.21-6.21-2.79-6.21-6.21-6.21Z"/>
      <path class="cls-2" d="m186.37,73.66c-11.7,0-21.21-9.52-21.21-21.21s9.52-21.21,21.21-21.21,21.21,9.52,21.21,21.21-9.52,21.21-21.21,21.21Zm0-27.42c-3.43,0-6.21,2.79-6.21,6.21s2.79,6.21,6.21,6.21,6.21-2.79,6.21-6.21-2.79-6.21-6.21-6.21Z"/>
    </g>
    <path class="cls-2" d="m834.7,143.5h-196c-4.14,0-7.5-3.36-7.5-7.5s3.36-7.5,7.5-7.5h196c4.14,0,7.5,3.36,7.5,7.5s-3.36,7.5-7.5,7.5Z"/>
    <path class="cls-2" d="m834.7,185.5h-309c-4.14,0-7.5-3.36-7.5-7.5s3.36-7.5,7.5-7.5h309c4.14,0,7.5,3.36,7.5,7.5s-3.36,7.5-7.5,7.5Z"/>
    <path class="cls-2" d="m834.7,226.5h-309c-4.14,0-7.5-3.36-7.5-7.5s3.36-7.5,7.5-7.5h309c4.14,0,7.5,3.36,7.5,7.5s-3.36,7.5-7.5,7.5Z"/>
    <g>
      <path class="cls-2" d="m233.67,215.5h-88.47c-4.14,0-7.5-3.36-7.5-7.5v-86.99c0-4.14,3.36-7.5,7.5-7.5,25.63,0,49.69,9.82,67.76,27.66,18.02,17.79,28.04,41.51,28.21,66.78.01,2-.77,3.92-2.18,5.34-1.41,1.42-3.32,2.21-5.32,2.21Zm-80.97-15h73.06c-3.88-37.89-35.06-68.13-73.06-71.65v71.65Z"/>
      <path class="cls-2" d="m123.09,325.25c-51.97,0-94.24-42.14-94.24-93.95s41.01-93.95,93.35-93.95c4.14,0,7.5,3.36,7.5,7.5v77.65h80.12c2.21,0,4.3.97,5.73,2.66,1.42,1.69,2.02,3.99,1.65,6.17,0,.02,0,.06-.02.1-.26,51.78-42.37,93.83-94.1,93.83Zm-8.39-172.55c-40,3.69-70.85,36.89-70.85,78.61s35.55,78.95,79.24,78.95c41.42,0,75.5-32.07,78.83-72.75h-79.72c-4.14,0-7.5-3.36-7.5-7.5v-77.3Zm102,78.25v.03-.03Z"/>
    </g>
    <g>
      <path class="cls-2" d="m611.79,433c-4.14,0-7.5-3.36-7.5-7.5v-27.26c0-4.14,3.36-7.5,7.5-7.5h41.22c4.14,0,7.5,3.36,7.5,7.5s-3.36,7.5-7.5,7.5h-33.72v19.76c0,4.14-3.36,7.5-7.5,7.5Z"/>
      <path class="cls-2" d="m539.77,517.09c-4.14,0-7.5-3.36-7.5-7.5v-179.91c0-4.14,3.36-7.5,7.5-7.5h34.34c4.14,0,7.5,3.36,7.5,7.5v132.95c0,4.14-3.36,7.5-7.5,7.5s-7.5-3.36-7.5-7.5v-125.45h-19.34v172.41c0,4.14-3.36,7.5-7.5,7.5Z"/>
      <path class="cls-2" d="m502.09,541.07h-34.34c-4.14,0-7.5-3.36-7.5-7.5v-170.51c0-4.14,3.36-7.5,7.5-7.5h34.34c4.14,0,7.5,3.36,7.5,7.5v170.51c0,4.14-3.36,7.5-7.5,7.5Zm-26.84-15h19.34v-155.51h-19.34v155.51Z"/>
      <path class="cls-2" d="m430.07,541.07h-34.34c-4.14,0-7.5-3.36-7.5-7.5v-239.67c0-4.14,3.36-7.5,7.5-7.5h34.34c4.14,0,7.5,3.36,7.5,7.5v239.67c0,4.14-3.36,7.5-7.5,7.5Zm-26.84-15h19.34v-224.67h-19.34v224.67Z"/>
      <path class="cls-2" d="m358.05,541.07h-34.34c-4.14,0-7.5-3.36-7.5-7.5v-183.63c0-4.14,3.36-7.5,7.5-7.5h34.34c4.14,0,7.5,3.36,7.5,7.5v183.63c0,4.14-3.36,7.5-7.5,7.5Zm-26.84-15h19.34v-168.63h-19.34v168.63Z"/>
      <path class="cls-2" d="m286.03,541.07h-34.34c-4.14,0-7.5-3.36-7.5-7.5v-217.61c0-4.14,3.36-7.5,7.5-7.5h34.34c4.14,0,7.5,3.36,7.5,7.5v217.61c0,4.14-3.36,7.5-7.5,7.5Zm-26.84-15h19.34v-202.61h-19.34v202.61Z"/>
    </g>
    <g>
      <path class="cls-2" d="m503.7,48.5h-199c-4.14,0-7.5-3.36-7.5-7.5s3.36-7.5,7.5-7.5h199c4.14,0,7.5,3.36,7.5,7.5s-3.36,7.5-7.5,7.5Z"/>
      <path class="cls-2" d="m661.7,73.5h-357c-4.14,0-7.5-3.36-7.5-7.5s3.36-7.5,7.5-7.5h357c4.14,0,7.5,3.36,7.5,7.5s-3.36,7.5-7.5,7.5Z"/>
    </g>
    <path class="cls-2" d="m163.7,381.5H54.7c-4.14,0-7.5-3.36-7.5-7.5s3.36-7.5,7.5-7.5h109c4.14,0,7.5,3.36,7.5,7.5s-3.36,7.5-7.5,7.5Z"/>
    <path class="cls-2" d="m163.7,413.5H54.7c-4.14,0-7.5-3.36-7.5-7.5s3.36-7.5,7.5-7.5h109c4.14,0,7.5,3.36,7.5,7.5s-3.36,7.5-7.5,7.5Z"/>
    <path class="cls-2" d="m163.7,447.5H54.7c-4.14,0-7.5-3.36-7.5-7.5s3.36-7.5,7.5-7.5h109c4.14,0,7.5,3.36,7.5,7.5s-3.36,7.5-7.5,7.5Z"/>
    <path class="cls-2" d="m163.7,477.5H54.7c-4.14,0-7.5-3.36-7.5-7.5s3.36-7.5,7.5-7.5h109c4.14,0,7.5,3.36,7.5,7.5s-3.36,7.5-7.5,7.5Z"/>
    <path class="cls-2" d="m163.7,541.5H54.7c-4.14,0-7.5-3.36-7.5-7.5s3.36-7.5,7.5-7.5h109c4.14,0,7.5,3.36,7.5,7.5s-3.36,7.5-7.5,7.5Z"/>
    <path class="cls-2" d="m163.7,510.5H54.7c-4.14,0-7.5-3.36-7.5-7.5s3.36-7.5,7.5-7.5h109c4.14,0,7.5,3.36,7.5,7.5s-3.36,7.5-7.5,7.5Z"/>
    <g>
      <path class="cls-1" d="m799.23,761h-24.64c-13.58,0-26.68-4.93-36.9-13.88-.23-.2-.45-.42-.65-.64l-51.02-57.09c-11.27-12.62-17.48-28.88-17.48-45.81v-47.37c0-4.14,3.36-7.5,7.5-7.5s7.5,3.36,7.5,7.5v47.37c0,13.23,4.85,25.95,13.67,35.81l50.7,56.74c7.43,6.37,16.89,9.87,26.68,9.87h24.64c9.8,0,19.25-3.5,26.68-9.87l50.7-56.74c8.82-9.86,13.67-22.58,13.67-35.81v-41.32c0-4.14,3.36-7.5,7.5-7.5s7.5,3.36,7.5,7.5v41.32c0,16.92-6.21,33.19-17.49,45.81l-51.02,57.09c-.2.23-.42.44-.65.64-10.21,8.95-23.32,13.88-36.9,13.88Z"/>
      <path class="cls-1" d="m897.77,612.84c-1.56,0-3.11-.48-4.43-1.44-2.45-1.79-3.58-4.87-2.87-7.82,1.29-5.34-7.71-14-16.42-22.38-9.8-9.43-21.42-20.61-26.91-34.49-23.59,18.34-55.31,21.69-86.1,24.94-33.97,3.59-66.05,6.97-81.33,30.72-1.29,2-3.45,3.27-5.83,3.43-2.36.15-4.68-.83-6.22-2.65-15.72-18.67-24.37-42.4-24.37-66.84,0-57.26,46.58-103.84,103.84-103.84,26.26,0,50.63,9.71,69.18,26.26,12.86-6.98,27.33-10.65,42.05-10.65,48.65,0,88.23,39.58,88.23,88.23,0,29.7-17.22,58.61-44.94,75.45-1.2.73-2.55,1.09-3.89,1.09Zm-46.23-87.88c.84,0,1.69.14,2.5.43,2.85,1.01,4.81,3.63,4.98,6.65.81,14.66,13.89,27.24,25.43,38.34,7.63,7.34,14.99,14.43,18.7,22.02,17.77-14.38,28.45-35.06,28.45-56.1,0-40.38-32.85-73.23-73.23-73.23-10.82,0-21.48,2.39-31.18,6.95,8.29,10.04,14.79,21.78,18.92,34.8,1.25,3.95-.93,8.17-4.88,9.42-3.95,1.25-8.16-.93-9.42-4.88-11.77-37.03-45.8-61.9-84.68-61.9-48.98,0-88.84,39.85-88.84,88.84,0,17.75,5.33,35.06,15.17,49.66,20.33-22.29,53.66-25.81,86-29.22,32.57-3.44,66.25-6.99,86.51-29.32,1.45-1.6,3.48-2.46,5.55-2.46Z"/>
      <path class="cls-1" d="m882.55,465.08c-1.11,0-2.23-.25-3.3-.77-3.72-1.82-5.25-6.32-3.43-10.04,3.58-7.31,5.4-15.18,5.4-23.38,0-29.32-23.85-53.17-53.17-53.17s-53.17,23.85-53.17,53.17c0,3,.25,6.01.75,8.94.69,4.08-2.06,7.95-6.14,8.65-4.09.69-7.96-2.06-8.65-6.14-.64-3.76-.96-7.61-.96-11.44,0-37.59,30.58-68.17,68.17-68.17s68.17,30.58,68.17,68.17c0,10.52-2.33,20.61-6.94,29.99-1.3,2.66-3.97,4.2-6.74,4.2Z"/>
      <path class="cls-1" d="m794.95,963.44c-80.65,0-156.47-31.41-213.5-88.44-57.03-57.03-88.44-132.85-88.44-213.5s31.41-156.47,88.44-213.5c57.03-57.03,132.85-88.44,213.5-88.44s156.47,31.41,213.5,88.44c57.03,57.03,88.44,132.85,88.44,213.5s-31.41,156.47-88.44,213.5c-57.03,57.03-132.85,88.44-213.5,88.44Zm0-588.88c-158.22,0-286.94,128.72-286.94,286.94s128.72,286.94,286.94,286.94,286.94-128.72,286.94-286.94-128.72-286.94-286.94-286.94Z"/>
      <g>
        <path class="cls-1" d="m1017.03,856.5c-.66,0-1.34-.09-2.01-.27l-146.59-40.6c-17.9-4.96-30.41-21.4-30.41-39.97v-47.15c0-4.14,3.36-7.5,7.5-7.5s7.5,3.36,7.5,7.5v47.15c0,11.86,7.98,22.35,19.41,25.52l146.59,40.6c3.99,1.11,6.33,5.24,5.23,9.23-.92,3.32-3.94,5.5-7.22,5.5Z"/>
        <path class="cls-1" d="m579.82,856.5c-3.17,0-6.12-2.03-7.14-5.21-1.27-3.94.9-8.17,4.84-9.44l124.13-39.92c10.99-3.53,18.37-13.66,18.37-25.21v-46.24c0-4.14,3.36-7.5,7.5-7.5s7.5,3.36,7.5,7.5v46.24c0,18.08-11.57,33.95-28.78,39.49l-124.13,39.92c-.76.25-1.54.36-2.3.36Z"/>
      </g>
      <path class="cls-1" d="m785.33,902.5h0c-2.31,0-4.49-1.02-5.91-2.84l-71.27-91.25c-2.55-3.26-1.97-7.97,1.29-10.52,3.27-2.55,7.98-1.96,10.53,1.3l65.36,83.71,66.3-84.66c2.55-3.26,7.27-3.83,10.53-1.28,3.26,2.55,3.83,7.27,1.28,10.53l-72.22,92.17c-1.42,1.82-3.6,2.84-5.91,2.84Z"/>
    </g>
    <path class="cls-1" d="m1585.91,1249.69h-91.16c-4.14,0-7.5-3.36-7.5-7.5s3.36-7.5,7.5-7.5h83.66v-154.09h-568.28v73.86c0,4.14-3.36,7.5-7.5,7.5s-7.5-3.36-7.5-7.5v-81.36c0-4.14,3.36-7.5,7.5-7.5h583.28c4.14,0,7.5,3.36,7.5,7.5v169.09c0,4.14-3.36,7.5-7.5,7.5Z"/>
    <path class="cls-1" d="m1490.77,1334.24h-583.28c-4.14,0-7.5-3.36-7.5-7.5v-169.09c0-4.14,3.36-7.5,7.5-7.5h583.28c4.14,0,7.5,3.36,7.5,7.5v169.09c0,4.14-3.36,7.5-7.5,7.5Zm-575.78-15h568.28v-154.09h-568.28v154.09Z"/>
    <g>
      <path class="cls-2" d="m1441.7,1208.5h-485c-4.14,0-7.5-3.36-7.5-7.5s3.36-7.5,7.5-7.5h485c4.14,0,7.5,3.36,7.5,7.5s-3.36,7.5-7.5,7.5Z"/>
      <path class="cls-2" d="m1441.7,1250.5h-485c-4.14,0-7.5-3.36-7.5-7.5s3.36-7.5,7.5-7.5h485c4.14,0,7.5,3.36,7.5,7.5s-3.36,7.5-7.5,7.5Z"/>
      <path class="cls-2" d="m1198.7,1293.5h-242c-4.14,0-7.5-3.36-7.5-7.5s3.36-7.5,7.5-7.5h242c4.14,0,7.5,3.36,7.5,7.5s-3.36,7.5-7.5,7.5Z"/>
    </g>
    <path class="cls-2" d="m1536.7,1123.5h-485c-4.14,0-7.5-3.36-7.5-7.5s3.36-7.5,7.5-7.5h485c4.14,0,7.5,3.36,7.5,7.5s-3.36,7.5-7.5,7.5Z"/>
    <path class="cls-1" d="m786.2,1165.5h-482c-4.14,0-7.5-3.36-7.5-7.5v-496.5c0-4.14,3.36-7.5,7.5-7.5s7.5,3.36,7.5,7.5v489h467v-116c0-4.14,3.36-7.5,7.5-7.5s7.5,3.36,7.5,7.5v123.5c0,4.14-3.36,7.5-7.5,7.5Z"/>
    <path class="cls-1" d="m1294.2,994c-4.14,0-7.5-3.36-7.5-7.5v-351h-132c-4.14,0-7.5-3.36-7.5-7.5s3.36-7.5,7.5-7.5h139.5c4.14,0,7.5,3.36,7.5,7.5v358.5c0,4.14-3.36,7.5-7.5,7.5Z"/>
  </g>
</svg>