<?xml version="1.0" encoding="UTF-8"?>
<svg id="Layer_2" data-name="Layer 2" xmlns="http://www.w3.org/2000/svg" viewBox="0 0 1598.41 1339.24">
  <defs>
    <style>
      .cls-1, .cls-2 {
        fill: #2e2b28;
      }

      .cls-3 {
        fill: #2e3192;
        stroke: #2e3192;
      }

      .cls-3, .cls-2 {
        stroke-miterlimit: 10;
        stroke-width: 10px;
      }

      .cls-2 {
        stroke: #2e2b28;
      }
    </style>
  </defs>
  <g id="USER">
    <g>
      <path class="cls-3" d="m507.93,582.8H12.5c-4.14,0-7.5-3.36-7.5-7.5V12.5c0-4.14,3.36-7.5,7.5-7.5h871.87c4.14,0,7.5,3.36,7.5,7.5v362.67c0,4.14-3.36,7.5-7.5,7.5s-7.5-3.36-7.5-7.5V20H20v547.8h487.93c4.14,0,7.5,3.36,7.5,7.5s-3.36,7.5-7.5,7.5Z"/>
      <path class="cls-3" d="m884.7,101.5H13.7c-4.14,0-7.5-3.36-7.5-7.5s3.36-7.5,7.5-7.5h871c4.14,0,7.5,3.36,7.5,7.5s-3.36,7.5-7.5,7.5Z"/>
      <g>
        <path class="cls-1" d="m73,73.66c-11.7,0-21.21-9.52-21.21-21.21s9.52-21.21,21.21-21.21,21.21,9.52,21.21,21.21-9.52,21.21-21.21,21.21Zm0-27.42c-3.42,0-6.21,2.79-6.21,6.21s2.79,6.21,6.21,6.21,6.21-2.79,6.21-6.21-2.79-6.21-6.21-6.21Z"/>
        <path class="cls-1" d="m129.68,73.66c-11.7,0-21.21-9.52-21.21-21.21s9.52-21.21,21.21-21.21,21.21,9.52,21.21,21.21-9.52,21.21-21.21,21.21Zm0-27.42c-3.42,0-6.21,2.79-6.21,6.21s2.79,6.21,6.21,6.21,6.21-2.79,6.21-6.21-2.79-6.21-6.21-6.21Z"/>
        <path class="cls-1" d="m186.37,73.66c-11.7,0-21.21-9.52-21.21-21.21s9.52-21.21,21.21-21.21,21.21,9.52,21.21,21.21-9.52,21.21-21.21,21.21Zm0-27.42c-3.43,0-6.21,2.79-6.21,6.21s2.79,6.21,6.21,6.21,6.21-2.79,6.21-6.21-2.79-6.21-6.21-6.21Z"/>
      </g>
      <path class="cls-1" d="m834.7,143.5h-196c-4.14,0-7.5-3.36-7.5-7.5s3.36-7.5,7.5-7.5h196c4.14,0,7.5,3.36,7.5,7.5s-3.36,7.5-7.5,7.5Z"/>
      <path class="cls-1" d="m834.7,185.5h-309c-4.14,0-7.5-3.36-7.5-7.5s3.36-7.5,7.5-7.5h309c4.14,0,7.5,3.36,7.5,7.5s-3.36,7.5-7.5,7.5Z"/>
      <path class="cls-1" d="m834.7,226.5h-309c-4.14,0-7.5-3.36-7.5-7.5s3.36-7.5,7.5-7.5h309c4.14,0,7.5,3.36,7.5,7.5s-3.36,7.5-7.5,7.5Z"/>
      <g>
        <path class="cls-1" d="m233.67,215.5h-88.47c-4.14,0-7.5-3.36-7.5-7.5v-86.99c0-4.14,3.36-7.5,7.5-7.5,25.63,0,49.69,9.82,67.76,27.66,18.02,17.79,28.04,41.51,28.21,66.78.01,2-.77,3.92-2.18,5.34-1.41,1.42-3.32,2.21-5.32,2.21Zm-80.97-15h73.06c-3.88-37.89-35.06-68.13-73.06-71.65v71.65Z"/>
        <path class="cls-1" d="m123.09,325.25c-51.97,0-94.24-42.14-94.24-93.95s41.01-93.95,93.35-93.95c4.14,0,7.5,3.36,7.5,7.5v77.65h80.12c2.21,0,4.3.97,5.73,2.66,1.42,1.69,2.02,3.99,1.65,6.17,0,.02,0,.06-.02.1-.26,51.78-42.37,93.83-94.1,93.83Zm-8.39-172.55c-40,3.69-70.85,36.89-70.85,78.61s35.55,78.95,79.24,78.95c41.42,0,75.5-32.07,78.83-72.75h-79.72c-4.14,0-7.5-3.36-7.5-7.5v-77.3Zm102,78.25v.03-.03Z"/>
      </g>
      <g>
        <path class="cls-1" d="m611.79,433c-4.14,0-7.5-3.36-7.5-7.5v-27.26c0-4.14,3.36-7.5,7.5-7.5h41.22c4.14,0,7.5,3.36,7.5,7.5s-3.36,7.5-7.5,7.5h-33.72v19.76c0,4.14-3.36,7.5-7.5,7.5Z"/>
        <path class="cls-1" d="m539.77,517.09c-4.14,0-7.5-3.36-7.5-7.5v-179.91c0-4.14,3.36-7.5,7.5-7.5h34.34c4.14,0,7.5,3.36,7.5,7.5v132.95c0,4.14-3.36,7.5-7.5,7.5s-7.5-3.36-7.5-7.5v-125.45h-19.34v172.41c0,4.14-3.36,7.5-7.5,7.5Z"/>
        <path class="cls-1" d="m502.09,541.07h-34.34c-4.14,0-7.5-3.36-7.5-7.5v-170.51c0-4.14,3.36-7.5,7.5-7.5h34.34c4.14,0,7.5,3.36,7.5,7.5v170.51c0,4.14-3.36,7.5-7.5,7.5Zm-26.84-15h19.34v-155.51h-19.34v155.51Z"/>
        <path class="cls-1" d="m430.07,541.07h-34.34c-4.14,0-7.5-3.36-7.5-7.5v-239.67c0-4.14,3.36-7.5,7.5-7.5h34.34c4.14,0,7.5,3.36,7.5,7.5v239.67c0,4.14-3.36,7.5-7.5,7.5Zm-26.84-15h19.34v-224.67h-19.34v224.67Z"/>
        <path class="cls-1" d="m358.05,541.07h-34.34c-4.14,0-7.5-3.36-7.5-7.5v-183.63c0-4.14,3.36-7.5,7.5-7.5h34.34c4.14,0,7.5,3.36,7.5,7.5v183.63c0,4.14-3.36,7.5-7.5,7.5Zm-26.84-15h19.34v-168.63h-19.34v168.63Z"/>
        <path class="cls-1" d="m286.03,541.07h-34.34c-4.14,0-7.5-3.36-7.5-7.5v-217.61c0-4.14,3.36-7.5,7.5-7.5h34.34c4.14,0,7.5,3.36,7.5,7.5v217.61c0,4.14-3.36,7.5-7.5,7.5Zm-26.84-15h19.34v-202.61h-19.34v202.61Z"/>
      </g>
      <g>
        <path class="cls-1" d="m503.7,48.5h-199c-4.14,0-7.5-3.36-7.5-7.5s3.36-7.5,7.5-7.5h199c4.14,0,7.5,3.36,7.5,7.5s-3.36,7.5-7.5,7.5Z"/>
        <path class="cls-1" d="m661.7,73.5h-357c-4.14,0-7.5-3.36-7.5-7.5s3.36-7.5,7.5-7.5h357c4.14,0,7.5,3.36,7.5,7.5s-3.36,7.5-7.5,7.5Z"/>
      </g>
      <path class="cls-1" d="m163.7,381.5H54.7c-4.14,0-7.5-3.36-7.5-7.5s3.36-7.5,7.5-7.5h109c4.14,0,7.5,3.36,7.5,7.5s-3.36,7.5-7.5,7.5Z"/>
      <path class="cls-1" d="m163.7,413.5H54.7c-4.14,0-7.5-3.36-7.5-7.5s3.36-7.5,7.5-7.5h109c4.14,0,7.5,3.36,7.5,7.5s-3.36,7.5-7.5,7.5Z"/>
      <path class="cls-1" d="m163.7,447.5H54.7c-4.14,0-7.5-3.36-7.5-7.5s3.36-7.5,7.5-7.5h109c4.14,0,7.5,3.36,7.5,7.5s-3.36,7.5-7.5,7.5Z"/>
      <path class="cls-1" d="m163.7,477.5H54.7c-4.14,0-7.5-3.36-7.5-7.5s3.36-7.5,7.5-7.5h109c4.14,0,7.5,3.36,7.5,7.5s-3.36,7.5-7.5,7.5Z"/>
      <path class="cls-1" d="m163.7,541.5H54.7c-4.14,0-7.5-3.36-7.5-7.5s3.36-7.5,7.5-7.5h109c4.14,0,7.5,3.36,7.5,7.5s-3.36,7.5-7.5,7.5Z"/>
      <path class="cls-1" d="m163.7,510.5H54.7c-4.14,0-7.5-3.36-7.5-7.5s3.36-7.5,7.5-7.5h109c4.14,0,7.5,3.36,7.5,7.5s-3.36,7.5-7.5,7.5Z"/>
      <g>
        <path class="cls-3" d="m799.23,761h-24.64c-13.58,0-26.68-4.93-36.9-13.88-.23-.2-.45-.42-.65-.64l-51.02-57.09c-11.27-12.62-17.48-28.88-17.48-45.81v-47.37c0-4.14,3.36-7.5,7.5-7.5s7.5,3.36,7.5,7.5v47.37c0,13.23,4.85,25.95,13.67,35.81l50.7,56.74c7.43,6.37,16.89,9.87,26.68,9.87h24.64c9.8,0,19.25-3.5,26.68-9.87l50.7-56.74c8.82-9.86,13.67-22.58,13.67-35.81v-41.32c0-4.14,3.36-7.5,7.5-7.5s7.5,3.36,7.5,7.5v41.32c0,16.92-6.21,33.19-17.49,45.81l-51.02,57.09c-.2.23-.42.44-.65.64-10.21,8.95-23.32,13.88-36.9,13.88Z"/>
        <path class="cls-3" d="m897.77,612.84c-1.56,0-3.11-.48-4.43-1.44-2.45-1.79-3.58-4.87-2.87-7.82,1.29-5.34-7.71-14-16.42-22.38-9.8-9.43-21.42-20.61-26.91-34.49-23.59,18.34-55.31,21.69-86.1,24.94-33.97,3.59-66.05,6.97-81.33,30.72-1.29,2-3.45,3.27-5.83,3.43-2.36.15-4.68-.83-6.22-2.65-15.72-18.67-24.37-42.4-24.37-66.84,0-57.26,46.58-103.84,103.84-103.84,26.26,0,50.63,9.71,69.18,26.26,12.86-6.98,27.33-10.65,42.05-10.65,48.65,0,88.23,39.58,88.23,88.23,0,29.7-17.22,58.61-44.94,75.45-1.2.73-2.55,1.09-3.89,1.09Zm-46.23-87.88c.84,0,1.69.14,2.5.43,2.85,1.01,4.81,3.63,4.98,6.65.81,14.66,13.89,27.24,25.43,38.34,7.63,7.34,14.99,14.43,18.7,22.02,17.77-14.38,28.45-35.06,28.45-56.1,0-40.38-32.85-73.23-73.23-73.23-10.82,0-21.48,2.39-31.18,6.95,8.29,10.04,14.79,21.78,18.92,34.8,1.25,3.95-.93,8.17-4.88,9.42-3.95,1.25-8.16-.93-9.42-4.88-11.77-37.03-45.8-61.9-84.68-61.9-48.98,0-88.84,39.85-88.84,88.84,0,17.75,5.33,35.06,15.17,49.66,20.33-22.29,53.66-25.81,86-29.22,32.57-3.44,66.25-6.99,86.51-29.32,1.45-1.6,3.48-2.46,5.55-2.46Z"/>
        <path class="cls-3" d="m882.55,465.08c-1.11,0-2.23-.25-3.3-.77-3.72-1.82-5.25-6.32-3.43-10.04,3.58-7.31,5.4-15.18,5.4-23.38,0-29.32-23.85-53.17-53.17-53.17s-53.17,23.85-53.17,53.17c0,3,.25,6.01.75,8.94.69,4.08-2.06,7.95-6.14,8.65-4.09.69-7.96-2.06-8.65-6.14-.64-3.76-.96-7.61-.96-11.44,0-37.59,30.58-68.17,68.17-68.17s68.17,30.58,68.17,68.17c0,10.52-2.33,20.61-6.94,29.99-1.3,2.66-3.97,4.2-6.74,4.2Z"/>
        <path class="cls-3" d="m794.95,963.44c-80.65,0-156.47-31.41-213.5-88.44-57.03-57.03-88.44-132.85-88.44-213.5s31.41-156.47,88.44-213.5c57.03-57.03,132.85-88.44,213.5-88.44s156.47,31.41,213.5,88.44c57.03,57.03,88.44,132.85,88.44,213.5s-31.41,156.47-88.44,213.5c-57.03,57.03-132.85,88.44-213.5,88.44Zm0-588.88c-158.22,0-286.94,128.72-286.94,286.94s128.72,286.94,286.94,286.94,286.94-128.72,286.94-286.94-128.72-286.94-286.94-286.94Z"/>
        <g>
          <path class="cls-3" d="m1017.03,856.5c-.66,0-1.34-.09-2.01-.27l-146.59-40.6c-17.9-4.96-30.41-21.4-30.41-39.97v-47.15c0-4.14,3.36-7.5,7.5-7.5s7.5,3.36,7.5,7.5v47.15c0,11.86,7.98,22.35,19.41,25.52l146.59,40.6c3.99,1.11,6.33,5.24,5.23,9.23-.92,3.32-3.94,5.5-7.22,5.5Z"/>
          <path class="cls-3" d="m579.82,856.5c-3.17,0-6.12-2.03-7.14-5.21-1.27-3.94.9-8.17,4.84-9.44l124.13-39.92c10.99-3.53,18.37-13.66,18.37-25.21v-46.24c0-4.14,3.36-7.5,7.5-7.5s7.5,3.36,7.5,7.5v46.24c0,18.08-11.57,33.95-28.78,39.49l-124.13,39.92c-.76.25-1.54.36-2.3.36Z"/>
        </g>
        <path class="cls-3" d="m785.33,902.5h0c-2.31,0-4.49-1.02-5.91-2.84l-71.27-91.25c-2.55-3.26-1.97-7.97,1.29-10.52,3.27-2.55,7.98-1.96,10.53,1.3l65.36,83.71,66.3-84.66c2.55-3.26,7.27-3.83,10.53-1.28,3.26,2.55,3.83,7.27,1.28,10.53l-72.22,92.17c-1.42,1.82-3.6,2.84-5.91,2.84Z"/>
      </g>
      <path class="cls-2" d="m1585.91,1249.69h-91.16c-4.14,0-7.5-3.36-7.5-7.5s3.36-7.5,7.5-7.5h83.66v-154.09h-568.28v73.86c0,4.14-3.36,7.5-7.5,7.5s-7.5-3.36-7.5-7.5v-81.36c0-4.14,3.36-7.5,7.5-7.5h583.28c4.14,0,7.5,3.36,7.5,7.5v169.09c0,4.14-3.36,7.5-7.5,7.5Z"/>
      <path class="cls-3" d="m1490.77,1334.24h-583.28c-4.14,0-7.5-3.36-7.5-7.5v-169.09c0-4.14,3.36-7.5,7.5-7.5h583.28c4.14,0,7.5,3.36,7.5,7.5v169.09c0,4.14-3.36,7.5-7.5,7.5Zm-575.78-15h568.28v-154.09h-568.28v154.09Z"/>
      <g>
        <path class="cls-3" d="m1441.7,1208.5h-485c-4.14,0-7.5-3.36-7.5-7.5s3.36-7.5,7.5-7.5h485c4.14,0,7.5,3.36,7.5,7.5s-3.36,7.5-7.5,7.5Z"/>
        <path class="cls-3" d="m1441.7,1250.5h-485c-4.14,0-7.5-3.36-7.5-7.5s3.36-7.5,7.5-7.5h485c4.14,0,7.5,3.36,7.5,7.5s-3.36,7.5-7.5,7.5Z"/>
        <path class="cls-3" d="m1198.7,1293.5h-242c-4.14,0-7.5-3.36-7.5-7.5s3.36-7.5,7.5-7.5h242c4.14,0,7.5,3.36,7.5,7.5s-3.36,7.5-7.5,7.5Z"/>
      </g>
      <path class="cls-2" d="m1536.7,1123.5h-485c-4.14,0-7.5-3.36-7.5-7.5s3.36-7.5,7.5-7.5h485c4.14,0,7.5,3.36,7.5,7.5s-3.36,7.5-7.5,7.5Z"/>
      <path class="cls-2" d="m786.2,1165.5h-482c-4.14,0-7.5-3.36-7.5-7.5v-496.5c0-4.14,3.36-7.5,7.5-7.5s7.5,3.36,7.5,7.5v489h467v-116c0-4.14,3.36-7.5,7.5-7.5s7.5,3.36,7.5,7.5v123.5c0,4.14-3.36,7.5-7.5,7.5Z"/>
      <path class="cls-2" d="m1294.2,994c-4.14,0-7.5-3.36-7.5-7.5v-351h-132c-4.14,0-7.5-3.36-7.5-7.5s3.36-7.5,7.5-7.5h139.5c4.14,0,7.5,3.36,7.5,7.5v358.5c0,4.14-3.36,7.5-7.5,7.5Z"/>
      <path class="cls-1" d="m1497.58,145.92c-5.82-1.75-9.11-7.89-7.35-13.71h0c1.76-5.82,7.9-9.1,13.71-7.35h0c5.82,1.76,9.11,7.9,7.35,13.72h0c-1.44,4.75-5.8,7.82-10.53,7.82h0c-1.05,0-2.12-.16-3.18-.48Zm28.3-8.24c-2.47-5.55.03-12.05,5.58-14.52h0c5.55-2.47,12.05.03,14.52,5.58h0c2.47,5.55-.03,12.05-5.58,14.52h0c-1.45.65-2.97.95-4.46.95h0c-4.22,0-8.24-2.43-10.06-6.53Zm-62.46-17.72c-3.25-5.13-1.74-11.92,3.39-15.18h0c5.13-3.26,11.92-1.74,15.18,3.39h0c3.26,5.12,1.74,11.92-3.38,15.18h0c-1.83,1.16-3.87,1.72-5.89,1.72h0c-3.64,0-7.2-1.81-9.3-5.11Zm93.01-1.44c-5.49-2.59-7.84-9.15-5.24-14.64h0c2.6-5.49,9.15-7.84,14.64-5.24h0c5.5,2.59,7.84,9.15,5.25,14.64h0c-1.88,3.97-5.83,6.3-9.95,6.3h0c-1.58,0-3.18-.34-4.7-1.06Zm-92.63-28.04c-6.01-.88-10.17-6.47-9.28-12.48h0c.88-6.01,6.46-10.17,12.48-9.29h0c6.01.88,10.16,6.47,9.28,12.48h0c-.8,5.47-5.5,9.41-10.87,9.41h0c-.53,0-1.07-.04-1.61-.12Zm89.73-14.07c-1.63-5.86,1.81-11.92,7.66-13.54h0c5.85-1.62,11.92,1.81,13.54,7.66h0c1.62,5.86-1.81,11.92-7.67,13.54h0c-.98.27-1.97.4-2.94.4h0c-4.82,0-9.24-3.19-10.59-8.06Zm-79.47-20.49c-3.97-4.6-3.46-11.55,1.14-15.52h0c4.6-3.97,11.54-3.46,15.51,1.14h0c3.97,4.59,3.46,11.54-1.13,15.51h0c-2.08,1.8-4.64,2.68-7.19,2.68h0c-3.08,0-6.15-1.3-8.33-3.81Zm63.28-1.84c-5.05-3.37-6.41-10.2-3.04-15.26h0c3.38-5.05,10.21-6.41,15.26-3.03h0c5.05,3.37,6.41,10.21,3.04,15.26h0c-2.12,3.17-5.61,4.89-9.16,4.89h0c-2.1,0-4.22-.6-6.1-1.86Zm-32.93-17.63c0-6.08,4.92-11,11-11h0c6.07,0,11,4.92,11,11h0c0,6.08-4.93,11-11,11h0c-6.08,0-11-4.92-11-11Z"/>
      <path class="cls-1" d="m68.88,774.38h0c-5.82-1.76-9.11-7.9-7.35-13.72h0c1.75-5.81,7.89-9.1,13.71-7.34h0c5.82,1.75,9.1,7.89,7.35,13.71h0c-1.44,4.75-5.81,7.82-10.53,7.82h0c-1.05,0-2.13-.15-3.19-.47Zm28.31-8.25c-2.47-5.55.03-12.05,5.58-14.52h0c5.55-2.47,12.05.03,14.52,5.58h0c2.47,5.55-.03,12.05-5.58,14.52h0c-1.45.65-2.97.95-4.47.95h0c-4.21,0-8.23-2.43-10.05-6.53Zm-62.46-17.72h0c-3.26-5.13-1.74-11.92,3.39-15.18h0c5.13-3.26,11.92-1.74,15.18,3.39h0c3.26,5.12,1.74,11.92-3.39,15.18h0c-1.83,1.16-3.87,1.72-5.89,1.72h0c-3.63,0-7.2-1.81-9.29-5.11Zm93.01-1.44c-5.49-2.59-7.84-9.15-5.24-14.64h0c2.59-5.49,9.15-7.84,14.64-5.25h0c5.49,2.6,7.84,9.16,5.24,14.65h0c-1.87,3.98-5.83,6.3-9.95,6.3h0c-1.57,0-3.17-.34-4.69-1.06Zm-92.63-28.04c-6.01-.88-10.17-6.47-9.29-12.48h0c.88-6.01,6.47-10.17,12.48-9.29h0c6.01.88,10.17,6.47,9.29,12.48h0c-.8,5.47-5.5,9.41-10.87,9.41h0c-.53,0-1.07-.04-1.61-.12Zm89.72-14.07h0c-1.62-5.86,1.81-11.92,7.67-13.54h0c5.85-1.62,11.91,1.81,13.53,7.66h0c1.63,5.86-1.8,11.92-7.66,13.54h0c-.98.27-1.97.4-2.94.4h0c-4.82,0-9.25-3.19-10.6-8.06Zm-79.46-20.49c-3.97-4.6-3.46-11.55,1.14-15.52h0c4.59-3.97,11.54-3.46,15.51,1.14h0c3.97,4.59,3.46,11.54-1.14,15.51h0c-2.08,1.8-4.64,2.68-7.18,2.68h0c-3.09,0-6.16-1.29-8.33-3.81Zm63.28-1.84c-5.05-3.37-6.41-10.2-3.04-15.25h0c3.38-5.05,10.21-6.42,15.26-3.04h0c5.05,3.37,6.41,10.2,3.04,15.26h0c-2.13,3.17-5.61,4.89-9.16,4.89h0c-2.1,0-4.23-.6-6.1-1.86Zm-32.93-17.63c0-6.07,4.92-11,11-11h0c6.07,0,11,4.93,11,11h0c0,6.08-4.93,11-11,11h0c-6.08,0-11-4.92-11-11Z"/>
      <path class="cls-1" d="m507.87,1328.92c-5.82-1.75-9.1-7.89-7.35-13.71h0c1.76-5.81,7.9-9.1,13.72-7.35h0c5.81,1.76,9.1,7.9,7.34,13.72h0c-1.43,4.75-5.8,7.82-10.52,7.82h0c-1.06,0-2.13-.16-3.19-.48Zm28.3-8.24c-2.46-5.55.03-12.05,5.58-14.52h0c5.55-2.47,12.05.03,14.51,5.58h0c2.47,5.55-.03,12.05-5.58,14.52h.01c-1.46.65-2.97.95-4.47.95h0c-4.21,0-8.23-2.43-10.06-6.53Zm-62.46-17.72c-3.25-5.13-1.73-11.92,3.4-15.18h0c5.12-3.26,11.92-1.74,15.18,3.39h0c3.25,5.13,1.74,11.92-3.39,15.18h0c-1.83,1.16-3.87,1.72-5.89,1.72h0c-3.64,0-7.2-1.81-9.3-5.11Zm93.01-1.44c-5.49-2.59-7.83-9.15-5.24-14.64h0c2.6-5.49,9.16-7.84,14.65-5.24h0c5.49,2.59,7.84,9.15,5.24,14.64h0c-1.88,3.97-5.83,6.3-9.95,6.3h0c-1.58,0-3.18-.34-4.7-1.06Zm-92.63-28.04c-6.01-.89-10.17-6.47-9.28-12.48h0c.88-6.01,6.47-10.17,12.48-9.29h0c6.01.88,10.17,6.47,9.29,12.48h0c-.81,5.47-5.51,9.41-10.88,9.41h0c-.53,0-1.07-.04-1.61-.12Zm89.73-14.07h0c-1.62-5.86,1.81-11.92,7.66-13.54h0c5.86-1.62,11.92,1.81,13.54,7.66h0c1.62,5.86-1.81,11.92-7.66,13.54h0c-.99.27-1.97.4-2.95.4h0c-4.82,0-9.24-3.19-10.59-8.06Zm-79.46-20.49c-3.97-4.6-3.47-11.55,1.13-15.52h0c4.6-3.97,11.54-3.46,15.52,1.14h0c3.97,4.6,3.46,11.54-1.14,15.51h0c-2.08,1.8-4.64,2.68-7.18,2.68h0c-3.09,0-6.16-1.3-8.33-3.81Zm63.28-1.84c-5.06-3.37-6.42-10.2-3.04-15.25h0c3.37-5.06,10.2-6.42,15.26-3.04h0c5.05,3.37,6.41,10.21,3.03,15.26h0c-2.12,3.17-5.6,4.89-9.16,4.89h0c-2.1,0-4.22-.6-6.09-1.86Zm-32.94-17.63c0-6.07,4.93-11,11-11h0c6.08,0,11,4.93,11,11h0c0,6.07-4.92,11-11,11h0c-6.07,0-11-4.93-11-11Z"/>
      <path class="cls-1" d="m431.37,1067.46c-5.81-1.76-9.1-7.9-7.35-13.72h0c1.76-5.81,7.9-9.1,13.72-7.34h0c5.81,1.76,9.1,7.89,7.34,13.71h0c-1.44,4.75-5.8,7.82-10.52,7.82h0c-1.06,0-2.13-.15-3.19-.47Zm28.3-8.25c-2.46-5.55.03-12.05,5.58-14.52h0c5.56-2.47,12.06.03,14.52,5.58h0c2.47,5.55-.03,12.05-5.58,14.52h.01c-1.46.65-2.97.96-4.47.96h0c-4.21,0-8.23-2.44-10.06-6.54Zm-62.46-17.72h0c-3.26-5.12-1.75-11.92,3.39-15.18h0c5.12-3.25,11.92-1.74,15.18,3.39h0c3.25,5.13,1.74,11.93-3.39,15.18h0c-1.83,1.16-3.87,1.72-5.89,1.72h0c-3.64,0-7.2-1.81-9.3-5.11Zm93.01-1.43c-5.49-2.6-7.83-9.16-5.24-14.65h0c2.6-5.49,9.16-7.84,14.65-5.24h0c5.49,2.6,7.84,9.15,5.24,14.64h0c-1.88,3.98-5.83,6.31-9.95,6.31h0c-1.58,0-3.18-.34-4.7-1.06Zm-92.63-28.05c-6.01-.88-10.17-6.47-9.28-12.48h0c.88-6.01,6.47-10.17,12.48-9.28h0c6.01.88,10.17,6.47,9.29,12.48h0c-.81,5.47-5.51,9.4-10.88,9.4h0c-.53,0-1.06-.04-1.61-.12Zm89.73-14.07c-1.62-5.85,1.81-11.92,7.66-13.54h0c5.86-1.62,11.92,1.81,13.54,7.67h0c1.63,5.85-1.81,11.91-7.66,13.53h0c-.99.28-1.97.41-2.95.41h0c-4.82,0-9.24-3.2-10.59-8.07Zm-79.47-20.49c-3.97-4.6-3.46-11.55,1.14-15.52h0c4.6-3.97,11.54-3.46,15.52,1.14h0c3.97,4.6,3.46,11.54-1.14,15.52h0c-2.08,1.79-4.64,2.67-7.18,2.67h0c-3.09,0-6.16-1.29-8.34-3.81Zm63.28-1.83c-5.05-3.38-6.41-10.21-3.03-15.26h0c3.37-5.05,10.2-6.41,15.26-3.04h0c5.05,3.38,6.41,10.21,3.03,15.26h0c-2.12,3.17-5.6,4.89-9.16,4.89h0c-2.1,0-4.22-.6-6.1-1.85Zm-32.93-17.63c0-6.08,4.93-11,11-11h0c6.08,0,11,4.92,11,11h0c0,6.07-4.92,10.99-11,10.99h0c-6.07,0-11-4.92-11-10.99Z"/>
      <path class="cls-1" d="m1084.42,234.67c-5.82-1.75-9.1-7.89-7.35-13.71h0c1.76-5.82,7.9-9.1,13.72-7.35h0c5.81,1.76,9.1,7.9,7.34,13.72h0c-1.43,4.75-5.8,7.82-10.52,7.82h0c-1.06,0-2.13-.16-3.19-.48Zm28.3-8.24c-2.47-5.55.03-12.05,5.58-14.52h0c5.55-2.47,12.06.03,14.52,5.58h0c2.47,5.55-.02,12.05-5.58,14.52h0c-1.45.65-2.97.95-4.46.95h0c-4.21,0-8.23-2.43-10.06-6.53Zm-62.45-17.72c-3.26-5.13-1.75-11.92,3.38-15.18h0c5.13-3.26,11.93-1.74,15.19,3.39h0c3.25,5.13,1.74,11.92-3.39,15.18h0c-1.83,1.16-3.87,1.72-5.89,1.72h0c-3.64,0-7.2-1.81-9.29-5.11Zm93.01-1.44c-5.5-2.59-7.85-9.15-5.25-14.64h0c2.6-5.5,9.16-7.84,14.65-5.25h0c5.49,2.6,7.84,9.16,5.24,14.65h0c-1.88,3.97-5.83,6.3-9.95,6.3h0c-1.58,0-3.18-.34-4.69-1.06Zm-92.64-28.04c-6.01-.88-10.16-6.47-9.28-12.48h0c.88-6.01,6.47-10.17,12.48-9.29h0c6.01.89,10.17,6.47,9.28,12.48h0c-.8,5.47-5.5,9.41-10.87,9.41h0c-.53,0-1.06-.04-1.61-.12Zm89.73-14.07c-1.62-5.86,1.81-11.92,7.66-13.54h0c5.86-1.62,11.92,1.81,13.54,7.66h0c1.62,5.86-1.81,11.92-7.66,13.54h0c-.99.27-1.97.4-2.95.4h0c-4.82,0-9.24-3.19-10.59-8.06Zm-79.47-20.49c-3.97-4.6-3.46-11.55,1.14-15.52h0c4.6-3.97,11.54-3.46,15.52,1.14h0c3.97,4.6,3.46,11.54-1.14,15.51h0c-2.08,1.8-4.64,2.68-7.19,2.68h0c-3.08,0-6.15-1.29-8.33-3.81Zm63.29-1.84c-5.06-3.37-6.42-10.2-3.04-15.25h0c3.37-5.06,10.2-6.42,15.25-3.04h0c5.06,3.37,6.42,10.2,3.04,15.26h0c-2.12,3.17-5.61,4.89-9.16,4.89h0c-2.1,0-4.22-.6-6.09-1.86Zm-32.94-17.63c0-6.08,4.93-11,11-11h0c6.08,0,11,4.92,11,11h0c0,6.07-4.92,11-11,11h0c-6.07,0-11-4.93-11-11Z"/>
      <path class="cls-1" d="m1447.03,824.92c-5.82-1.76-9.11-7.9-7.35-13.71h0c1.76-5.82,7.9-9.1,13.72-7.35h0c5.81,1.76,9.1,7.9,7.34,13.72h0c-1.44,4.75-5.8,7.82-10.52,7.82h0c-1.06,0-2.13-.16-3.19-.48Zm28.3-8.24c-2.47-5.55.03-12.05,5.58-14.52h0c5.55-2.47,12.05.03,14.51,5.58h0c2.47,5.55-.02,12.05-5.58,14.52h0c-1.46.64-2.98.95-4.47.95h0c-4.21,0-8.23-2.43-10.06-6.53Zm-62.46-17.72c-3.25-5.13-1.74-11.92,3.39-15.18h0c5.13-3.26,11.93-1.74,15.18,3.39h0c3.26,5.13,1.75,11.92-3.38,15.18h0c-1.83,1.16-3.87,1.71-5.89,1.71h0c-3.64,0-7.2-1.8-9.3-5.1Zm93.02-1.44c-5.5-2.59-7.85-9.15-5.25-14.64h0c2.6-5.5,9.16-7.84,14.65-5.25h0c5.49,2.6,7.84,9.16,5.24,14.65h0c-1.88,3.97-5.83,6.3-9.95,6.3h0c-1.58,0-3.18-.34-4.69-1.06Zm-92.64-28.04c-6.01-.88-10.17-6.47-9.28-12.48h0c.88-6.01,6.47-10.17,12.48-9.29h0c6.01.89,10.16,6.47,9.28,12.48h0c-.8,5.47-5.5,9.41-10.87,9.41h0c-.53,0-1.07-.04-1.61-.12Zm89.73-14.07c-1.63-5.86,1.81-11.92,7.66-13.54h0c5.86-1.62,11.92,1.81,13.54,7.66h0c1.62,5.86-1.81,11.92-7.66,13.54h0c-.99.27-1.98.4-2.95.4h0c-4.82,0-9.24-3.19-10.59-8.06Zm-79.47-20.49c-3.97-4.6-3.46-11.55,1.14-15.52h0c4.6-3.97,11.54-3.46,15.51,1.14h0c3.97,4.59,3.47,11.54-1.13,15.51h0c-2.08,1.8-4.64,2.68-7.19,2.68h0c-3.08,0-6.15-1.29-8.33-3.81Zm63.28-1.84c-5.05-3.37-6.41-10.2-3.03-15.25h0c3.37-5.06,10.2-6.42,15.25-3.04h0c5.05,3.37,6.41,10.21,3.04,15.25h0c-2.12,3.18-5.61,4.9-9.16,4.9h0c-2.1,0-4.22-.6-6.1-1.86Zm-32.93-17.63c0-6.07,4.93-11,11-11h0c6.08,0,11,4.93,11,11h0c0,6.08-4.92,11-11,11h0c-6.07,0-11-4.92-11-11Z"/>
      <g>
        <path class="cls-1" d="m1465.2,485c-4.14,0-7.5-3.36-7.5-7.5v-39c0-4.14,3.36-7.5,7.5-7.5s7.5,3.36,7.5,7.5v39c0,4.14-3.36,7.5-7.5,7.5Z"/>
        <path class="cls-1" d="m1484.7,465.5h-39c-4.14,0-7.5-3.36-7.5-7.5s3.36-7.5,7.5-7.5h39c4.14,0,7.5,3.36,7.5,7.5s-3.36,7.5-7.5,7.5Z"/>
      </g>
      <g>
        <path class="cls-1" d="m1275.2,174c-4.14,0-7.5-3.36-7.5-7.5v-39c0-4.14,3.36-7.5,7.5-7.5s7.5,3.36,7.5,7.5v39c0,4.14-3.36,7.5-7.5,7.5Z"/>
        <path class="cls-1" d="m1294.7,154.5h-39c-4.14,0-7.5-3.36-7.5-7.5s3.36-7.5,7.5-7.5h39c4.14,0,7.5,3.36,7.5,7.5s-3.36,7.5-7.5,7.5Z"/>
      </g>
      <g>
        <path class="cls-1" d="m1165.2,505c-4.14,0-7.5-3.36-7.5-7.5v-39c0-4.14,3.36-7.5,7.5-7.5s7.5,3.36,7.5,7.5v39c0,4.14-3.36,7.5-7.5,7.5Z"/>
        <path class="cls-1" d="m1184.7,485.5h-39c-4.14,0-7.5-3.36-7.5-7.5s3.36-7.5,7.5-7.5h39c4.14,0,7.5,3.36,7.5,7.5s-3.36,7.5-7.5,7.5Z"/>
      </g>
      <g>
        <path class="cls-1" d="m1442.2,992c-4.14,0-7.5-3.36-7.5-7.5v-39c0-4.14,3.36-7.5,7.5-7.5s7.5,3.36,7.5,7.5v39c0,4.14-3.36,7.5-7.5,7.5Z"/>
        <path class="cls-1" d="m1461.7,972.5h-39c-4.14,0-7.5-3.36-7.5-7.5s3.36-7.5,7.5-7.5h39c4.14,0,7.5,3.36,7.5,7.5s-3.36,7.5-7.5,7.5Z"/>
      </g>
      <g>
        <path class="cls-1" d="m1102.2,972c-4.14,0-7.5-3.36-7.5-7.5v-39c0-4.14,3.36-7.5,7.5-7.5s7.5,3.36,7.5,7.5v39c0,4.14-3.36,7.5-7.5,7.5Z"/>
        <path class="cls-1" d="m1121.7,952.5h-39c-4.14,0-7.5-3.36-7.5-7.5s3.36-7.5,7.5-7.5h39c4.14,0,7.5,3.36,7.5,7.5s-3.36,7.5-7.5,7.5Z"/>
      </g>
      <g>
        <path class="cls-1" d="m129.2,1215c-4.14,0-7.5-3.36-7.5-7.5v-39c0-4.14,3.36-7.5,7.5-7.5s7.5,3.36,7.5,7.5v39c0,4.14-3.36,7.5-7.5,7.5Z"/>
        <path class="cls-1" d="m148.7,1195.5h-39c-4.14,0-7.5-3.36-7.5-7.5s3.36-7.5,7.5-7.5h39c4.14,0,7.5,3.36,7.5,7.5s-3.36,7.5-7.5,7.5Z"/>
      </g>
      <g>
        <path class="cls-1" d="m189.2,985c-4.14,0-7.5-3.36-7.5-7.5v-39c0-4.14,3.36-7.5,7.5-7.5s7.5,3.36,7.5,7.5v39c0,4.14-3.36,7.5-7.5,7.5Z"/>
        <path class="cls-1" d="m208.7,965.5h-39c-4.14,0-7.5-3.36-7.5-7.5s3.36-7.5,7.5-7.5h39c4.14,0,7.5,3.36,7.5,7.5s-3.36,7.5-7.5,7.5Z"/>
      </g>
      <g>
        <path class="cls-1" d="m767.2,1313c-4.14,0-7.5-3.36-7.5-7.5v-39c0-4.14,3.36-7.5,7.5-7.5s7.5,3.36,7.5,7.5v39c0,4.14-3.36,7.5-7.5,7.5Z"/>
        <path class="cls-1" d="m786.7,1293.5h-39c-4.14,0-7.5-3.36-7.5-7.5s3.36-7.5,7.5-7.5h39c4.14,0,7.5,3.36,7.5,7.5s-3.36,7.5-7.5,7.5Z"/>
      </g>
      <g>
        <path class="cls-1" d="m413.2,796c-4.14,0-7.5-3.36-7.5-7.5v-39c0-4.14,3.36-7.5,7.5-7.5s7.5,3.36,7.5,7.5v39c0,4.14-3.36,7.5-7.5,7.5Z"/>
        <path class="cls-1" d="m432.7,776.5h-39c-4.14,0-7.5-3.36-7.5-7.5s3.36-7.5,7.5-7.5h39c4.14,0,7.5,3.36,7.5,7.5s-3.36,7.5-7.5,7.5Z"/>
      </g>
    </g>
  </g>
</svg>