<?xml version="1.0" encoding="UTF-8"?>
<svg id="Layer_2" data-name="Layer 2" xmlns="http://www.w3.org/2000/svg" viewBox="0 0 1609.5 1326.5">
  <defs>
    <style>
      .cls-1, .cls-2 {
        fill: #2e2b28;
      }

      .cls-2 {
        stroke: #2e2b28;
        stroke-miterlimit: 10;
        stroke-width: 10px;
      }
    </style>
  </defs>
  <g id="FORECASTING">
    <g>
      <g>
        <path class="cls-2" d="m1443.91,261.02c-34.88,0-66.68-17.72-85.07-47.41-2.47-3.99-1.24-9.23,2.75-11.7,3.99-2.47,9.23-1.24,11.7,2.75,15.27,24.65,41.67,39.36,70.62,39.36,45.77,0,83-37.24,83-83s-37.24-83-83-83-83,37.24-83,83c0,4.69-3.81,8.5-8.5,8.5s-8.5-3.81-8.5-8.5c0-55.14,44.86-100,100-100s100,44.86,100,100-44.86,100-100,100Z"/>
        <path class="cls-2" d="m1352.23,169.52c-.2,0-.39,0-.59-.02-2.25-.16-4.34-1.2-5.82-2.9l-17.01-19.57c-3.08-3.54-2.7-8.91.84-11.99,3.54-3.08,8.91-2.7,11.99.84l11.43,13.15,13.15-11.43c3.54-3.08,8.91-2.7,11.99.84,3.08,3.54,2.7,8.91-.84,11.99l-19.57,17.01c-1.55,1.35-3.53,2.09-5.58,2.09Z"/>
      </g>
      <path class="cls-2" d="m1446.74,320.57c-86.99,0-157.76-70.79-157.76-157.81S1359.77,5,1446.79,5c4.69,0,8.5,3.81,8.5,8.5s-3.81,8.5-8.5,8.5c-77.64,0-140.81,63.14-140.81,140.76s63.15,140.81,140.76,140.81,140.76-63.14,140.76-140.75c0-4.69,3.81-8.5,8.5-8.5s8.5,3.81,8.5,8.5c0,42.26-16.41,81.92-46.21,111.67-29.76,29.71-69.38,46.07-111.55,46.07Z"/>
    </g>
    <g>
      <path class="cls-2" d="m827,213.5c0,4.69-3.81,8.5-8.5,8.5H13.5c-4.69,0-8.5-3.81-8.5-8.5V13.5c0-4.69,3.81-8.5,8.5-8.5h805c4.69,0,8.5,3.81,8.5,8.5v200ZM22,205h788V22H22v183Z"/>
      <path class="cls-2" d="m827,501.5c0,4.69-3.81,8.5-8.5,8.5H13.5c-4.69,0-8.5-3.81-8.5-8.5v-200c0-4.69,3.81-8.5,8.5-8.5h805c4.69,0,8.5,3.81,8.5,8.5v200Zm-805-8.5h788v-183H22v183Z"/>
      <path class="cls-2" d="m827,789.5c0,4.69-3.81,8.5-8.5,8.5H13.5c-4.69,0-8.5-3.81-8.5-8.5v-201c0-4.69,3.81-8.5,8.5-8.5h805c4.69,0,8.5,3.81,8.5,8.5v201Zm-805-8.5h788v-184H22v184Z"/>
      <path class="cls-2" d="m13.5,310.5c-4.69,0-8.5-3.81-8.5-8.5v-88c0-4.69,3.81-8.5,8.5-8.5s8.5,3.81,8.5,8.5v88c0,4.69-3.81,8.5-8.5,8.5Z"/>
      <path class="cls-2" d="m13.5,597.5c-4.69,0-8.5-3.81-8.5-8.5v-87c0-4.69,3.81-8.5,8.5-8.5s8.5,3.81,8.5,8.5v87c0,4.69-3.81,8.5-8.5,8.5Z"/>
      <path class="cls-2" d="m756.65,153.75c-22.19,0-40.25-18.06-40.25-40.25s18.06-40.25,40.25-40.25,40.25,18.06,40.25,40.25-18.06,40.25-40.25,40.25Zm0-63.5c-12.82,0-23.25,10.43-23.25,23.25s10.43,23.25,23.25,23.25,23.25-10.43,23.25-23.25-10.43-23.25-23.25-23.25Z"/>
      <path class="cls-2" d="m756.65,441.75c-22.19,0-40.25-18.06-40.25-40.25s18.06-40.25,40.25-40.25,40.25,18.06,40.25,40.25-18.06,40.25-40.25,40.25Zm0-63.5c-12.82,0-23.25,10.43-23.25,23.25s10.43,23.25,23.25,23.25,23.25-10.43,23.25-23.25-10.43-23.25-23.25-23.25Z"/>
      <path class="cls-2" d="m756.65,729.25c-22.19,0-40.25-18.06-40.25-40.25s18.06-40.25,40.25-40.25,40.25,18.06,40.25,40.25-18.06,40.25-40.25,40.25Zm0-63.5c-12.82,0-23.25,10.43-23.25,23.25s10.43,23.25,23.25,23.25,23.25-10.43,23.25-23.25-10.43-23.25-23.25-23.25Z"/>
      <path class="cls-2" d="m68.5,160.5c-4.69,0-8.5-3.81-8.5-8.5V54.5c0-4.69,3.81-8.5,8.5-8.5h129.5c4.69,0,8.5,3.81,8.5,8.5s-3.81,8.5-8.5,8.5h-121v89c0,4.69-3.81,8.5-8.5,8.5Z"/>
      <path class="cls-2" d="m68.5,450.5c-4.69,0-8.5-3.81-8.5-8.5v-81c0-4.69,3.81-8.5,8.5-8.5s8.5,3.81,8.5,8.5v81c0,4.69-3.81,8.5-8.5,8.5Z"/>
      <path class="cls-2" d="m333,747H68.5c-4.69,0-8.5-3.81-8.5-8.5v-81.5c0-4.69,3.81-8.5,8.5-8.5s8.5,3.81,8.5,8.5v73h256c4.69,0,8.5,3.81,8.5,8.5s-3.81,8.5-8.5,8.5Z"/>
      <path class="cls-2" d="m659,698h-168c-4.69,0-8.5-3.81-8.5-8.5s3.81-8.5,8.5-8.5h168c4.69,0,8.5,3.81,8.5,8.5s-3.81,8.5-8.5,8.5Z"/>
      <path class="cls-2" d="m659,410h-168c-4.69,0-8.5-3.81-8.5-8.5s3.81-8.5,8.5-8.5h168c4.69,0,8.5,3.81,8.5,8.5s-3.81,8.5-8.5,8.5Z"/>
      <path class="cls-2" d="m659,122h-168c-4.69,0-8.5-3.81-8.5-8.5s3.81-8.5,8.5-8.5h168c4.69,0,8.5,3.81,8.5,8.5s-3.81,8.5-8.5,8.5Z"/>
    </g>
    <g>
      <g>
        <path class="cls-2" d="m1076,1158.5c0,4.69-3.81,8.5-8.5,8.5h-76c-4.69,0-8.5-3.81-8.5-8.5v-75c0-4.69,3.81-8.5,8.5-8.5h76c4.69,0,8.5,3.81,8.5,8.5v75Zm-76-8.5h59v-58h-59v58Z"/>
        <path class="cls-2" d="m1029.5,1081.5c-4.69,0-8.5-3.81-8.5-8.5v-71.5c0-4.69,3.81-8.5,8.5-8.5h131.5c4.69,0,8.5,3.81,8.5,8.5s-3.81,8.5-8.5,8.5h-123v63c0,4.69-3.81,8.5-8.5,8.5Z"/>
        <path class="cls-2" d="m1215,1024.5c0,4.69-3.81,8.5-8.5,8.5h-43c-4.69,0-8.5-3.81-8.5-8.5v-45c0-4.69,3.81-8.5,8.5-8.5h43c4.69,0,8.5,3.81,8.5,8.5v45Zm-43-8.5h26v-28h-26v28Z"/>
        <path class="cls-2" d="m1161,1246h-131.5c-4.69,0-8.5-3.81-8.5-8.5v-72.5c0-4.69,3.81-8.5,8.5-8.5s8.5,3.81,8.5,8.5v64h123c4.69,0,8.5,3.81,8.5,8.5s-3.81,8.5-8.5,8.5Z"/>
        <path class="cls-2" d="m1552,1158.5c0,4.69-3.81,8.5-8.5,8.5h-77c-4.69,0-8.5-3.81-8.5-8.5v-75c0-4.69,3.81-8.5,8.5-8.5h77c4.69,0,8.5,3.81,8.5,8.5v75Zm-77-8.5h60v-58h-60v58Z"/>
        <path class="cls-2" d="m1504.5,1081.5c-4.69,0-8.5-3.81-8.5-8.5v-63h-124c-4.69,0-8.5-3.81-8.5-8.5s3.81-8.5,8.5-8.5h132.5c4.69,0,8.5,3.81,8.5,8.5v71.5c0,4.69-3.81,8.5-8.5,8.5Z"/>
        <path class="cls-2" d="m1504.5,1246h-132.5c-4.69,0-8.5-3.81-8.5-8.5s3.81-8.5,8.5-8.5h124v-64c0-4.69,3.81-8.5,8.5-8.5s8.5,3.81,8.5,8.5v72.5c0,4.69-3.81,8.5-8.5,8.5Z"/>
        <path class="cls-2" d="m1215,1260.5c0,4.69-3.81,8.5-8.5,8.5h-43c-4.69,0-8.5-3.81-8.5-8.5v-46c0-4.69,3.81-8.5,8.5-8.5h43c4.69,0,8.5,3.81,8.5,8.5v46Zm-43-8.5h26v-29h-26v29Z"/>
        <path class="cls-2" d="m1215,1142.5c0,4.69-3.81,8.5-8.5,8.5h-43c-4.69,0-8.5-3.81-8.5-8.5v-44c0-4.69,3.81-8.5,8.5-8.5h43c4.69,0,8.5,3.81,8.5,8.5v44Zm-43-8.5h26v-27h-26v27Z"/>
        <path class="cls-2" d="m1379,1022.5c0,4.69-3.81,8.5-8.5,8.5h-45c-4.69,0-8.5-3.81-8.5-8.5v-43c0-4.69,3.81-8.5,8.5-8.5h45c4.69,0,8.5,3.81,8.5,8.5v43Zm-45-8.5h28v-26h-28v26Z"/>
        <path class="cls-2" d="m1379,1260.5c0,4.69-3.81,8.5-8.5,8.5h-45c-4.69,0-8.5-3.81-8.5-8.5v-46c0-4.69,3.81-8.5,8.5-8.5h45c4.69,0,8.5,3.81,8.5,8.5v46Zm-45-8.5h28v-29h-28v29Z"/>
        <path class="cls-2" d="m1320,1010h-110c-4.69,0-8.5-3.81-8.5-8.5s3.81-8.5,8.5-8.5h110c4.69,0,8.5,3.81,8.5,8.5s-3.81,8.5-8.5,8.5Z"/>
        <path class="cls-2" d="m1320,1245h-110c-4.69,0-8.5-3.81-8.5-8.5s3.81-8.5,8.5-8.5h110c4.69,0,8.5,3.81,8.5,8.5s-3.81,8.5-8.5,8.5Z"/>
        <path class="cls-2" d="m1185.5,1101.5c-4.69,0-8.5-3.81-8.5-8.5v-68c0-4.69,3.81-8.5,8.5-8.5s8.5,3.81,8.5,8.5v68c0,4.69-3.81,8.5-8.5,8.5Z"/>
        <path class="cls-2" d="m1185.5,1220.5c-4.69,0-8.5-3.81-8.5-8.5v-69c0-4.69,3.81-8.5,8.5-8.5s8.5,3.81,8.5,8.5v69c0,4.69-3.81,8.5-8.5,8.5Z"/>
        <path class="cls-2" d="m1160,1129h-89c-4.69,0-8.5-3.81-8.5-8.5s3.81-8.5,8.5-8.5h89c4.69,0,8.5,3.81,8.5,8.5s-3.81,8.5-8.5,8.5Z"/>
        <path class="cls-2" d="m1323,1129h-111c-4.69,0-8.5-3.81-8.5-8.5s3.81-8.5,8.5-8.5h111c4.69,0,8.5,3.81,8.5,8.5s-3.81,8.5-8.5,8.5Z"/>
        <path class="cls-2" d="m1379,1142.5c0,4.69-3.81,8.5-8.5,8.5h-45c-4.69,0-8.5-3.81-8.5-8.5v-44c0-4.69,3.81-8.5,8.5-8.5h45c4.69,0,8.5,3.81,8.5,8.5v44Zm-45-8.5h28v-27h-28v27Z"/>
        <path class="cls-2" d="m1348.5,1101.5c-4.69,0-8.5-3.81-8.5-8.5v-68c0-4.69,3.81-8.5,8.5-8.5s8.5,3.81,8.5,8.5v68c0,4.69-3.81,8.5-8.5,8.5Z"/>
        <path class="cls-2" d="m1348.5,1220.5c-4.69,0-8.5-3.81-8.5-8.5v-69c0-4.69,3.81-8.5,8.5-8.5s8.5,3.81,8.5,8.5v69c0,4.69-3.81,8.5-8.5,8.5Z"/>
        <path class="cls-2" d="m1464,1129h-89c-4.69,0-8.5-3.81-8.5-8.5s3.81-8.5,8.5-8.5h89c4.69,0,8.5,3.81,8.5,8.5s-3.81,8.5-8.5,8.5Z"/>
        <path class="cls-2" d="m1596,1127h-52c-4.69,0-8.5-3.81-8.5-8.5s3.81-8.5,8.5-8.5h52c4.69,0,8.5,3.81,8.5,8.5s-3.81,8.5-8.5,8.5Z"/>
        <path class="cls-2" d="m1348.5,1320.5c-4.69,0-8.5-3.81-8.5-8.5v-50c0-4.69,3.81-8.5,8.5-8.5s8.5,3.81,8.5,8.5v50c0,4.69-3.81,8.5-8.5,8.5Z"/>
        <path class="cls-2" d="m1185.5,1321.5c-4.69,0-8.5-3.81-8.5-8.5v-52c0-4.69,3.81-8.5,8.5-8.5s8.5,3.81,8.5,8.5v52c0,4.69-3.81,8.5-8.5,8.5Z"/>
        <path class="cls-2" d="m1348.5,982.5c-4.69,0-8.5-3.81-8.5-8.5v-50c0-4.69,3.81-8.5,8.5-8.5s8.5,3.81,8.5,8.5v50c0,4.69-3.81,8.5-8.5,8.5Z"/>
        <path class="cls-2" d="m1185.5,983.5c-4.69,0-8.5-3.81-8.5-8.5v-52c0-4.69,3.81-8.5,8.5-8.5s8.5,3.81,8.5,8.5v52c0,4.69-3.81,8.5-8.5,8.5Z"/>
      </g>
      <path class="cls-2" d="m990,1127h-52c-4.69,0-8.5-3.81-8.5-8.5s3.81-8.5,8.5-8.5h52c4.69,0,8.5,3.81,8.5,8.5s-3.81,8.5-8.5,8.5Z"/>
    </g>
    <path class="cls-2" d="m880,1127h-464.5c-4.69,0-8.5-3.81-8.5-8.5v-271.5c0-4.69,3.81-8.5,8.5-8.5s8.5,3.81,8.5,8.5v263h456c4.69,0,8.5,3.81,8.5,8.5s-3.81,8.5-8.5,8.5Z"/>
    <path class="cls-2" d="m1504.5,914.5c-4.69,0-8.5-3.81-8.5-8.5v-504c0-4.69,3.81-8.5,8.5-8.5s8.5,3.81,8.5,8.5v504c0,4.69-3.81,8.5-8.5,8.5Z"/>
    <path class="cls-2" d="m1163,172h-265c-4.69,0-8.5-3.81-8.5-8.5s3.81-8.5,8.5-8.5h265c4.69,0,8.5,3.81,8.5,8.5s-3.81,8.5-8.5,8.5Z"/>
    <path class="cls-1" d="m64.87,964.92c-5.81-1.75-9.1-7.89-7.34-13.71h0c1.75-5.81,7.89-9.1,13.71-7.34h0c5.81,1.75,9.1,7.89,7.34,13.71h0c-1.43,4.75-5.8,7.82-10.52,7.82h0c-1.05,0-2.13-.16-3.19-.48Zm28.31-8.24c-2.47-5.55.02-12.05,5.58-14.52h0c5.56-2.47,12.06.03,14.53,5.58h0c2.47,5.55-.03,12.05-5.58,14.52h0c-1.46.65-2.97.95-4.47.95h0c-4.21,0-8.23-2.43-10.05-6.53Zm-62.46-17.72c-3.26-5.13-1.74-11.92,3.39-15.18h0c5.12-3.26,11.92-1.74,15.18,3.39h0c3.25,5.13,1.74,11.92-3.39,15.18h0c-1.83,1.16-3.87,1.72-5.89,1.72h0c-3.64,0-7.2-1.81-9.29-5.11Zm93.01-1.44c-5.5-2.59-7.84-9.15-5.25-14.64h0c2.6-5.5,9.16-7.84,14.65-5.25h0c5.49,2.6,7.84,9.16,5.24,14.65h0c-1.88,3.97-5.83,6.3-9.95,6.3h0c-1.57,0-3.18-.34-4.69-1.06Zm-92.64-28.04c-6.01-.88-10.16-6.47-9.28-12.48h0c.88-6.01,6.47-10.17,12.48-9.29h0c6.01.88,10.17,6.47,9.29,12.48h0c-.81,5.47-5.51,9.41-10.87,9.41h0c-.54,0-1.07-.04-1.62-.12Zm89.73-14.07c-1.62-5.86,1.81-11.92,7.66-13.54h0c5.86-1.62,11.92,1.81,13.54,7.66h0c1.62,5.86-1.81,11.92-7.66,13.54h0c-.98.27-1.97.4-2.94.4h0c-4.83,0-9.25-3.19-10.6-8.06Zm-79.46-20.49c-3.98-4.6-3.47-11.55,1.13-15.52h0c4.6-3.97,11.55-3.46,15.52,1.14h0c3.97,4.59,3.46,11.54-1.14,15.51h0c-2.08,1.8-4.64,2.68-7.18,2.68h0c-3.09,0-6.16-1.29-8.33-3.81Zm63.28-1.84c-5.06-3.37-6.42-10.2-3.04-15.25h0c3.37-5.06,10.2-6.42,15.26-3.04h0c5.05,3.37,6.41,10.21,3.03,15.26h0c-2.12,3.17-5.6,4.89-9.15,4.89h0c-2.1,0-4.23-.6-6.1-1.86Zm-32.94-17.63c0-6.07,4.93-11,11-11h0c6.08,0,11,4.93,11,11h0c0,6.08-4.92,11-11,11h0c-6.07,0-11-4.92-11-11Z"/>
    <path class="cls-1" d="m579.37,1306.47c-5.81-1.76-9.1-7.9-7.34-13.72h0c1.75-5.81,7.89-9.1,13.71-7.34h0c5.81,1.76,9.1,7.9,7.34,13.71h0c-1.43,4.75-5.8,7.82-10.52,7.82h0c-1.06,0-2.13-.15-3.19-.47Zm28.31-8.25c-2.47-5.55.02-12.05,5.58-14.52h0c5.55-2.47,12.05.03,14.52,5.58h0c2.47,5.55-.03,12.06-5.58,14.52h0c-1.46.65-2.97.96-4.47.96h0c-4.21,0-8.23-2.44-10.05-6.54Zm-62.46-17.71h0c-3.26-5.13-1.74-11.93,3.38-15.19h0c5.13-3.25,11.93-1.74,15.19,3.39h0c3.25,5.13,1.74,11.93-3.39,15.18h0c-1.83,1.17-3.87,1.72-5.89,1.72h0c-3.64,0-7.2-1.8-9.29-5.1Zm93.01-1.44c-5.5-2.6-7.84-9.16-5.25-14.65h0c2.6-5.49,9.16-7.84,14.65-5.24h0c5.49,2.59,7.84,9.15,5.24,14.64h0c-1.88,3.98-5.83,6.31-9.95,6.31h0c-1.58,0-3.18-.34-4.69-1.06Zm-92.63-28.05c-6.02-.88-10.17-6.47-9.29-12.48h0c.88-6.01,6.47-10.17,12.48-9.28h0c6.01.88,10.17,6.47,9.28,12.48h.01c-.81,5.47-5.5,9.4-10.87,9.4h0c-.53,0-1.07-.04-1.61-.12Zm89.72-14.07h0c-1.62-5.85,1.81-11.91,7.66-13.54h0c5.86-1.62,11.92,1.81,13.54,7.66h0c1.62,5.86-1.81,11.92-7.66,13.54h0c-.98.27-1.97.4-2.94.4h0c-4.82,0-9.25-3.19-10.6-8.06Zm-79.46-20.49c-3.98-4.6-3.47-11.54,1.13-15.51h0c4.6-3.97,11.55-3.47,15.52,1.13h0c3.97,4.6,3.46,11.55-1.14,15.52h0c-2.08,1.79-4.64,2.67-7.18,2.67h0c-3.09,0-6.16-1.29-8.33-3.81Zm63.27-1.83h0c-5.06-3.38-6.42-10.21-3.04-15.26h0c3.37-5.05,10.2-6.41,15.25-3.04h0c5.05,3.38,6.41,10.21,3.03,15.26h0c-2.12,3.17-5.61,4.89-9.16,4.89h0c-2.1,0-4.22-.6-6.1-1.85Zm-32.93-17.64c0-6.07,4.93-10.99,11-10.99h0c6.08,0,11,4.92,11,10.99h0c0,6.08-4.92,11-11,11h0c-6.07.01-11-4.92-11-11Z"/>
    <path class="cls-1" d="m1038.8,402.92c-5.81-1.75-9.1-7.89-7.35-13.71h0c1.76-5.81,7.9-9.1,13.72-7.35h0c5.81,1.76,9.1,7.9,7.34,13.72h0c-1.43,4.75-5.8,7.82-10.52,7.82h0c-1.06,0-2.13-.16-3.19-.48Zm28.3-8.24c-2.47-5.55.03-12.05,5.58-14.52h0c5.55-2.47,12.05.03,14.52,5.58h0c2.47,5.55-.03,12.05-5.58,14.52h0c-1.45.65-2.97.95-4.46.95h0c-4.21,0-8.23-2.43-10.06-6.53Zm-62.45-17.72c-3.26-5.13-1.75-11.92,3.38-15.18h0c5.13-3.26,11.93-1.74,15.19,3.39h0c3.25,5.12,1.74,11.92-3.39,15.18h0c-1.83,1.16-3.87,1.72-5.89,1.72h0c-3.64,0-7.2-1.81-9.29-5.11Zm93-1.44c-5.49-2.59-7.84-9.15-5.24-14.64h0c2.6-5.49,9.15-7.84,14.65-5.25h0c5.49,2.6,7.84,9.16,5.24,14.65h0c-1.88,3.97-5.83,6.3-9.95,6.3h0c-1.58,0-3.18-.34-4.7-1.06Zm-92.63-28.04c-6.01-.88-10.17-6.47-9.28-12.48h0c.88-6.01,6.47-10.17,12.48-9.29h0c6.01.88,10.16,6.47,9.28,12.48h0c-.8,5.47-5.5,9.41-10.86,9.41h0c-.54,0-1.07-.04-1.62-.12Zm89.73-14.07c-1.63-5.86,1.81-11.92,7.66-13.54h0c5.86-1.62,11.92,1.81,13.54,7.66h0c1.62,5.86-1.81,11.92-7.67,13.54h0c-.98.27-1.96.4-2.94.4h0c-4.82,0-9.24-3.19-10.59-8.06Zm-79.47-20.49c-3.97-4.6-3.46-11.55,1.14-15.52h0c4.6-3.97,11.54-3.46,15.51,1.14h0c3.97,4.6,3.47,11.54-1.13,15.51h0c-2.08,1.8-4.64,2.68-7.19,2.68h0c-3.08,0-6.15-1.29-8.33-3.81Zm63.28-1.84c-5.05-3.37-6.41-10.2-3.03-15.25h0c3.37-5.06,10.2-6.42,15.25-3.04h0c5.05,3.37,6.41,10.2,3.04,15.26h0c-2.12,3.17-5.61,4.89-9.16,4.89h0c-2.1,0-4.22-.61-6.1-1.86Zm-32.93-17.63c0-6.08,4.93-11,11-11h0c6.08,0,11,4.92,11,11h0c0,6.08-4.92,11-11,11h0c-6.07,0-11-4.92-11-11Z"/>
    <path class="cls-1" d="m821.12,1007.92c-5.81-1.75-9.1-7.89-7.34-13.71h0c1.75-5.81,7.89-9.1,13.71-7.35h0c5.81,1.76,9.1,7.9,7.35,13.72h0c-1.44,4.75-5.81,7.82-10.53,7.82h0c-1.05,0-2.13-.16-3.19-.48Zm28.31-8.24c-2.47-5.55.03-12.05,5.58-14.52h0c5.55-2.47,12.05.03,14.52,5.58h0c2.47,5.55-.03,12.05-5.58,14.52h0c-1.46.65-2.97.95-4.47.95h0c-4.21,0-8.23-2.43-10.05-6.53Zm-62.46-17.72c-3.26-5.13-1.74-11.92,3.39-15.18h0c5.12-3.26,11.92-1.74,15.18,3.39h0c3.25,5.12,1.74,11.92-3.39,15.18h0c-1.83,1.16-3.87,1.72-5.89,1.72h0c-3.63,0-7.2-1.81-9.29-5.11Zm93.01-1.44c-5.49-2.59-7.84-9.15-5.25-14.64h0c2.6-5.5,9.16-7.84,14.65-5.25h0c5.49,2.6,7.84,9.16,5.24,14.65h0c-1.87,3.97-5.83,6.3-9.95,6.3h0c-1.57,0-3.17-.34-4.69-1.06Zm-92.63-28.04c-6.02-.88-10.17-6.47-9.29-12.48h0c.88-6.01,6.47-10.17,12.48-9.29h0c6.01.88,10.17,6.47,9.29,12.48h0c-.81,5.47-5.51,9.41-10.87,9.41h0c-.53,0-1.07-.04-1.61-.12Zm89.72-14.07c-1.62-5.86,1.81-11.92,7.66-13.54h0c5.86-1.62,11.92,1.81,13.54,7.66h0c1.62,5.86-1.81,11.92-7.66,13.54h0c-.98.27-1.97.4-2.94.4h0c-4.82,0-9.25-3.19-10.6-8.06Zm-79.46-20.49c-3.97-4.6-3.47-11.55,1.13-15.52h0c4.6-3.97,11.55-3.46,15.52,1.14h0c3.97,4.59,3.46,11.54-1.14,15.51h0c-2.08,1.8-4.64,2.68-7.18,2.68h0c-3.09,0-6.16-1.29-8.33-3.81Zm63.28-1.84c-5.06-3.37-6.42-10.2-3.04-15.25h0c3.37-5.06,10.2-6.42,15.26-3.04h0c5.05,3.37,6.41,10.2,3.03,15.26h0c-2.12,3.17-5.6,4.89-9.15,4.89h0c-2.1,0-4.23-.6-6.1-1.86Zm-32.94-17.63c0-6.07,4.93-11,11.01-11h0c6.07,0,10.99,4.93,10.99,11h0c0,6.08-4.92,11-10.99,11h0c-6.08,0-11.01-4.92-11.01-11Z"/>
    <path class="cls-1" d="m1249.67,779.67h0c-5.82-1.75-9.1-7.89-7.35-13.71h0c1.76-5.81,7.9-9.1,13.72-7.35h0c5.81,1.76,9.1,7.9,7.34,13.72h0c-1.43,4.75-5.8,7.82-10.52,7.82h0c-1.06,0-2.13-.16-3.19-.48Zm28.3-8.24c-2.47-5.55.03-12.05,5.58-14.52h0c5.55-2.47,12.05.03,14.52,5.58h0c2.46,5.55-.03,12.05-5.59,14.52h.01c-1.46.65-2.97.95-4.47.95h0c-4.21,0-8.23-2.43-10.06-6.53Zm-62.45-17.72c-3.26-5.13-1.75-11.92,3.38-15.18h0c5.13-3.26,11.93-1.74,15.19,3.39h0c3.25,5.13,1.74,11.92-3.39,15.18h0c-1.83,1.16-3.87,1.72-5.89,1.72h0c-3.64,0-7.2-1.81-9.29-5.11Zm93-1.44c-5.49-2.59-7.83-9.15-5.24-14.64h0c2.6-5.49,9.16-7.84,14.65-5.24h0c5.49,2.59,7.84,9.15,5.24,14.64h0c-1.88,3.98-5.83,6.3-9.95,6.3h0c-1.58,0-3.18-.34-4.7-1.06Zm-92.63-28.04c-6.01-.88-10.16-6.47-9.28-12.48h0c.88-6.01,6.47-10.17,12.48-9.29h0c6.01.88,10.17,6.47,9.29,12.48h0c-.81,5.47-5.51,9.41-10.88,9.41h0c-.53,0-1.07-.04-1.61-.12Zm89.73-14.07c-1.62-5.86,1.81-11.92,7.66-13.54h0c5.86-1.62,11.92,1.81,13.54,7.66h0c1.62,5.86-1.81,11.92-7.66,13.54h0c-.99.27-1.97.4-2.95.4h0c-4.82,0-9.24-3.19-10.59-8.06Zm-79.46-20.49c-3.98-4.6-3.47-11.55,1.13-15.52h0c4.6-3.97,11.55-3.46,15.52,1.14h0c3.97,4.59,3.46,11.54-1.14,15.51h0c-2.08,1.8-4.64,2.68-7.18,2.68h0c-3.09,0-6.16-1.3-8.33-3.81Zm63.27-1.84c-5.05-3.37-6.41-10.2-3.03-15.26h0c3.37-5.05,10.2-6.41,15.26-3.03h0c5.04,3.37,6.41,10.2,3.03,15.25h0c-2.12,3.18-5.61,4.9-9.16,4.9h0c-2.1,0-4.22-.6-6.1-1.86Zm-32.93-17.63c0-6.07,4.93-11,11-11h0c6.08,0,11,4.93,11,11h0c0,6.08-4.92,11-11,11h0c-6.07,0-11-4.92-11-11Z"/>
    <g>
      <path class="cls-1" d="m307.5,1152.5c-4.69,0-8.5-3.81-8.5-8.5v-52c0-4.69,3.81-8.5,8.5-8.5s8.5,3.81,8.5,8.5v52c0,4.69-3.81,8.5-8.5,8.5Z"/>
      <path class="cls-1" d="m333,1127h-52c-4.69,0-8.5-3.81-8.5-8.5s3.81-8.5,8.5-8.5h52c4.69,0,8.5,3.81,8.5,8.5s-3.81,8.5-8.5,8.5Z"/>
    </g>
    <g>
      <path class="cls-1" d="m992.5,704.5c-4.69,0-8.5-3.81-8.5-8.5v-52c0-4.69,3.81-8.5,8.5-8.5s8.5,3.81,8.5,8.5v52c0,4.69-3.81,8.5-8.5,8.5Z"/>
      <path class="cls-1" d="m1018,679h-52c-4.69,0-8.5-3.81-8.5-8.5s3.81-8.5,8.5-8.5h52c4.69,0,8.5,3.81,8.5,8.5s-3.81,8.5-8.5,8.5Z"/>
    </g>
    <g>
      <path class="cls-1" d="m1320.5,493.5c-4.69,0-8.5-3.81-8.5-8.5v-52c0-4.69,3.81-8.5,8.5-8.5s8.5,3.81,8.5,8.5v52c0,4.69-3.81,8.5-8.5,8.5Z"/>
      <path class="cls-1" d="m1346,468h-52c-4.69,0-8.5-3.81-8.5-8.5s3.81-8.5,8.5-8.5h52c4.69,0,8.5,3.81,8.5,8.5s-3.81,8.5-8.5,8.5Z"/>
    </g>
    <g>
      <path class="cls-1" d="m1044.5,88.5c-4.69,0-8.5-3.81-8.5-8.5V28c0-4.69,3.81-8.5,8.5-8.5s8.5,3.81,8.5,8.5v52c0,4.69-3.81,8.5-8.5,8.5Z"/>
      <path class="cls-1" d="m1070,63h-52c-4.69,0-8.5-3.81-8.5-8.5s3.81-8.5,8.5-8.5h52c4.69,0,8.5,3.81,8.5,8.5s-3.81,8.5-8.5,8.5Z"/>
    </g>
  </g>
</svg>