<?xml version="1.0" encoding="UTF-8"?>
<svg id="Layer_2" data-name="Layer 2" xmlns="http://www.w3.org/2000/svg" viewBox="0 0 1609.5 1326.5">
  <defs>
    <style>
      .cls-1 {
        fill: #2e2b28;
        stroke: #2e2b28;
        stroke-miterlimit: 10;
        stroke-width: 10px;
      }
    </style>
  </defs>
  <g id="FORECASTING">
    <g>
      <g>
        <path class="cls-1" d="m1443.91,261.02c-34.88,0-66.68-17.72-85.07-47.41-2.47-3.99-1.24-9.23,2.75-11.7,3.99-2.47,9.23-1.24,11.7,2.75,15.27,24.65,41.67,39.36,70.62,39.36,45.77,0,83-37.24,83-83s-37.24-83-83-83-83,37.24-83,83c0,4.69-3.81,8.5-8.5,8.5s-8.5-3.81-8.5-8.5c0-55.14,44.86-100,100-100s100,44.86,100,100-44.86,100-100,100Z"/>
        <path class="cls-1" d="m1352.23,169.52c-.2,0-.39,0-.59-.02-2.25-.16-4.34-1.2-5.82-2.9l-17.01-19.57c-3.08-3.54-2.7-8.91.84-11.99,3.54-3.08,8.91-2.7,11.99.84l11.43,13.15,13.15-11.43c3.54-3.08,8.91-2.7,11.99.84,3.08,3.54,2.7,8.91-.84,11.99l-19.57,17.01c-1.55,1.35-3.53,2.09-5.58,2.09Z"/>
      </g>
      <path class="cls-1" d="m1446.74,320.57c-86.99,0-157.76-70.79-157.76-157.81S1359.77,5,1446.79,5c4.69,0,8.5,3.81,8.5,8.5s-3.81,8.5-8.5,8.5c-77.64,0-140.81,63.14-140.81,140.76s63.15,140.81,140.76,140.81,140.76-63.14,140.76-140.75c0-4.69,3.81-8.5,8.5-8.5s8.5,3.81,8.5,8.5c0,42.26-16.41,81.92-46.21,111.67-29.76,29.71-69.38,46.07-111.55,46.07Z"/>
    </g>
    <g>
      <path class="cls-1" d="m827,213.5c0,4.69-3.81,8.5-8.5,8.5H13.5c-4.69,0-8.5-3.81-8.5-8.5V13.5c0-4.69,3.81-8.5,8.5-8.5h805c4.69,0,8.5,3.81,8.5,8.5v200ZM22,205h788V22H22v183Z"/>
      <path class="cls-1" d="m827,501.5c0,4.69-3.81,8.5-8.5,8.5H13.5c-4.69,0-8.5-3.81-8.5-8.5v-200c0-4.69,3.81-8.5,8.5-8.5h805c4.69,0,8.5,3.81,8.5,8.5v200Zm-805-8.5h788v-183H22v183Z"/>
      <path class="cls-1" d="m827,789.5c0,4.69-3.81,8.5-8.5,8.5H13.5c-4.69,0-8.5-3.81-8.5-8.5v-201c0-4.69,3.81-8.5,8.5-8.5h805c4.69,0,8.5,3.81,8.5,8.5v201Zm-805-8.5h788v-184H22v184Z"/>
      <path class="cls-1" d="m13.5,310.5c-4.69,0-8.5-3.81-8.5-8.5v-88c0-4.69,3.81-8.5,8.5-8.5s8.5,3.81,8.5,8.5v88c0,4.69-3.81,8.5-8.5,8.5Z"/>
      <path class="cls-1" d="m13.5,597.5c-4.69,0-8.5-3.81-8.5-8.5v-87c0-4.69,3.81-8.5,8.5-8.5s8.5,3.81,8.5,8.5v87c0,4.69-3.81,8.5-8.5,8.5Z"/>
      <path class="cls-1" d="m756.65,153.75c-22.19,0-40.25-18.06-40.25-40.25s18.06-40.25,40.25-40.25,40.25,18.06,40.25,40.25-18.06,40.25-40.25,40.25Zm0-63.5c-12.82,0-23.25,10.43-23.25,23.25s10.43,23.25,23.25,23.25,23.25-10.43,23.25-23.25-10.43-23.25-23.25-23.25Z"/>
      <path class="cls-1" d="m756.65,441.75c-22.19,0-40.25-18.06-40.25-40.25s18.06-40.25,40.25-40.25,40.25,18.06,40.25,40.25-18.06,40.25-40.25,40.25Zm0-63.5c-12.82,0-23.25,10.43-23.25,23.25s10.43,23.25,23.25,23.25,23.25-10.43,23.25-23.25-10.43-23.25-23.25-23.25Z"/>
      <path class="cls-1" d="m756.65,729.25c-22.19,0-40.25-18.06-40.25-40.25s18.06-40.25,40.25-40.25,40.25,18.06,40.25,40.25-18.06,40.25-40.25,40.25Zm0-63.5c-12.82,0-23.25,10.43-23.25,23.25s10.43,23.25,23.25,23.25,23.25-10.43,23.25-23.25-10.43-23.25-23.25-23.25Z"/>
      <path class="cls-1" d="m68.5,160.5c-4.69,0-8.5-3.81-8.5-8.5V54.5c0-4.69,3.81-8.5,8.5-8.5h129.5c4.69,0,8.5,3.81,8.5,8.5s-3.81,8.5-8.5,8.5h-121v89c0,4.69-3.81,8.5-8.5,8.5Z"/>
      <path class="cls-1" d="m68.5,450.5c-4.69,0-8.5-3.81-8.5-8.5v-81c0-4.69,3.81-8.5,8.5-8.5s8.5,3.81,8.5,8.5v81c0,4.69-3.81,8.5-8.5,8.5Z"/>
      <path class="cls-1" d="m333,747H68.5c-4.69,0-8.5-3.81-8.5-8.5v-81.5c0-4.69,3.81-8.5,8.5-8.5s8.5,3.81,8.5,8.5v73h256c4.69,0,8.5,3.81,8.5,8.5s-3.81,8.5-8.5,8.5Z"/>
      <path class="cls-1" d="m659,698h-168c-4.69,0-8.5-3.81-8.5-8.5s3.81-8.5,8.5-8.5h168c4.69,0,8.5,3.81,8.5,8.5s-3.81,8.5-8.5,8.5Z"/>
      <path class="cls-1" d="m659,410h-168c-4.69,0-8.5-3.81-8.5-8.5s3.81-8.5,8.5-8.5h168c4.69,0,8.5,3.81,8.5,8.5s-3.81,8.5-8.5,8.5Z"/>
      <path class="cls-1" d="m659,122h-168c-4.69,0-8.5-3.81-8.5-8.5s3.81-8.5,8.5-8.5h168c4.69,0,8.5,3.81,8.5,8.5s-3.81,8.5-8.5,8.5Z"/>
    </g>
    <g>
      <g>
        <path class="cls-1" d="m1076,1158.5c0,4.69-3.81,8.5-8.5,8.5h-76c-4.69,0-8.5-3.81-8.5-8.5v-75c0-4.69,3.81-8.5,8.5-8.5h76c4.69,0,8.5,3.81,8.5,8.5v75Zm-76-8.5h59v-58h-59v58Z"/>
        <path class="cls-1" d="m1029.5,1081.5c-4.69,0-8.5-3.81-8.5-8.5v-71.5c0-4.69,3.81-8.5,8.5-8.5h131.5c4.69,0,8.5,3.81,8.5,8.5s-3.81,8.5-8.5,8.5h-123v63c0,4.69-3.81,8.5-8.5,8.5Z"/>
        <path class="cls-1" d="m1215,1024.5c0,4.69-3.81,8.5-8.5,8.5h-43c-4.69,0-8.5-3.81-8.5-8.5v-45c0-4.69,3.81-8.5,8.5-8.5h43c4.69,0,8.5,3.81,8.5,8.5v45Zm-43-8.5h26v-28h-26v28Z"/>
        <path class="cls-1" d="m1161,1246h-131.5c-4.69,0-8.5-3.81-8.5-8.5v-72.5c0-4.69,3.81-8.5,8.5-8.5s8.5,3.81,8.5,8.5v64h123c4.69,0,8.5,3.81,8.5,8.5s-3.81,8.5-8.5,8.5Z"/>
        <path class="cls-1" d="m1552,1158.5c0,4.69-3.81,8.5-8.5,8.5h-77c-4.69,0-8.5-3.81-8.5-8.5v-75c0-4.69,3.81-8.5,8.5-8.5h77c4.69,0,8.5,3.81,8.5,8.5v75Zm-77-8.5h60v-58h-60v58Z"/>
        <path class="cls-1" d="m1504.5,1081.5c-4.69,0-8.5-3.81-8.5-8.5v-63h-124c-4.69,0-8.5-3.81-8.5-8.5s3.81-8.5,8.5-8.5h132.5c4.69,0,8.5,3.81,8.5,8.5v71.5c0,4.69-3.81,8.5-8.5,8.5Z"/>
        <path class="cls-1" d="m1504.5,1246h-132.5c-4.69,0-8.5-3.81-8.5-8.5s3.81-8.5,8.5-8.5h124v-64c0-4.69,3.81-8.5,8.5-8.5s8.5,3.81,8.5,8.5v72.5c0,4.69-3.81,8.5-8.5,8.5Z"/>
        <path class="cls-1" d="m1215,1260.5c0,4.69-3.81,8.5-8.5,8.5h-43c-4.69,0-8.5-3.81-8.5-8.5v-46c0-4.69,3.81-8.5,8.5-8.5h43c4.69,0,8.5,3.81,8.5,8.5v46Zm-43-8.5h26v-29h-26v29Z"/>
        <path class="cls-1" d="m1215,1142.5c0,4.69-3.81,8.5-8.5,8.5h-43c-4.69,0-8.5-3.81-8.5-8.5v-44c0-4.69,3.81-8.5,8.5-8.5h43c4.69,0,8.5,3.81,8.5,8.5v44Zm-43-8.5h26v-27h-26v27Z"/>
        <path class="cls-1" d="m1379,1022.5c0,4.69-3.81,8.5-8.5,8.5h-45c-4.69,0-8.5-3.81-8.5-8.5v-43c0-4.69,3.81-8.5,8.5-8.5h45c4.69,0,8.5,3.81,8.5,8.5v43Zm-45-8.5h28v-26h-28v26Z"/>
        <path class="cls-1" d="m1379,1260.5c0,4.69-3.81,8.5-8.5,8.5h-45c-4.69,0-8.5-3.81-8.5-8.5v-46c0-4.69,3.81-8.5,8.5-8.5h45c4.69,0,8.5,3.81,8.5,8.5v46Zm-45-8.5h28v-29h-28v29Z"/>
        <path class="cls-1" d="m1320,1010h-110c-4.69,0-8.5-3.81-8.5-8.5s3.81-8.5,8.5-8.5h110c4.69,0,8.5,3.81,8.5,8.5s-3.81,8.5-8.5,8.5Z"/>
        <path class="cls-1" d="m1320,1245h-110c-4.69,0-8.5-3.81-8.5-8.5s3.81-8.5,8.5-8.5h110c4.69,0,8.5,3.81,8.5,8.5s-3.81,8.5-8.5,8.5Z"/>
        <path class="cls-1" d="m1185.5,1101.5c-4.69,0-8.5-3.81-8.5-8.5v-68c0-4.69,3.81-8.5,8.5-8.5s8.5,3.81,8.5,8.5v68c0,4.69-3.81,8.5-8.5,8.5Z"/>
        <path class="cls-1" d="m1185.5,1220.5c-4.69,0-8.5-3.81-8.5-8.5v-69c0-4.69,3.81-8.5,8.5-8.5s8.5,3.81,8.5,8.5v69c0,4.69-3.81,8.5-8.5,8.5Z"/>
        <path class="cls-1" d="m1160,1129h-89c-4.69,0-8.5-3.81-8.5-8.5s3.81-8.5,8.5-8.5h89c4.69,0,8.5,3.81,8.5,8.5s-3.81,8.5-8.5,8.5Z"/>
        <path class="cls-1" d="m1323,1129h-111c-4.69,0-8.5-3.81-8.5-8.5s3.81-8.5,8.5-8.5h111c4.69,0,8.5,3.81,8.5,8.5s-3.81,8.5-8.5,8.5Z"/>
        <path class="cls-1" d="m1379,1142.5c0,4.69-3.81,8.5-8.5,8.5h-45c-4.69,0-8.5-3.81-8.5-8.5v-44c0-4.69,3.81-8.5,8.5-8.5h45c4.69,0,8.5,3.81,8.5,8.5v44Zm-45-8.5h28v-27h-28v27Z"/>
        <path class="cls-1" d="m1348.5,1101.5c-4.69,0-8.5-3.81-8.5-8.5v-68c0-4.69,3.81-8.5,8.5-8.5s8.5,3.81,8.5,8.5v68c0,4.69-3.81,8.5-8.5,8.5Z"/>
        <path class="cls-1" d="m1348.5,1220.5c-4.69,0-8.5-3.81-8.5-8.5v-69c0-4.69,3.81-8.5,8.5-8.5s8.5,3.81,8.5,8.5v69c0,4.69-3.81,8.5-8.5,8.5Z"/>
        <path class="cls-1" d="m1464,1129h-89c-4.69,0-8.5-3.81-8.5-8.5s3.81-8.5,8.5-8.5h89c4.69,0,8.5,3.81,8.5,8.5s-3.81,8.5-8.5,8.5Z"/>
        <path class="cls-1" d="m1596,1127h-52c-4.69,0-8.5-3.81-8.5-8.5s3.81-8.5,8.5-8.5h52c4.69,0,8.5,3.81,8.5,8.5s-3.81,8.5-8.5,8.5Z"/>
        <path class="cls-1" d="m1348.5,1320.5c-4.69,0-8.5-3.81-8.5-8.5v-50c0-4.69,3.81-8.5,8.5-8.5s8.5,3.81,8.5,8.5v50c0,4.69-3.81,8.5-8.5,8.5Z"/>
        <path class="cls-1" d="m1185.5,1321.5c-4.69,0-8.5-3.81-8.5-8.5v-52c0-4.69,3.81-8.5,8.5-8.5s8.5,3.81,8.5,8.5v52c0,4.69-3.81,8.5-8.5,8.5Z"/>
        <path class="cls-1" d="m1348.5,982.5c-4.69,0-8.5-3.81-8.5-8.5v-50c0-4.69,3.81-8.5,8.5-8.5s8.5,3.81,8.5,8.5v50c0,4.69-3.81,8.5-8.5,8.5Z"/>
        <path class="cls-1" d="m1185.5,983.5c-4.69,0-8.5-3.81-8.5-8.5v-52c0-4.69,3.81-8.5,8.5-8.5s8.5,3.81,8.5,8.5v52c0,4.69-3.81,8.5-8.5,8.5Z"/>
      </g>
      <path class="cls-1" d="m990,1127h-52c-4.69,0-8.5-3.81-8.5-8.5s3.81-8.5,8.5-8.5h52c4.69,0,8.5,3.81,8.5,8.5s-3.81,8.5-8.5,8.5Z"/>
    </g>
    <path class="cls-1" d="m880,1127h-464.5c-4.69,0-8.5-3.81-8.5-8.5v-271.5c0-4.69,3.81-8.5,8.5-8.5s8.5,3.81,8.5,8.5v263h456c4.69,0,8.5,3.81,8.5,8.5s-3.81,8.5-8.5,8.5Z"/>
    <path class="cls-1" d="m1504.5,914.5c-4.69,0-8.5-3.81-8.5-8.5v-504c0-4.69,3.81-8.5,8.5-8.5s8.5,3.81,8.5,8.5v504c0,4.69-3.81,8.5-8.5,8.5Z"/>
    <path class="cls-1" d="m1163,172h-265c-4.69,0-8.5-3.81-8.5-8.5s3.81-8.5,8.5-8.5h265c4.69,0,8.5,3.81,8.5,8.5s-3.81,8.5-8.5,8.5Z"/>
  </g>
</svg>