<?xml version="1.0" encoding="UTF-8"?>
<svg id="Layer_2" data-name="Layer 2" xmlns="http://www.w3.org/2000/svg" viewBox="0 0 1602.38 1326.36">
  <defs>
    <style>
      .cls-1, .cls-2 {
        fill: #2e2b28;
      }

      .cls-2 {
        stroke: #2e2b28;
        stroke-miterlimit: 10;
        stroke-width: 10px;
      }
    </style>
  </defs>
  <g id="STATISTICAL">
    <path class="cls-2" d="m1287.3,384.67c-4.14,0-7.5-3.36-7.5-7.5v-124.05c0-15.05-12.24-27.29-27.29-27.29h-643.01c-4.14,0-7.5-3.36-7.5-7.5s3.36-7.5,7.5-7.5h643.01c23.32,0,42.29,18.97,42.29,42.29v124.05c0,4.14-3.36,7.5-7.5,7.5Z"/>
    <path class="cls-2" d="m1287.3,813.34c-4.14,0-7.5-3.36-7.5-7.5v-388c0-4.14,3.36-7.5,7.5-7.5s7.5,3.36,7.5,7.5v388c0,4.14-3.36,7.5-7.5,7.5Z"/>
    <path class="cls-2" d="m1287.3,971.84c-4.14,0-7.5-3.36-7.5-7.5v-111.53c0-4.14,3.36-7.5,7.5-7.5s7.5,3.36,7.5,7.5v111.53c0,4.14-3.36,7.5-7.5,7.5Z"/>
    <path class="cls-2" d="m1252.51,1045.34H361.35c-23.32,0-42.29-18.97-42.29-42.29v-502.21c0-4.14,3.36-7.5,7.5-7.5s7.5,3.36,7.5,7.5v502.21c0,15.05,12.24,27.29,27.29,27.29h891.16c10.99,0,20.86-6.54,25.14-16.67,1.61-3.81,6.01-5.6,9.83-3.99,3.82,1.61,5.6,6.01,3.99,9.83-6.64,15.69-21.93,25.82-38.96,25.82Z"/>
    <g>
      <path class="cls-2" d="m1119.3,699.61H400.69c-4.14,0-7.5-3.36-7.5-7.5v-191.27c0-4.14,3.36-7.5,7.5-7.5s7.5,3.36,7.5,7.5v183.77h711.1c4.14,0,7.5,3.36,7.5,7.5s-3.36,7.5-7.5,7.5Z"/>
      <path class="cls-2" d="m1204.73,699.61h-43.23c-4.14,0-7.5-3.36-7.5-7.5s3.36-7.5,7.5-7.5h35.73v-219.44c0-4.14,3.36-7.5,7.5-7.5s7.5,3.36,7.5,7.5v226.94c0,4.14-3.36,7.5-7.5,7.5Z"/>
      <path class="cls-2" d="m1204.73,422.01c-4.14,0-7.5-3.36-7.5-7.5v-34.44h-584.3c-4.14,0-7.5-3.36-7.5-7.5s3.36-7.5,7.5-7.5h591.8c4.14,0,7.5,3.36,7.5,7.5v41.94c0,4.14-3.36,7.5-7.5,7.5Z"/>
    </g>
    <path class="cls-2" d="m1281.5,307.84h-674c-4.14,0-7.5-3.36-7.5-7.5s3.36-7.5,7.5-7.5h674c4.14,0,7.5,3.36,7.5,7.5s-3.36,7.5-7.5,7.5Z"/>
    <g>
      <path class="cls-1" d="m1048.5,253.84h-439c-4.14,0-7.5-3.36-7.5-7.5s3.36-7.5,7.5-7.5h439c4.14,0,7.5,3.36,7.5,7.5s-3.36,7.5-7.5,7.5Z"/>
      <path class="cls-1" d="m656.5,282.84h-47c-4.14,0-7.5-3.36-7.5-7.5s3.36-7.5,7.5-7.5h47c4.14,0,7.5,3.36,7.5,7.5s-3.36,7.5-7.5,7.5Z"/>
    </g>
    <path class="cls-2" d="m401.43,672.34c-1.92,0-3.84-.73-5.3-2.2-2.93-2.93-2.93-7.68,0-10.61l163.25-163.25c2.93-2.93,7.68-2.93,10.61,0l98.6,98.6,153.32-153.32c2.93-2.93,7.68-2.93,10.61,0l74.52,74.52,112.22-112.22c1.41-1.41,3.31-2.2,5.3-2.2s3.9.79,5.3,2.2l103.37,103.37c2.93,2.93,2.93,7.68,0,10.61-2.93,2.93-7.68,2.93-10.61,0l-98.07-98.07-112.22,112.22c-2.93,2.93-7.68,2.93-10.61,0l-74.52-74.52-153.32,153.32c-2.93,2.93-7.68,2.93-10.61,0l-98.6-98.6-157.95,157.95c-1.46,1.46-3.38,2.2-5.3,2.2Z"/>
    <g>
      <path class="cls-2" d="m559.5,827.84h-158c-4.14,0-7.5-3.36-7.5-7.5s3.36-7.5,7.5-7.5h158c4.14,0,7.5,3.36,7.5,7.5s-3.36,7.5-7.5,7.5Z"/>
      <path class="cls-2" d="m559.5,779.84h-158c-4.14,0-7.5-3.36-7.5-7.5s3.36-7.5,7.5-7.5h158c4.14,0,7.5,3.36,7.5,7.5s-3.36,7.5-7.5,7.5Z"/>
      <path class="cls-2" d="m559.5,875.84h-158c-4.14,0-7.5-3.36-7.5-7.5s3.36-7.5,7.5-7.5h158c4.14,0,7.5,3.36,7.5,7.5s-3.36,7.5-7.5,7.5Z"/>
      <path class="cls-2" d="m559.5,923.84h-158c-4.14,0-7.5-3.36-7.5-7.5s3.36-7.5,7.5-7.5h158c4.14,0,7.5,3.36,7.5,7.5s-3.36,7.5-7.5,7.5Z"/>
      <path class="cls-2" d="m559.5,971.84h-158c-4.14,0-7.5-3.36-7.5-7.5s3.36-7.5,7.5-7.5h158c4.14,0,7.5,3.36,7.5,7.5s-3.36,7.5-7.5,7.5Z"/>
    </g>
    <g>
      <path class="cls-2" d="m885.5,827.84h-158c-4.14,0-7.5-3.36-7.5-7.5s3.36-7.5,7.5-7.5h158c4.14,0,7.5,3.36,7.5,7.5s-3.36,7.5-7.5,7.5Z"/>
      <path class="cls-2" d="m885.5,779.84h-158c-4.14,0-7.5-3.36-7.5-7.5s3.36-7.5,7.5-7.5h158c4.14,0,7.5,3.36,7.5,7.5s-3.36,7.5-7.5,7.5Z"/>
      <path class="cls-2" d="m885.5,875.84h-158c-4.14,0-7.5-3.36-7.5-7.5s3.36-7.5,7.5-7.5h158c4.14,0,7.5,3.36,7.5,7.5s-3.36,7.5-7.5,7.5Z"/>
      <path class="cls-2" d="m885.5,923.84h-158c-4.14,0-7.5-3.36-7.5-7.5s3.36-7.5,7.5-7.5h158c4.14,0,7.5,3.36,7.5,7.5s-3.36,7.5-7.5,7.5Z"/>
      <path class="cls-2" d="m885.5,971.84h-158c-4.14,0-7.5-3.36-7.5-7.5s3.36-7.5,7.5-7.5h158c4.14,0,7.5,3.36,7.5,7.5s-3.36,7.5-7.5,7.5Z"/>
    </g>
    <g>
      <path class="cls-2" d="m1210.5,827.84h-158c-4.14,0-7.5-3.36-7.5-7.5s3.36-7.5,7.5-7.5h158c4.14,0,7.5,3.36,7.5,7.5s-3.36,7.5-7.5,7.5Z"/>
      <path class="cls-2" d="m1161.5,779.84h-109c-4.14,0-7.5-3.36-7.5-7.5s3.36-7.5,7.5-7.5h109c4.14,0,7.5,3.36,7.5,7.5s-3.36,7.5-7.5,7.5Z"/>
      <path class="cls-2" d="m1210.5,875.84h-158c-4.14,0-7.5-3.36-7.5-7.5s3.36-7.5,7.5-7.5h158c4.14,0,7.5,3.36,7.5,7.5s-3.36,7.5-7.5,7.5Z"/>
      <path class="cls-2" d="m1210.5,923.84h-158c-4.14,0-7.5-3.36-7.5-7.5s3.36-7.5,7.5-7.5h158c4.14,0,7.5,3.36,7.5,7.5s-3.36,7.5-7.5,7.5Z"/>
      <path class="cls-2" d="m1210.5,971.84h-158c-4.14,0-7.5-3.36-7.5-7.5s3.36-7.5,7.5-7.5h158c4.14,0,7.5,3.36,7.5,7.5s-3.36,7.5-7.5,7.5Z"/>
    </g>
    <path class="cls-1" d="m1349.48,829.42c-57.96,0-112.46-22.57-153.45-63.56-40.99-40.99-63.56-95.48-63.56-153.45s22.57-112.46,63.56-153.45c40.99-40.99,95.48-63.56,153.45-63.56s112.46,22.57,153.45,63.56c40.99,40.99,63.56,95.48,63.56,153.45s-22.57,112.46-63.56,153.45c-40.99,40.99-95.48,63.56-153.45,63.56Zm0-419.01c-111.39,0-202.01,90.62-202.01,202.01s90.62,202.01,202.01,202.01,202.01-90.62,202.01-202.01-90.62-202.01-202.01-202.01Z"/>
    <path class="cls-2" d="m1349.48,860.31c-66.21,0-128.47-25.79-175.29-72.61-46.82-46.82-72.61-109.07-72.61-175.29s25.79-128.47,72.61-175.29c46.82-46.82,109.07-72.61,175.29-72.61s128.47,25.79,175.29,72.61c46.82,46.82,72.61,109.07,72.61,175.29s-25.79,128.47-72.61,175.29c-46.82,46.82-109.07,72.61-175.29,72.61Zm0-480.78c-128.42,0-232.89,104.48-232.89,232.89s104.48,232.89,232.89,232.89,232.89-104.48,232.89-232.89-104.47-232.89-232.89-232.89Z"/>
    <path class="cls-2" d="m1348,975.34c-4.14,0-7.5-3.36-7.5-7.5v-115c0-4.14,3.36-7.5,7.5-7.5s7.5,3.36,7.5,7.5v115c0,4.14-3.36,7.5-7.5,7.5Z"/>
    <path class="cls-2" d="m1449.04,1019.37h-55.76c-4.14,0-7.5-3.36-7.5-7.5s3.36-7.5,7.5-7.5h48.26v-28.32h-184.52v28.32h83.05c4.14,0,7.5,3.36,7.5,7.5s-3.36,7.5-7.5,7.5h-90.55c-4.14,0-7.5-3.36-7.5-7.5v-43.32c0-4.14,3.36-7.5,7.5-7.5h199.52c4.14,0,7.5,3.36,7.5,7.5v43.32c0,4.14-3.36,7.5-7.5,7.5Z"/>
    <path class="cls-2" d="m1349.28,1321.36c-35.92,0-65.13-29.22-65.13-65.13v-244.35c0-4.14,3.36-7.5,7.5-7.5s7.5,3.36,7.5,7.5v244.35c0,27.64,22.49,50.13,50.13,50.13s50.13-22.49,50.13-50.13v-244.35c0-4.14,3.36-7.5,7.5-7.5s7.5,3.36,7.5,7.5v244.35c0,35.92-29.22,65.13-65.13,65.13Z"/>
    <path class="cls-1" d="m1351.5,1050.84h-59c-4.14,0-7.5-3.36-7.5-7.5s3.36-7.5,7.5-7.5h59c4.14,0,7.5,3.36,7.5,7.5s-3.36,7.5-7.5,7.5Z"/>
    <path class="cls-1" d="m1407.5,1050.84h-16c-4.14,0-7.5-3.36-7.5-7.5s3.36-7.5,7.5-7.5h16c4.14,0,7.5,3.36,7.5,7.5s-3.36,7.5-7.5,7.5Z"/>
    <path class="cls-2" d="m1511.24,619.91c-4.14,0-7.5-3.36-7.5-7.5,0-85.06-69.2-154.26-154.26-154.26-4.14,0-7.5-3.36-7.5-7.5s3.36-7.5,7.5-7.5c93.33,0,169.26,75.93,169.26,169.26,0,4.14-3.36,7.5-7.5,7.5Z"/>
    <path class="cls-2" d="m605.06,498.34H12.5c-4.14,0-7.5-3.36-7.5-7.5V12.5c0-4.14,3.36-7.5,7.5-7.5h592.56c4.14,0,7.5,3.36,7.5,7.5v478.34c0,4.14-3.36,7.5-7.5,7.5Zm-585.06-15h577.56V20H20v463.34Z"/>
    <g>
      <path class="cls-1" d="m336.93,239.84c-.59,0-1.18.14-1.75,0h-123.71c-4.14,0-7.49-3.35-7.5-7.49l-.17-125c0-1.99.79-3.9,2.19-5.31,1.41-1.41,3.32-2.2,5.31-2.2h0c35.58,0,69,13.77,94.12,38.77,25.15,25.04,39,58.29,39,93.83,0,4.13-3.33,7.4-7.46,7.4h-.04Zm0-7h0,0Zm-117.97-8h110.22c-3.83-58.86-51.27-106.06-110.37-109.77l.15,109.77Z"/>
      <path class="cls-1" d="m172.46,402.99c-73.4,0-133.12-59.83-133.12-133.38s59.71-132.94,133.11-132.94c4.14,0,7.49,3.35,7.5,7.49l.16,118.69h117.97c1.99,0,3.9.79,5.31,2.2,1.41,1.41,2.2,3.32,2.19,5.31-.12,73.14-59.84,132.64-133.12,132.64Zm-7.5-251.09c-61.65,3.88-110.62,55.19-110.62,117.71s52.99,118.38,118.12,118.38,113.87-48.75,117.87-110.15h-117.71c-4.14,0-7.49-3.35-7.5-7.49l-.16-118.45Z"/>
      <path class="cls-1" d="m273.95,177.55c-1.92,0-3.85-.74-5.31-2.21-2.92-2.93-2.92-7.68.02-10.61l49.87-49.71c1.41-1.4,3.31-2.19,5.29-2.19h74.68c4.14,0,7.5,3.36,7.5,7.5s-3.36,7.5-7.5,7.5h-71.58l-47.67,47.53c-1.46,1.46-3.38,2.19-5.29,2.19Z"/>
      <g>
        <path class="cls-1" d="m570.5,127.84h-106c-4.14,0-7.5-3.36-7.5-7.5s3.36-7.5,7.5-7.5h106c4.14,0,7.5,3.36,7.5,7.5s-3.36,7.5-7.5,7.5Z"/>
        <path class="cls-1" d="m570.5,157.84h-106c-4.14,0-7.5-3.36-7.5-7.5s3.36-7.5,7.5-7.5h106c4.14,0,7.5,3.36,7.5,7.5s-3.36,7.5-7.5,7.5Z"/>
        <path class="cls-1" d="m570.5,186.84h-106c-4.14,0-7.5-3.36-7.5-7.5s3.36-7.5,7.5-7.5h106c4.14,0,7.5,3.36,7.5,7.5s-3.36,7.5-7.5,7.5Z"/>
        <path class="cls-1" d="m570.5,215.84h-106c-4.14,0-7.5-3.36-7.5-7.5s3.36-7.5,7.5-7.5h106c4.14,0,7.5,3.36,7.5,7.5s-3.36,7.5-7.5,7.5Z"/>
      </g>
      <path class="cls-1" d="m401.5,401.84h-82.03c-1.99,0-3.89-.79-5.3-2.19l-77.1-76.92c-2.93-2.93-2.94-7.67-.01-10.61,2.93-2.93,7.67-2.94,10.61-.01l74.9,74.73h78.92c4.14,0,7.5,3.36,7.5,7.5s-3.36,7.5-7.5,7.5Z"/>
      <g>
        <path class="cls-1" d="m537.5,313.84h-106c-4.14,0-7.5-3.36-7.5-7.5s3.36-7.5,7.5-7.5h106c4.14,0,7.5,3.36,7.5,7.5s-3.36,7.5-7.5,7.5Z"/>
        <path class="cls-1" d="m537.5,342.84h-106c-4.14,0-7.5-3.36-7.5-7.5s3.36-7.5,7.5-7.5h106c4.14,0,7.5,3.36,7.5,7.5s-3.36,7.5-7.5,7.5Z"/>
        <path class="cls-1" d="m537.5,371.84h-106c-4.14,0-7.5-3.36-7.5-7.5s3.36-7.5,7.5-7.5h106c4.14,0,7.5,3.36,7.5,7.5s-3.36,7.5-7.5,7.5Z"/>
        <path class="cls-1" d="m537.5,401.84h-106c-4.14,0-7.5-3.36-7.5-7.5s3.36-7.5,7.5-7.5h106c4.14,0,7.5,3.36,7.5,7.5s-3.36,7.5-7.5,7.5Z"/>
      </g>
    </g>
    <path class="cls-2" d="m828,1280.84H172c-4.14,0-7.5-3.36-7.5-7.5v-736.5c0-4.14,3.36-7.5,7.5-7.5s7.5,3.36,7.5,7.5v729h641v-157c0-4.14,3.36-7.5,7.5-7.5s7.5,3.36,7.5,7.5v164.5c0,4.14-3.36,7.5-7.5,7.5Z"/>
    <path class="cls-2" d="m1351,319.34c-4.14,0-7.5-3.36-7.5-7.5V53.84h-488v97c0,4.14-3.36,7.5-7.5,7.5s-7.5-3.36-7.5-7.5V46.34c0-4.14,3.36-7.5,7.5-7.5h503c4.14,0,7.5,3.36,7.5,7.5v265.5c0,4.14-3.36,7.5-7.5,7.5Z"/>
  </g>
</svg>