<?xml version="1.0" encoding="UTF-8"?>
<svg id="Layer_2" data-name="Layer 2" xmlns="http://www.w3.org/2000/svg" viewBox="0 0 929.47 683.09">
  <defs>
    <style>
      .cls-1 {
        fill: #fff;
      }

      .cls-1, .cls-2, .cls-3, .cls-4, .cls-5, .cls-6, .cls-7, .cls-8, .cls-9 {
        stroke-miterlimit: 10;
      }

      .cls-1, .cls-2, .cls-7 {
        stroke-width: 13.36px;
      }

      .cls-1, .cls-2, .cls-7, .cls-8 {
        stroke: #383838;
      }

      .cls-10 {
        fill: #00b26e;
      }

      .cls-11 {
        fill: #00baeb;
      }

      .cls-12 {
        fill: #ff9f36;
      }

      .cls-13 {
        fill: #ffd74e;
      }

      .cls-14 {
        fill: #fe3e64;
      }

      .cls-15 {
        fill: #6c79e0;
      }

      .cls-16 {
        fill: #2b6ed4;
      }

      .cls-17 {
        fill: #383838;
      }

      .cls-2 {
        fill: #f3f5f5;
      }

      .cls-3 {
        stroke-width: 6.27px;
      }

      .cls-3, .cls-4, .cls-5, .cls-6, .cls-7, .cls-8, .cls-9 {
        fill: none;
      }

      .cls-3, .cls-6 {
        stroke: #45d8f9;
      }

      .cls-4 {
        stroke: #ffd74e;
      }

      .cls-4, .cls-5 {
        stroke-width: 6.63px;
      }

      .cls-5 {
        stroke: #ff8200;
      }

      .cls-6 {
        stroke-width: 8.38px;
      }

      .cls-8 {
        stroke-width: 15.61px;
      }

      .cls-9 {
        stroke: #ffab9e;
        stroke-width: 5.38px;
      }
    </style>
  </defs>
  <g id="Layer_1-2" data-name="Layer 1">
    <g>
      <rect class="cls-1" x="117.31" y="101.94" width="701.36" height="474.51" rx="12.49" ry="12.49"/>
      <g>
        <path class="cls-5" d="m899.03,338.78c1.14-7.27-1.08-14.97-6.69-20.58-5.61-5.61-13.31-7.83-20.58-6.69"/>
        <path class="cls-5" d="m866.97,312.79c-3.03,1.16-5.87,2.95-8.31,5.39-8.7,8.7-9.25,22.48-1.65,31.84"/>
        <path class="cls-5" d="m860.52,353.54c9.36,7.6,23.13,7.05,31.84-1.65,2.44-2.44,4.23-5.28,5.39-8.31"/>
      </g>
      <g>
        <path class="cls-5" d="m895.03,67.78c1.14-7.27-1.08-14.97-6.69-20.58-5.61-5.61-13.31-7.83-20.58-6.69"/>
        <path class="cls-5" d="m862.97,41.79c-3.03,1.16-5.87,2.95-8.31,5.39-8.7,8.7-9.25,22.48-1.65,31.84"/>
        <path class="cls-5" d="m856.52,82.54c9.36,7.6,23.13,7.05,31.84-1.65,2.44-2.44,4.23-5.28,5.39-8.31"/>
      </g>
      <g>
        <path class="cls-5" d="m80.03,452.78c1.14-7.27-1.08-14.97-6.69-20.58-5.61-5.61-13.31-7.83-20.58-6.69"/>
        <path class="cls-5" d="m47.97,426.79c-3.03,1.16-5.87,2.95-8.31,5.39-8.7,8.7-9.25,22.48-1.65,31.84"/>
        <path class="cls-5" d="m41.52,467.54c9.36,7.6,23.13,7.05,31.84-1.65,2.44-2.44,4.23-5.28,5.39-8.31"/>
      </g>
      <path class="cls-9" d="m53.01,36.44l-12.37,32.99-32.99,12.37,32.99,12.37,12.37,32.99,12.37-32.99,32.99-12.37-32.99-12.37-12.37-32.99Z"/>
      <path class="cls-4" d="m130.15,9.44l-8.59,22.91-22.91,8.59,22.91,8.59,8.59,22.91,8.59-22.91,22.91-8.59-22.91-8.59-8.59-22.91Z"/>
      <path class="cls-15" d="m207.14,138.96h56.34c10.04,0,10.06-15.61,0-15.61h-56.34c-10.04,0-10.06,15.61,0,15.61h0Z"/>
      <path class="cls-15" d="m347.49,140.96h170.81c10.04,0,10.06-15.61,0-15.61h-170.81c-10.04,0-10.06,15.61,0,15.61h0Z"/>
      <path class="cls-11" d="m505.43,221.65h215.25c10.04,0,10.06-15.61,0-15.61h-215.25c-10.04,0-10.06,15.61,0,15.61h0Z"/>
      <path class="cls-15" d="m727.3,140.96h56.34c10.04,0,10.06-15.61,0-15.61h-56.34c-10.04,0-10.06,15.61,0,15.61h0Z"/>
      <path class="cls-15" d="m612.84,140.96h56.34c10.04,0,10.06-15.61,0-15.61h-56.34c-10.04,0-10.06,15.61,0,15.61h0Z"/>
      <line class="cls-8" x1="117.31" y1="166.97" x2="818.67" y2="166.97"/>
      <rect class="cls-12" x="319.27" y="205.81" width="152.17" height="65.56"/>
      <rect class="cls-10" x="149.27" y="205.81" width="152.17" height="65.56"/>
      <rect class="cls-14" x="319.27" y="281.81" width="152.17" height="65.56"/>
      <rect class="cls-15" x="149.27" y="281.81" width="152.17" height="65.56"/>
      <rect class="cls-16" x="319.27" y="357.81" width="152.17" height="65.56"/>
      <rect class="cls-13" x="149.27" y="357.81" width="152.17" height="65.56"/>
      <rect class="cls-14" x="319.27" y="433.81" width="152.17" height="65.56"/>
      <rect class="cls-12" x="149.27" y="433.81" width="152.17" height="65.56"/>
      <line class="cls-7" x1="523.11" y1="614.48" x2="131.12" y2="614.48"/>
      <line class="cls-7" x1="823.12" y1="614.48" x2="609.95" y2="614.48"/>
      <line class="cls-7" x1="736.96" y1="647.44" x2="424.25" y2="647.44"/>
      <g>
        <line class="cls-3" x1="650.1" y1="3.06" x2="668.52" y2="21.47"/>
        <line class="cls-3" x1="683.11" y1="36.06" x2="701.52" y2="54.48"/>
        <line class="cls-3" x1="650.1" y1="54.48" x2="668.52" y2="36.06"/>
        <line class="cls-3" x1="683.11" y1="21.47" x2="701.52" y2="3.06"/>
      </g>
      <g>
        <path class="cls-2" d="m17.66,583.37c21.38-54.37,74.39-93.05,136.5-93.05s115.11,38.68,136.5,93.05c-21.39,54.83-74.39,93.05-136.5,93.05s-115.12-38.22-136.5-93.05Z"/>
        <path class="cls-11" d="m110.25,626.82c11.6,12.06,27.53,18.66,43.91,18.66s32.3-6.6,43.91-18.66c11.6-11.38,18.2-27.07,18.2-43.45s-6.6-32.31-18.2-43.91c-11.6-11.6-27.53-18.2-43.91-18.2s-32.31,6.6-43.91,18.2-18.2,27.53-18.2,43.91,6.6,32.08,18.2,43.45"/>
        <path class="cls-17" d="m127.77,556.98c7.05-6.82,16.61-10.92,26.39-10.92,9.78.23,19.34,4.1,26.39,11.15,6.82,6.82,10.92,16.38,10.92,26.16s-4.09,19.34-10.92,26.39c-7.05,7.05-16.61,10.92-26.39,10.92s-19.34-4.1-26.39-10.92c-6.82-7.05-10.92-16.38-10.92-26.39s4.1-19.34,10.92-26.39"/>
      </g>
      <circle class="cls-14" cx="770.99" cy="213.84" r="12"/>
      <path class="cls-11" d="m506.43,260.65h215.25c10.04,0,10.06-15.61,0-15.61h-215.25c-10.04,0-10.06,15.61,0,15.61h0Z"/>
      <circle class="cls-10" cx="771.99" cy="252.84" r="12"/>
      <path class="cls-11" d="m505.43,302.65h215.25c10.04,0,10.06-15.61,0-15.61h-215.25c-10.04,0-10.06,15.61,0,15.61h0Z"/>
      <circle class="cls-14" cx="770.99" cy="294.84" r="12"/>
      <path class="cls-11" d="m506.43,341.65h215.25c10.04,0,10.06-15.61,0-15.61h-215.25c-10.04,0-10.06,15.61,0,15.61h0Z"/>
      <circle class="cls-10" cx="771.99" cy="333.84" r="12"/>
      <path class="cls-11" d="m505.43,381.65h215.25c10.04,0,10.06-15.61,0-15.61h-215.25c-10.04,0-10.06,15.61,0,15.61h0Z"/>
      <circle class="cls-14" cx="770.99" cy="373.84" r="12"/>
      <path class="cls-11" d="m506.43,420.65h215.25c10.04,0,10.06-15.61,0-15.61h-215.25c-10.04,0-10.06,15.61,0,15.61h0Z"/>
      <circle class="cls-14" cx="771.99" cy="412.84" r="12"/>
      <path class="cls-11" d="m505.43,462.65h215.25c10.04,0,10.06-15.61,0-15.61h-215.25c-10.04,0-10.06,15.61,0,15.61h0Z"/>
      <circle class="cls-10" cx="770.99" cy="454.84" r="12"/>
      <path class="cls-11" d="m506.43,501.65h215.25c10.04,0,10.06-15.61,0-15.61h-215.25c-10.04,0-10.06,15.61,0,15.61h0Z"/>
      <circle class="cls-10" cx="771.99" cy="493.84" r="12"/>
      <g>
        <path class="cls-6" d="m924.9,308.37c1.53-9.71-1.45-19.99-8.93-27.48s-17.77-10.46-27.48-8.93"/>
        <path class="cls-6" d="m882.07,273.67c-4.04,1.55-7.84,3.94-11.1,7.2-11.63,11.63-12.36,30.02-2.21,42.52"/>
        <path class="cls-6" d="m873.46,328.09c12.5,10.15,30.9,9.42,42.52-2.2,3.26-3.26,5.65-7.05,7.2-11.1"/>
      </g>
    </g>
  </g>
</svg>