<?xml version="1.0" encoding="UTF-8"?>
<svg id="Layer_2" data-name="Layer 2" xmlns="http://www.w3.org/2000/svg" viewBox="0 0 359.93 464.1">
  <defs>
    <style>
      .cls-1 {
        fill: #2f4d61;
      }

      .cls-2 {
        fill: none;
        stroke: #2f4d61;
        stroke-linecap: round;
        stroke-linejoin: round;
        stroke-width: 15px;
      }
    </style>
  </defs>
  <g id="Layer_1-2" data-name="Layer 1">
    <g>
      <path class="cls-2" d="m210.17,232.09c0-16.54-13.4-29.94-29.94-29.94s-29.94,13.4-29.94,29.94,13.4,29.94,29.94,29.94,29.94-13.4,29.94-29.94Z"/>
      <path class="cls-2" d="m255.83,241.55v-18.92c0-2.81-2.28-5.09-5.09-5.09h-11.58c-1.53-6.23-4.02-12.07-7.31-17.38l8.14-8.14c1.99-1.99,1.99-5.21,0-7.19l-13.38-13.38c-1.99-1.99-5.21-1.99-7.19,0l-8.36,8.36c-5.01-2.96-10.47-5.21-16.27-6.64v-11.85c0-2.81-2.28-5.09-5.09-5.09h-18.92c-2.81,0-5.09,2.28-5.09,5.09v11.85c-5.83,1.43-11.32,3.71-16.35,6.69l-8.41-8.41c-1.99-1.99-5.21-1.99-7.19,0l-13.38,13.38c-1.99,1.99-1.99,5.21,0,7.19l8.22,8.22c-3.32,5.37-5.82,11.3-7.33,17.61l-11.96-.22c-2.85-.05-5.18,2.24-5.18,5.09v18.83c0,2.81,2.28,5.09,5.09,5.09h12.05s3.95,11.8,7.22,17.12l-8.57,8.4c-2.02,1.98-2.04,5.23-.04,7.23l13.34,13.34c1.99,1.99,5.21,1.99,7.19,0l8.52-8.52s10.65,5.29,16.78,6.8v11.76c0,2.81,2.28,5.09,5.09,5.09h18.92c2.81,0,5.09-2.28,5.09-5.09v-11.76c6.2-1.53,12.02-4,17.3-7.26l8.15,8.15c1.99,1.99,5.21,1.99,7.19,0l13.38-13.38c1.99-1.99,1.99-5.21,0-7.19l-8.34-8.34c2.98-5.03,5.26-10.52,6.69-16.35h11.58c2.81,0,5.09-2.28,5.09-5.09Z"/>
      <polyline class="cls-2" points="79.57 113.84 79.57 86.71 53.62 86.71"/>
      <polyline class="cls-2" points="128.77 96.2 128.77 52.8 109.64 52.8"/>
      <line class="cls-2" x1="179.97" y1="90.61" x2="179.97" y2="26.85"/>
      <polyline class="cls-2" points="280.36 114.5 280.36 87.36 306.31 87.36"/>
      <polyline class="cls-2" points="231.16 96.86 231.16 53.46 250.29 53.46"/>
      <g>
        <path class="cls-1" d="m41.53,71.95c-8.14,0-14.76,6.62-14.76,14.76s6.62,14.76,14.76,14.76,14.76-6.62,14.76-14.76-6.62-14.76-14.76-14.76Z"/>
        <path class="cls-1" d="m96.58,38.04c-8.14,0-14.76,6.62-14.76,14.76s6.62,14.76,14.76,14.76,14.76-6.62,14.76-14.76-6.62-14.76-14.76-14.76Z"/>
        <path class="cls-1" d="m179.96,0c-8.14,0-14.76,6.62-14.76,14.76s6.62,14.76,14.76,14.76,14.76-6.62,14.76-14.76-6.62-14.76-14.76-14.76Z"/>
        <path class="cls-1" d="m318.41,72.6c-8.14,0-14.76,6.62-14.76,14.76s6.62,14.76,14.76,14.76,14.76-6.62,14.76-14.76-6.62-14.76-14.76-14.76Z"/>
        <path class="cls-1" d="m263.35,38.7c-8.14,0-14.76,6.62-14.76,14.76s6.62,14.76,14.76,14.76,14.76-6.62,14.76-14.76-6.62-14.76-14.76-14.76Z"/>
      </g>
      <path class="cls-2" d="m7.5,232.05s40.84-111.92,172.46-111.92,172.47,111.92,172.47,111.92c0,0-41.19,113.15-172.47,113.15S7.5,232.05,7.5,232.05Z"/>
      <circle class="cls-2" cx="179.96" cy="232.05" r="111.92" transform="translate(-57.13 405.32) rotate(-88.36)"/>
      <polyline class="cls-2" points="79.57 350.25 79.57 377.39 53.62 377.39"/>
      <polyline class="cls-2" points="128.77 367.9 128.77 411.3 109.64 411.3"/>
      <line class="cls-2" x1="179.97" y1="373.49" x2="179.97" y2="437.25"/>
      <polyline class="cls-2" points="280.36 349.6 280.36 376.73 306.31 376.73"/>
      <polyline class="cls-2" points="231.16 367.24 231.16 410.64 250.29 410.64"/>
      <g>
        <path class="cls-1" d="m41.53,392.15c-8.14,0-14.76-6.62-14.76-14.76s6.62-14.76,14.76-14.76,14.76,6.62,14.76,14.76-6.62,14.76-14.76,14.76Z"/>
        <path class="cls-1" d="m96.58,426.06c-8.14,0-14.76-6.62-14.76-14.76s6.62-14.76,14.76-14.76,14.76,6.62,14.76,14.76-6.62,14.76-14.76,14.76Z"/>
        <path class="cls-1" d="m179.96,464.1c-8.14,0-14.76-6.62-14.76-14.76s6.62-14.76,14.76-14.76,14.76,6.62,14.76,14.76-6.62,14.76-14.76,14.76Z"/>
        <path class="cls-1" d="m318.41,391.49c-8.14,0-14.76-6.62-14.76-14.76s6.62-14.76,14.76-14.76,14.76,6.62,14.76,14.76-6.62,14.76-14.76,14.76Z"/>
        <path class="cls-1" d="m263.35,425.4c-8.14,0-14.76-6.62-14.76-14.76s6.62-14.76,14.76-14.76,14.76,6.62,14.76,14.76-6.62,14.76-14.76,14.76Z"/>
      </g>
    </g>
  </g>
</svg>