<?xml version="1.0" encoding="UTF-8"?>
<svg id="Layer_2" data-name="Layer 2" xmlns="http://www.w3.org/2000/svg" viewBox="0 0 447.62 373.85">
  <defs>
    <style>
      .cls-1 {
        fill: none;
        stroke: #00a8e2;
        stroke-linecap: round;
        stroke-linejoin: round;
        stroke-width: 15px;
      }
    </style>
  </defs>
  <g id="Layer_1-2" data-name="Layer 1">
    <g>
      <g>
        <rect class="cls-1" x="7.5" y="7.5" width="432.62" height="303.81" rx="34.56" ry="34.56"/>
        <rect class="cls-1" x="158.42" y="311.31" width="130.79" height="55.04"/>
        <line class="cls-1" x1="440.12" y1="273.58" x2="7.5" y2="273.58"/>
        <line class="cls-1" x1="327.25" y1="366.35" x2="120.37" y2="366.35"/>
      </g>
      <g>
        <g>
          <polygon class="cls-1" points="144.79 76.65 136.14 84.91 116.08 85.63 106.87 78 99.45 81.39 92.03 84.77 91.75 96.73 78.07 111.42 66.16 112.55 63.31 120.19 60.46 127.83 68.72 136.48 69.44 156.54 61.81 165.76 65.2 173.18 68.59 180.59 80.55 180.87 95.23 194.55 96.36 206.46 111.64 212.16 120.29 203.9 140.35 203.19 149.57 210.81 156.99 207.42 164.4 204.04 164.68 192.08 178.36 177.39 190.27 176.26 193.12 168.62 195.97 160.98 187.71 152.33 187 132.27 194.62 123.05 191.23 115.64 187.85 108.22 175.89 107.94 161.2 94.26 160.07 82.35 144.79 76.65"/>
          <path class="cls-1" d="m158.11,155.56c-6.16,16.51-24.54,24.9-41.04,18.74-16.51-6.16-24.9-24.54-18.74-41.04,6.16-16.51,24.54-24.9,41.04-18.74,16.51,6.16,24.9,24.54,18.74,41.04Z"/>
        </g>
        <g>
          <line class="cls-1" x1="253.72" y1="173.24" x2="272.04" y2="173.24"/>
          <line class="cls-1" x1="262.88" y1="71.02" x2="262.88" y2="173.24"/>
          <line class="cls-1" x1="262.88" y1="200.05" x2="262.88" y2="217.1"/>
          <line class="cls-1" x1="301.78" y1="122.68" x2="320.1" y2="122.68"/>
          <line class="cls-1" x1="310.94" y1="71.71" x2="310.94" y2="122.68"/>
          <line class="cls-1" x1="310.94" y1="149.49" x2="310.94" y2="216.41"/>
          <line class="cls-1" x1="352.74" y1="150.85" x2="371.06" y2="150.85"/>
          <line class="cls-1" x1="361.9" y1="71.71" x2="361.9" y2="150.85"/>
          <line class="cls-1" x1="361.9" y1="177.66" x2="361.9" y2="217.79"/>
        </g>
      </g>
    </g>
  </g>
</svg>