<?xml version="1.0" encoding="UTF-8"?>
<svg id="Layer_2" data-name="Layer 2" xmlns="http://www.w3.org/2000/svg" viewBox="0 0 469.25 411.51">
  <defs>
    <style>
      .cls-1 {
        fill: none;
        stroke: #d4145a;
        stroke-linecap: round;
        stroke-linejoin: round;
        stroke-width: 15px;
      }
    </style>
  </defs>
  <g id="Layer_1-2" data-name="Layer 1">
    <g>
      <path class="cls-1" d="m345.05,214.4v160.73c0,15.95-12.93,28.89-28.89,28.89h-163.92c-15.95,0-28.89-12.93-28.89-28.89V36.39c0-15.95,12.93-28.89,28.89-28.89h163.92c15.95,0,28.89,12.93,28.89,28.89v178.01Z"/>
      <line class="cls-1" x1="124.21" y1="354.32" x2="345.9" y2="354.32"/>
      <path class="cls-1" d="m320.5,205.76c0-47.43-38.45-85.88-85.88-85.88s-85.88,38.45-85.88,85.88,38.45,85.88,85.88,85.88,85.88-38.45,85.88-85.88Z"/>
      <path class="cls-1" d="m234.63,119.88s-47.02,26.78-47.02,85.88,47.02,85.88,47.02,85.88"/>
      <path class="cls-1" d="m234.63,119.88s47.02,26.78,47.02,85.88-47.02,85.88-47.02,85.88"/>
      <line class="cls-1" x1="234.63" y1="291.64" x2="234.63" y2="119.88"/>
      <line class="cls-1" x1="148.75" y1="205.76" x2="320.5" y2="205.76"/>
      <polyline class="cls-1" points="345.37 283.48 405.98 283.48 405.98 310.55"/>
      <path class="cls-1" d="m388.87,329.02c0,9.45,7.66,17.11,17.11,17.11s17.11-7.66,17.11-17.11-7.66-17.11-17.11-17.11-17.11,7.66-17.11,17.11Z"/>
      <polyline class="cls-1" points="345.37 128.03 405.98 128.03 405.98 100.97"/>
      <path class="cls-1" d="m388.87,82.5c0-9.45,7.66-17.11,17.11-17.11s17.11,7.66,17.11,17.11-7.66,17.11-17.11,17.11-17.11-7.66-17.11-17.11Z"/>
      <line class="cls-1" x1="345.37" y1="205.76" x2="427.53" y2="205.76"/>
      <path class="cls-1" d="m427.53,205.76c0,9.45,7.66,17.11,17.11,17.11s17.11-7.66,17.11-17.11-7.66-17.11-17.11-17.11-17.11,7.66-17.11,17.11Z"/>
      <polyline class="cls-1" points="123.88 283.48 63.27 283.48 63.27 310.55"/>
      <path class="cls-1" d="m80.38,329.02c0,9.45-7.66,17.11-17.11,17.11s-17.11-7.66-17.11-17.11,7.66-17.11,17.11-17.11,17.11,7.66,17.11,17.11Z"/>
      <polyline class="cls-1" points="123.88 128.03 63.27 128.03 63.27 100.97"/>
      <path class="cls-1" d="m80.38,82.5c0-9.45-7.66-17.11-17.11-17.11s-17.11,7.66-17.11,17.11,7.66,17.11,17.11,17.11,17.11-7.66,17.11-17.11Z"/>
      <line class="cls-1" x1="123.88" y1="205.76" x2="41.72" y2="205.76"/>
      <path class="cls-1" d="m41.72,205.76c0,9.45-7.66,17.11-17.11,17.11s-17.11-7.66-17.11-17.11,7.66-17.11,17.11-17.11,17.11,7.66,17.11,17.11Z"/>
    </g>
  </g>
</svg>