<?xml version="1.0" encoding="UTF-8"?>
<svg id="Layer_2" data-name="Layer 2" xmlns="http://www.w3.org/2000/svg" viewBox="0 0 381.5 408.85">
  <defs>
    <style>
      .cls-1 {
        fill: none;
        stroke: #f7931e;
        stroke-linecap: round;
        stroke-linejoin: round;
        stroke-width: 15px;
      }
    </style>
  </defs>
  <g id="Layer_1-2" data-name="Layer 1">
    <g>
      <g>
        <g>
          <polygon class="cls-1" points="327.56 206.12 317.11 180.88 322.45 165.49 314.6 157.64 306.74 149.79 291.36 155.13 266.11 144.67 259.01 130.02 247.91 130.02 236.8 130.02 229.7 144.67 204.45 155.13 189.07 149.79 181.22 157.64 173.36 165.49 178.7 180.88 168.25 206.12 153.59 213.23 153.59 224.33 153.59 235.43 168.25 242.54 178.7 267.78 173.36 283.17 181.22 291.02 189.07 298.87 204.45 293.53 229.7 303.99 236.8 318.65 247.91 318.65 259.01 318.65 266.11 303.99 291.36 293.53 306.74 298.87 314.6 291.02 322.45 283.17 317.11 267.78 327.56 242.54 342.22 235.43 342.22 224.33 342.22 213.23 327.56 206.12"/>
          <path class="cls-1" d="m289.71,224.33c0,23.09-18.72,41.81-41.81,41.81s-41.81-18.72-41.81-41.81,18.72-41.81,41.81-41.81,41.81,18.72,41.81,41.81Z"/>
        </g>
        <g>
          <rect class="cls-1" x="7.5" y="25.52" width="146.09" height="59.83"/>
          <g>
            <path class="cls-1" d="m105.08,55.43c0-2.01,1.63-3.64,3.64-3.64s3.64,1.63,3.64,3.64-1.63,3.64-3.64,3.64-3.64-1.63-3.64-3.64Z"/>
            <path class="cls-1" d="m76.91,55.43c0-2.01,1.63-3.64,3.64-3.64s3.64,1.63,3.64,3.64-1.63,3.64-3.64,3.64-3.64-1.63-3.64-3.64Z"/>
            <path class="cls-1" d="m48.74,55.43c0-2.01,1.63-3.64,3.64-3.64s3.64,1.63,3.64,3.64-1.63,3.64-3.64,3.64-3.64-1.63-3.64-3.64Z"/>
          </g>
        </g>
        <g>
          <path class="cls-1" d="m105.08,375.08c0-2.01,1.63-3.64,3.64-3.64s3.64,1.63,3.64,3.64-1.63,3.64-3.64,3.64-3.64-1.63-3.64-3.64Z"/>
          <path class="cls-1" d="m76.91,375.08c0-2.01,1.63-3.64,3.64-3.64s3.64,1.63,3.64,3.64-1.63,3.64-3.64,3.64-3.64-1.63-3.64-3.64Z"/>
          <path class="cls-1" d="m48.74,375.08c0-2.01,1.63-3.64,3.64-3.64s3.64,1.63,3.64,3.64-1.63,3.64-3.64,3.64-3.64-1.63-3.64-3.64Z"/>
        </g>
        <polyline class="cls-1" points="153.59 375.08 195.12 375.08 249.02 375.08 249.02 353.99"/>
        <line class="cls-1" x1="52.37" y1="341.52" x2="52.37" y2="85.35"/>
        <line class="cls-1" x1="234.47" y1="55.43" x2="213.56" y2="76.34"/>
        <line class="cls-1" x1="153.59" y1="55.43" x2="234.47" y2="55.43"/>
        <line class="cls-1" x1="234.47" y1="55.43" x2="213.56" y2="34.52"/>
        <g>
          <circle class="cls-1" cx="322.43" cy="59.07" r="51.57" transform="translate(-1.37 8.07) rotate(-1.43)"/>
          <polyline class="cls-1" points="347.51 43.59 318.26 76.99 297.35 56.08"/>
        </g>
      </g>
      <rect class="cls-1" x="7.5" y="341.52" width="146.09" height="59.83"/>
    </g>
  </g>
</svg>