<?xml version="1.0" encoding="UTF-8"?>
<svg id="Layer_2" data-name="Layer 2" xmlns="http://www.w3.org/2000/svg" viewBox="0 0 418.32 457.65">
  <defs>
    <style>
      .cls-1 {
        fill: none;
        stroke: #d9e021;
        stroke-linecap: round;
        stroke-linejoin: round;
        stroke-width: 15px;
      }
    </style>
  </defs>
  <g id="Layer_1-2" data-name="Layer 1">
    <g>
      <path class="cls-1" d="m266.31,359.96c0,8.04-25.54,14.57-57.04,14.57s-57.04-6.52-57.04-14.57,25.54-14.56,57.04-14.56,57.04,6.52,57.04,14.56Z"/>
      <path class="cls-1" d="m266.31,395.81c0,8.04-25.54,14.57-57.04,14.57s-57.04-6.52-57.04-14.57"/>
      <path class="cls-1" d="m266.31,359.96v75.63c0,8.04-25.54,14.56-57.04,14.56s-57.04-6.52-57.04-14.56v-75.63"/>
      <path class="cls-1" d="m243.7,212.88c0-19.01-15.42-34.43-34.43-34.43s-34.43,15.42-34.43,34.43,15.42,34.43,34.43,34.43,34.43-15.42,34.43-34.43Z"/>
      <path class="cls-1" d="m293.53,223.42v-21.09c0-3.13-2.54-5.67-5.67-5.67h-12.91c-1.71-6.94-4.48-13.46-8.15-19.37l9.07-9.07c2.22-2.21,2.22-5.8,0-8.02l-14.91-14.91c-2.21-2.21-5.81-2.21-8.02,0l-9.32,9.32c-5.58-3.3-11.67-5.81-18.13-7.4v-13.21c0-3.13-2.54-5.67-5.67-5.67h-21.09c-3.13,0-5.67,2.54-5.67,5.67v13.21c-6.5,1.6-12.62,4.13-18.23,7.46l-9.37-9.37c-2.21-2.21-5.8-2.21-8.02,0l-14.91,14.91c-2.21,2.21-2.21,5.8,0,8.02l9.16,9.16c-3.7,5.99-6.48,12.59-8.17,19.63l-13.33-.24c-3.17-.06-5.77,2.5-5.77,5.67v20.99c0,3.13,2.54,5.67,5.67,5.67h13.43s4.41,13.15,8.05,19.09l-9.55,9.36c-2.25,2.21-2.27,5.83-.04,8.06l14.87,14.87c2.21,2.21,5.8,2.21,8.02,0l9.5-9.5s11.87,5.9,18.7,7.58v13.11c0,3.13,2.54,5.67,5.67,5.67h21.09c3.13,0,5.67-2.54,5.67-5.67v-13.11c6.91-1.7,13.39-4.45,19.28-8.09l9.09,9.09c2.21,2.21,5.8,2.21,8.02,0l14.91-14.91c2.21-2.21,2.21-5.81,0-8.02l-9.3-9.3c3.32-5.61,5.86-11.73,7.46-18.23h12.91c3.13,0,5.67-2.54,5.67-5.67Z"/>
      <path class="cls-1" d="m41.04,104.58v-26.57c0-15.11,12.25-27.35,27.35-27.35h20.13"/>
      <path class="cls-1" d="m117.31,384.26h-48.92c-15.11,0-27.35-12.25-27.35-27.35v-38.92"/>
      <path class="cls-1" d="m374.64,317.98v38.93c0,15.11-12.24,27.35-27.35,27.35h-48.15"/>
      <path class="cls-1" d="m326.1,50.65h21.18c15.11,0,27.35,12.25,27.35,27.35v26.57"/>
      <rect class="cls-1" x="7.5" y="137.14" width="72.37" height="148.27"/>
      <rect class="cls-1" x="338.45" y="137.14" width="72.37" height="148.27" rx="16.76" ry="16.76"/>
      <polygon class="cls-1" points="124.41 50.65 209.27 93.8 293.53 50.65 209.27 7.5 124.41 50.65"/>
    </g>
  </g>
</svg>