<?xml version="1.0" encoding="UTF-8"?>
<svg id="Layer_2" data-name="Layer 2" xmlns="http://www.w3.org/2000/svg" viewBox="0 0 456.25 407.22">
  <defs>
    <style>
      .cls-1 {
        fill: none;
        stroke: #3fa9f5;
        stroke-linecap: round;
        stroke-linejoin: round;
        stroke-width: 15px;
      }
    </style>
  </defs>
  <g id="Layer_1-2" data-name="Layer 1">
    <g>
      <path class="cls-1" d="m103.74,177.07v34.46c0,4.61,3.74,8.34,8.35,8.34h19.3c2.5,10.17,6.56,19.71,11.91,28.38l-13.38,13.38c-3.26,3.26-3.26,8.54,0,11.8l21.95,21.95c3.26,3.26,8.54,3.26,11.8,0l13.69-13.69c8.25,4.89,17.26,8.62,26.82,10.98v19.01c0,4.61,3.74,8.35,8.35,8.35h31.04c4.61,0,8.35-3.74,8.35-8.35v-19.01c10.22-2.51,19.81-6.6,28.51-12l13.35,13.35c3.26,3.26,8.55,3.26,11.8,0l21.95-21.95c3.26-3.26,3.26-8.55,0-11.8l-13.71-13.71c4.85-8.21,8.56-17.18,10.9-26.69h19.44c4.61,0,8.35-3.74,8.35-8.34v-34.46l-43.39-.5c0,44.73-36.26,81-81,81s-81-36.26-81-81l-43.39.5Z"/>
      <path class="cls-1" d="m427.56,345.7v-210.14c0-11.99-9.72-21.71-21.71-21.71h-8.41"/>
      <path class="cls-1" d="m273.41,345.7v22.44h-90.58v-22.44H7.5c0,29.83,24.18,54.02,54.01,54.02h333.22c29.83,0,54.01-24.18,54.01-54.02h-175.34Z"/>
      <path class="cls-1" d="m58.4,113.86h-8c-11.99,0-21.71,9.72-21.71,21.71v210.14"/>
      <line class="cls-1" x1="228.13" y1="223.56" x2="228.13" y2="37.93"/>
      <polyline class="cls-1" points="294.51 159.36 294.51 113.26 327.16 113.26"/>
      <path class="cls-1" d="m342.38,128.48c8.4,0,15.22-6.81,15.22-15.22s-6.81-15.22-15.22-15.22-15.22,6.81-15.22,15.22,6.81,15.22,15.22,15.22Z"/>
      <polyline class="cls-1" points="161.75 159.36 161.75 113.26 129.09 113.26"/>
      <path class="cls-1" d="m113.87,128.48c-8.4,0-15.22-6.81-15.22-15.22s6.81-15.22,15.22-15.22,15.22,6.81,15.22,15.22-6.81,15.22-15.22,15.22Z"/>
      <polyline class="cls-1" points="196.1 188.22 196.1 62.24 172.03 62.24"/>
      <path class="cls-1" d="m155.59,77.46c-8.4,0-15.22-6.81-15.22-15.22s6.81-15.22,15.22-15.22,15.22,6.81,15.22,15.22-6.81,15.22-15.22,15.22Z"/>
      <path class="cls-1" d="m228.13,37.94c8.4,0,15.22-6.81,15.22-15.22s-6.81-15.22-15.22-15.22-15.22,6.81-15.22,15.22,6.81,15.22,15.22,15.22Z"/>
      <polyline class="cls-1" points="260.15 188.22 260.15 62.24 284.23 62.24"/>
      <path class="cls-1" d="m300.66,77.46c8.4,0,15.22-6.81,15.22-15.22s-6.81-15.22-15.22-15.22-15.22,6.81-15.22,15.22,6.81,15.22,15.22,15.22Z"/>
    </g>
  </g>
</svg>