<?xml version="1.0" encoding="UTF-8"?>
<svg id="Layer_2" data-name="Layer 2" xmlns="http://www.w3.org/2000/svg" viewBox="0 0 418.15 358.04">
  <defs>
    <style>
      .cls-1 {
        fill: none;
        stroke: #009245;
        stroke-linecap: round;
        stroke-linejoin: round;
        stroke-width: 15px;
      }
    </style>
  </defs>
  <g id="Layer_1-2" data-name="Layer 1">
    <g>
      <circle class="cls-1" cx="209.07" cy="179.02" r="133.18" transform="translate(16.22 375.4) rotate(-86.09)"/>
      <g>
        <rect class="cls-1" x="142.53" y="151.51" width="131.89" height="109.66" rx="48.68" ry="48.68"/>
        <line class="cls-1" x1="208.47" y1="206.34" x2="208.47" y2="224.99"/>
      </g>
      <path class="cls-1" d="m168.14,153.47v-17.56c0-22.28,18.06-40.34,40.33-40.34h0c22.28,0,40.33,18.06,40.33,40.34v17.56"/>
      <circle class="cls-1" cx="36.1" cy="32.05" r="24.55"/>
      <circle class="cls-1" cx="382.05" cy="32.05" r="24.55"/>
      <circle class="cls-1" cx="36.1" cy="325.99" r="24.55"/>
      <circle class="cls-1" cx="382.05" cy="325.99" r="24.55"/>
      <line class="cls-1" x1="54.79" y1="47.93" x2="107.6" y2="92.8"/>
      <line class="cls-1" x1="363.35" y1="47.93" x2="310.54" y2="92.8"/>
      <line class="cls-1" x1="54.79" y1="310.1" x2="107.6" y2="265.23"/>
      <line class="cls-1" x1="363.35" y1="310.1" x2="310.55" y2="265.24"/>
      <g>
        <path class="cls-1" d="m28.28,265.25c-13.28-25.85-20.78-55.17-20.78-86.23s7.49-60.38,20.78-86.23"/>
        <polyline class="cls-1" points="33.03 112.9 28.68 90.49 9.79 103.06"/>
        <polyline class="cls-1" points="33.03 245.13 28.68 267.54 9.79 254.98"/>
      </g>
      <g>
        <path class="cls-1" d="m389.87,265.25c13.28-25.85,20.78-55.17,20.78-86.23s-7.5-60.38-20.78-86.23"/>
        <polyline class="cls-1" points="385.12 112.9 389.47 90.49 408.35 103.06"/>
        <polyline class="cls-1" points="385.12 245.13 389.47 267.54 408.35 254.98"/>
      </g>
    </g>
  </g>
</svg>