<?xml version="1.0" encoding="UTF-8"?>
<svg id="Layer_2" data-name="Layer 2" xmlns="http://www.w3.org/2000/svg" viewBox="0 0 415.39 422.4">
  <defs>
    <style>
      .cls-1 {
        fill: none;
        stroke: #662d91;
        stroke-linecap: round;
        stroke-linejoin: round;
        stroke-width: 15px;
      }
    </style>
  </defs>
  <g id="Layer_1-2" data-name="Layer 1">
    <g>
      <path class="cls-1" d="m215.24,358.72h-117.29c-30.29,0-54.84-24.55-54.84-54.84v-64.33c0-61.99,50.26-112.25,112.25-112.25h2.47c61.99,0,112.25,50.26,112.25,112.25v64.33c0,30.29-24.55,54.84-54.84,54.84Z"/>
      <path class="cls-1" d="m44.36,217.3h-13.44c-12.94,0-23.42,10.49-23.42,23.42v50.44c0,12.94,10.49,23.42,23.42,23.42h12.15"/>
      <path class="cls-1" d="m270.08,217.3h14.62c12.94,0,23.42,10.49,23.42,23.42v50.44c0,12.94-10.49,23.42-23.42,23.42h-13.34"/>
      <path class="cls-1" d="m115.17,202.58h85.28c19.25,0,34.87,15.63,34.87,34.87v8.14c0,19.25-15.63,34.87-34.87,34.87h-85.28c-19.25,0-34.88-15.63-34.88-34.88v-8.13c0-19.25,15.63-34.87,34.87-34.87Z"/>
      <line class="cls-1" x1="114.42" y1="241.52" x2="144.09" y2="241.52"/>
      <line class="cls-1" x1="171.53" y1="241.52" x2="201.2" y2="241.52"/>
      <path class="cls-1" d="m250.32,29.91v69.41c0,12.38,10.03,22.41,22.41,22.41h14.25v32.3c0,5.6,6.61,8.57,10.8,4.85l41.87-37.15h45.83c12.38,0,22.41-10.03,22.41-22.41V29.91c0-12.38-10.03-22.41-22.41-22.41h-112.75c-12.38,0-22.41,10.03-22.41,22.41Z"/>
      <line class="cls-1" x1="290.69" y1="46.81" x2="335.19" y2="46.81"/>
      <line class="cls-1" x1="290.69" y1="82.23" x2="367.89" y2="82.23"/>
      <path class="cls-1" d="m284.7,314.59v29.67c0,31.96-25.9,57.86-57.86,57.86h-13.45"/>
      <rect class="cls-1" x="169.61" y="389.33" width="39.58" height="25.57" rx="10.45" ry="10.45"/>
    </g>
  </g>
</svg>